<svg width="123" height="142" viewBox="0 0 123 142" fill="none" xmlns="http://www.w3.org/2000/svg">
<g clip-path="url(#clip0_76_366)">
<path d="M57.1138 86.2533C57.1472 86.1033 57.0773 85.9948 56.9769 85.8965C56.4782 85.4109 56.5674 84.9 56.8654 84.3404C57.9744 82.2582 59.048 80.1567 60.1661 78.0796C61.8033 75.0384 63.4435 71.9992 65.0341 68.9326C66.0265 67.0197 67.091 65.1443 68.4382 63.4503C68.8143 62.9769 69.1985 62.5035 69.751 62.2126C69.9821 62.1254 70.1362 62.2876 70.3005 62.393C72.1029 63.5497 74.103 64.1235 76.2116 64.3212C79.5092 64.6314 82.7796 64.3769 86.0235 63.7322C86.2881 63.6795 86.5517 63.6186 86.8193 63.5842C87.1173 63.5548 87.2836 63.7372 87.4215 63.9633C88.9248 66.4307 90.3734 68.9245 91.2057 71.7204C91.6153 73.0961 91.963 74.4849 92.1921 75.9031C92.4658 77.373 92.6432 78.8551 92.8064 80.3402C93.0041 82.1406 93.0893 83.9501 93.2758 85.7525C93.3305 86.2837 93.4248 86.818 93.4045 87.3583C93.4694 88.1216 93.5404 88.885 93.6488 89.6433C93.6874 89.9109 93.7168 90.1724 93.6823 90.4391C93.6052 90.7442 93.3396 90.8466 93.0963 90.952C91.3608 91.7052 89.6091 92.4158 87.8026 92.9815C87.1619 93.1822 86.5628 93.5299 85.8694 93.5502C85.2216 93.5968 84.6387 93.8766 84.0305 94.0632C83.181 94.3237 83.0776 94.347 82.7643 93.5593C82.2595 92.2891 81.8398 90.9915 81.4414 89.6869C80.6872 87.2225 79.9837 84.7439 79.3531 82.245C79.2406 81.8 79.1676 81.3286 78.8767 80.8643C78.4215 81.8405 78.018 82.7772 77.6146 83.7089C77.0905 84.9152 76.5218 86.0962 75.8983 87.2508C74.8258 89.2368 73.6569 91.1639 72.3148 92.9825C71.818 93.6546 71.7866 93.685 71.0253 93.4245C69.894 93.0362 68.7717 92.6206 67.6435 92.2232C67.4083 92.1411 67.1792 92.0144 66.9146 92.0539C65.985 91.7904 65.1355 91.3332 64.2637 90.9337C62.3254 90.0457 60.454 89.031 58.7358 87.7648C58.1458 87.3299 57.5497 86.8697 57.1158 86.2523L57.1138 86.2533Z" fill="#1E9DF1"/>
<path d="M92.8549 30.3042C94.7131 30.9651 96.6017 31.5501 98.3362 32.5172C100.025 33.4589 101.554 34.5994 102.432 36.3765C103.65 38.8419 103.59 41.3519 102.305 43.7595C101.542 45.1889 100.231 46.0374 98.6474 46.4185C98.4244 46.4723 98.2409 46.5361 98.096 46.7287C96.6159 48.7035 94.9503 50.512 93.1469 52.1948C92.3308 53.1954 91.2451 53.8411 90.1452 54.4666C89.1305 55.0444 88.0468 55.3729 86.8719 55.38C86.5535 55.382 86.2849 55.2847 86.0244 55.1063C83.6279 53.463 81.791 51.322 80.3617 48.8069C80.0119 48.1905 79.7118 47.5489 79.354 46.9386C79.426 46.7632 79.207 46.6953 79.205 46.5473C79.0184 45.9198 78.6809 45.3541 78.471 44.7368C78.4376 44.5695 78.3139 44.4336 78.2977 44.2593C78.0696 43.2597 77.6955 42.2987 77.5141 41.287C77.4755 41.0741 77.3863 40.8633 77.511 40.6494C77.6094 40.546 77.7422 40.5115 77.8739 40.4872C79.6105 40.1658 81.2284 39.5099 82.8027 38.7354C82.8636 38.705 82.9294 38.6908 82.9974 38.6878C83.2447 38.7547 83.3664 38.9676 83.5245 39.1399C84.2757 39.9631 85.0299 40.7832 85.9169 41.4664C86.0507 41.5698 86.1886 41.6672 86.3376 41.7483C86.7158 41.953 86.805 41.9216 86.8779 41.5029C86.9793 40.921 87.0635 40.3422 87.3057 39.7907C87.7295 38.8246 88.4148 38.1404 89.4021 37.7876C89.8127 37.6406 90.0215 37.4095 90.126 36.9817C90.5923 35.0799 91.0961 33.1873 91.8787 31.3828C92.0064 31.0878 92.1342 30.7948 92.3085 30.5232C92.4413 30.3164 92.6015 30.1988 92.8559 30.3032L92.8549 30.3042Z" fill="#FBB2C3"/>
<path d="M43.0219 31.2552C45.6292 31.8239 48.2152 32.4737 50.6989 33.4581C52.1708 34.042 53.5363 34.8155 54.3869 36.2408C54.5906 36.5824 54.7265 36.3026 54.8461 36.1982C55.7655 35.3953 56.758 34.6999 57.8386 34.1322C60.005 32.9938 62.294 32.27 64.7564 32.2487C65.4528 32.2426 65.7904 32.0338 66.0296 31.3606C66.4797 30.0965 67.1751 28.9591 68.1939 28.0467C68.7849 27.5176 69.4489 27.1415 70.2305 26.9854C70.3015 27.2276 70.1038 27.3523 69.9903 27.5044C68.934 28.9338 68.8894 30.7666 69.8514 32.276C70.1393 32.7282 70.5417 33.1002 70.7627 33.598C70.7202 34.0572 70.7678 34.5296 70.5742 34.9675C70.5164 35.0081 70.4454 35.0324 70.3867 34.9959C69.3151 34.341 68.3095 33.6294 68.0236 32.2923C68.344 33.6466 68.9715 34.8286 70.0268 35.7663C70.2021 35.9225 70.3907 36.0674 70.4617 36.3087C70.5306 37.2981 70.562 38.2905 70.7577 39.2668C70.781 39.3833 70.7688 39.502 70.6979 39.6054C70.1241 40.099 69.4033 40.2278 68.7018 40.3839C66.056 40.9729 63.4314 40.905 60.8423 40.0646C60.7785 40.0382 60.8251 40.1457 60.8281 40.0778C60.8281 40.0676 60.8443 40.0676 60.8737 40.0778C62.6346 40.6738 64.4532 40.8624 66.2942 40.7418C67.533 40.6607 68.7697 40.4883 69.9436 40.0352C70.193 39.9389 70.4627 39.875 70.6472 39.654C70.7486 39.6064 70.8185 39.6692 70.8408 39.7463C71.0537 40.4762 71.4815 41.1452 71.4602 41.941C71.4531 42.1965 71.4369 42.4469 71.1571 42.5705C68.1737 43.7982 65.023 44.0769 61.8469 44.2179C59.4525 44.3243 57.0591 44.2685 54.6677 44.1347C54.6007 44.1307 54.5298 44.1236 54.4659 44.1378C52.2813 44.6446 50.3299 43.8955 48.4403 42.9578C45.9678 41.7301 43.7588 40.097 41.6452 38.3341C40.9488 37.7522 40.2219 37.2008 39.6238 36.5084C39.5873 36.3371 39.7211 36.2651 39.8266 36.1962C41.4242 35.148 42.2281 33.5787 42.735 31.8077C42.7928 31.607 42.7857 31.3637 43.0229 31.2532L43.0219 31.2552Z" fill="#FBB2C3"/>
<path d="M70.4716 34.9825C70.5324 34.5061 70.5943 34.0296 70.6551 33.5532C70.8011 33.4883 70.9217 33.5592 71.0271 33.6403C72.6065 34.8659 74.2052 36.0652 75.7866 37.2878C76.3381 38.3431 76.8571 39.4156 77.5008 40.4202C77.5465 40.4912 77.5718 40.5712 77.5657 40.6584C77.6833 41.7604 78.0432 42.8035 78.3443 43.8608C78.3889 44.018 78.5065 44.1609 78.4071 44.3352C78.1567 44.3778 78.0097 44.1822 77.8415 44.0656C76.7223 43.2941 75.5494 42.619 74.3228 42.0381C75.7096 42.6879 77.0122 43.4807 78.2601 44.3677C78.3848 44.4569 78.4892 44.5644 78.5561 44.7053C78.84 45.3064 79.1624 45.8913 79.2931 46.5533C78.8207 46.6222 78.4294 46.3435 77.9966 46.2441C76.6382 45.9339 75.299 45.8721 73.9822 46.4164C75.7258 45.7372 77.4319 45.9643 79.1198 46.6304C79.2333 46.675 79.3317 46.7337 79.3844 46.8503C79.8821 47.4525 80.1437 48.1915 80.535 48.8555C81.867 51.1192 83.5285 53.0696 85.6249 54.6774C86.4613 55.3191 87.2773 55.3171 88.1816 55.1021C89.8857 54.6987 91.2674 53.7123 92.5923 52.6286C92.7748 52.4796 92.9624 52.3387 93.1479 52.1947C92.8498 54.3287 92.3653 56.4322 92.1362 58.5772C92.0966 58.9452 92.0774 59.3456 91.6526 59.5545C91.4326 59.6629 91.4316 59.9062 91.4326 60.1333C91.4326 60.9068 91.4235 61.6813 91.4174 62.4548C91.3505 62.471 91.3008 62.4487 91.2674 62.3889C91.0961 61.7756 91.2116 61.1491 91.1853 60.5287C91.162 59.965 91.1599 59.9549 90.6024 60.0877C89.7295 60.2965 88.8375 60.3898 87.9484 60.4395C87.1415 60.4851 86.3356 60.555 85.5266 60.5702C83.1007 60.6159 80.683 60.7659 78.2622 60.9281C75.6538 61.1035 73.0759 60.7841 70.647 59.7025C70.4858 59.6305 70.3317 59.597 70.1614 59.6072C70.1553 59.3973 70.0894 59.2068 69.9495 59.0517C69.467 58.5194 69.5329 57.9031 69.5907 57.2482C69.7072 55.9101 70.0063 54.6024 70.1624 53.2713C70.3489 51.6757 70.6226 50.0912 70.8254 48.4977C70.9673 47.3876 71.0393 46.2695 71.1711 45.1584C71.2542 44.4539 71.2775 43.7513 71.2684 43.0448C71.2664 42.8816 71.315 42.7021 71.1599 42.5724C71.4742 42.103 71.3576 41.5789 71.2055 41.1308C71.0373 40.6341 70.8447 40.1394 70.6652 39.6427L70.6612 39.6356C70.4432 38.5002 70.3398 37.3536 70.357 36.198C70.1948 35.7732 70.2374 35.3688 70.4757 34.9835L70.4716 34.9825Z" fill="#1D204F"/>
<path d="M57.1137 86.2534C57.4949 86.4146 57.7493 86.7471 58.0413 87.0087C59.8407 88.6225 61.9847 89.6575 64.1126 90.7281C65.0361 91.1923 66.0316 91.5025 66.9125 92.055C66.4006 92.6805 65.9089 93.3242 65.3726 93.9274C64.4268 94.9898 64.2048 96.2397 64.3173 97.6022C64.5373 100.275 64.7674 102.949 64.4887 105.633C64.2808 107.63 63.5439 109.456 62.6771 111.236C61.6289 113.388 60.4418 115.465 59.2365 117.533C58.4701 117.432 57.7179 117.252 56.9627 117.09C56.0594 116.896 55.1481 116.73 54.253 116.496C54.0958 116.453 53.9387 116.409 53.7745 116.406C53.1804 116.278 52.5529 116.271 52.0217 115.92C52.3137 114.192 52.6087 112.464 52.8956 110.734C53.5302 106.907 54.1597 103.08 54.7933 99.2536C54.8186 99.1025 54.8369 98.9545 54.7913 98.8035C54.0705 96.3847 54.7314 94.2396 56.1253 92.2598C56.4072 91.8594 56.5126 91.4742 56.4893 90.9967C56.4112 89.3818 56.6211 87.7984 57.1127 86.2554L57.1137 86.2534Z" fill="#FBB2C3"/>
<path d="M85.8682 93.5512C86.4916 93.321 87.109 93.0727 87.7396 92.8649C89.6636 92.2293 91.5553 91.5156 93.3911 90.6559C93.4631 90.6225 93.5189 90.5546 93.5827 90.5018C93.6436 90.4471 93.7074 90.3964 93.7774 90.3549C94.1322 90.1014 94.5468 89.9483 94.8925 89.6726C95.2077 89.4212 95.3629 89.1313 95.3547 88.7237C95.3405 88.0354 95.3416 87.3471 95.3568 86.6588C95.3608 86.4641 95.3264 86.2158 95.5656 86.1397C95.7876 86.0698 95.9397 86.2594 96.0694 86.4074C96.2641 86.6304 96.5013 86.8443 96.4131 87.195C96.6351 89.1363 96.7436 91.0979 97.4917 92.9429C97.8526 93.834 98.4314 94.5233 99.2343 95.0515C101.098 96.2791 102.896 97.5909 104.387 99.2727C105.732 100.79 106.561 102.519 106.752 104.58C106.97 106.933 107.444 109.25 108.234 111.49C108.196 111.662 108.093 111.792 107.971 111.913C107.107 112.766 106.266 113.64 105.389 114.48C105.28 114.562 105.22 114.682 105.14 114.788C104.711 115.089 104.437 115.567 103.965 115.823C100.529 111.428 97.148 106.989 93.5939 102.687C93.1205 102.114 92.5984 101.669 91.8827 101.345C89.9728 100.48 88.9479 98.9118 89.0128 96.8063C89.0422 95.8473 88.8476 95.3232 87.8774 95.0393C87.0644 94.8011 86.447 94.1716 85.8672 93.5512H85.8682Z" fill="#FBB2C3"/>
<path d="M84.1734 22.2612C84.514 22.9881 84.8597 23.7129 85.1942 24.4438C85.4811 25.0703 85.7751 25.6958 86.0224 26.3385C86.1248 26.603 86.2901 26.7581 86.5181 26.8686C87.7154 27.4455 88.8558 28.1216 89.9861 28.815C90.1929 29.1506 89.8908 29.3533 89.7449 29.5479C88.8416 30.7482 87.8816 31.8947 86.7118 32.8588C85.696 33.6951 84.6174 34.3987 83.3289 34.7139C82.8839 34.8234 82.4216 35.0282 81.9533 34.7646C81.8185 34.6653 81.7384 34.5274 81.6694 34.3804C81.4667 33.684 81.2802 32.9825 81.0582 32.2901C80.9102 31.8289 81.0115 31.692 81.4839 31.5724C82.2148 31.3879 82.9528 31.4193 83.6969 31.4781C84.9215 31.5744 86.1512 31.7498 87.3089 31.4031C86.1948 31.6981 85.0087 31.5774 83.8267 31.4852C82.964 31.4173 82.1054 31.3595 81.27 31.6322C80.9517 31.7366 80.8078 31.5785 80.7287 31.3443C80.4296 30.4623 80.0333 29.622 79.6663 28.7694C79.5122 28.4126 79.647 28.1784 79.9654 28.0284C80.3323 27.855 80.6719 27.6279 81.0369 27.4556C81.8235 27.0825 82.23 26.4449 82.4156 25.6299C82.4855 25.3207 82.596 25.0196 82.597 24.6861C82.6102 25.7779 81.9938 26.4307 81.0997 26.9041C80.6223 27.1576 80.1387 27.3988 79.6572 27.6441C79.3287 27.8114 79.0794 27.7374 78.8685 27.4455C78.7104 27.2265 78.5289 27.0237 78.3707 26.8058C77.432 25.5052 76.1213 25.1828 74.6118 25.3389C74.2205 25.3795 73.8221 25.5315 73.4257 25.347C72.6675 25.0561 72.4242 24.4955 72.561 23.724C72.5874 23.5781 72.557 23.4219 72.5651 23.2719C72.5985 22.6464 72.5053 22.0818 72.1525 21.5181C71.4936 20.4639 71.6142 19.2646 71.7075 18.0887C72.2924 17.8221 72.9675 17.8819 73.5454 17.5828C73.7086 17.4987 73.8941 17.4581 74.0583 17.3709C75.587 16.5681 76.9586 17.0415 78.2795 17.8951C78.5654 18.0796 78.6698 18.3938 78.757 18.706C78.8523 19.0497 78.9749 19.3802 79.2121 19.6549C79.2882 19.7431 79.3723 19.8566 79.5001 19.8323C79.6491 19.8039 79.6166 19.6468 79.6399 19.5393C79.7393 19.0831 79.941 18.6837 80.2674 18.3482C80.5665 18.04 80.9132 17.8403 81.3521 17.9772C81.8053 18.1181 82.0841 18.4435 82.1946 18.9047C82.3659 19.6235 82.1317 20.253 81.6806 20.7842C81.2842 21.2525 81.1879 21.3782 81.8722 21.8283C82.5777 22.2916 83.3279 22.5238 84.1713 22.2663L84.1734 22.2612Z" fill="#FBB2C3"/>
<path d="M36.6899 34.4536C34.038 33.9001 31.4631 33.1367 29.095 31.7743C27.1527 30.6561 26.4968 29.3423 26.9834 27.1851C27.4072 25.3046 28.1786 23.56 29.5269 22.1397C30.7606 20.8391 32.2924 20.6252 33.8484 21.4706C34.8257 22.5442 34.9635 22.9811 34.9372 25.3239C34.9443 25.3908 35.0325 25.2863 34.9777 25.3239C34.9585 25.337 34.9473 25.3249 34.9433 25.2863C34.9098 24.9518 34.921 24.6153 34.9331 24.2817C34.9554 23.6664 34.8723 23.0784 34.6057 22.5158C34.478 22.2462 34.4952 22.238 34.7213 22.1032C35.5444 22.6821 36.1435 23.4789 36.7477 24.2584C37.9855 25.854 39.0763 27.55 40.0555 29.317C40.1812 29.4903 40.1397 29.6667 40.0647 29.8431C39.353 31.5401 38.3099 33.009 36.9991 34.2924C36.9119 34.3775 36.8075 34.4272 36.6899 34.4505V34.4536Z" fill="#1E9DF1"/>
<path d="M73.4278 25.343C74.1942 25.2416 74.9555 25.123 75.7361 25.1697C77.0671 25.2487 77.9835 25.9756 78.7236 27.0055C79.2274 27.706 79.2355 27.7081 79.9958 27.3208C80.4155 27.1069 80.821 26.8636 81.2407 26.6487C82.0243 26.2483 82.4632 25.6218 82.5403 24.7409C82.5514 24.6111 82.6143 24.4854 82.6528 24.3577C82.8535 25.4038 82.2291 26.8656 81.3532 27.405C80.9234 27.6695 80.5067 27.9544 80.0272 28.1318C79.7008 28.2524 79.6359 28.4359 79.8042 28.7907C80.1793 29.5794 80.5736 30.3651 80.8108 31.2125C80.895 31.5116 81.0095 31.6606 81.3846 31.5319C82.2301 31.243 83.108 31.3271 83.9869 31.3889C85.0939 31.467 86.208 31.54 87.3079 31.2734C87.4772 31.2328 87.6475 31.1396 87.9181 31.2308C87.3859 31.614 86.8152 31.6728 86.2708 31.7154C85.3291 31.7894 84.3893 31.6515 83.4506 31.5633C82.7775 31.5005 82.1034 31.5045 81.4373 31.6464C81.1575 31.7062 81.0359 31.839 81.1474 32.1503C81.4079 32.8791 81.6269 33.6222 81.7921 34.3795C81.7344 34.4474 81.6553 34.4818 81.5701 34.4829C80.087 34.5021 78.8685 35.2209 77.6693 35.9751C77.1594 36.2964 76.6525 36.63 76.1973 37.0334C76.0503 37.1632 75.8993 37.3132 75.6742 37.3051C74.0746 36.2052 72.5884 34.9542 71.0212 33.8118C70.8995 33.7236 70.7759 33.6374 70.6532 33.5502C70.1463 32.9471 69.6334 32.3429 69.3495 31.5947C68.7007 29.8815 69.0109 28.3427 70.2284 26.9812C71.1418 26.1388 72.2336 25.6431 73.4248 25.34L73.4278 25.343Z" fill="#1E9DF1"/>
<path d="M54.2133 116.384C55.8292 116.716 57.4441 117.05 59.06 117.379C59.1543 117.398 59.209 117.445 59.2364 117.532C58.5116 118.838 57.7888 120.145 57.1015 121.473C56.2205 123.175 56.0492 124.957 56.3219 126.816C56.4517 127.697 56.5693 128.58 56.6929 129.462C56.7396 130.531 56.8906 130.441 55.7056 130.598C53.671 130.867 51.6232 130.947 49.5725 131.037C46.7239 131.163 43.8783 131.089 41.0317 131.087C40.4154 131.087 39.7909 131.025 39.1695 130.997C39.0032 130.989 38.7752 131.042 38.7417 130.765C39.4158 130.319 40.1467 129.976 40.8604 129.603C41.0621 129.563 41.1686 129.7 41.2801 129.829C41.64 130.242 42.0576 130.293 42.5564 130.084C43.8479 129.543 45.1029 128.922 46.3832 128.356C47.2622 127.968 48.1259 127.544 48.9956 127.135C50.2324 126.552 51.1508 125.678 51.6009 124.333C52.3835 121.998 53.1074 119.645 53.8251 117.289C53.9204 116.978 53.9041 116.609 54.2123 116.385L54.2133 116.384Z" fill="#252B39"/>
<path d="M105.293 114.459C106.274 113.47 107.254 112.481 108.234 111.491C108.832 113.101 109.55 114.619 111.076 115.599C112.067 116.237 113.098 116.799 114.126 117.371C114.416 117.532 114.737 117.644 114.983 117.88C114.914 118.706 114.644 119.499 114.559 120.322C114.551 120.376 114.537 120.427 114.52 120.478C114.039 122.403 113.52 124.318 112.85 126.187C112.356 127.566 111.802 128.919 111.193 130.251C111.102 130.451 110.975 130.631 110.847 130.809C110.228 131.46 109.422 131.355 108.664 131.285C107.896 131.214 107.12 131.248 106.359 131.109C106.188 131.078 105.972 131.12 105.92 130.868L107.767 129.143C107.833 129.075 107.915 129.079 108 129.09C108.621 129.165 108.659 129.141 108.872 128.551C108.882 128.504 108.894 128.458 108.906 128.411C108.986 128.12 108.758 128.038 108.578 127.917C108.458 127.836 108.28 127.755 108.387 127.565C108.506 127.356 108.722 127.277 108.951 127.292C109.188 127.308 109.109 127.498 109.111 127.688C109.171 127.204 108.93 126.971 108.567 126.809C108.372 126.722 108.117 126.665 108.128 126.385C108.137 126.151 108.349 126.059 108.528 125.968C108.75 125.857 108.941 125.669 109.217 125.674C109.268 125.674 109.317 125.749 109.308 125.724C109.191 125.415 109.351 125.123 109.349 124.822C109.347 124.425 109.37 124.053 108.805 124.077C108.711 124.081 108.588 124.043 108.574 123.922C108.56 123.808 108.659 123.738 108.747 123.697C108.983 123.586 109.185 123.322 109.491 123.471C109.36 122.568 109.526 121.616 109.398 120.676C109.051 119.06 108.112 117.775 107.088 116.537C106.615 115.965 106.095 115.44 105.572 114.917C105.445 114.789 105.284 114.673 105.294 114.459H105.293Z" fill="#252B39"/>
<path d="M70.1595 59.6073C70.2457 59.5029 70.2244 59.3062 70.4961 59.439C73.0436 60.6768 75.7705 60.9455 78.539 60.7407C80.8483 60.5704 83.1576 60.4903 85.4689 60.4021C87.2055 60.3352 88.9471 60.3078 90.6512 59.9044C90.862 59.8547 91.0698 59.7868 91.377 59.6996V62.4823C91.2929 62.7043 91.082 62.7438 90.8934 62.8057C90.637 62.8898 90.3744 62.9516 90.1179 63.0348C89.3982 63.2689 89.3992 63.2649 89.8838 63.8792C90.8387 65.0896 91.598 66.4186 92.266 67.8024C92.3603 67.998 92.4597 68.1987 92.4141 68.4309C92.3836 68.5059 92.335 68.5556 92.2468 68.5505C91.7501 67.9088 91.4916 67.1333 91.0749 66.445C90.4981 65.4931 89.8594 64.5909 89.1711 63.718C88.9602 63.4514 88.7372 63.3916 88.424 63.4798C88.1351 63.5609 87.8451 63.6633 87.537 63.6531C87.3241 63.6896 87.1011 63.5457 86.8932 63.6856C85.4051 64.0657 83.8885 64.2776 82.3649 64.4317C79.5335 64.7166 76.7103 64.7561 73.9164 64.085C72.408 63.7231 71.0232 63.0966 69.752 62.2126C69.6922 61.3134 70.0257 60.4761 70.1605 59.6083L70.1595 59.6073Z" fill="#272B3A"/>
<path d="M84.1733 22.2612C84.1196 22.5197 83.8895 22.4832 83.7253 22.4934C82.7348 22.5512 81.9259 22.1609 81.2375 21.4654C81.052 21.2779 81.1676 21.1786 81.2882 21.0549C81.5751 20.7629 81.8052 20.4325 81.9796 20.0635C82.1357 19.733 82.1844 19.3842 82.1043 19.0274C81.9968 18.5499 81.7241 18.183 81.2446 18.0583C80.7601 17.9336 80.459 18.2691 80.1954 18.6098C79.9207 18.9646 79.7382 19.3751 79.7362 19.8212C79.7352 20.2023 79.5791 20.1212 79.3855 19.9925C78.9506 19.7026 78.7367 19.2565 78.6424 18.7699C78.541 18.2509 78.2318 17.9458 77.7929 17.7136C77.1279 17.3629 76.4375 17.1196 75.6772 17.0922C75.2119 17.075 74.7811 17.153 74.3604 17.37C73.5301 17.7967 72.6603 18.0998 71.7084 18.0836C71.4955 17.8028 71.2512 17.5392 71.0769 17.2361C70.6724 16.5316 70.8021 15.825 71.4793 15.3749C72.0146 15.0191 72.4809 14.5964 72.9695 14.1889C74.1292 13.2217 75.5343 12.8882 77.0001 12.7767C77.4543 12.7423 77.8557 12.6642 78.2815 12.4493C79.6156 11.7782 81.0318 11.7052 82.453 12.1594C82.8311 12.28 83.3806 12.358 83.1403 13.0231C83.118 13.0849 83.189 13.1792 83.2153 13.2593C83.7587 14.9573 84.0355 16.6908 83.9858 18.48C83.9503 19.7421 83.9331 21.0103 84.1754 22.2612H84.1733Z" fill="#252B39"/>
<path d="M87.4722 63.5619C87.6202 63.5356 87.7834 63.5386 87.9152 63.4778C88.7008 63.1139 89.1763 63.4241 89.6507 64.0901C90.6513 65.4961 91.5839 66.9326 92.2672 68.5221C92.4689 68.6225 92.5226 68.8202 92.5997 69.0087C93.1846 70.43 93.5739 71.9111 93.9348 73.4013C93.953 73.4509 93.9652 73.5026 93.9743 73.5543C93.9905 73.8453 94.0605 74.1271 94.1294 74.4089C94.3332 75.523 94.5734 76.629 94.7772 77.7431C94.9799 78.9241 95.2709 80.0848 95.574 81.2435C96.0808 83.2173 96.9172 85.0491 97.9522 86.7988C98.1276 87.0948 98.379 87.3756 98.3141 87.7669C98.1904 87.9027 98.0627 88.0274 97.8944 88.1177C97.3125 88.4319 97.3287 88.4289 96.9902 87.8703C96.8381 87.6189 96.6952 87.3432 96.4133 87.1962C96.2785 86.9478 96.1913 86.666 95.9592 86.4815C95.8365 86.3842 95.7595 86.152 95.5699 86.2341C95.4138 86.3021 95.4949 86.5068 95.4929 86.6488C95.4848 87.2864 95.428 87.9311 95.505 88.5586C95.6013 89.3433 95.1563 89.7254 94.5866 90.06C94.3139 90.2201 94.027 90.358 93.7462 90.506C93.511 90.206 93.5901 89.8258 93.5435 89.4953C93.4431 88.7898 93.3873 88.0751 93.3144 87.3634C93.288 86.375 93.1593 85.3948 93.0913 84.4094C93.0092 83.2233 92.917 82.0352 92.7984 80.8522C92.6321 79.2008 92.4436 77.5495 92.1364 75.9163C91.5099 72.1016 90.2103 68.5373 88.1605 65.2518C87.8838 64.8088 87.6243 64.3547 87.3546 63.9076C87.2563 63.7454 87.1782 63.5893 87.4742 63.564L87.4722 63.5619Z" fill="#1E9DF1"/>
<path d="M82.001 34.6824C82.7309 34.8588 83.4061 34.6074 84.0518 34.3499C86.0661 33.545 87.5573 32.066 88.8975 30.4237C89.305 29.925 89.7926 29.4647 89.9862 28.8149C90.9067 29.3806 91.8657 29.8702 92.8551 30.3041C92.5753 30.2565 92.4709 30.4501 92.3706 30.6528C91.5981 32.213 91.0709 33.8603 90.6249 35.537C90.5296 35.8939 90.4191 36.2507 90.3654 36.6146C90.2569 37.3476 89.9244 37.7622 89.1692 38.0511C87.8827 38.5417 87.314 39.6873 87.0859 41.0011C87.0424 41.2494 87.0008 41.4998 86.9907 41.7512C86.9765 42.1212 86.7828 42.1364 86.5213 42.0067C86.0509 41.7725 85.6373 41.4542 85.2491 41.1024C84.4492 40.3766 83.7193 39.5828 83.0036 38.7769C83.0584 37.5544 82.5495 36.4808 82.1115 35.387C82.0223 35.164 81.8165 34.9541 82 34.6845L82.001 34.6824Z" fill="#1D204F"/>
<path d="M92.3643 68.4004C91.6071 66.4966 90.496 64.8057 89.1995 63.1959C89.9425 62.9232 90.6968 62.8107 91.378 62.4812L91.4165 62.4539C91.9528 63.1645 92.5042 63.869 92.8895 64.675C93.7613 66.5017 94.3087 68.4329 94.4526 70.4472C94.5388 71.6464 94.8997 72.7544 95.2413 73.8797C95.8536 75.896 96.3686 77.9377 96.844 79.9895C97.3428 82.1386 97.8699 84.2806 98.3596 86.4328C98.4488 86.8261 98.6678 87.2296 98.464 87.6553C97.9875 87.1039 97.7138 86.4277 97.359 85.8043C96.5328 84.3526 95.9053 82.8117 95.4938 81.1867C95.1825 80.026 94.9048 78.8581 94.6949 77.6741C94.4831 76.5904 94.2864 75.5037 94.0532 74.4251C93.9843 74.1138 93.9529 73.7955 93.8667 73.4884L93.8708 73.4975C93.5342 72.0124 93.1601 70.5374 92.5874 69.1212C92.4931 68.8891 92.4008 68.6518 92.3643 68.3994V68.4004Z" fill="#1E9DF1"/>
<path d="M36.6899 34.4534C38.0281 33.1041 39.1969 31.6352 39.9268 29.8561C39.9988 29.6808 40.0454 29.5054 40.0555 29.3188C41.1869 29.7446 42.0779 30.5404 43.0217 31.2551C42.7734 32.2151 42.4723 33.1528 41.9877 34.0266C41.4129 35.0627 40.609 35.8716 39.6237 36.5113C38.5988 35.8919 37.5638 35.2877 36.6899 34.4544V34.4534Z" fill="#262B39"/>
<path d="M54.2133 116.384C53.4398 119.051 52.6106 121.701 51.7347 124.337C51.2816 125.701 50.3855 126.614 49.1355 127.206C47.1729 128.136 45.1769 128.992 43.2244 129.943C42.3121 130.387 41.5284 130.562 40.8594 129.604C40.9537 129.555 41.0479 129.505 41.1422 129.457C41.2841 129.507 41.3642 129.651 41.5142 129.705C41.5284 129.564 41.4321 129.445 41.4625 129.31C41.5629 129.257 41.6633 129.204 41.7636 129.152C41.9573 129.236 41.9968 129.425 42.0688 129.595C42.1245 129.726 42.161 129.898 42.4205 129.808C42.2573 129.544 41.9329 129.421 41.865 129.112C42.1418 128.906 42.4449 128.75 42.7733 128.642C42.9416 128.787 42.9335 129.005 43.0004 129.191C43.049 129.329 43.0572 129.51 43.2721 129.49C43.3734 129.481 43.486 129.44 43.5133 129.335C43.565 129.146 43.3876 129.081 43.2802 128.985C43.1301 128.852 42.9254 128.789 42.7956 128.625C42.9244 128.505 43.0855 128.458 43.2538 128.429C43.4262 128.412 43.5377 128.564 43.6989 128.596C43.6918 128.456 43.6238 128.341 43.6117 128.213C43.7364 128.155 43.861 128.097 43.9847 128.04C44.1865 128.182 44.1814 128.414 44.2341 128.62C44.2665 128.746 44.2716 128.897 44.445 128.924C44.5321 128.937 44.6153 128.903 44.667 128.833C44.7815 128.676 44.6254 128.597 44.5585 128.492C44.447 128.315 44.2422 128.181 44.3061 127.927C44.4835 127.696 44.7633 127.643 45.0076 127.529C45.2468 127.686 45.2235 127.967 45.3198 128.191C45.3735 128.315 45.4212 128.457 45.5935 128.424C45.7567 128.392 45.9483 128.346 46.0061 128.18C46.0598 128.027 45.8672 127.979 45.778 127.89C45.6179 127.73 45.3563 127.664 45.3218 127.391C45.4415 127.329 45.5611 127.268 45.6807 127.206C45.7689 127.178 46.0092 127.425 45.9199 127.074C46.0294 127.023 46.1379 126.971 46.2474 126.92C46.513 127.072 46.4968 127.374 46.6103 127.606C46.6721 127.731 46.738 127.843 46.9043 127.819C46.9732 127.808 47.0401 127.779 47.0553 127.709C47.0878 127.562 46.9519 127.517 46.8718 127.442C46.6772 127.264 46.4582 127.109 46.3194 126.877C46.4238 126.756 46.5698 126.729 46.7147 126.699C46.8982 126.699 46.9834 126.896 47.1587 126.923C47.1932 126.757 47.0675 126.637 47.0543 126.489C47.1526 126.364 47.3128 126.374 47.4385 126.31C47.7619 126.459 47.6474 126.809 47.7741 127.048C47.8379 127.169 47.8754 127.314 48.0468 127.282C48.2272 127.249 48.4289 127.203 48.5263 127.045C48.6155 126.901 48.4279 126.826 48.3539 126.725C48.1968 126.511 47.8258 126.466 47.8592 126.101C47.9535 126.038 48.0478 125.977 48.1421 125.914C48.3134 125.942 48.433 126.049 48.5465 126.185C48.51 126.036 48.434 125.905 48.4644 125.755C48.5628 125.702 48.6611 125.648 48.7594 125.595C49.0625 125.763 49.0929 126.087 49.1791 126.368C49.2592 126.632 49.3737 126.704 49.6089 126.547C49.6647 126.51 49.7245 126.477 49.7792 126.439C50.2608 126.101 50.2527 126.025 49.7407 125.754C49.539 125.646 49.2866 125.602 49.1761 125.36C49.2815 125.307 49.3859 125.253 49.4913 125.198C49.686 125.187 49.8644 125.248 50.0641 125.346C49.9242 125.228 49.838 125.114 49.7985 124.967C49.8877 124.909 49.9769 124.85 50.0661 124.793C50.2648 124.838 50.3459 125.025 50.4838 125.142C50.6511 125.286 50.8062 125.321 50.943 125.103C51.0707 124.899 51.0991 124.733 50.8092 124.644C50.6663 124.6 50.5233 124.535 50.4736 124.368C50.5 124.203 50.4443 124.022 50.57 123.876C50.6652 123.919 50.6673 124.042 50.7646 124.086C50.6511 124.011 50.6551 123.881 50.6095 123.776C50.6115 123.636 50.5679 123.488 50.6825 123.367C50.8609 123.49 51.0038 123.651 51.161 123.797C51.2329 123.864 51.313 123.936 51.4215 123.863C51.4631 123.835 51.4843 123.786 51.4833 123.735C51.4813 123.612 51.385 123.579 51.2917 123.541C51.0981 123.461 50.8528 123.537 50.6957 123.345C50.6946 123.21 50.6805 123.073 50.7727 122.959C50.868 122.947 50.9633 122.92 51.0748 122.941C50.9684 122.861 50.8923 122.756 50.8102 122.656C50.8396 122.553 50.87 122.451 50.8994 122.348C51.2035 122.22 51.3323 122.506 51.535 122.618C51.6303 122.671 51.7155 122.805 51.8381 122.703C51.9294 122.629 51.9882 122.495 51.9395 122.388C51.8746 122.246 51.7327 122.344 51.6283 122.355C51.3759 122.378 51.1336 122.355 50.9025 122.245C50.8903 122.103 50.8984 121.965 50.9785 121.841C51.1904 121.789 51.4063 121.825 51.6516 121.81C51.4418 121.657 51.1731 121.603 51.1022 121.336C51.0647 121.125 51.1316 120.932 51.2005 120.739C51.3688 120.536 51.605 120.626 51.8604 120.589C51.6668 120.411 51.3951 120.353 51.309 120.105C51.3221 119.967 51.2461 119.813 51.384 119.699C51.68 119.89 52.0135 120.008 52.3217 120.178C52.4251 120.235 52.5538 120.291 52.6086 120.119C52.6633 119.948 52.5599 119.877 52.4048 119.849C52.0683 119.787 51.6952 119.955 51.3901 119.69C51.4195 119.467 51.3303 119.229 51.4793 119.022C51.6638 119.196 51.8574 119.345 52.1534 119.267C51.9628 119.074 51.6658 119.028 51.5198 118.792C51.6171 118.502 51.5421 118.181 51.683 117.898C51.9912 118.117 52.3562 118.036 52.6765 118.083C52.3491 117.972 51.9861 117.885 51.7236 117.598L51.8047 117.286C52.1646 117.182 52.4291 117.419 52.7241 117.545C52.8468 117.598 52.9593 117.674 53.0779 117.736C53.2067 117.803 53.305 117.774 53.3516 117.628C53.4033 117.466 53.3091 117.406 53.1722 117.407C52.8336 117.41 52.5062 117.335 52.1767 117.277C52.046 117.254 51.9081 117.237 51.8351 117.098C51.828 116.955 51.7834 116.808 51.8868 116.68C52.3278 116.761 52.7799 116.704 53.2199 116.793C53.6375 116.878 53.6061 116.392 53.8717 116.285C53.9994 116.271 54.117 116.292 54.2164 116.381L54.2133 116.384Z" fill="#8895BC"/>
<path d="M115.174 117.967C116.171 118.527 116.237 118.647 115.923 119.774C115.265 122.125 114.343 124.383 113.415 126.637C112.799 128.129 112.18 129.619 111.446 131.058C111.319 131.307 111.198 131.521 110.869 131.541C109.219 131.644 107.569 131.727 105.919 131.562C105.704 131.541 105.372 131.542 105.645 131.161C106.241 130.986 106.835 131.166 107.428 131.192C108.112 131.223 108.796 131.264 109.48 131.311C110.004 131.346 110.468 131.171 110.827 130.768C111.44 129.81 111.797 128.733 112.219 127.69C113.073 125.581 113.716 123.404 114.279 121.202C114.346 120.942 114.351 120.671 114.445 120.417L114.44 120.426C114.569 119.814 114.675 119.197 114.814 118.587C114.865 118.361 114.803 118.026 115.172 117.966L115.174 117.967Z" fill="#272B39"/>
<path d="M56.6941 130.665C56.6617 131.155 56.4032 131.408 55.9146 131.495C54.2145 131.8 52.4942 131.815 50.78 131.849C47.46 131.915 44.1421 131.846 40.8312 131.575C40.1611 131.521 39.49 131.447 38.8392 131.27C38.7044 131.234 38.4134 131.275 38.5209 130.959C41.3665 131.079 44.213 131.176 47.0606 131.111C50.0724 131.042 53.0852 130.979 56.0758 130.544C56.2826 130.514 56.537 130.384 56.6941 130.665Z" fill="#242C3C"/>
<path d="M105.293 114.459C106.624 115.776 107.917 117.126 108.818 118.789C109.13 119.365 109.422 119.954 109.481 120.624C109.45 120.668 109.409 120.701 109.361 120.724C108.917 120.864 108.459 120.963 108.025 121.14C107.904 121.19 107.772 121.241 107.652 121.126C107.586 120.933 107.52 120.741 107.454 120.547C107.594 120.128 107.913 119.82 108.117 119.448C107.736 119.463 107.496 119.928 107.057 119.818C106.838 119.723 106.772 119.498 106.643 119.327C106.751 118.89 107.1 118.606 107.346 118.221C106.91 118.316 106.65 118.725 106.222 118.786C106.158 118.693 106.094 118.6 106.029 118.505C106.225 118.058 106.662 117.914 107.054 117.767C107.596 117.565 107.568 117.513 107.188 117.054C107.117 116.968 107.056 116.858 106.911 116.842C106.576 117.349 106.372 117.946 105.919 118.38C105.822 118.257 105.725 118.133 105.628 118.011C105.85 117.613 106.089 117.226 106.28 116.832C105.873 116.91 105.546 117.257 105.095 117.28C105.038 117.207 104.98 117.134 104.923 117.06C105.084 116.691 105.477 116.653 105.766 116.467C105.946 116.35 106.174 116.321 106.339 116.172C105.922 115.579 105.836 115.582 105.414 116.136C105.216 116.397 105.124 116.751 104.779 116.887C104.693 116.784 104.608 116.681 104.522 116.577C104.698 116.238 104.897 115.906 105.156 115.631C105.413 115.357 105.451 115.139 105.161 114.884C105.111 114.841 105.098 114.77 105.101 114.701C105.118 114.584 105.127 114.462 105.29 114.459H105.293Z" fill="#8894B9"/>
<path d="M109.382 120.624C109.415 120.624 109.448 120.624 109.481 120.624C109.651 121.113 109.592 121.615 109.577 122.117C109.561 122.638 109.574 123.16 109.574 123.673C109.148 123.389 108.967 123.846 108.635 123.888C108.699 123.935 108.721 123.965 108.741 123.964C109.516 123.929 109.518 123.928 109.461 124.673C109.429 125.093 109.387 125.511 109.35 125.936C109.331 125.934 109.302 125.938 109.299 125.93C109.266 125.857 109.3 125.66 109.153 125.77C108.835 126.008 108.374 126.045 108.168 126.41C108.097 126.536 108.346 126.562 108.456 126.621C108.53 126.661 108.609 126.697 108.69 126.72C109.109 126.837 109.309 127.075 109.157 127.527C109.131 127.604 109.146 127.694 109.137 127.888C109.109 127.639 109.094 127.496 109.077 127.341C108.82 127.396 108.61 127.484 108.415 127.636C108.61 127.934 109.385 127.875 108.966 128.533C108.76 128.25 108.394 128.179 108.165 127.926C108.165 127.754 108.165 127.581 108.163 127.409C108.22 127.269 108.379 127.214 108.472 127.04C108.235 127.094 108.264 127.306 108.166 127.411C107.958 126.917 108.089 126.405 108.08 125.901C108.256 125.785 108.429 125.665 108.641 125.596C108.442 125.596 108.254 125.585 108.081 125.492C108.077 125.285 108.072 125.077 108.068 124.871C108.253 124.563 108.59 124.492 108.861 124.353C108.61 124.347 108.329 124.549 108.074 124.299C108.023 123.995 107.903 123.698 107.971 123.38C108.299 123.84 108.593 123.357 108.949 123.353C108.603 123.239 108.254 123.379 107.974 123.162C107.939 122.926 107.904 122.689 107.87 122.453C108.109 122.273 108.355 122.104 108.704 121.949C108.355 121.81 107.995 121.934 107.773 121.666C107.735 121.527 107.697 121.388 107.66 121.249C108.05 121.15 108.411 121.312 108.783 121.375C109.316 121.465 109.316 121.473 109.299 120.947C109.295 120.83 109.285 120.714 109.383 120.625L109.382 120.624Z" fill="#8991B7"/>
<path d="M56.694 130.665C55.9053 130.589 55.144 130.812 54.3695 130.884C51.4773 131.155 48.578 131.229 45.6757 131.252C43.4313 131.269 41.1879 131.207 38.9475 131.062C38.8016 131.052 38.6394 131.092 38.5208 130.959C38.5684 130.865 38.616 130.771 38.7417 130.767C39.5487 130.973 40.3779 130.907 41.195 130.933C45.0431 131.051 48.8913 130.999 52.7343 130.758C53.8951 130.685 55.0497 130.534 56.2044 130.399C56.6271 130.349 56.771 130.218 56.696 129.815C56.6747 129.701 56.693 129.58 56.694 129.463C56.8359 129.864 56.8156 130.265 56.694 130.666V130.665Z" fill="#8793B5"/>
<path d="M105.104 114.701C105.618 115.228 105.627 115.236 105.154 115.815C104.946 116.069 104.86 116.427 104.524 116.577C104.338 116.326 104.151 116.074 103.964 115.823C104.308 115.413 104.671 115.022 105.103 114.702L105.104 114.701Z" fill="#292E3A"/>
<path d="M53.8687 116.288C53.812 116.85 53.5362 117.079 52.9675 116.904C52.6147 116.795 52.194 117.008 51.8828 116.684C51.9284 116.429 51.9751 116.175 52.0217 115.919C52.637 116.042 53.2534 116.166 53.8687 116.288Z" fill="#282B38"/>
<path d="M105.921 118.381C106.238 117.79 106.557 117.198 106.886 116.584C107.265 116.866 107.502 117.228 107.791 117.618C107.116 117.799 106.558 118.123 106.03 118.507C105.994 118.465 105.956 118.423 105.92 118.381H105.921Z" fill="#262C3E"/>
<path d="M49.1761 125.363C49.5228 125.533 49.8655 125.713 50.2193 125.868C50.4109 125.952 50.4595 126.029 50.2953 126.187C50.0256 126.448 49.7175 126.768 49.3829 126.785C48.9643 126.806 49.1031 126.272 48.9369 126.011C48.8578 125.886 48.8183 125.735 48.7605 125.597C48.8994 125.519 49.0372 125.44 49.1761 125.362V125.363Z" fill="#252E41"/>
<path d="M110.912 130.771C110.507 131.348 109.92 131.482 109.266 131.436C108.059 131.348 106.852 131.254 105.645 131.163C105.716 131.045 105.79 130.931 105.92 130.869C106.248 131.079 106.632 130.992 106.982 131.028C107.851 131.118 108.729 131.127 109.603 131.169C110.081 131.192 110.484 131.026 110.811 130.677C110.895 130.654 110.941 130.672 110.912 130.771Z" fill="#8C92B5"/>
<path d="M104.783 116.887C105.014 116.457 105.334 116.089 105.617 115.694C105.796 115.444 105.922 115.472 106.111 115.685C106.264 115.858 106.468 115.987 106.7 116.177C106.024 116.502 105.441 116.714 104.927 117.061C104.879 117.003 104.83 116.945 104.783 116.887Z" fill="#242D3C"/>
<path d="M95.5647 81.2139C96.0726 83.1796 96.9434 84.985 97.9865 86.7165C98.168 87.0166 98.3059 87.343 98.464 87.6573C98.4336 87.7201 98.4022 87.7809 98.315 87.7647C97.6358 86.3992 96.764 85.133 96.2419 83.6885C95.958 82.9018 95.6347 82.1294 95.4826 81.3011C95.442 81.2069 95.4846 81.1927 95.5657 81.2139H95.5647Z" fill="#4F3B1F"/>
<path d="M109.382 120.624C109.519 121.314 109.25 121.592 108.576 121.459C108.269 121.398 107.94 121.425 107.66 121.247C107.658 121.207 107.656 121.166 107.654 121.126C108.228 120.954 108.777 120.691 109.383 120.624H109.382Z" fill="#252B39"/>
<path d="M47.8604 126.103C48.1371 126.464 48.5872 126.647 48.8346 127.039C48.8103 127.07 48.7961 127.105 48.7728 127.116C48.1388 127.424 47.6945 127.156 47.4397 126.312C47.5806 126.242 47.7205 126.173 47.8614 126.103H47.8604Z" fill="#212C40"/>
<path d="M45.323 127.393C45.6576 127.641 45.9921 127.89 46.3915 128.186C46.0823 128.341 45.8117 128.479 45.54 128.613C45.3656 128.701 45.2997 128.595 45.2602 128.449C45.1771 128.143 45.0929 127.836 45.0088 127.53C45.1132 127.484 45.2186 127.438 45.323 127.393Z" fill="#222D3B"/>
<path d="M105.098 117.28C105.523 116.992 105.994 116.806 106.501 116.647C106.182 117.091 106.153 117.705 105.63 118.011C105.453 117.767 105.275 117.523 105.098 117.28Z" fill="#242B3F"/>
<path d="M50.4727 124.372C50.6095 124.432 50.7423 124.53 50.8832 124.545C51.2472 124.585 51.3202 124.74 51.1103 125.025C50.9978 125.178 50.9846 125.505 50.7697 125.458C50.4412 125.385 50.2182 125.105 50.0662 124.795C50.202 124.654 50.3368 124.513 50.4727 124.371V124.372Z" fill="#242D3F"/>
<path d="M34.7213 22.104C34.6371 22.1476 34.5864 22.2115 34.6361 22.3048C35.1582 23.3013 34.9362 24.3708 34.9767 25.4778C34.8297 25.3105 34.8966 25.1696 34.8865 25.0449C34.8733 24.8949 34.8784 24.7418 34.8875 24.5918C34.9544 23.501 34.6513 22.5369 33.9153 21.7178C33.8525 21.6479 33.7471 21.586 33.8494 21.4705C34.185 21.6205 34.4952 21.804 34.7223 22.104H34.7213Z" fill="#2F2B37"/>
<path d="M51.8322 117.102C52.2417 117.199 52.6584 117.276 53.076 117.252C53.5211 117.228 53.662 117.355 53.446 117.773C53.4014 117.86 53.4187 117.976 53.297 118.041C52.851 117.7 52.3319 117.482 51.8018 117.288C51.8119 117.226 51.822 117.163 51.8322 117.101V117.102Z" fill="#202C3D"/>
<path d="M106.223 118.787C106.607 118.401 107.075 118.162 107.64 118.052C107.308 118.478 106.975 118.903 106.643 119.329C106.503 119.148 106.363 118.968 106.222 118.787H106.223Z" fill="#242C40"/>
<path d="M107.058 119.819C107.493 119.626 107.864 119.291 108.444 119.21C108.079 119.684 107.851 120.174 107.454 120.547C107.322 120.305 107.19 120.062 107.057 119.819H107.058Z" fill="#222B42"/>
<path d="M44.3072 127.928C44.4633 128.273 44.7816 128.488 44.9995 128.779C44.9762 128.817 44.9661 128.856 44.9418 128.87C44.4842 129.133 44.1977 129.004 44.0821 128.485C44.0497 128.337 44.0193 128.189 43.9868 128.041C44.0933 128.003 44.2007 127.965 44.3072 127.928Z" fill="#232D42"/>
<path d="M108.165 127.927C108.483 128.062 108.95 128 108.966 128.534L108.973 128.526C108.846 128.858 108.671 129.126 108.251 129.041C108.135 129.018 108.023 128.976 108.031 128.822C108.247 128.549 108.221 128.24 108.166 127.927H108.165Z" fill="#252B39"/>
<path d="M46.3195 126.88C46.726 127.004 46.9358 127.386 47.2694 127.609C47.4488 127.729 47.2836 127.818 47.1791 127.844C46.9845 127.893 46.7686 128.231 46.5871 127.87C46.4381 127.572 46.359 127.24 46.2485 126.922C46.2749 126.912 46.2982 126.898 46.3195 126.88Z" fill="#212F44"/>
<path d="M107.773 121.665C108.154 121.723 108.536 121.782 108.918 121.84C108.584 122.089 108.313 122.424 107.869 122.452C107.889 122.183 107.699 121.94 107.773 121.665Z" fill="#272E3B"/>
<path d="M50.8985 122.248C51.2929 122.202 51.6963 122.29 52.1414 122.097C52.1332 122.481 51.9822 122.751 51.8788 123.045C51.5138 122.848 51.2736 122.501 50.8965 122.351C50.8965 122.317 50.8975 122.282 50.8985 122.248Z" fill="#202A46"/>
<path d="M107.974 123.162C108.345 123.224 108.734 123.134 109.158 123.306C108.776 123.51 108.442 123.687 108.094 123.873C108.05 123.696 108.01 123.537 107.971 123.38C107.971 123.308 107.973 123.235 107.973 123.163L107.974 123.162Z" fill="#1F263E"/>
<path d="M51.7207 117.602C52.1536 117.713 52.5388 117.925 53.0649 118.175C52.5753 118.175 52.2337 118.173 51.8931 118.175C51.6984 118.176 51.6984 118.033 51.6802 117.901C51.6934 117.802 51.7075 117.701 51.7207 117.601V117.602Z" fill="#262F41"/>
<path d="M51.5169 118.795C51.8838 118.883 52.1738 119.11 52.487 119.324C51.7804 119.534 51.5189 119.454 51.4763 119.024C51.4895 118.948 51.5037 118.871 51.5169 118.795Z" fill="#212E41"/>
<path d="M41.8662 129.112C42.071 129.282 42.2778 129.45 42.4795 129.623C42.5617 129.693 42.7259 129.752 42.6438 129.882C42.5931 129.963 42.4441 129.984 42.3356 130.022C42.2048 130.069 42.1105 130.026 42.0588 129.893C41.9625 129.645 41.8632 129.398 41.7659 129.152C41.7993 129.138 41.8338 129.125 41.8672 129.112H41.8662Z" fill="#243046"/>
<path d="M115.175 117.967C114.739 118.471 114.847 119.139 114.656 119.717C114.578 119.95 114.58 120.209 114.443 120.427C114.546 119.562 114.627 118.692 114.983 117.88C115.065 117.87 115.138 117.88 115.176 117.967H115.175Z" fill="#636878"/>
<path d="M51.306 120.108C51.5868 120.27 51.8676 120.433 52.1484 120.595C52.1454 120.625 52.1433 120.656 52.1403 120.687C51.826 120.705 51.5118 120.723 51.1975 120.742C51.234 120.531 51.2695 120.32 51.306 120.108Z" fill="#29334A"/>
<path d="M108.03 128.822C108.496 129.208 108.725 128.837 108.973 128.526C108.834 129.286 108.592 129.409 107.767 129.143C107.855 129.036 107.942 128.93 108.031 128.822H108.03Z" fill="#8A8CA4"/>
<path d="M51.0993 121.339C51.3821 121.502 51.665 121.664 52.0096 121.863C51.6204 121.959 51.298 122.012 50.9746 121.843C51.0162 121.675 51.0577 121.507 51.0993 121.339Z" fill="#2A364C"/>
<path d="M108.074 124.299H109.097C108.71 124.546 108.412 124.746 108.068 124.872C108.05 124.681 108.01 124.489 108.074 124.299Z" fill="#272F46"/>
<path d="M108.081 125.492C108.346 125.403 108.603 125.509 108.955 125.494C108.645 125.732 108.411 125.915 108.08 125.901C108.08 125.765 108.08 125.628 108.081 125.492Z" fill="#353A50"/>
<path d="M47.0544 126.491C47.4174 126.616 47.2785 126.94 47.3738 127.237C47.0727 127.091 46.8801 126.913 46.7148 126.702C46.8284 126.632 46.9409 126.562 47.0544 126.492V126.491Z" fill="#262F43"/>
<path d="M43.6127 128.214C43.9361 128.35 43.7698 128.676 43.8469 128.936C43.6502 128.766 43.4525 128.598 43.2559 128.43C43.3745 128.358 43.4941 128.286 43.6127 128.214Z" fill="#292F47"/>
<path d="M49.7976 124.97C50.0855 125.06 50.121 125.389 50.3481 125.547C50.0156 125.533 49.7764 125.308 49.4905 125.201C49.5929 125.124 49.6953 125.047 49.7976 124.97Z" fill="#323950"/>
<path d="M41.4637 129.31C41.6451 129.47 41.6431 129.71 41.8083 129.986C41.4383 129.884 41.2305 129.747 41.1433 129.457C41.2498 129.408 41.3572 129.359 41.4637 129.31Z" fill="#293049"/>
<path d="M48.4654 125.758C48.658 125.941 48.6662 126.197 48.7371 126.434C48.5161 126.277 48.283 126.149 48.1431 125.916C48.2505 125.863 48.358 125.81 48.4654 125.758Z" fill="#2A324B"/>
<path d="M50.8083 122.659C51.0516 122.665 51.1702 122.861 51.3263 123.036C51.1387 123.034 50.9451 123.136 50.7708 122.961C50.7829 122.86 50.7951 122.759 50.8083 122.658V122.659Z" fill="#29334F"/>
<path d="M45.9211 127.076C46.1087 127.179 46.136 127.342 46.1168 127.557C45.9373 127.449 45.7772 127.37 45.6819 127.208C45.762 127.165 45.841 127.12 45.9211 127.076Z" fill="#293147"/>
<path d="M50.6075 123.78C50.7423 123.926 50.8761 124.073 51.0343 124.243C50.791 124.201 50.5416 124.223 50.569 123.879C50.5821 123.846 50.5953 123.812 50.6085 123.779L50.6075 123.78Z" fill="#313C55"/>
<path d="M85.7305 67.491C81.3714 67.8499 77.1228 67.2254 72.9473 65.9714C77.133 67.1311 81.4039 67.5326 85.7305 67.491Z" fill="#362722"/>
<path d="M87.4722 63.5618C87.1924 63.7524 87.463 63.8893 87.537 64.0119C88.568 65.715 89.5828 67.4272 90.34 69.2752C91.2047 71.3858 91.8282 73.5644 92.1576 75.824C92.1242 75.8574 92.0897 75.8564 92.0542 75.825C91.3629 71.4852 89.6162 67.5711 87.236 63.9146C87.1538 63.7879 87.0859 63.6449 86.8933 63.6845C87.0636 63.5355 87.2501 63.4655 87.4722 63.5618Z" fill="#45311B"/>
<path d="M76.1882 76.5286C77.6713 78.3502 78.8482 80.2328 78.8462 80.841C78.1204 80.0847 77.1908 79.8425 76.2642 79.589C76.1345 79.5536 75.8922 79.5748 75.954 79.3589C76.0098 79.1602 76.2085 79.29 76.3423 79.3153C77.0042 79.4431 77.652 79.6174 78.3708 80.0472C77.6976 78.925 77.0488 77.962 76.3108 77.0598C76.1851 76.9057 75.9966 76.7861 76.1892 76.5286H76.1882Z" fill="#2D2520"/>
<path d="M70.9836 67.7354C73.1753 70.2129 75.511 72.5536 77.8416 74.8984C75.3133 72.7432 73.0709 70.3133 70.9836 67.7354Z" fill="#44321B"/>
<path d="M92.0542 75.826C92.0887 75.826 92.1231 75.826 92.1576 75.825C92.4344 76.7961 92.5357 77.8007 92.6351 78.7972C92.9057 81.5049 93.1278 84.2167 93.365 86.9274C93.3781 87.0764 93.3569 87.2295 93.3508 87.3795C93.3275 87.3795 93.3041 87.3805 93.2808 87.3815C93.0629 84.909 92.8692 82.4335 92.6189 79.964C92.479 78.5803 92.2458 77.2057 92.0552 75.827L92.0542 75.826Z" fill="#7C582D"/>
<path d="M93.2798 87.3807C93.3031 87.3807 93.3264 87.3797 93.3497 87.3787C93.4815 88.4208 93.6123 89.4629 93.7441 90.504C93.6893 90.503 93.6356 90.502 93.5809 90.5C93.4805 89.4599 93.3801 88.4198 93.2798 87.3797V87.3807Z" fill="#7F5D2E"/>
<path d="M82.001 34.6826C82.2493 35.4783 82.6629 36.2113 82.8779 37.0202C82.9944 37.4572 83.1029 37.8931 83.1759 38.3411C83.2083 38.5419 83.1384 38.6595 83.0056 38.774C81.2721 39.6337 79.5102 40.4122 77.5649 40.6596C76.9799 40.0006 76.6596 39.1846 76.2389 38.4283C76.0361 38.0634 75.8628 37.6822 75.6763 37.3081C77.1036 36.0927 78.6313 35.0516 80.4479 34.492C80.894 34.3541 81.341 34.3703 81.7932 34.3805C81.8621 34.4808 81.932 34.5822 82.001 34.6826Z" fill="#252B39"/>
<path d="M93.6782 46.227C95.726 43.9532 95.8669 41.5121 94.5014 38.9058C96.2673 40.9951 95.799 44.9699 93.6782 46.227Z" fill="#CB5545"/>
<path d="M87.7124 42.1091C88.8995 42.0199 89.9021 42.5055 90.7384 43.2942C91.4947 44.0079 92.0036 44.8959 92.109 45.9664C92.1202 46.083 92.1333 46.2006 92.1262 46.3162C92.1202 46.4023 92.0614 46.4814 91.9691 46.4854C91.8566 46.4895 91.8556 46.3891 91.8404 46.307C91.7826 45.9938 91.7481 45.6745 91.6599 45.3703C91.1297 43.5345 89.6477 42.3271 87.7114 42.1081L87.7124 42.1091Z" fill="#CD5645"/>
<path d="M79.3824 46.8514C77.9176 46.2077 76.4061 45.9096 74.8105 46.2381C74.3543 46.3324 73.9448 46.5513 73.5068 46.6922C74.1354 46.158 74.8957 45.9745 75.6914 45.9106C76.9454 45.8093 78.1244 46.1499 79.2912 46.5533C79.3105 46.6557 79.5457 46.6932 79.3824 46.8514Z" fill="#332B25"/>
<path d="M78.5542 44.7053C77.1309 43.6378 75.6012 42.7417 74.033 41.9033C75.6053 42.5085 77.0275 43.3824 78.4052 44.3353C78.4975 44.4417 78.6069 44.5411 78.5542 44.7053Z" fill="#37302A"/>
<path d="M70.4717 34.9825C70.4322 35.387 70.3927 35.7925 70.3531 36.197C69.0089 35.1761 68.1878 33.8441 67.9871 32.144C68.1432 32.5252 68.2689 32.9196 68.5203 33.2541C68.7859 33.6069 69.1032 33.909 69.4296 34.1958C69.755 34.4827 70.122 34.722 70.4717 34.9815V34.9825Z" fill="#CC544E"/>
<path d="M70.6622 39.6428C70.6693 39.8942 70.4716 39.9165 70.2983 39.9885C68.2049 40.8603 66.0264 40.9607 63.8012 40.7782C62.7165 40.689 61.6815 40.4274 60.6455 40.1355C60.5116 40.098 60.3859 40.029 60.2673 39.8942C63.7718 40.9536 67.2358 41.0103 70.6591 39.6367L70.6632 39.6438L70.6622 39.6428Z" fill="#CC5845"/>
<path d="M54.3178 37.0608C54.0968 37.7481 53.6852 38.0989 52.8479 38.3969C53.2949 39.2677 53.7106 40.1497 53.6994 41.1563C53.5159 40.3028 53.2807 39.4715 52.7759 38.7406C52.5336 38.3898 52.5306 38.1344 53.0303 38.0289C53.5524 37.9184 53.9681 37.6265 54.3178 37.0598V37.0608Z" fill="#CE5A44"/>
<path d="M62.2634 93.8483C61.4453 94.9238 58.8725 93.8442 57.9297 92.1006C59.0661 93.3941 60.3211 94.4048 62.2634 93.8483Z" fill="#CD5944"/>
<path d="M59.4352 95.675C59.1605 97.81 57.6916 99.2343 56.2744 98.695C58.2826 98.6696 58.9 97.224 59.4352 95.675Z" fill="#CB5745"/>
<path d="M58.0422 109.82C59.0823 110.98 60.3363 111.512 61.9522 111.11C60.9263 112.061 58.8634 111.241 58.0422 109.82Z" fill="#CB5741"/>
<path d="M98.0818 103.456C99.8082 104.739 101.722 105.669 103.676 106.529C101.567 105.94 99.718 104.882 98.0818 103.456Z" fill="#CA573E"/>
<path d="M74.0765 21.6185C73.7703 21.6712 73.6933 21.4492 73.6355 21.2343C73.5524 20.9281 73.8332 21.0366 73.9568 20.9859C74.6908 20.6838 75.2798 20.1881 75.8262 19.6295C75.9032 19.5515 75.9823 19.3497 76.1394 19.5221C76.2469 19.6397 76.401 19.7796 76.2519 19.962C75.7025 20.6341 75.0861 21.2272 74.2752 21.581C74.2153 21.6073 74.1434 21.6063 74.0775 21.6175L74.0765 21.6185Z" fill="#2B2934"/>
<path d="M75.5404 21.951C75.516 22.1538 75.5019 22.4001 75.2332 22.3839C74.9869 22.3697 74.9392 22.1335 74.9423 21.9267C74.9453 21.7351 75.0092 21.5263 75.2332 21.5202C75.4998 21.5131 75.5272 21.7412 75.5414 21.951H75.5404Z" fill="#402F30"/>
<path d="M34.7101 26.5229C34.9483 27.1737 35.2606 27.3257 35.9692 27.1575C36.5602 27.0176 37.0062 26.6303 37.4837 26.1792C37.4888 26.7347 37.73 27.1017 38.0798 27.4129C38.167 27.491 38.2775 27.6096 38.1751 27.713C38.0392 27.8488 37.9338 27.6856 37.8507 27.6015C37.6094 27.3561 37.5222 27.0206 37.3519 26.6202C36.7366 28.2482 35.3467 28.6791 33.9447 29.0795C33.7207 29.1434 33.6143 29.2985 33.4865 29.4485C32.6573 30.4247 31.6476 31.1242 30.4007 31.4506C29.6759 31.6402 29.0261 31.4851 28.3611 30.9377C28.5385 30.9377 28.6125 30.9164 28.6662 30.9407C30.1959 31.6372 31.3972 30.9063 32.5691 30.0456C33.7471 29.1799 34.3016 27.9299 34.7111 26.5218L34.7101 26.5229Z" fill="#2F2B37"/>
<path d="M33.145 26.8139C32.8044 25.0439 32.5661 23.2293 30.929 21.9368C32.0998 22.1476 33.3254 24.9739 33.145 26.8139Z" fill="#2F2B37"/>
<path d="M30.6685 22.9922C31.4369 24.009 31.888 25.1585 31.9934 26.4419C31.6842 25.2427 31.2199 24.1043 30.6685 22.9922Z" fill="#2F2B37"/>
<path d="M29.3393 30.356C28.511 29.102 28.5465 27.6959 28.6367 26.2808C28.7462 26.962 28.6884 27.6534 28.8365 28.3437C28.9824 29.0239 29.1953 29.6818 29.3403 30.357L29.3393 30.356Z" fill="#2F2B37"/>
<path d="M29.0261 26.3962C29.1437 27.4282 29.6952 28.2676 30.1848 29.1323C29.313 28.4207 29.0667 27.4455 29.0261 26.3962Z" fill="#2F2B37"/>
<path d="M74.4314 26.0231C75.4918 25.9116 76.5744 25.7109 77.3084 26.7956C76.4751 26.0525 75.4705 25.9684 74.4314 26.0231Z" fill="#2F2B37"/>
<path d="M76.2682 27.4101C75.3416 27.2306 74.484 26.7511 73.5017 26.8312C74.5134 26.593 75.4197 26.8677 76.2682 27.4101Z" fill="#2F2B37"/>
<path d="M73.8271 29.0747C73.157 28.7787 72.5396 28.3539 71.6921 28.2637C72.5011 28.139 73.302 28.437 73.8271 29.0747Z" fill="#2F2B37"/>
<path d="M110.912 130.771C110.878 130.739 110.845 130.709 110.811 130.677C112.102 128.083 113.055 125.364 113.843 122.582C114.047 121.861 114.142 121.11 114.447 120.417C114.345 121.599 113.944 122.71 113.624 123.839C113.005 126.028 112.152 128.135 111.256 130.223C111.172 130.42 111.109 130.641 110.912 130.77V130.771Z" fill="#636878"/>
<path d="M92.3644 68.4004C93.0953 70.0325 93.6154 71.7265 93.8709 73.4985C93.5373 72.6835 93.4218 71.8056 93.1491 70.9713C92.8784 70.1451 92.5854 69.329 92.2661 68.5211C92.2986 68.4805 92.332 68.44 92.3644 68.3994V68.4004Z" fill="#6D4D29"/>
<path d="M72.5692 17.1387C72.3533 16.641 72.3432 16.1666 72.5388 15.6911C72.0451 16.2538 71.9265 16.9218 71.964 17.6466C71.5788 16.8833 72.0999 15.3536 72.846 15.014C72.9119 14.9846 72.9615 14.9521 73.0183 15.018C73.0801 15.09 73.0893 15.1772 73.0477 15.2532C72.9443 15.4448 72.8216 15.6252 72.7203 15.8189C72.6199 16.0105 72.5125 16.2071 72.6077 16.4818C72.8156 16.0662 73.0264 15.6881 73.3559 15.4042C73.663 15.1397 73.9084 14.724 74.5815 14.8872C73.4907 15.3789 72.9098 16.1483 72.5682 17.1387H72.5692Z" fill="#848AAB"/>
<path d="M82.221 12.6388C81.6563 12.6499 81.1049 12.5648 80.5503 12.6733C80.0719 12.7665 79.564 12.7858 79.341 13.3403C79.2903 13.465 79.1869 13.4275 79.0835 13.4133C77.7504 13.2328 76.543 13.5623 75.4421 14.3196C75.3884 14.3561 75.3347 14.4088 75.2161 14.2891C75.8304 13.7691 76.5278 13.4559 77.3013 13.2926C77.4169 13.2683 77.5335 13.248 77.6511 13.2389C78.4103 13.1811 79.125 13.1974 79.8377 12.6733C80.5017 12.1836 81.4252 12.2728 82.221 12.6398V12.6388Z" fill="#8288A4"/>
<path d="M76.026 16.569C76.2369 16.3723 76.3758 16.2274 76.5319 16.1027C76.6444 16.0125 76.7711 15.8797 76.9323 15.9831C77.0874 16.0824 77.059 16.2527 77.0063 16.3956C76.9353 16.5893 76.9019 16.7849 76.9009 17.0242C76.617 16.7829 76.7975 16.5203 76.8127 16.2385C76.615 16.2882 76.5197 16.4433 76.396 16.5578C76.2653 16.6785 76.1953 16.936 75.9905 16.8873C75.7594 16.8326 75.8476 16.5578 75.7787 16.345C75.7026 16.4838 75.6418 16.5933 75.582 16.7038C75.5273 16.1159 75.8071 15.7093 76.2521 15.3941C76.3301 15.3393 76.4224 15.2542 76.5136 15.3626C76.5978 15.462 76.5177 15.5502 76.464 15.6333C76.2937 15.8979 76.0716 16.1361 76.024 16.568L76.026 16.569Z" fill="#838BAF"/>
<path d="M74.9959 15.2866C74.409 15.7844 73.6699 16.1341 73.45 17.015C73.2482 16.2699 74.0785 15.3414 74.9959 15.2866Z" fill="#868FB2"/>
<path d="M82.1286 13.1862C81.4159 13.169 80.8189 13.2694 80.1995 13.4822C80.4914 12.9997 81.4859 12.8324 82.1286 13.1862Z" fill="#878DAB"/>
<path d="M78.0839 16.5832C77.7687 16.7718 77.5537 16.8995 77.3398 17.0272C77.4301 16.6826 77.5821 16.4393 78.0839 16.5832Z" fill="#838A9E"/>
<path d="M95.5646 81.2142C95.5373 81.2436 95.5099 81.2719 95.4815 81.3013C95.074 80.1578 94.856 78.9718 94.6634 77.7786C94.6229 77.6894 94.6523 77.6499 94.7496 77.66C95.0213 78.8451 95.293 80.0301 95.5646 81.2142Z" fill="#876334"/>
<path d="M94.7497 77.6599C94.7213 77.6994 94.693 77.739 94.6636 77.7785C94.4608 76.7678 94.257 75.7571 94.0533 74.7464C94.03 74.6329 94.0036 74.5193 93.9783 74.4058C94.0117 74.3581 94.0482 74.3551 94.0878 74.3987C94.3969 75.4682 94.5318 76.5721 94.7497 77.6599Z" fill="#8E6536"/>
<path d="M94.0878 74.3978L93.9783 74.4049C93.957 74.0977 93.7989 73.8078 93.8658 73.4905C94.0421 73.7682 94.0726 74.0815 94.0878 74.3978Z" fill="#87572B"/>
<path d="M51.3872 119.693C51.7075 119.698 52.0309 119.729 52.3482 119.702C52.7851 119.666 52.9544 119.786 52.7426 120.224C52.7061 120.299 52.6959 120.385 52.6554 120.534C52.2377 120.215 51.6812 120.176 51.3811 119.702L51.3872 119.694V119.693Z" fill="#212E3F"/>
<path d="M42.7977 128.626C43.2397 128.623 43.4577 128.984 43.7415 129.227C43.9422 129.398 43.702 129.467 43.6087 129.483C43.405 129.519 43.1901 129.917 42.9903 129.512C42.8575 129.245 42.7592 128.953 42.7754 128.642L42.7987 128.626H42.7977Z" fill="#242E40"/>
<path d="M52.9908 119.294C52.5995 119.046 52.2265 118.808 51.7632 118.513C52.1636 118.513 52.4586 118.538 52.7485 118.508C53.225 118.459 53.2351 118.691 53.1033 119.034C53.0739 119.111 53.0385 119.187 52.9918 119.295L52.9908 119.294Z" fill="#263448"/>
<path d="M50.6938 123.348C50.8114 123.353 50.929 123.351 51.0456 123.364C51.8292 123.449 51.8322 123.456 51.4267 124.2C51.1581 123.933 50.7911 123.775 50.6816 123.37L50.6948 123.347L50.6938 123.348Z" fill="#212C41"/>
<path d="M52.4991 120.945C52.4146 121.441 52.1635 121.582 51.7459 121.369C51.5817 121.286 51.4195 121.199 51.1589 121.062C51.6526 121.018 52.05 120.984 52.4991 120.945Z" fill="#232D43"/>
<path d="M107.659 120.839C108.071 120.243 108.421 119.736 108.785 119.21C109.455 120.265 109.453 120.27 108.385 120.612C108.179 120.678 107.973 120.741 107.659 120.839Z" fill="#222F40"/>
<path d="M106.875 119.537C107.258 119.033 107.564 118.632 107.867 118.228C107.928 118.148 107.975 118.058 108.034 117.963C108.451 118.487 108.397 118.861 107.874 119.083C107.575 119.211 107.282 119.352 106.874 119.537H106.875Z" fill="#262D42"/>
<path d="M109.458 122.045C109.48 122.116 109.506 122.161 109.508 122.207C109.549 122.999 109.549 122.995 108.777 122.892C108.563 122.863 108.344 122.867 108.06 122.852C108.498 122.461 108.966 122.249 109.458 122.045Z" fill="#252B39"/>
<path d="M109.364 124.457C109.397 125.009 109.048 125.231 108.319 125.122C108.706 124.876 109.009 124.683 109.364 124.457Z" fill="#252B39"/>
<path d="M108.165 127.412C108.164 127.217 108.102 127.02 108.202 126.806C108.388 126.883 108.569 126.958 108.766 127.039C108.597 127.248 108.365 127.304 108.163 127.41L108.165 127.413V127.412Z" fill="#232842"/>
</g>
<defs>
<clipPath id="clip0_76_366">
<rect width="89.2605" height="120" fill="white" transform="translate(26.8293 11.8716)"/>
</clipPath>
</defs>
</svg>
