<svg width="123" height="142" viewBox="0 0 123 142" fill="none" xmlns="http://www.w3.org/2000/svg">
<path d="M45.8264 58.1818C45.8264 58.1818 46.1723 58.7995 46.3107 58.9146C46.4491 59.0297 46.6912 59.18 46.8642 59.1913C47.0371 59.2027 47.4063 59.7448 48.0173 59.9061C48.6283 60.0674 49.4779 60.0735 49.8791 60.2639L50.1619 59.1221L48.8704 55.2825L46.922 54.7058L45.8264 58.1818Z" fill="#F894AC"/>
<path d="M47.5512 58.2031C47.5512 58.2031 47.3899 57.858 47.1583 57.7105C46.9269 57.5625 46.2545 57.3674 46.084 57.3101C45.9136 57.2531 45.6485 57.4775 45.5261 57.6192C45.4035 57.7609 45.5065 58.0418 45.592 58.1688C45.6778 58.2964 46.7634 58.9196 46.9189 59.0134C47.0742 59.1066 47.3777 59.0081 47.4109 58.9204C47.4439 58.8318 47.6085 58.3097 47.5512 58.2031Z" fill="url(#paint0_linear_76_267)"/>
<path d="M47.8246 57.3039C47.8246 57.3039 47.6846 56.9112 47.4477 56.7258C47.2108 56.5404 46.4977 56.2576 46.3178 56.1776C46.1379 56.0976 45.8255 56.3146 45.6772 56.4565C45.5288 56.5985 45.6119 56.9154 45.6918 57.0629C45.7718 57.2106 46.8909 58.0032 47.0506 58.1216C47.21 58.2398 47.5515 58.1637 47.5968 58.0713C47.6419 57.9786 47.8761 57.4265 47.8246 57.3039Z" fill="url(#paint1_linear_76_267)"/>
<path d="M48.1637 56.421C48.1637 56.421 48.0688 56.0067 47.8513 55.7909C47.6335 55.575 46.9458 55.2039 46.7734 55.1015C46.6007 54.9992 46.259 55.1815 46.0918 55.3074C45.9247 55.4333 45.9709 55.7638 46.0343 55.9229C46.0977 56.082 47.1357 57.0176 47.2832 57.1563C47.4307 57.2949 47.7849 57.2589 47.8419 57.1706C47.8983 57.0818 48.2011 56.5513 48.1637 56.421Z" fill="url(#paint2_linear_76_267)"/>
<path d="M48.3403 54.5789C48.3403 54.5789 48.0896 54.2358 47.804 54.1234C47.5187 54.0111 46.7403 53.9419 46.5413 53.9159C46.3423 53.8899 46.1002 54.1926 45.9964 54.3741C45.8926 54.5557 46.0656 54.8413 46.1868 54.9622C46.308 55.0831 47.6311 55.5331 47.8212 55.6023C48.0113 55.6714 48.3229 55.4985 48.34 55.3947C48.3572 55.2909 48.4261 54.6838 48.3403 54.5789Z" fill="url(#paint3_linear_76_267)"/>
<path d="M64.1484 60.8687C60.6547 60.4707 51.2805 57.8592 50.9346 57.6342C50.5887 57.4093 50.1562 56.4235 50.0524 56.1468C49.9486 55.8701 49.6893 55.1896 49.6085 55.0283C49.5277 54.8669 49.3202 54.6478 49.1472 54.5786C48.9743 54.5094 48.5362 54.394 48.3862 54.3365C48.2365 54.2789 47.9595 54.3829 47.8673 54.6018C47.7752 54.8207 47.6772 55.276 47.6714 55.3222C47.6656 55.3684 47.6368 55.9276 47.5676 56.1468C47.4985 56.366 47.481 56.493 47.5676 56.5389C47.6543 56.5849 48.0807 56.5735 48.2307 56.3486C48.3807 56.1236 48.4499 55.7544 48.4499 55.7544C48.4499 55.7544 48.4036 56.6422 48.4728 57.2822C48.542 57.9223 48.715 58.6202 49.0379 58.8566C49.2684 59.4155 49.2167 59.9056 49.7527 60.1995C50.289 60.4937 58.9022 64.3679 60.2626 64.9559C61.6233 65.544 64.1484 66.6625 64.1484 66.6625V60.8687Z" fill="#FBB2C3"/>
<path d="M59.9358 64.813C60.0689 64.8716 60.1799 64.92 60.2626 64.956C61.6233 65.5441 64.1484 66.6626 64.1484 66.6626V60.8685C63.4428 60.7882 62.495 60.6166 61.4326 60.3933L59.9358 64.813Z" fill="#F894AC"/>
<path d="M82.3831 97.2505L99.3814 100.745C100.016 101.039 101.805 102.193 101.805 102.193C101.805 102.193 102.81 101.099 102.916 100.121C103.022 99.1425 102.396 97.3382 102.396 97.3382C102.396 97.3382 99.5821 96.8097 97.4255 95.9263C95.269 95.043 88.0048 91.6943 84.4192 90.6455L82.3831 97.2505Z" fill="#FBB2C3"/>
<path d="M106.688 108.963C106.882 108.294 107.051 107.425 106.969 105.392C106.887 103.359 106.11 101.233 105.795 100.871C105.48 100.509 104.783 99.8116 104.612 99.2484C104.486 98.8311 104.115 97.36 103.93 96.6226C102.84 96.7576 101.634 96.9151 101.501 96.9427C101.267 96.992 101.155 97.0432 101.155 97.0432C101.155 97.0432 100.858 97.3553 101.246 97.8241C101.634 98.2932 102.378 99.3315 102.411 99.4585C102.444 99.5858 101.947 100.677 101.772 100.878C101.597 101.079 101.358 101.051 100.946 100.873C100.533 100.694 99.9222 100.392 99.7406 100.377C99.5591 100.361 99.3604 100.79 99.3604 100.79C99.2774 100.955 99.3646 101.131 99.5619 101.342C99.76 101.553 103.4 106.732 103.4 106.732C104.095 107.798 104.845 110.132 104.913 110.35C104.982 110.569 105.044 110.834 105.272 110.945C105.375 110.995 105.52 111.022 105.683 111.023C106.073 110.403 106.534 109.489 106.688 108.963Z" fill="white"/>
<path d="M103.456 106.822C103.456 106.822 104.933 105.852 105.236 105.675C105.539 105.499 105.59 105.346 105.508 105.108C105.427 104.869 104.816 103.976 104.577 103.573C104.338 103.169 104.18 103.038 103.875 103.169C103.57 103.3 101.701 104.323 101.701 104.323C101.701 104.323 101.541 104.51 101.657 104.735C101.772 104.96 102.933 106.472 103.057 106.639C103.18 106.806 103.351 106.891 103.456 106.822Z" fill="#2D2D30"/>
<path d="M105.697 96.4201C105.53 96.429 104.763 96.5192 103.929 96.6224C104.114 97.3599 104.486 98.8313 104.612 99.2483C104.783 99.8114 105.48 100.509 105.795 100.871C106.11 101.233 106.886 103.359 106.968 105.392C107.051 107.425 106.882 108.294 106.687 108.963C106.533 109.489 106.073 110.403 105.682 111.023C105.88 111.024 106.106 110.983 106.327 110.886C106.73 110.709 107.43 109.466 107.673 108.265C107.916 107.063 107.68 102.641 107.353 100.665C107.026 98.6899 106.717 97.5135 106.604 97.1382C106.49 96.763 106.083 96.3983 105.697 96.4201Z" fill="#E3C1B1"/>
<path d="M74.895 70.3062C74.895 70.3062 75.944 72.3354 76.705 74.7568C77.466 77.1782 77.4315 78.7002 77.6044 79.5304C77.7774 80.3606 80.5909 90.1847 80.5909 90.1847C81.5824 90.3461 83.7962 90.4382 84.4189 90.6458C85.0877 93.4131 83.9346 96.1574 83.1506 97.4489C83.1506 97.4489 77.7544 96.4341 76.9242 96.2266C76.094 96.019 75.4022 95.4888 74.7566 94.7508C74.1107 94.0127 68.2534 86.0568 65.6245 79.7382V70.3062H74.895Z" fill="#1E9DF1"/>
<path d="M75.4285 76.5542H65.6245V79.7383C66.9022 82.8097 68.9422 86.266 70.7764 89.0942C71.9591 86.9858 74.7289 81.6286 75.4285 76.5542Z" fill="#18181A"/>
<path d="M57.0918 102.257L58.51 119.552C58.4063 120.244 57.8008 122.285 57.8008 122.285C57.8008 122.285 59.1327 122.942 60.1012 122.769C61.0698 122.596 62.6264 121.49 62.6264 121.49C62.6264 121.49 62.661 118.653 62.9031 116.335C63.1453 114.018 64.01 105.785 64.01 102.049L57.0918 102.257Z" fill="#FBB2C3"/>
<path d="M62.488 71.9895C62.488 71.9895 57.0918 91.8448 56.7805 93.1247C56.4691 94.4046 56.3999 95.8228 56.5037 96.5838C56.6075 97.3448 57.0918 102.257 57.0918 102.257C57.0918 102.257 60.793 103.191 64.01 102.049C64.01 102.049 64.1022 99.6511 63.883 98.5326C63.6641 97.414 63.4452 96.4684 63.4452 96.4684C63.6641 95.8458 71.7584 82.9549 71.7584 82.9549C74.6641 79.8763 76.7512 76.5096 74.8949 70.3062L62.488 71.9895Z" fill="#1E9DF1"/>
<path d="M60.084 40.0447C60.084 40.0447 61.9002 40.0968 62.8167 40.9615C63.7333 41.8263 65.0826 44.4035 65.0826 44.4035L62.442 58.2228L62.6263 70.6289C62.6034 71.021 62.488 71.9896 62.488 71.9896C62.488 71.9896 66.7773 72.3125 70.2131 71.6899C73.6496 71.0672 74.8949 70.3062 74.8949 70.3062L74.0414 67.8386C74.0414 67.8386 74.3411 60.8744 74.3873 59.0295C74.4336 57.1845 74.8486 47.9371 73.0499 44.5933C71.2512 41.2496 69.6569 39.8283 69.6569 39.8283L64.9877 35.5767H60.0837V40.0447H60.084Z" fill="#FBB2C3"/>
<path d="M74.2333 63.2292L66.0471 72.0636C67.3566 72.0345 68.8518 71.9368 70.2133 71.69C73.6497 71.0673 74.895 70.3063 74.895 70.3063L74.0416 67.8387C74.0416 67.8387 74.1404 65.5369 74.2333 63.2292Z" fill="#F894AC"/>
<path d="M67.6387 50.7109L71.0206 55.8703H73.7187V50.7109H67.6387Z" fill="#F894AC"/>
<path d="M62.3035 58.5685C62.3035 58.5685 62.3754 60.2718 62.3929 60.393C62.4103 60.5142 62.477 60.5834 62.477 60.5834C62.477 60.5834 65.6336 60.9791 69.683 60.5834C72.5793 60.3005 74.308 59.925 74.3606 59.8996C74.4132 59.8741 74.5258 59.7736 74.5515 59.6638C74.5775 59.5542 74.5488 57.7153 74.5488 57.7153L62.3035 58.5685Z" fill="white"/>
<path d="M63.8409 42.2843C64.5402 41.098 65.5796 39.1592 66.4081 36.8701L64.9877 35.5764H60.0837V40.0445C60.0837 40.0445 61.8999 40.0965 62.8164 40.9613C63.1311 41.2579 63.4966 41.7574 63.8409 42.2843Z" fill="#F894AC"/>
<path d="M57.3648 32.5343C57.4021 32.9731 57.4301 33.3196 57.1993 33.9149C56.9688 34.5101 56.6212 35.322 56.5136 35.5191C56.4059 35.7158 56.4037 35.8367 56.5642 36.0305C56.7247 36.2236 57.196 36.458 57.2748 36.5457C57.354 36.6337 57.4198 36.8025 57.364 37.009C57.3081 37.2154 57.2552 37.266 57.3227 37.3538C57.3902 37.4415 57.5889 37.6017 57.737 37.6964C57.6708 38.1333 57.7373 38.2786 57.7932 38.3605C57.8493 38.4424 58.1637 38.5694 58.252 38.7903C58.34 39.0114 58.4518 39.4976 58.5074 39.885C58.5633 40.2727 58.5661 40.4111 58.7614 40.4554C58.9568 40.4994 61.6934 40.4722 63.253 39.4387C64.8127 38.4053 65.2325 36.3891 65.2325 36.3891C65.2325 36.3891 68.771 36.3371 69.5212 33.3589C70.2709 30.3807 69.8921 27.6403 67.5482 26.2973C65.2043 24.9541 61.8802 25.0971 60.0385 26.3933C58.1972 27.6895 57.2328 28.9509 57.3648 32.5343Z" fill="#FBB2C3"/>
<path d="M70.5132 33.4811C70.5132 33.4811 71.0581 35.1761 71.2136 35.548C70.4006 35.522 70.0486 35.323 70.0486 35.323C70.1239 35.7121 70.2451 36.1186 70.2451 36.1186C70.2451 36.1186 69.6656 35.9371 69.4063 35.8505C69.7262 36.6981 69.657 39.8285 69.657 39.8285C68.5241 39.4134 67.0433 38.3064 67.0433 38.3064C67.0541 38.5054 67.0433 38.9119 67.0433 38.9119C66.2931 38.4794 65.2036 36.3782 65.2036 36.3782L66.0338 32.8413L70.5132 33.4811Z" fill="#2D2D30"/>
<path d="M57.1609 29.6154C57.1609 29.6154 57.5984 27.0543 60.2741 25.7296C62.6263 24.5651 64.5634 24.8072 64.5634 24.8072C63.9521 24.4613 64.0299 24 64.0299 24C65.206 24.173 67.6304 24.5881 69.0603 26.433C70.2596 27.0786 70.8358 28.8082 70.8936 30.0651C70.9514 31.322 70.5131 32.0597 70.5131 32.0597L62.6263 31.5409L57.1609 29.6154Z" fill="#2D2D30"/>
<path d="M67.033 30.1252C67.033 30.1252 67.1246 31.0683 67.0433 31.9276H66.3276L67.033 30.1252Z" fill="#17171A"/>
<path d="M70.8932 30.5234L69.2043 30.8154C69.2043 30.8154 69.3413 31.3262 69.5256 31.9948L70.5133 32.0598C70.5133 32.0598 70.8456 31.4995 70.8932 30.5234Z" fill="#17171A"/>
<path d="M57.8296 37.6768C58.2419 37.6071 59.1172 37.2955 59.2005 37.2407C59.2838 37.1862 59.371 37.1447 59.3499 37.1184C59.3289 37.0921 59.1908 37.0678 59.1427 37.0927C59.0948 37.1179 58.9977 37.2153 58.8668 37.2731C58.7359 37.3312 57.8296 37.6768 57.8296 37.6768Z" fill="#C45456"/>
<path d="M57.6021 36.3277C57.6021 36.3277 57.3121 36.126 57.428 36.0994C57.544 36.0726 57.8193 36.1415 57.9618 36.2223L57.6021 36.3277Z" fill="#F2A17C"/>
<path d="M70.6383 33.738L60.8789 32.703L60.9157 30.8152L70.6751 31.8499L70.6383 33.738Z" fill="#80808A"/>
<path d="M65.7202 33.2168L67.0574 33.3587C67.1069 32.5172 67.0718 31.4689 67.0718 31.4681L65.9873 31.3533L65.7202 33.2168Z" fill="#63636B"/>
<path d="M69.9971 33.6701L70.6382 33.7382L70.675 31.85L69.45 31.72C69.6049 32.2853 69.8097 33.0242 69.9971 33.6701Z" fill="#63636B"/>
<path d="M64.6726 33.6221C64.6726 33.6221 65.3293 32.3223 66.0045 32.2811C66.68 32.2401 66.9974 32.8224 67.0417 33.6683C67.0854 34.5143 66.3211 35.5803 65.9339 35.9104C65.547 36.24 65.2828 36.4857 64.6147 36.5851L64.6726 33.6221Z" fill="#FBB2C3"/>
<path d="M61.4416 33.0744C61.4848 32.6765 61.5714 31.1027 61.5974 30.6616C61.6234 30.2205 61.1585 29.7902 60.7407 29.7534C59.2499 29.625 57.188 29.4808 56.6077 29.4886C56.308 29.4927 55.9391 29.6156 55.8583 30.0191C55.7775 30.4225 55.5124 33.4436 55.4778 33.8587C55.4432 34.2738 55.5586 34.47 55.72 34.5505C55.8813 34.631 56.6174 34.9136 56.774 34.9509C56.9307 34.9886 58.2335 34.3546 58.4065 34.2738C58.495 34.2326 59.4666 34.1612 60.4294 34.1011C61.1198 34.056 61.3985 33.4724 61.4416 33.0744Z" fill="#F0F0FF"/>
<path d="M59.7841 31.1204H55.7298C55.7107 31.3113 55.691 31.5133 55.6714 31.7203H59.7844C59.9502 31.7203 60.0844 31.5861 60.0844 31.4203C60.0844 31.2546 59.9496 31.1204 59.7841 31.1204Z" fill="#5CB8FF"/>
<path d="M62.3035 29.9153C62.1129 29.8802 61.5007 29.8187 60.7406 29.7534C61.1584 29.7905 61.6233 30.2205 61.5973 30.6616C61.5713 31.1028 61.485 32.6765 61.4415 33.0744C61.3983 33.4724 61.1197 34.056 60.429 34.1011C61.3488 34.0438 62.2601 33.9971 62.384 33.9971C62.6378 33.9971 62.7413 33.8241 62.7991 33.6166C62.8567 33.409 63.0067 31.3219 63.0529 30.9876C63.0994 30.6533 62.8686 30.0191 62.3035 29.9153Z" fill="#C3C3DE"/>
<path d="M62.9319 29.7942C62.9319 29.7942 63.4679 31.9676 63.5949 32.4289C63.5949 32.4289 63.7911 32.0949 63.8833 31.9275C64.0216 32.8902 64.2754 35.1962 63.9525 36.5223C65.6358 34.9773 66.5366 33.0632 67.0433 30.0654L62.9319 29.7942Z" fill="#2D2D30"/>
<path d="M70.283 27.7676C70.283 27.7676 72.3641 30.2897 71.3667 34.804C70.7325 33.8238 69.4064 31.3797 69.1296 30.6301V29.2237L70.283 27.7676Z" fill="#2D2D30"/>
<path d="M74.3873 48.1912C74.0181 44.6283 71.1589 41.2497 71.0552 41.1229C70.0747 41.0261 68.8181 41.1 67.169 41.711C66.0162 42.3566 63.8483 44.755 63.8483 44.755C63.2721 45.516 60.8735 49.7821 60.4124 50.6355C59.9511 51.4889 59.9165 52.1345 60.0837 52.8264C60.2508 53.5182 61.4731 56.839 62.3033 58.5685C67.5839 59.1682 73.8106 57.9229 74.5489 57.7154C74.5489 57.7154 74.8926 53.0704 74.3873 48.1912ZM72.5022 49.3324C71.8621 52.6014 69.8041 53.7946 69.4927 53.8984C69.1814 54.0022 68.403 53.9676 67.4895 53.4659C66.5757 52.9642 64.7883 50.8541 64.8575 47.7583C64.9267 44.6626 66.3104 42.8118 67.4895 42.1546C69.1593 41.5438 71.136 42.6217 71.8449 43.5036C72.5539 44.3856 73.142 46.0637 72.5022 49.3324Z" fill="#222659"/>
<path d="M50.5179 125.841C51.1765 126.069 52.0363 126.281 54.0705 126.301C56.1051 126.321 58.2671 125.651 58.6446 125.355C59.0218 125.059 59.7532 124.398 60.3246 124.255C60.7478 124.15 62.2357 123.853 62.9815 123.705C62.9013 122.61 62.8044 121.398 62.7834 121.264C62.746 121.027 62.7004 120.913 62.7004 120.913C62.7004 120.913 62.4034 120.6 61.9156 120.964C61.4277 121.328 60.3534 122.02 60.225 122.046C60.0961 122.073 59.0312 121.522 58.8391 121.337C58.6471 121.153 58.6872 120.915 58.8859 120.512C59.0849 120.109 59.417 119.514 59.4416 119.333C59.4662 119.153 59.0484 118.933 59.0484 118.933C58.887 118.842 58.7072 118.92 58.4863 119.106C58.2658 119.293 52.911 122.67 52.911 122.67C51.811 123.31 49.4425 123.942 49.2214 123.999C48.9998 124.057 48.7319 124.105 48.6093 124.328C48.5537 124.429 48.5194 124.571 48.5105 124.735C49.1104 125.155 50.0004 125.661 50.5179 125.841Z" fill="white"/>
<path d="M52.8192 122.721C52.8192 122.721 53.7136 124.245 53.8749 124.557C54.0362 124.868 54.1862 124.926 54.4283 124.857C54.6705 124.787 55.5928 124.222 56.0079 124.003C56.423 123.784 56.5611 123.634 56.446 123.323C56.3309 123.012 55.4024 121.093 55.4024 121.093C55.4024 121.093 55.2237 120.925 54.9932 121.028C54.7626 121.132 53.1944 122.216 53.0215 122.332C52.8485 122.447 52.7555 122.612 52.8192 122.721Z" fill="#2D2D30"/>
<path d="M63.0954 125.481C63.0943 125.313 63.0425 124.543 62.9813 123.705C62.2356 123.853 60.7476 124.15 60.3245 124.255C59.753 124.398 59.0216 125.059 58.6444 125.355C58.267 125.651 56.1046 126.321 54.0704 126.301C52.0361 126.281 51.1763 126.069 50.5177 125.841C50.0002 125.661 49.1103 125.155 48.5106 124.734C48.5001 124.932 48.5291 125.159 48.6152 125.385C48.7721 125.797 49.9778 126.558 51.1655 126.861C52.3533 127.164 56.7826 127.15 58.772 126.922C60.7611 126.695 61.9511 126.446 62.3319 126.351C62.7129 126.256 63.0973 125.867 63.0954 125.481Z" fill="#E3C1B1"/>
<path d="M70.0056 42.8868C71.6892 43.6249 73.6496 46.1849 74.8948 47.1302C76.1401 48.0755 80.337 50.9814 81.7898 52.1343C83.2427 53.2871 83.7961 54.0197 84.2286 54.3481C84.6612 54.6766 84.9551 54.9016 84.9379 55.455C84.9207 56.0085 84.4016 58.8104 82.2915 61.5605C80.1815 64.3107 75.4068 69.309 75.122 69.5685C74.8373 69.8281 74.8027 70.8658 74.2492 71.3673C73.6958 71.8687 72.9865 72.1975 72.8827 72.3187C72.779 72.4399 72.7098 72.7252 72.7098 72.7252C72.7098 72.7252 72.8656 72.5348 73.1941 72.4656C73.5225 72.3964 73.7389 72.4656 73.7389 72.5954C73.7389 72.7252 73.4622 72.9499 73.2461 73.1317C73.03 73.3132 72.5628 73.7197 72.4505 73.8235C72.3381 73.9273 71.871 73.7369 71.6289 73.616C71.058 73.7372 70.6689 73.8661 70.548 73.8534C70.427 73.8407 70.2106 73.3478 70.1935 73.3132C69.6054 73.4084 69.3201 73.3478 69.2941 73.2526C69.2681 73.1574 69.1729 72.6646 69.1729 72.6646C69.1729 72.6646 68.6712 72.431 68.5849 72.3704C68.4982 72.3098 68.4033 72.1543 68.5328 71.7738C68.6626 71.3933 69.1469 70.3555 69.1986 70.2343C69.2504 70.1131 69.5185 69.8884 69.7435 69.8018C69.9685 69.7152 72.6406 68.6343 72.805 68.4442C72.9694 68.2538 77.4549 60.7362 78.1005 59.6292C78.7461 58.5223 79.5995 57.0927 79.5995 57.0927L73.3731 53.5874C72.0354 52.9418 67.4896 50.6355 67.4896 50.6355C67.4896 50.6355 65.69 49.0554 66.4084 45.7236C67.1265 42.3918 70.0056 42.8868 70.0056 42.8868Z" fill="#FBB2C3"/>
<path d="M72.9388 68.2399C73.5487 68.7466 75.0201 69.7104 75.0201 69.7104C75.0201 69.7104 75.2005 69.8355 75.3477 69.7104C75.4946 69.5853 77.7345 67.0948 77.8383 66.9478C77.942 66.8009 77.8383 66.6988 77.8383 66.6988C77.2848 66.4378 75.6045 65.2426 75.1648 64.5602C75.1648 64.5602 74.9874 64.5004 74.8952 64.6388C74.8028 64.7772 73.0121 67.8472 72.939 67.977C72.8654 68.1068 72.8801 68.192 72.9388 68.2399Z" fill="white"/>
<path d="M79.5993 57.0928C79.5993 57.0928 80.4178 55.8818 81.6056 55.2476C81.6056 55.2476 80.2443 55.343 79.0278 56.7712L79.5993 57.0928Z" fill="#F894AC"/>
<path d="M26.772 58.7988C26.8641 59.0755 27.6251 61.0821 27.7521 61.3588C27.8789 61.6355 28.1672 62.062 28.8937 62.5579C29.6201 63.0538 35.0509 65.9019 35.6044 66.1786C36.1578 66.4553 37.9682 66.3745 38.5676 66.1094C39.0054 65.916 39.7426 65.1032 40.1095 64.6776C37.3774 62.9832 32.3436 59.8866 32.1624 59.7443C31.9202 59.554 31.6435 59.1217 31.5915 58.7066C31.5395 58.2915 31.4011 57.0808 31.3665 56.7003C31.3319 56.3198 31.2799 55.954 30.934 55.618C30.5881 55.2821 23.4794 50.2838 23.4794 50.2838C23.0469 49.9725 22.165 49.8167 21.7499 50.2838C21.5238 50.5384 20.4451 51.9995 19.4456 53.3721C21.0592 54.3949 25.3673 57.1295 25.872 57.4846C26.4952 57.9226 26.6798 58.522 26.772 58.7988Z" fill="#BCCAD9"/>
<path d="M41.8137 65.746C41.6875 65.6591 41.0286 65.2473 40.1098 64.6778C39.7429 65.1034 39.0057 65.9162 38.5679 66.1096C37.9682 66.3747 36.1581 66.4555 35.6047 66.1788C35.0512 65.9021 29.6204 63.054 28.894 62.5581C28.1676 62.0622 27.8792 61.6357 27.7525 61.359C27.6257 61.0823 26.8647 59.0757 26.7723 58.799C26.6801 58.5223 26.4956 57.9229 25.8729 57.4848C25.3682 57.1298 21.06 54.3951 19.4464 53.3723C18.6121 54.5188 17.8328 55.603 17.6518 55.8704C17.2539 56.4584 17.0984 56.8563 17.0984 57.6345C17.0984 58.4127 17.0984 62.5639 17.0984 63.2557C17.0984 63.9475 17.2368 64.5184 18.0669 64.9161C18.8971 65.3137 36.5215 71.2637 37.1613 71.5058C37.8011 71.748 38.1819 71.7134 38.6661 71.7134C39.1504 71.7134 39.1612 71.7134 39.4758 71.7134C39.7905 71.7134 40.2919 71.5404 40.4995 71.1425C40.707 70.7446 42.1253 67.4067 42.2811 67.0433C42.4369 66.68 42.3151 66.0919 41.8137 65.746Z" fill="#222659"/>
<path d="M27.4551 63.67C27.4551 65.3562 26.0886 66.7229 24.4025 66.7229C22.7163 66.7229 21.3499 65.3562 21.3499 63.67C21.3499 61.9842 22.7163 60.6174 24.4025 60.6174C26.0886 60.6174 27.4551 61.9845 27.4551 63.67Z" fill="#99A4BF"/>
<path d="M26.1431 63.67C26.1431 64.6314 25.3639 65.4107 24.4025 65.4107C23.4411 65.4107 22.6619 64.6314 22.6619 63.67C22.6619 62.709 23.4411 61.9297 24.4025 61.9297C25.3639 61.93 26.1431 62.7092 26.1431 63.67Z" fill="#2D2D30"/>
<path d="M16.6064 122.938L30.6504 70.3062H24.7428L10.6987 122.938H16.6064Z" fill="#C3D0DE"/>
<path d="M22.4417 78.9293L27.1555 83.4035L30.6503 70.3062H24.7427L22.4417 78.9293Z" fill="#99A4BF"/>
<path d="M109.214 126.644C112.12 126.644 114.057 127.705 115.072 129.088C115.072 129.088 115.072 132.259 115.072 132.957C115.072 133.654 114.726 134 114.265 134C113.804 134 11.9901 134 11.3675 134C10.7448 134 10.3989 133.493 10.3989 132.778C10.3989 132.063 10.3989 126.644 10.3989 126.644C10.3989 126.644 106.309 126.644 109.214 126.644Z" fill="#222659"/>
<path d="M11.2866 119.241C10.3873 119.241 9.93758 119.414 9.55708 120.106C9.17658 120.798 8.00048 122.877 7.68916 123.705C7.37784 124.534 7.27406 125.364 7.41243 126.471C7.55079 127.578 7.82752 129.342 8.01791 130.224C8.2083 131.106 8.70973 132.957 10.5085 132.957C12.3072 132.957 116.663 132.957 117.286 132.957C117.909 132.957 117.931 132.548 117.885 132.063C117.839 131.579 116.963 129.204 116.617 128.812C116.271 128.42 115.902 128.097 114.588 128.097C113.273 128.097 40.3781 128.097 39.0291 128.097C37.68 128.097 36.9882 127.705 36.158 126.944C35.3278 126.183 31.0155 121.271 30.4621 120.648C29.9086 120.025 28.94 119.241 26.3571 119.241C23.7741 119.241 11.2866 119.241 11.2866 119.241Z" fill="#1E9DF1"/>
<path d="M21.3702 63.6707C20.6092 63.6707 20.2459 63.8436 20.3497 64.4837C20.4534 65.1238 21.6295 70.5371 21.8891 71.3502C22.1487 72.1632 22.3042 72.5437 22.7539 72.8896C23.2036 73.2355 24.5526 74.2387 25.1407 74.5846C25.7287 74.9305 26.2996 75.1035 27.4929 75.1035C28.6861 75.1035 56.4977 75.1035 57.4663 75.1035C58.4348 75.1035 58.7462 74.6538 58.5732 74.0311C58.4003 73.4085 56.9474 71.1601 56.4977 70.5028C56.048 69.8456 54.5606 68.9695 52.5543 68.9695C50.5481 68.9695 33.9905 68.9695 32.7911 68.9695C31.5921 68.9695 31.4709 68.6869 31.1078 68.1852C30.7447 67.6835 28.7556 64.8299 28.5652 64.5703C28.3748 64.3107 27.7868 63.6709 26.6973 63.6709C25.6078 63.6709 21.3702 63.6707 21.3702 63.6707Z" fill="#BCCAD9"/>
<defs>
<linearGradient id="paint0_linear_76_267" x1="45.8466" y1="57.7032" x2="47.3255" y2="58.2243" gradientUnits="userSpaceOnUse">
<stop stop-color="#F894AC"/>
<stop offset="1" stop-color="#FBB2C3"/>
</linearGradient>
<linearGradient id="paint1_linear_76_267" x1="45.4443" y1="57.0274" x2="47.3209" y2="57.2349" gradientUnits="userSpaceOnUse">
<stop stop-color="#FBB2C3"/>
<stop offset="1" stop-color="#F894AC"/>
</linearGradient>
<linearGradient id="paint2_linear_76_267" x1="46.3708" y1="55.5718" x2="47.9698" y2="56.0457" gradientUnits="userSpaceOnUse">
<stop stop-color="#F894AC"/>
<stop offset="1" stop-color="#FBB2C3"/>
</linearGradient>
<linearGradient id="paint3_linear_76_267" x1="46.3998" y1="54.3058" x2="48.0343" y2="54.989" gradientUnits="userSpaceOnUse">
<stop stop-color="#F894AC"/>
<stop offset="1" stop-color="#FBB2C3"/>
</linearGradient>
</defs>
</svg>
