<svg width="123" height="142" viewBox="0 0 123 142" fill="none" xmlns="http://www.w3.org/2000/svg">
<path d="M68.8467 74.8326C68.8467 74.8326 59.0107 77.2746 57.1301 78.4137C57.1301 78.4137 58.399 106.931 58.2268 109.551C58.0546 112.172 51.3765 135.123 51.1487 140.932L94.7905 141C94.7905 141 87.8298 111.45 88.1719 109.286C88.514 107.121 91.3167 78.0724 91.3167 78.0724C91.3167 78.0724 79.9616 74.7824 78.2571 74.8326C76.5519 74.8828 68.8467 74.8326 68.8467 74.8326Z" fill="#1E9DF1"/>
<path d="M63.1068 89.3491H84.3806C84.3806 89.3491 87.2018 108.981 87.1106 111.374C87.0187 113.765 92.7538 140.932 92.7538 140.932L53.4817 141C55.1506 131.659 59.1635 110.614 59.1635 110.614L62.0341 89.3499" fill="#FAF4E8"/>
<path d="M62.3494 89.3493L65.9421 75.5831L67.8844 75.0757L64.2708 89.3493H62.3494Z" fill="#FAF4E8"/>
<path d="M84.1357 89.3495L81.2172 75.3385L79.2749 74.8311L82.5981 89.3495H84.1357Z" fill="#FAF4E8"/>
<path d="M65.1573 91.2861C65.1573 91.8522 64.6986 92.3117 64.1325 92.3117C63.5664 92.3117 63.1077 91.8529 63.1077 91.2861C63.1077 90.7192 63.5664 90.2612 64.1325 90.2612C64.6986 90.2612 65.1573 90.7192 65.1573 91.2861Z" fill="#232020"/>
<path d="M83.4611 91.2861C83.4611 91.8522 83.0023 92.3117 82.4355 92.3117C81.8686 92.3117 81.4106 91.8529 81.4106 91.2861C81.4106 90.7192 81.8694 90.2612 82.4355 90.2612C83.0016 90.2612 83.4611 90.7192 83.4611 91.2861Z" fill="#232020"/>
<path d="M65.8599 95.9033H81.3329C81.3329 95.9033 81.6279 107.978 73.769 107.978C64.957 107.978 65.8599 95.9033 65.8599 95.9033Z" stroke="#232020" stroke-width="0.223117" stroke-miterlimit="10" stroke-linecap="round" stroke-linejoin="round"/>
<path d="M65.8335 97.2666H81.2787" stroke="#232020" stroke-width="0.223117" stroke-miterlimit="10" stroke-linecap="round" stroke-linejoin="round"/>
<path d="M85.4451 89.3491L88.3412 108.943" stroke="#232020" stroke-width="0.223117" stroke-miterlimit="10" stroke-linecap="round" stroke-linejoin="round"/>
<path d="M87.3549 90.4307C87.3371 93.9068 87.2452 97.3821 87.0784 100.854" stroke="#232020" stroke-width="0.223117" stroke-miterlimit="10" stroke-linecap="round" stroke-linejoin="round"/>
<path d="M58.2268 89.3494L59.7984 97.9768L60.8596 87.8682" stroke="#232020" stroke-width="0.223117" stroke-miterlimit="10" stroke-linecap="round" stroke-linejoin="round"/>
<path d="M73.2627 72.8637C71.7544 74.1218 69.6221 73.6492 67.6412 73.1672C67.5609 73.1495 67.4805 73.1317 67.4087 73.114C67.1855 73.0607 66.9716 73.0066 66.7577 72.9626C66.0973 72.8112 65.4278 72.6946 64.7497 72.6058C64.6786 72.588 64.6068 72.5787 64.5265 72.5787C64.1071 72.5255 63.6963 72.4807 63.2684 72.4451H63.2599C63.1889 72.4366 63.1085 72.4366 63.0367 72.4366C62.225 72.3741 61.4033 72.3386 60.5831 72.3293C60.5121 72.3208 60.4318 72.3208 60.3599 72.3208C58.9683 72.2938 57.5851 72.2938 56.1926 72.2582H56.1833C56.0945 72.249 56.0049 72.249 55.9154 72.249C55.2102 72.2219 54.5051 72.1864 53.8008 72.1239C53.7475 72.1146 53.685 72.1146 53.6309 72.1061C53.5598 72.0976 53.4795 72.0976 53.4077 72.0791C52.4709 71.9717 51.4893 71.74 50.6591 71.3384C50.588 71.3114 50.5162 71.2759 50.4537 71.2311C49.5524 70.7669 48.8566 70.0711 48.6063 69.0802C48.2673 67.7418 48.9361 66.3587 49.3114 65.0017C49.3825 64.743 49.445 64.5021 49.4813 64.2518C49.4813 64.2518 49.4813 64.2518 49.4813 64.2426C49.5617 63.7074 49.5702 63.1807 49.4188 62.6632C49.035 61.3426 47.7499 60.5216 46.9289 59.4242C46.8578 59.3346 46.7953 59.2365 46.7412 59.1477C46.732 59.1477 46.732 59.1384 46.732 59.1384C46.5891 58.9067 46.4555 58.6743 46.3481 58.4156C45.884 57.3892 45.7681 56.2207 46.0091 55.1225C46.491 53.0164 48.1599 51.4819 49.445 49.7241C49.4535 49.7241 49.4535 49.7241 49.4535 49.7149C49.5339 49.599 49.6234 49.4739 49.7038 49.3488C49.8466 49.1611 49.9718 48.965 50.0876 48.7595C50.0969 48.7418 50.1054 48.724 50.1146 48.7062C50.1324 48.6792 50.1502 48.6529 50.1594 48.6166C50.1594 48.6166 50.1772 48.6166 50.1687 48.6074C50.2845 48.4019 50.4004 48.188 50.4992 47.9648C51.1148 46.5909 51.2576 45.0648 51.3295 43.5295C51.365 42.9047 51.3827 42.2977 51.4098 41.6822V41.6729C51.4994 39.9059 51.6955 38.1929 52.6231 36.7202C54.0866 34.4002 56.9333 33.3738 58.8339 31.3929C59.7267 30.4645 60.3955 29.3401 61.2434 28.3855L61.2519 28.377C61.5199 28.0557 61.8142 27.7615 62.1447 27.5113C62.2606 27.4132 62.3764 27.3236 62.493 27.2433C63.4036 26.6278 64.4917 26.315 65.5714 26.1544C65.6425 26.1451 65.7143 26.1366 65.8031 26.1273C65.8124 26.1273 65.8301 26.1188 65.8386 26.1188C66.1151 26.0833 66.4456 26.0563 66.8117 26.0385C68.0613 25.9582 69.7117 25.9852 71.0949 26.2972C71.8981 26.4756 72.6032 26.7436 73.1114 27.1452C73.3346 27.3058 73.513 27.5113 73.6466 27.7345C74.1995 28.689 73.5037 30.8576 73.4056 31.9111C73.2357 33.624 73.1021 35.3378 73.004 37.0507C72.8078 40.3616 72.7275 43.6809 72.763 46.9917C72.8341 53.6219 73.3701 60.2521 74.3694 66.802C74.6992 68.9374 74.9224 71.489 73.2627 72.8637Z" fill="#303351"/>
<path d="M99.8459 59.3266C99.7301 59.4872 99.605 59.6301 99.4621 59.7815L99.4528 59.7908L99.0868 60.2016C99.0868 60.2016 99.0867 60.2016 99.0783 60.2109C98.5871 60.7021 98.1052 61.1747 97.7576 61.7369C97.7576 61.7462 97.7484 61.7462 97.7484 61.7547C97.5792 61.9957 97.4626 62.2544 97.3738 62.5401C97.3383 62.683 97.3027 62.8259 97.2842 62.9688C97.0255 64.9142 98.6767 66.9307 98.1855 68.8938C97.8912 70.0809 96.9359 70.83 95.7759 71.2941C95.6863 71.3297 95.5975 71.3652 95.5079 71.3922C94.7225 71.6687 93.8567 71.8293 93.0451 71.9012C92.8844 71.9189 92.733 71.9282 92.5724 71.9367C92.5014 71.946 92.421 71.946 92.3492 71.9545C91.7337 71.9993 91.1089 72.017 90.4934 72.0348L90.2432 72.044C89.5473 72.0618 88.86 72.0618 88.1641 72.0711H87.9324C87.2721 72.0803 86.6025 72.0888 85.9422 72.1066H85.7013C84.5768 72.1514 83.4616 72.2139 82.3464 72.3653C82.2661 72.3653 82.1858 72.3746 82.1054 72.3924C81.5432 72.4634 80.981 72.5615 80.428 72.6866C80.357 72.6951 80.2851 72.7136 80.2141 72.7314C78.037 73.2403 75.4938 74.0613 73.7716 72.6333C72.1297 71.2771 72.3529 68.7425 72.6741 66.6364C73.665 60.1491 74.2002 53.59 74.2713 47.0316C74.3068 43.7478 74.2265 40.464 74.0303 37.1887C73.9322 35.4842 73.7986 33.789 73.638 32.093C73.5306 31.0937 72.9058 29.068 73.3345 28.0771C73.3345 28.0686 73.3437 28.0501 73.3522 28.0416C73.3607 28.0145 73.37 27.9883 73.3877 27.9613C74.5207 25.9896 79.5453 26.1232 81.3918 26.3997C82.463 26.551 83.5334 26.8638 84.4347 27.4708C85.9515 28.4972 86.7902 30.255 88.0576 31.5849C89.9404 33.5396 92.7601 34.5567 94.2058 36.8589C95.1426 38.3494 95.3303 40.0979 95.4191 41.892C95.4191 41.892 95.4191 41.892 95.4191 41.9012C95.4284 42.0704 95.4284 42.2495 95.4369 42.4187C95.4461 42.4187 95.4461 42.4187 95.4369 42.4279C95.5079 44.195 95.5442 45.9797 96.1505 47.5861C96.186 47.7197 96.2393 47.8541 96.3018 47.9877C96.3111 47.997 96.3111 48.0148 96.3196 48.0232C96.6138 48.6743 97.0154 49.2813 97.4526 49.8706C97.5151 49.9509 97.5684 50.0135 97.6402 50.0938C97.6402 50.0938 97.6495 50.103 97.6495 50.1115C98.8628 51.7002 100.318 53.1544 100.746 55.0821C101.077 56.5332 100.738 58.1303 99.8459 59.3266Z" fill="#303351"/>
<path d="M73.7979 82.1348C69.3363 82.1348 66.6587 78.5653 68.4435 76.7805C69.541 75.6831 69.9696 70.8462 70.121 67.3036C70.1658 66.4471 70.192 65.6795 70.2013 65.0462C70.2283 64.0376 70.2283 63.395 70.2283 63.395H78.2594C78.2594 63.395 78.2594 63.7789 78.2687 64.4214C78.2687 65.1713 78.278 66.2772 78.3042 67.5175C78.3938 71.2477 78.5985 76.2268 79.1522 76.7805C80.0442 77.6733 78.2594 82.1348 73.7979 82.1348Z" fill="#F1C3B5"/>
<path d="M78.3041 67.518C77.4299 68.651 76.2251 69.6418 74.6898 69.6418C72.8424 69.6418 71.2453 68.4548 70.1208 67.3041C70.1656 66.4476 70.1919 65.6799 70.2012 65.0467L78.2678 64.4219C78.2686 65.171 78.2771 66.2769 78.3041 67.518Z" fill="#FF7171"/>
<path d="M89.9759 58.2911C89.1997 58.3714 88.334 58.2201 87.3972 57.7559C87.2991 57.9343 87.201 58.1127 87.0937 58.2826C87.0937 58.2911 87.0937 58.2911 87.0937 58.2911C86.38 59.5314 85.5413 60.6914 84.586 61.7356C84.1574 62.2267 83.6932 62.6816 83.2121 63.1187C80.5708 65.4835 77.314 66.9648 73.7978 66.9648C69.9425 66.9648 66.3999 65.1893 63.6335 62.4051C63.4636 62.2352 63.2945 62.0661 63.1339 61.8877C62.0272 60.6922 61.0456 59.3268 60.2424 57.8455C60.2331 57.8277 60.2246 57.81 60.2154 57.7922C59.4299 58.176 58.6893 58.3274 58.0112 58.3097C53.7906 58.1938 51.8807 51.2508 54.4146 48.2257C55.6997 46.6912 56.842 46.6464 57.7255 47.1105C57.7432 47.1198 57.7703 47.1283 57.788 47.1376C57.8058 46.8966 57.8235 46.6557 57.8506 46.424C58.6986 37.9109 65.5071 31.2715 73.797 31.2715C82.0868 31.2715 88.9047 37.9109 89.7519 46.424C89.7697 46.6827 89.7874 46.9329 89.8052 47.1916C90.0994 47.0217 90.4207 46.8974 90.7597 46.8704C91.4911 46.79 92.3484 47.1206 93.2759 48.2265C95.7496 51.179 93.9918 57.854 89.9759 58.2911Z" fill="#F1C3B5"/>
<path d="M57.9668 47.1894C59.2048 47.2118 60.4443 46.7692 61.3155 45.9954C62.589 44.864 63.0223 43.1495 64.3197 42.0397C65.9608 40.6349 68.5782 40.5206 70.3853 39.2834C72.3647 37.9287 72.9532 35.5609 73.4089 33.3907C73.4282 33.2996 73.5857 33.3204 73.6746 33.2702C73.7626 33.22 73.5471 33.1606 73.636 33.2108C73.0405 31.8631 71.0333 31.3603 69.3922 31.2839C66.1725 31.1341 62.9442 32.3002 60.6227 34.268C58.3012 36.2359 56.8748 38.9582 56.4647 41.7709C56.1789 43.7248 56.6492 45.5969 57.9668 47.1894Z" fill="#303351"/>
<path d="M89.6638 47.9593C88.3663 47.9825 87.0665 47.5191 86.1537 46.7074C84.8192 45.5211 84.3643 43.724 83.0043 42.5601C81.2836 41.0874 78.5396 40.9677 76.6452 39.671C74.57 38.2507 73.9537 35.7678 73.4749 33.4934C73.4548 33.3984 73.2895 33.4192 73.1968 33.3675C73.1042 33.315 73.3304 33.2524 73.2378 33.3049C73.8626 31.8916 75.9663 31.3649 77.687 31.2846C81.0619 31.127 84.4469 32.3496 86.8804 34.4132C89.3139 36.4768 90.8099 39.3296 91.2393 42.279C91.5381 44.3272 91.0454 46.2896 89.6638 47.9593Z" fill="#303351"/>
<path d="M59.4476 54.476C59.5302 54.6799 59.7125 54.9201 59.8778 54.8012C60.0948 53.9339 60.0446 53.0133 60.0623 52.1112C60.0956 50.3991 60.3821 48.6938 60.9049 47.0913C61.1343 46.3877 61.3791 45.4965 60.915 44.969C60.7327 44.762 60.4748 44.6686 60.2214 44.6308C55.7382 43.9604 58.5927 52.3576 59.4476 54.476Z" fill="#303351"/>
<path d="M88.0003 55.3126C87.9223 55.5235 87.7493 55.7722 87.5933 55.6486C87.3878 54.7527 87.4357 53.8012 87.4187 52.8691C87.3871 51.0998 87.1167 49.3374 86.6209 47.6816C86.4039 46.9548 86.1722 46.0335 86.6117 45.489C86.7839 45.2759 87.0279 45.1785 87.2681 45.1399C91.5111 44.4464 88.8096 53.1232 88.0003 55.3126Z" fill="#303351"/>
<path d="M79.3752 31.8501C79.3752 32.5583 76.9155 33.1321 73.8811 33.1321C70.8467 33.1321 68.387 32.5583 68.387 31.8501C68.387 31.1427 70.8467 30.5688 73.8811 30.5688C76.9155 30.5688 79.3752 31.1427 79.3752 31.8501Z" fill="#303351"/>
<path d="M65.3008 47.4461C66.4153 46.9286 67.6432 46.6583 68.8719 46.6607C69.1693 46.6614 69.4728 46.6784 69.7493 46.7873C70.0258 46.8962 70.2744 47.1109 70.3586 47.3959C70.3748 47.4499 70.3841 47.5102 70.3625 47.5627C70.3254 47.6546 70.2134 47.6863 70.1153 47.7025C69.6056 47.789 69.0851 47.7844 68.5684 47.8075C67.4787 47.8562 66.3952 48.0323 65.3456 48.3288C65.0468 48.413 64.1501 48.9181 64.2019 48.3033C64.2351 47.918 65.0074 47.5828 65.3008 47.4461Z" fill="#303351"/>
<path d="M82.6925 47.4934C81.5117 46.9451 80.2104 46.6593 78.909 46.6616C78.5939 46.6624 78.2727 46.6809 77.98 46.796C77.6873 46.9119 77.4231 47.1389 77.3343 47.4409C77.3173 47.4988 77.3073 47.5621 77.3305 47.6177C77.3698 47.715 77.4888 47.7483 77.5923 47.7652C78.1329 47.8572 78.6835 47.8517 79.2311 47.8765C80.3849 47.9282 81.5333 48.1143 82.6446 48.4287C82.9613 48.5182 83.9112 49.0527 83.8556 48.4024C83.8216 47.9931 83.003 47.6378 82.6925 47.4934Z" fill="#303351"/>
<path d="M68.6712 51.2823C68.6712 52.053 68.0464 52.6778 67.2757 52.6778C66.5049 52.6778 65.8801 52.053 65.8801 51.2823C65.8801 50.5115 66.5049 49.8867 67.2757 49.8867C68.0464 49.8867 68.6712 50.5115 68.6712 51.2823Z" fill="#303351"/>
<path d="M81.4954 51.2823C81.4954 52.053 80.8706 52.6778 80.0999 52.6778C79.3291 52.6778 78.7043 52.053 78.7043 51.2823C78.7043 50.5115 79.3291 49.8867 80.0999 49.8867C80.8706 49.8867 81.4954 50.5115 81.4954 51.2823Z" fill="#303351"/>
<path d="M73.7028 53.1763C73.2363 54.0243 72.81 54.8947 72.4254 55.7836C72.2748 56.1319 72.1296 56.4879 72.0764 56.8633C72.0555 57.0123 72.064 57.1938 72.1922 57.2726C72.2617 57.3158 72.3482 57.3151 72.4301 57.3166C72.8386 57.3259 73.2448 57.4317 73.6063 57.6232C73.8635 57.7591 74.1284 57.9445 74.4164 57.9005C74.7315 57.8526 74.9424 57.5468 75.2389 57.4294C75.554 57.305 75.9618 57.3931 76.2012 57.1529C76.402 56.9521 76.3757 56.6215 76.3062 56.3458C76.161 55.7728 75.8931 55.2407 75.6258 54.714C75.3579 54.1849 75.0906 53.6559 74.8226 53.1269C74.4875 52.4643 74.031 52.5793 73.7028 53.1763Z" fill="url(#paint0_linear_76_466)"/>
<path d="M87.0938 58.2832C87.0938 58.2917 87.0938 58.2917 87.0938 58.2917C86.3802 59.532 85.5415 60.692 84.5862 61.7361C83.0423 62.4235 81.1772 62.1284 79.9099 60.8704C78.268 59.2192 78.268 56.5517 79.9099 54.9098C81.5611 53.2586 84.2286 53.2586 85.8713 54.9098C86.7996 55.8288 87.2012 57.0784 87.0938 58.2832Z" fill="url(#paint1_linear_76_466)"/>
<path d="M67.4353 60.8709C66.2753 62.0308 64.5979 62.3699 63.1344 61.888C62.0277 60.6925 61.0461 59.327 60.2429 57.8458C60.2522 56.7838 60.6623 55.7219 61.4747 54.9103C63.1259 53.2591 65.7934 53.2591 67.4353 54.9103C69.0857 56.5514 69.0857 59.2197 67.4353 60.8709Z" fill="url(#paint2_linear_76_466)"/>
<path d="M70.5132 59.5378C71.6979 60.0382 73.0656 60.317 74.3492 60.3394C75.5926 60.361 76.8615 60.0915 77.9118 59.4258" stroke="#303351" stroke-width="0.223117" stroke-miterlimit="10" stroke-linecap="round" stroke-linejoin="round"/>
<path d="M73.2605 61.8604C73.2605 61.8604 74.5108 62.1739 75.1658 61.8604" stroke="#FF7171" stroke-width="0.223117" stroke-miterlimit="10" stroke-linecap="round" stroke-linejoin="round"/>
<path d="M89.5942 50.7693C89.7248 49.6595 90.894 47.9025 92.1428 49.0347C92.4618 49.3243 92.6348 49.7398 92.7591 50.153C93.3291 52.0474 93.1731 56.6179 90.2013 56.3128" stroke="#303351" stroke-width="0.223117" stroke-miterlimit="10" stroke-linecap="round" stroke-linejoin="round"/>
<path d="M91.9254 48.8657C91.9254 48.8657 88.9212 52.1843 91.3084 56.1663" stroke="#303351" stroke-width="0.223117" stroke-miterlimit="10" stroke-linecap="round" stroke-linejoin="round"/>
<path d="M58.2266 50.7874C58.0961 49.6776 56.9268 47.9206 55.678 49.0528C55.359 49.3424 55.186 49.7579 55.0617 50.1711C54.4917 52.0655 54.6477 56.6352 57.6196 56.3309" stroke="#303351" stroke-width="0.223117" stroke-miterlimit="10" stroke-linecap="round" stroke-linejoin="round"/>
<path d="M55.8962 48.8838C55.8962 48.8838 58.9005 52.2024 56.5133 56.1843" stroke="#303351" stroke-width="0.223117" stroke-miterlimit="10" stroke-linecap="round" stroke-linejoin="round"/>
<path d="M78.3838 37.8345C78.1367 38.365 78.5097 38.9713 78.9098 39.3976C79.662 40.2008 80.5802 40.848 81.5889 41.2866C82.338 41.6126 83.159 41.8396 83.7575 42.3949C84.6549 43.229 84.8186 44.5674 85.3585 45.6679C86.0319 47.0403 87.351 48.0605 88.8315 48.4404" stroke="#303351" stroke-width="0.223117" stroke-miterlimit="10" stroke-linecap="round" stroke-linejoin="round"/>
<path d="M74.2791 33.8438C74.9224 36.2811 75.7047 38.9247 77.7768 40.3604C79.5338 41.5775 82.0028 41.7451 83.3543 43.4017C84.2062 44.4459 84.4433 45.9117 85.3801 46.8801C85.835 47.3505 86.4211 47.6671 86.998 47.976C87.6692 48.3352 88.3403 48.695 89.0106 49.0542" stroke="#303351" stroke-width="0.223117" stroke-miterlimit="10" stroke-linecap="round" stroke-linejoin="round"/>
<path d="M72.8353 33.5376C72.5704 35.334 71.8931 37.0678 70.8691 38.5683C70.3956 39.2619 69.8342 39.9191 69.1051 40.3361C68.027 40.9532 66.6755 40.9941 65.6514 41.6977C64.6243 42.4036 64.103 43.6547 63.1492 44.4579C62.4332 45.0603 61.5227 45.3715 60.7203 45.8527C59.9179 46.3338 59.1695 47.1022 59.1633 48.0383" stroke="#303351" stroke-width="0.223117" stroke-miterlimit="10" stroke-linecap="round" stroke-linejoin="round"/>
<path d="M72.5227 33.5376C72.5891 34.5238 72.0431 35.4344 71.5156 36.27C70.4398 37.9745 69.2381 39.7793 67.3614 40.5145C66.8115 40.73 66.2215 40.8443 65.694 41.11C64.6553 41.6344 63.995 42.6693 63.2319 43.5481C62.4689 44.427 61.3892 45.2325 60.2439 45.0255" stroke="#303351" stroke-width="0.223117" stroke-miterlimit="10" stroke-linecap="round" stroke-linejoin="round"/>
<path d="M51.8722 69.2438C51.5595 69.2438 51.2459 69.1534 50.9455 68.9735C50.2381 68.551 49.6457 67.6428 49.4712 66.7137C49.377 66.2094 49.3476 65.685 49.3198 65.1784C49.2711 64.2933 49.224 63.4569 48.8626 62.6954C48.6101 62.1649 48.2115 61.7061 47.8262 61.2628C47.4887 60.8744 47.1404 60.4728 46.8801 60.0163C45.7804 58.0902 46.5017 55.7857 47.0292 54.584C47.3782 53.7885 47.8161 53.0224 48.2394 52.2818C48.7166 51.4454 49.2117 50.5804 49.5754 49.676C50.486 47.4132 50.5995 44.9295 50.642 42.3701L50.6435 42.2736C50.6636 41.0325 50.6845 39.7489 51.0745 38.5519C51.8004 36.3168 53.6856 34.7012 55.4333 33.4145C55.6241 33.274 55.8156 33.135 56.0079 32.9967C56.8613 32.3789 57.744 31.7402 58.4947 30.9856C58.8438 30.6343 59.1851 30.2419 59.5141 29.862C60.4965 28.7298 61.5113 27.5597 62.9702 27.2161C63.0343 27.2029 63.0899 27.2392 63.1046 27.2987C63.1192 27.3589 63.0814 27.4192 63.0219 27.4331C61.6326 27.7598 60.6417 28.9028 59.6833 30.0079C59.352 30.3902 59.0091 30.7856 58.653 31.1432C57.89 31.9109 57.0003 32.5542 56.1392 33.1774C55.9477 33.3164 55.7561 33.4547 55.5661 33.5945C53.8462 34.8595 51.9935 36.4466 51.2868 38.6206C50.9076 39.786 50.8876 41.0526 50.8675 42.2774L50.8659 42.374C50.8235 44.955 50.7084 47.4611 49.7832 49.7594C49.414 50.6777 48.9159 51.5489 48.434 52.3922C48.0138 53.1274 47.579 53.8889 47.2338 54.6736C46.7233 55.8374 46.0229 58.064 47.074 59.9059C47.3234 60.343 47.6655 60.7361 47.9953 61.1169C48.39 61.5718 48.7985 62.0421 49.0642 62.5997C49.4457 63.4006 49.4951 64.2987 49.543 65.166C49.5708 65.6657 49.5994 66.1824 49.6913 66.6728C49.8542 67.5424 50.4041 68.3896 51.0606 68.7819C51.466 69.0244 51.8946 69.0824 52.3016 68.9534C52.3611 68.9364 52.4237 68.9673 52.4422 69.026C52.4607 69.0847 52.4283 69.1472 52.3696 69.1665C52.2059 69.2175 52.0391 69.2438 51.8722 69.2438Z" fill="#303351"/>
<path d="M82.436 27.021C85.7685 27.6651 87.5633 31.2725 90.3807 33.1646C91.3592 33.8219 92.4867 34.286 93.3007 35.1386C94.5187 36.4145 94.8005 38.3081 94.8461 40.0713C94.8917 41.8344 94.7696 43.6563 95.396 45.3052C96.2501 47.5541 98.3732 49.1435 99.205 51.4017C100.538 55.0207 98.184 58.9339 98.2211 62.7908C98.2365 64.4419 98.6952 66.0954 98.4458 67.7281C98.2303 69.136 97.2078 70.6126 95.7837 70.5964" stroke="#303351" stroke-width="0.223117" stroke-miterlimit="10" stroke-linecap="round" stroke-linejoin="round"/>
<path d="M89.8687 47.542C88.8763 47.3914 87.982 46.7844 87.4761 45.9171C87.1695 45.392 87.0166 44.7988 86.8676 44.225C86.7471 43.7616 86.6235 43.2836 86.4204 42.8511C85.4875 40.8616 83.1258 40.06 81.0421 39.3526C78.977 38.6513 76.5311 37.5578 75.938 35.2972C75.8484 34.9559 75.809 34.6022 75.7712 34.26C75.7326 33.9164 75.6932 33.5603 75.6021 33.2259C75.4337 32.6042 74.9742 31.9493 74.3301 31.886L74.3517 31.6636C75.1541 31.7423 75.643 32.5224 75.8175 33.1672C75.9133 33.5186 75.9534 33.8824 75.9928 34.2346C76.0299 34.569 76.0685 34.9134 76.1542 35.2401C76.7196 37.3971 79.1021 38.4575 81.114 39.141C83.2401 39.8623 85.6497 40.6809 86.6235 42.7561C86.8351 43.2079 86.9618 43.696 87.0838 44.1694C87.229 44.7285 87.3781 45.307 87.6692 45.8051C88.1411 46.6145 88.9759 47.1814 89.9019 47.3219L89.8687 47.542Z" fill="#303351"/>
<path d="M90.9488 46.7533C90.8593 46.7533 90.7789 46.7711 90.7079 46.7888C90.253 46.093 89.7796 45.3786 89.4143 44.6117C89.1911 44.1568 89.0042 43.6834 88.825 43.2193C88.459 42.318 88.0936 41.3719 87.4774 40.6135C86.4239 39.3022 84.7735 38.6148 83.1849 37.9545C81.4272 37.2316 79.6154 36.4825 78.589 34.8939C78.2229 34.3232 77.982 33.6806 77.7503 33.0558C77.6074 32.6542 77.4467 32.2441 77.2599 31.851C76.6976 30.6818 75.8234 29.9589 74.9128 29.9234L74.9221 29.7002C75.913 29.745 76.8583 30.5119 77.4568 31.753C77.653 32.1546 77.8136 32.5739 77.9657 32.9848C78.1889 33.5918 78.4206 34.2251 78.7774 34.7696C79.7683 36.3041 81.4727 37.0007 83.266 37.7499C84.8902 38.4194 86.5676 39.1153 87.6565 40.4714C88.2898 41.2654 88.6652 42.2207 89.0304 43.1397C89.2088 43.5946 89.3965 44.068 89.6104 44.5136C89.9935 45.2898 90.4754 46.0304 90.9488 46.7533Z" fill="#303351"/>
<path d="M90.5121 59.8353C89.8966 60.9868 89.1112 62.7175 89.3521 64.4668C89.4595 65.2429 89.763 65.9836 90.0573 66.7064C90.2805 67.2687 90.5121 67.8487 90.6643 68.4464C90.95 69.6335 90.8875 70.8915 90.4952 72.0338L90.2449 72.043C90.6558 70.9186 90.7353 69.6782 90.4504 68.5005C90.3075 67.9112 90.0758 67.3405 89.8433 66.7875C89.5491 66.0562 89.2456 65.297 89.1297 64.5031C88.8795 62.6828 89.692 60.9065 90.3168 59.7287C90.5399 59.3271 90.7716 58.917 90.9948 58.5239C91.1107 58.3185 91.2265 58.1223 91.3431 57.9169C91.4767 57.8366 91.6196 57.7563 91.7532 57.6489C91.5748 57.9795 91.3787 58.3092 91.191 58.6398C90.967 59.0321 90.7346 59.4337 90.5121 59.8353Z" fill="#303351"/>
<path d="M87.6292 67.8576C88.2988 69.1512 88.4772 70.6595 88.1644 72.0697H87.9327C88.254 70.6958 88.0934 69.2145 87.433 67.9649C87.2191 67.5456 86.9426 67.144 86.6746 66.7424C86.1031 65.8944 85.5147 65.0201 85.4521 63.9853C85.354 62.5488 86.3001 61.2907 87.1295 60.3624C87.2454 60.2373 87.3612 60.1037 87.4778 59.9786C87.9682 59.4341 88.4772 58.8811 88.861 58.2656C88.9321 58.2834 89.0124 58.2927 89.0927 58.3011C88.7004 58.9707 88.1644 59.5592 87.647 60.1307C87.5311 60.2558 87.4153 60.3809 87.2987 60.5146C86.4955 61.4073 85.5849 62.6113 85.6652 63.9683C85.7278 64.9406 86.2808 65.7623 86.8608 66.6273C87.1295 67.0189 87.4068 67.4289 87.6292 67.8576Z" fill="#303351"/>
<path d="M86.2549 71.3025C86.166 71.5704 86.0587 71.8377 85.9428 72.1056H85.7112C85.827 71.8199 85.9521 71.5349 86.0409 71.2399C86.4155 70.0529 86.3444 68.7322 85.8448 67.5993C85.6038 67.0818 85.2825 66.5907 84.9705 66.1087C84.6493 65.6268 84.3195 65.1272 84.0785 64.592C83.8283 64.0297 83.6947 63.3339 83.775 62.6998C83.8731 62.6102 83.9627 62.5214 84.0608 62.4233C83.8909 63.0837 83.9982 63.8598 84.284 64.5024C84.5156 65.0198 84.8369 65.511 85.1582 65.9929C85.4702 66.4748 85.8008 66.9745 86.0417 67.5097C86.5669 68.6875 86.6472 70.0706 86.2549 71.3025Z" fill="#303351"/>
<path d="M82.3466 72.3645C82.2663 72.3645 82.186 72.3738 82.1057 72.3916C82.0609 72.2402 82.0169 72.0973 81.9628 71.9544L81.7844 71.437C81.3025 70.1071 80.8028 68.7332 80.687 67.2967C80.6159 66.3954 80.6978 65.5768 80.965 64.8184C81.0631 64.7558 81.1673 64.6817 81.2739 64.6191C80.9526 65.4046 80.8291 66.2973 80.9102 67.2782C81.0175 68.6791 81.5172 70.0445 81.9898 71.3652L82.1775 71.8741C82.2308 72.034 82.2933 72.2039 82.3466 72.3645Z" fill="#303351"/>
<path d="M80.4282 72.6853C80.3572 72.6938 80.2853 72.7124 80.2143 72.7301C80.1247 72.3463 80.0359 71.9625 79.9378 71.5879C79.8397 71.2133 79.7501 70.838 79.6613 70.4634C79.3493 69.1073 79.0242 67.2731 79.5679 65.5956C79.666 65.5508 79.7579 65.5091 79.8559 65.4551C79.2219 67.1325 79.5625 69.0177 79.8752 70.4101C79.9648 70.7847 80.0629 71.16 80.1517 71.5346C80.2498 71.9177 80.3479 72.3015 80.4282 72.6853Z" fill="#303351"/>
<path d="M92.2521 41.4532C91.0566 39.66 89.2 38.6158 87.2368 37.4998C85.8536 36.7144 84.4257 35.9027 83.2657 34.8138C82.5343 34.1357 81.9095 33.3418 81.3118 32.5826C80.7495 31.8775 80.1788 31.1461 79.527 30.5121C78.2867 29.2988 76.3142 28.2191 74.5032 28.8346L74.4321 28.6292C76.342 27.9782 78.394 29.0934 79.6884 30.3514C80.3487 30.994 80.9287 31.7346 81.4817 32.4397C82.0794 33.1981 82.7042 33.9836 83.4178 34.6531C84.5601 35.7243 85.9788 36.5275 87.3442 37.3037C89.2448 38.3833 91.208 39.4985 92.4398 41.3281C93.9211 43.523 94.0192 46.3789 93.9659 48.3329C93.9566 48.6271 93.9481 48.9306 93.9303 49.2249C93.8678 49.0642 93.7967 48.9129 93.7249 48.7785C93.7342 48.6271 93.7427 48.475 93.7427 48.3236C93.796 46.406 93.6979 43.5948 92.2521 41.4532Z" fill="#303351"/>
<path d="M94.9286 60.6743C94.8838 62.1648 94.3038 63.5743 93.7508 64.9312C93.4473 65.6626 93.1438 66.4125 92.9206 67.1709C92.4657 68.7054 92.3491 70.3473 92.5723 71.936C92.5013 71.9452 92.421 71.9452 92.3491 71.9537C92.1259 70.3389 92.2418 68.6699 92.7059 67.1083C92.9291 66.3407 93.2411 65.5823 93.5446 64.8416C94.0891 63.5032 94.6598 62.1201 94.7046 60.665C94.7402 59.5406 94.4544 58.4076 94.1779 57.3187C94.0351 56.7387 93.8837 56.1409 93.7856 55.5517C93.7586 55.4265 93.7408 55.2929 93.7323 55.1678C93.7949 55.0427 93.8482 54.9269 93.9014 54.8018C93.9285 55.0427 93.964 55.2744 93.9995 55.5154C94.1069 56.0954 94.2498 56.6846 94.4011 57.2553C94.6792 58.3636 94.9641 59.5143 94.9286 60.6743Z" fill="#303351"/>
<path d="M95.4199 41.8997C95.4291 42.0688 95.4291 42.248 95.4376 42.4171C95.1071 41.712 94.67 41.061 94.1525 40.481C93.51 39.7674 92.7423 39.1603 92.0017 38.5803C91.6271 38.2861 91.2433 37.9826 90.8772 37.6613C89.5033 36.4835 88.3248 35.0826 87.174 33.7257C86.7725 33.2438 86.3531 32.7441 85.9337 32.2714C84.4702 30.6025 82.6592 28.7644 80.3207 27.7743C77.9111 26.748 75.2166 26.9356 73.4588 28.2385L73.3337 28.0778L73.3252 28.0601C73.3337 28.0508 73.343 28.0508 73.3522 28.0423C75.1996 26.6862 77.8941 26.5078 80.4018 27.5697C82.7843 28.5783 84.6224 30.4341 86.1036 32.1208C86.523 32.6027 86.9424 33.1024 87.344 33.5843C88.4862 34.932 89.6639 36.3329 91.0201 37.4929C91.3862 37.8049 91.77 38.1085 92.1446 38.4035C92.8945 38.9927 93.6706 39.6083 94.3132 40.3311C94.7418 40.8038 95.1164 41.3305 95.4199 41.8927C95.4199 41.8904 95.4199 41.8904 95.4199 41.8997Z" fill="#303351"/>
<path d="M98.2657 58.863C98.3013 59.8538 98.0781 60.8084 97.7568 61.7367C97.7568 61.746 97.7475 61.746 97.7475 61.7545C97.6046 62.1653 97.4533 62.5662 97.2834 62.9678C97.2208 63.1191 97.1583 63.2798 97.0957 63.4319C96.5783 64.69 96.0431 65.9844 95.9442 67.3312C95.9087 67.8132 95.9349 68.3128 95.9535 68.7947C95.9805 69.3477 96.0068 69.9192 95.9442 70.4814C95.9172 70.7402 95.8639 71.0166 95.7751 71.2931C95.6855 71.3287 95.5967 71.3642 95.5071 71.3912C95.6229 71.0792 95.6855 70.7579 95.721 70.4629C95.7836 69.9099 95.7565 69.3477 95.7303 68.8032C95.7125 68.3213 95.6855 67.8124 95.7303 67.3127C95.8284 65.9295 96.3636 64.6174 96.8903 63.3416C97.4795 61.9051 98.0951 60.4145 98.041 58.8707C97.9877 57.5501 97.461 56.292 96.9521 55.078C96.4879 53.989 96.0153 52.8738 95.8724 51.6868C95.7388 50.5801 95.8901 49.4742 96.0415 48.3937C96.0863 48.1257 96.1218 47.8585 96.1489 47.582C96.1844 47.7156 96.2377 47.85 96.3002 47.9836C96.3095 47.9929 96.3095 48.0107 96.318 48.0192C96.3002 48.1528 96.2825 48.2956 96.2647 48.4292C96.1126 49.4912 95.9612 50.5886 96.0948 51.6598C96.2284 52.8113 96.7018 53.9172 97.1567 54.9969C97.6772 56.2302 98.2124 57.5061 98.2657 58.863Z" fill="#303351"/>
<path d="M99.4529 59.7906L99.4622 59.7814C99.9348 58.2908 100.185 56.6227 99.5873 55.0611C99.4089 54.5792 99.1502 54.1328 98.9 53.6957C98.7571 53.4454 98.6057 53.1782 98.4713 52.9195C98.0342 52.0537 97.7485 51.0814 97.6504 50.1083C97.6504 50.0991 97.6411 50.0906 97.6411 50.0906C97.6318 50.0102 97.6318 49.9299 97.6233 49.8496L97.4534 49.8674H97.4001C97.4805 50.9563 97.784 52.0445 98.2744 53.0176C98.408 53.2856 98.5601 53.5528 98.703 53.803C98.9532 54.2316 99.2027 54.6772 99.3811 55.1414C100.014 56.8103 99.6491 58.6214 99.0869 60.2007C99.0869 60.2007 99.0868 60.2007 99.0784 60.21L99.4529 59.7906Z" fill="#303351"/>
<path d="M73.1646 31.7079C72.495 33.8317 71.6655 36.4822 69.6753 38.0793C68.6937 38.8647 67.4982 39.3289 66.356 39.7838C65.5798 40.0873 64.7674 40.4086 64.0445 40.8187C62.5717 41.6489 61.3314 42.9155 60.529 44.3967C60.4664 44.5126 60.4039 44.6377 60.3413 44.7535C59.9575 45.5034 59.5559 46.2796 58.7797 46.6186C58.6724 46.6634 58.548 46.7082 58.4314 46.7522C58.1812 46.8326 57.941 46.9129 57.7889 47.0557C57.7263 47.011 57.646 46.9847 57.5657 46.9577C57.7618 46.7437 58.0746 46.6364 58.3596 46.5383C58.4754 46.4935 58.5828 46.458 58.6901 46.4132C59.3952 46.1097 59.7791 45.369 60.1444 44.6462C60.2069 44.5303 60.2695 44.4052 60.332 44.2894C61.153 42.7726 62.4288 41.4697 63.9286 40.6217C64.6785 40.2024 65.4902 39.8811 66.2664 39.5776C67.3993 39.1312 68.5779 38.667 69.5324 37.9001C71.4686 36.3478 72.2895 33.7421 72.9499 31.6445L73.1646 31.7079Z" fill="#303351"/>
<path d="M60.1266 62.9497C61.4387 65.1716 61.3314 67.7681 61.0194 69.5621C60.9746 69.8123 60.9213 70.071 60.868 70.3298C60.7429 70.9901 60.6093 71.6597 60.5823 72.3285C60.5112 72.32 60.4309 72.32 60.3591 72.32C60.3861 71.6419 60.5197 70.9638 60.6533 70.2857C60.7066 70.027 60.7514 69.7768 60.7962 69.5273C61.1082 67.7696 61.2063 65.2264 59.9397 63.0578C59.6362 62.5404 59.2524 62.0492 58.8871 61.5765C58.6909 61.3356 58.5032 61.0861 58.3156 60.8359C57.7 59.9794 57.1733 59.0426 56.7717 58.061C56.8613 58.0966 56.9594 58.1321 57.0482 58.1591C57.4405 59.0604 57.9317 59.9169 58.5025 60.7023C58.6809 60.9517 58.8685 61.202 59.0554 61.4429C59.4308 61.914 59.8146 62.4137 60.1266 62.9497Z" fill="#303351"/>
<path d="M63.7408 70.1058C63.5446 70.909 63.3484 71.6851 63.2681 72.4435H63.2596C63.1886 72.435 63.1083 72.435 63.0364 72.435C63.126 71.6411 63.3222 70.8379 63.5183 70.0525C63.9107 68.4639 64.3215 66.8135 63.7948 65.3144C63.438 64.2973 62.6974 63.4764 61.9745 62.6732C61.3497 61.9773 60.7072 61.2629 60.2971 60.4157C59.931 59.6573 59.7619 58.8094 59.8059 57.9706C59.877 57.9436 59.9573 57.9081 60.0376 57.8726C59.9665 58.7113 60.1272 59.5678 60.5018 60.3262C60.8941 61.1378 61.5281 61.8429 62.1437 62.521C62.875 63.342 63.6342 64.1807 64.0088 65.2341C64.5525 66.8042 64.1424 68.4824 63.7408 70.1058Z" fill="#303351"/>
<path d="M65.1599 70.4717L65.0974 70.7304C64.9638 71.3282 64.8116 71.9707 64.7491 72.604C64.678 72.5862 64.6062 72.577 64.5259 72.577C64.5969 71.9344 64.7398 71.2919 64.8827 70.6764L64.936 70.4176C65.2302 69.1325 65.516 67.4373 65.1321 65.8039C65.0696 65.5274 64.9808 65.251 64.9004 64.9737C64.7313 64.4115 64.5521 63.8407 64.5436 63.2607C64.624 63.3318 64.7043 63.3943 64.7846 63.4662C64.8201 63.9481 64.9723 64.4385 65.1144 64.9119C65.1947 65.1884 65.2843 65.4741 65.3461 65.7506C65.7492 67.4381 65.4542 69.1603 65.1599 70.4717Z" fill="#303351"/>
<path d="M68.7201 67.4113C68.7023 68.3836 68.4258 69.339 68.1671 70.2487C68.0513 70.6859 67.9169 71.1322 67.8188 71.5694C67.7115 72.042 67.6312 72.5957 67.6404 73.1665C67.5601 73.1487 67.4798 73.131 67.408 73.1132C67.408 72.551 67.4975 71.9887 67.6041 71.5161C67.7022 71.0697 67.8273 70.6233 67.9524 70.1954C68.2112 69.2849 68.4791 68.3574 68.4969 67.4113C68.5054 66.8406 68.4258 66.2691 68.283 65.7246C68.3633 65.7601 68.4529 65.7957 68.5417 65.832C68.6583 66.3401 68.7294 66.8761 68.7201 67.4113Z" fill="#303351"/>
<path d="M56.1829 72.2567C56.0941 72.2474 56.0045 72.2474 55.9149 72.2474C55.0669 70.7661 54.9426 68.9458 55.0136 67.5356C55.0584 66.7595 55.1565 65.9825 55.2453 65.2241C55.4059 63.966 55.5666 62.6632 55.477 61.3873C55.3697 59.9331 54.9418 58.5051 54.5224 57.1127C54.3711 56.613 54.2189 56.0956 54.0761 55.5781C54.0313 55.4175 53.9957 55.2568 53.9602 55.1055C54.1031 55.4175 54.2545 55.721 54.4329 55.9975C54.5309 56.3543 54.629 56.7026 54.7364 57.0509C55.1557 58.4518 55.5928 59.8976 55.6909 61.3788C55.789 62.6724 55.6284 63.9846 55.4677 65.2519C55.3781 66.0018 55.2801 66.778 55.236 67.5449C55.1658 68.9644 55.2909 70.8024 56.1829 72.2567Z" fill="#303351"/>
<path d="M73.5038 28.7991L73.4505 29.013C71.6657 28.5844 69.9527 29.5304 69.087 30.1374C68.2838 30.6997 67.5609 31.3955 66.8558 32.0558C66.4365 32.4574 65.9993 32.8768 65.5437 33.2606C64.4107 34.2329 63.1341 35.0632 61.8938 35.8664C60.2071 36.9638 58.4578 38.0883 57.0839 39.5873C55.2907 41.5412 54.0681 44.2273 53.6487 47.1458C53.5151 48.1096 53.4611 49.0997 53.4881 50.1261V50.1616C53.3985 50.4736 53.3452 50.7686 53.3097 51.1077C53.2116 49.7337 53.2472 48.3946 53.4348 47.1187C53.8542 44.1562 55.0945 41.4254 56.9148 39.4351C58.3157 37.9184 60.0735 36.7761 61.778 35.6787C63.0005 34.8755 64.2763 34.0545 65.4008 33.0907C65.8472 32.7069 66.2843 32.2968 66.7037 31.8952C67.4088 31.2256 68.1402 30.5298 68.9611 29.959C69.8539 29.3258 71.6294 28.3442 73.5038 28.7991Z" fill="#303351"/>
<path d="M73.1999 27.8088L73.1196 28.0142C70.9958 27.1129 68.2024 27.6396 65.6415 29.4244C64.4367 30.2631 63.3485 31.2895 62.2951 32.2804C61.4209 33.0921 60.5103 33.9493 59.5465 34.6899C59.1271 35.0112 58.69 35.3147 58.2706 35.6182C57.3161 36.2878 56.3345 36.9744 55.5491 37.8402C53.7736 39.7763 53.0414 42.4624 52.3989 44.8271L50.543 51.7075C50.0519 53.5194 49.4989 55.5629 49.7128 57.5438C49.9005 59.2753 50.6496 60.8902 51.3725 62.461C51.676 63.1121 51.9973 63.7909 52.2645 64.4775C53.219 66.8778 53.6925 69.5106 53.6299 72.107C53.5589 72.0985 53.4785 72.0985 53.4067 72.08C53.4693 69.5191 53.0051 66.9311 52.0591 64.5578C51.7911 63.8797 51.4791 63.2102 51.1755 62.5498C50.4349 60.9705 49.6765 59.3286 49.4888 57.5701C49.2656 55.5443 49.8279 53.4746 50.3191 51.6535L52.1842 44.7731C52.8352 42.3813 53.5673 39.669 55.3784 37.688C56.1901 36.8045 57.1809 36.1087 58.1355 35.4306C58.5641 35.1363 58.992 34.8328 59.4113 34.5115C60.3659 33.7709 61.2672 32.9322 62.1422 32.1112C63.2041 31.1204 64.293 30.0948 65.5063 29.2468C68.1314 27.4164 71.0136 26.8805 73.1999 27.8088Z" fill="#303351"/>
<path d="M65.8377 26.1218C66.1142 26.0863 66.4447 26.0593 66.8108 26.0415C65.9983 26.2292 65.2222 26.586 64.5441 27.1482C63.7324 27.8085 63.1254 28.7013 62.5361 29.5663C62.1438 30.1555 61.7237 30.7618 61.251 31.2978C60.0285 32.6717 58.4043 33.6093 56.825 34.5105C56.3608 34.7785 55.8789 35.055 55.4147 35.3407C54.6741 35.7871 53.9157 36.2953 53.3442 36.9919C52.6213 37.8839 52.2553 38.9999 52.0321 39.8834C51.7201 41.0612 51.5231 42.2837 51.3362 43.4792C51.3362 43.497 51.3277 43.5148 51.3277 43.5325C51.0598 45.1567 50.7925 46.8341 50.221 48.4134C50.221 48.4227 50.221 48.4227 50.2118 48.4312C50.1847 48.5208 50.1492 48.6189 50.1137 48.7077C50.1044 48.7255 50.0959 48.7432 50.0867 48.761C49.8457 49.4128 49.5422 50.0546 49.2657 50.6794C49.0873 51.0632 48.9174 51.4378 48.7483 51.8309C48.0787 53.3832 47.5527 54.9896 47.8377 56.6315C48.0076 57.5775 48.4448 58.4695 48.8726 59.3353C48.9977 59.5855 49.1136 59.8265 49.2294 60.0759C50.4875 62.7705 51.0675 65.7423 50.9424 68.7048C50.9516 68.7944 50.9424 68.8747 50.9339 68.9635V68.972C50.8983 69.7659 50.8003 70.5514 50.6574 71.3368C50.5863 71.3098 50.5145 71.2742 50.452 71.2295C50.6033 70.4355 50.6929 69.6323 50.7284 68.8199C50.7284 68.7303 50.7377 68.6322 50.7284 68.5434V68.5341C50.8265 65.6604 50.2465 62.796 49.024 60.1725C48.9081 59.9222 48.7923 59.682 48.6757 59.4318C48.2386 58.5576 47.7922 57.647 47.623 56.6654C47.4091 55.4784 47.6138 54.3277 47.9798 53.194V53.187C48.1405 52.7051 48.3366 52.2232 48.5421 51.7505C48.5421 51.7413 48.5506 51.7413 48.5506 51.7328C48.7205 51.3489 48.8811 50.9651 49.0595 50.5905C49.1931 50.3048 49.3182 50.0191 49.4433 49.7248C49.4518 49.7248 49.4518 49.7248 49.4518 49.7155C49.6457 49.2761 49.8295 48.8274 49.9971 48.3872C50.0125 48.33 50.0349 48.2744 50.0496 48.2165C50.0589 48.1987 50.0589 48.181 50.0673 48.1632C50.3261 47.4319 50.5137 46.6727 50.6744 45.9143C50.8443 45.0841 50.9864 44.2631 51.1115 43.4422C51.2011 42.8622 51.2992 42.2729 51.4057 41.6844V41.6751C51.5216 41.0504 51.6467 40.4348 51.8073 39.8193C52.0483 38.9265 52.4144 37.7758 53.1728 36.8475C53.762 36.1339 54.5382 35.6072 55.2966 35.1523C55.7607 34.8666 56.2426 34.5816 56.7153 34.3136C58.2769 33.4216 59.8833 32.5018 61.0788 31.1456C61.5514 30.6189 61.953 30.0212 62.3546 29.4412C62.9439 28.5669 63.5594 27.6564 64.3981 26.9783C64.8352 26.6215 65.3087 26.345 65.7991 26.1303C65.8114 26.1311 65.8292 26.1218 65.8377 26.1218Z" fill="#303351"/>
<path d="M73.2353 30.3614C72.2985 30.3791 71.5578 31.0395 71.1563 31.5036C71.1115 31.5484 71.0759 31.5932 71.0404 31.6372C70.7284 32.0295 70.4604 32.4674 70.2017 32.8868C69.9878 33.2258 69.7731 33.5741 69.5414 33.9039C68.203 35.7335 66.1417 36.8402 64.1515 37.9106C62.2601 38.937 60.3147 39.9811 59.0204 41.6493L59.0111 41.6586C58.9485 41.7211 58.8952 41.7837 58.8505 41.8462C57.994 43.0155 57.485 44.4342 57.0749 45.7904C56.9676 46.1294 56.861 46.4862 56.7629 46.8523C56.6919 46.8523 56.6023 46.8523 56.522 46.87C56.6378 46.4684 56.7452 46.0846 56.861 45.7185C57.2804 44.3446 57.7893 42.9074 58.6728 41.7118C58.869 41.4439 59.0837 41.1944 59.3061 40.9627C60.609 39.5703 62.3582 38.625 64.0442 37.7144C66.0158 36.6525 68.0508 35.5636 69.3537 33.7703C69.5947 33.449 69.8001 33.1007 70.0048 32.7709C70.255 32.3601 70.5137 31.9407 70.8164 31.5662C70.8249 31.5484 70.8435 31.5214 70.8612 31.5036C71.2721 31.0039 72.1108 30.1559 73.226 30.1382L73.2353 30.3614Z" fill="#303351"/>
<path d="M71.1564 31.5039C71.1116 31.5487 71.0761 31.5935 71.0406 31.6375C70.7286 32.0298 70.4606 32.4677 70.2018 32.8871C69.9879 33.2261 69.7732 33.5744 69.5415 33.9042C68.2031 35.7338 66.1419 36.8405 64.1517 37.9109C62.2603 38.9373 60.3149 39.9814 59.0205 41.6496C59.1008 41.4179 59.1989 41.1947 59.3063 40.9622C60.6091 39.5698 62.3584 38.6245 64.0443 37.714C66.016 36.652 68.051 35.5631 69.3539 33.7698C69.5948 33.4486 69.8002 33.1002 70.0049 32.7705C70.2551 32.3596 70.5139 31.9403 70.8166 31.5657C70.9239 31.5394 71.0406 31.5217 71.1564 31.5039Z" fill="#303351"/>
<path d="M46.2043 108.262C46.2043 108.262 41.6509 131.205 47.5976 131.876C53.5443 132.548 58.4545 108.937 58.4545 108.937L46.2043 108.262Z" fill="#F1C3B5"/>
<path d="M57.13 78.4141C57.13 78.4141 46.1155 96.4766 43.6094 108.52L58.9959 109.286L57.13 78.4141Z" fill="#1E9DF1"/>
<path d="M91.3167 78.0718C91.3167 78.0718 100.49 101.197 100.872 105.982L88.1719 109.286L91.3167 78.0718Z" fill="#1E9DF1"/>
<path d="M98.9825 106.473C98.9825 106.473 101.265 128.482 96.8888 129.791C92.5122 131.099 88.1711 109.285 88.1711 109.285L98.9825 106.473Z" fill="#F1C3B5"/>
<path d="M104.745 91.2871C104.745 91.2871 91.5676 128.202 95.8021 129.661C100.037 131.12 104.745 130.968 106.112 120.64C107.479 110.311 108.543 91.2871 108.543 91.2871H104.745Z" fill="#F1C3B5"/>
<path d="M98.4293 110.804L95.3471 123.439C95.3471 123.439 94.4922 117.069 95.7834 114.335C97.0747 111.601 98.4293 110.804 98.4293 110.804Z" fill="#FF7171"/>
<path d="M105.012 91.9039C104.45 91.9255 104.032 91.4026 103.761 90.9107C103.222 89.9337 102.863 88.8579 102.708 87.7528C102.541 86.5642 102.608 85.3494 102.395 84.1685C102.162 82.8749 101.595 81.6338 101.589 80.3194C101.587 79.9811 101.629 79.6251 101.824 79.3486C102.019 79.0721 102.405 78.9061 102.71 79.0536C102.876 79.1339 102.991 79.2884 103.093 79.4413C103.802 80.497 104.232 81.7381 104.327 83.0062C106.315 85.181 107.626 88.0833 108.479 90.903C108.625 91.3841 108.678 92.046 108.219 92.2537C108.048 92.3309 107.851 92.3139 107.663 92.2954C106.778 92.2081 105.902 91.8699 105.012 91.9039Z" fill="#F1C3B5"/>
<path d="M113.089 82.6529C113.079 82.724 113.079 82.7958 113.071 82.8761C113 84.1519 112.759 85.41 112.33 86.6148C112.161 87.0967 111.956 87.5786 111.705 88.025C111.705 88.0343 111.705 88.0428 111.696 88.0521C111.473 88.4359 111.214 88.802 110.911 89.1225C110.25 89.8276 109.322 90.3357 108.35 90.3272C108.181 90.3272 108.011 90.3095 107.85 90.274C106.298 89.9975 105.128 88.4621 104.674 86.9006C104.468 86.2047 104.362 85.4641 104.513 84.759C104.861 83.0368 106.547 81.9393 107.503 80.458C108.1 79.5212 108.404 78.4238 109.002 77.4777C109.439 76.7726 110.599 75.5053 111.536 76.032C112.081 76.3448 112.375 77.3256 112.563 78.1288C112.58 78.2091 112.598 78.2802 112.616 78.352C112.661 78.5752 112.705 78.7806 112.741 78.9412C112.848 79.3784 112.929 79.8248 112.982 80.2711C112.991 80.3515 113 80.4318 113.009 80.5028C113.089 81.2164 113.115 81.9393 113.089 82.6529Z" fill="#F1C3B5"/>
<path d="M111.766 87.8495C111.924 87.3182 112.016 86.7706 112.097 86.2223C112.25 85.1851 112.362 84.1402 112.389 83.0921C112.396 82.7894 112.395 82.4751 112.264 82.2017C111.99 81.6279 111.209 81.4386 110.606 81.6472C110.003 81.8557 109.554 82.36 109.191 82.8821C108.287 84.1811 107.772 85.7319 107.662 87.3043C107.573 88.5801 107.649 90.9294 108.646 91.8469C110.1 90.8707 111.26 89.5532 111.766 87.8495Z" fill="#F1C3B5"/>
<path d="M102.574 74.0803C102.845 75.2217 103.217 75.4812 103.217 75.4812C103.217 75.4812 102.563 76.7007 102.468 78.3387C102.373 79.9768 103.454 80.3506 104.183 82.0936C104.913 83.8367 104.299 85.518 103.958 86.3042C103.617 87.0896 104.48 87.6573 104.48 87.6573L104.265 88.5485C103.38 89.7873 103.531 90.8808 103.531 90.8808C103.703 93.563 106.875 92.973 107.22 92.9012C107.572 92.9143 110.798 92.9622 110.517 90.2893C110.517 90.2893 110.482 89.1864 109.402 88.1137L109.04 87.2711C109.04 87.2711 109.795 86.5668 109.327 85.8501C108.859 85.1334 107.97 83.5788 108.396 81.7376C108.823 79.8972 109.825 79.3466 109.456 77.7479C109.087 76.1493 108.238 75.0572 108.238 75.0572C108.238 75.0572 108.56 74.739 108.636 73.5682C108.711 72.3974 108.88 68.7746 108.691 68.3251C108.504 67.8772 107.537 67.3806 105.086 67.698C102.617 67.7976 101.748 68.4494 101.638 68.9221C101.528 69.3955 102.303 72.9388 102.574 74.0803Z" fill="#232020"/>
<path d="M108.385 68.5577C107.416 69.0095 106.358 69.2527 105.293 69.3732C104.758 69.4219 104.218 69.425 103.683 69.3786C103.147 69.3331 102.621 69.2041 102.119 69.0288C102.644 69.1245 103.167 69.1925 103.694 69.2072C104.22 69.2172 104.747 69.2157 105.271 69.1508C105.796 69.1076 106.317 69.0211 106.836 68.9222C107.355 68.8195 107.873 68.7052 108.385 68.5577Z" fill="#FAF4E8"/>
<path d="M112.615 78.3511C112.186 78.3511 111.767 78.467 111.437 78.5743C110.134 79.0114 108.921 79.7343 107.93 80.6889C107.903 80.7066 107.877 80.7159 107.85 80.7159C107.823 80.7159 107.797 80.7066 107.77 80.6889C107.725 80.6441 107.734 80.573 107.779 80.5282C108.787 79.5559 110.028 78.806 111.366 78.3596C111.697 78.2523 112.125 78.1364 112.562 78.1279C112.579 78.2082 112.597 78.2793 112.615 78.3511Z" fill="#232020"/>
<path d="M113.008 80.5017C112.535 80.4662 112.062 80.5998 111.696 80.7157C110.393 81.1528 109.18 81.8757 108.189 82.8302C108.171 82.848 108.136 82.8572 108.109 82.8572C108.082 82.8572 108.055 82.848 108.028 82.8302C107.993 82.7854 107.993 82.7144 108.038 82.6696C109.046 81.6972 110.295 80.9473 111.625 80.5102C111.999 80.3766 112.481 80.2515 112.981 80.2693C112.99 80.3504 112.999 80.4307 113.008 80.5017Z" fill="#232020"/>
<path d="M113.089 82.6522C113.079 82.7233 113.079 82.7951 113.071 82.8754C112.839 82.8484 112.616 82.8662 112.393 82.9025C112.134 82.938 111.902 83.0183 111.697 83.0901C110.394 83.5188 109.181 84.2501 108.19 85.2047C108.172 85.2224 108.137 85.2317 108.11 85.2317C108.092 85.2317 108.074 85.2317 108.056 85.2139C108.047 85.2139 108.039 85.2047 108.029 85.1962C107.994 85.1514 107.994 85.0803 108.039 85.0448C108.074 85.0093 108.11 84.9823 108.146 84.9467C109.137 84.0099 110.341 83.3048 111.626 82.8762C111.849 82.8051 112.098 82.7333 112.376 82.6885C112.607 82.6437 112.848 82.6252 113.089 82.6522Z" fill="#232020"/>
<path d="M41.6084 84.2688L57.7386 109.147L59.4739 107.578L44.5975 83.3903C44.5975 83.3903 36.995 63.2233 35.9236 62.9547C34.8521 62.6853 25.7775 66.4729 25.4696 67.4333C25.159 68.384 41.6084 84.2688 41.6084 84.2688ZM34.7 65.654C34.7106 65.4337 34.871 65.1908 35.1033 65.1806C35.2417 65.1779 35.3692 65.266 35.4787 65.3494C35.9064 65.713 36.1615 66.2443 36.3943 66.7551C37.5356 69.2301 38.6747 71.6969 39.8162 74.1727C39.9472 74.4678 41.0044 76.6615 39.8103 76.1291C39.4639 75.9701 39.2254 75.1129 39.0566 74.7752C38.7847 74.214 38.5148 73.6603 38.2345 73.1006C37.1237 70.8349 36.0119 68.5686 34.8929 66.3051C34.7928 66.0985 34.6915 65.8818 34.7 65.654ZM31.7175 66.5571C31.7154 66.3226 31.8683 66.0817 32.0875 66.0582C32.2321 66.0458 32.3655 66.1228 32.475 66.2062C32.9281 66.5366 33.2138 67.0509 33.4789 67.5539C34.7631 69.9474 36.05 72.3482 37.3342 74.7418C37.4899 75.0303 38.668 77.1564 37.4505 76.7007C37.0941 76.5699 36.8049 75.7175 36.6138 75.3953C36.3111 74.8504 36.0033 74.3164 35.6924 73.7737C34.444 71.5793 33.1956 69.3848 31.9471 67.1904C31.8348 66.995 31.7256 66.7812 31.7175 66.5571ZM28.5209 67.6311C28.6507 67.5964 28.794 67.6451 28.923 67.7057C29.4206 67.9721 29.7783 68.4328 30.1239 68.8782C31.7813 71.0414 33.4303 73.2061 35.0848 75.3613C35.2763 75.6226 36.7867 77.5294 35.5118 77.2801C35.1335 77.1992 34.7135 76.4075 34.4783 76.1147C34.0896 75.6368 33.6987 75.1506 33.31 74.6727C31.7294 72.6976 30.1427 70.7329 28.5561 68.7682C28.4122 68.5893 28.2671 68.4027 28.2247 68.179C28.19 67.954 28.2911 67.6839 28.5209 67.6311Z" fill="#555552"/>
<path d="M55.0194 103.438C55.0194 103.438 41.5606 129.914 48.0672 131.879C54.1629 133.72 60.9306 105.195 60.9306 105.195L55.0194 103.438Z" fill="#F1C3B5"/>
<path d="M50.2839 115.271C50.2839 115.271 47.2225 122.663 47.2758 125.556C47.329 128.449 46.0424 123.038 47.275 120.198C48.5083 117.359 50.2839 115.271 50.2839 115.271Z" fill="#FF7171"/>
<path d="M52.2227 96.9443C52.2814 96.8686 52.3401 96.7929 52.3988 96.7257C52.5749 96.5326 52.785 96.3813 53.012 96.2809C53.1379 96.2222 53.2638 96.1805 53.3897 96.1465C53.4654 96.1295 53.5325 96.1133 53.6082 96.1048C53.9442 96.0376 54.2794 96.0461 54.6238 96.1218L54.6323 96.1218C54.725 96.1388 54.8084 96.1635 54.8926 96.1974C55.0015 96.2229 55.1111 96.2646 55.22 96.3063C56.899 96.986 58.5355 99.0426 59.7279 101.461C60.5334 103.089 61.1381 104.886 61.4154 106.539C62.2881 111.718 54.708 112.516 54.708 112.516C52.0883 110.929 49.973 100.025 52.2227 96.9443Z" fill="#F1C3B5"/>
<path d="M55.2192 96.3058C56.8981 96.9854 58.5346 99.0421 59.7271 101.46C60.365 103.03 60.6924 104.708 61.0114 106.337C61.0199 106.396 60.9859 106.455 60.9272 106.463C60.8685 106.472 60.8183 106.438 60.8098 106.379C60.4237 104.431 60.029 102.408 59.1139 100.612C58.2327 98.9077 56.797 97.3129 55.2192 96.3058Z" fill="#232020"/>
<path d="M54.6315 96.1468C54.6315 96.1383 54.623 96.1298 54.6315 96.1213C54.7242 96.1383 54.8076 96.163 54.8918 96.197C56.638 99.4538 57.998 102.921 58.9294 106.497C58.9379 106.556 58.9039 106.615 58.8537 106.632C58.795 106.64 58.7363 106.606 58.7193 106.556C57.7794 102.938 56.4024 99.4375 54.6315 96.1468Z" fill="#232020"/>
<path d="M53.3885 96.1461C53.4642 96.1291 53.5314 96.1129 53.6071 96.1044C53.6071 96.1461 53.6156 96.1886 53.6241 96.2218C54.5222 99.8145 55.4706 103.474 56.4275 107.101C56.4445 107.16 56.4105 107.21 56.3518 107.227C56.2931 107.244 56.2344 107.21 56.2259 107.151C55.2606 103.533 54.3207 99.8732 53.4225 96.272C53.414 96.2303 53.4055 96.1878 53.3885 96.1461Z" fill="#232020"/>
<path d="M52.2223 96.9438C52.2809 96.8681 52.3396 96.7925 52.3983 96.7253C52.4068 96.7338 52.4068 96.7423 52.4068 96.7508C52.8602 100.495 53.4726 104.264 54.2287 107.957C54.2372 108.016 54.2032 108.066 54.1445 108.083C54.0858 108.091 54.0271 108.057 54.0186 107.999C53.271 104.356 52.6671 100.628 52.2223 96.9438Z" fill="#232020"/>
<defs>
<linearGradient id="paint0_linear_76_466" x1="73.867" y1="49.2367" x2="74.1708" y2="55.9198" gradientUnits="userSpaceOnUse">
<stop offset="0.0037" stop-color="#F1C3B5" stop-opacity="0.2"/>
<stop offset="1" stop-color="#FF7171" stop-opacity="0.8"/>
</linearGradient>
<linearGradient id="paint1_linear_76_466" x1="78.6791" y1="57.8847" x2="87.1109" y2="57.8847" gradientUnits="userSpaceOnUse">
<stop offset="0.0037" stop-color="#F1C3B5" stop-opacity="0.2"/>
<stop offset="1" stop-color="#FF7171" stop-opacity="0.4"/>
</linearGradient>
<linearGradient id="paint2_linear_76_466" x1="60.2427" y1="57.8856" x2="68.6732" y2="57.8856" gradientUnits="userSpaceOnUse">
<stop offset="0.0037" stop-color="#F1C3B5" stop-opacity="0.2"/>
<stop offset="1" stop-color="#FF7171" stop-opacity="0.4"/>
</linearGradient>
</defs>
</svg>
