<svg width="123" height="142" viewBox="0 0 123 142" fill="none" xmlns="http://www.w3.org/2000/svg">
<path d="M58.6898 35.7193C57.2619 36.0057 55.8102 36.1529 54.3465 36.1449C53.5153 36.1409 52.6243 36.0653 51.9482 35.592C52.0834 35.25 52.2504 34.9199 52.4493 34.6136C51.9124 34.8045 51.3436 34.888 50.7788 34.8642C49.6691 34.8165 48.5674 34.3591 47.7481 33.488L44.2798 29.8328C44.3514 28.7788 44.7093 27.7367 45.3338 26.8816C45.823 26.2174 46.4554 25.6645 46.9924 25.0401C47.3105 24.6741 47.5969 24.2764 47.7799 23.827C47.9549 23.4014 48.0265 22.9241 47.927 22.4747H47.935C48.7424 23.4372 49.9157 24.0855 51.1567 24.2645L51.1805 24.2605C51.1766 24.2446 51.1726 24.2247 51.1726 24.2088C51.0811 23.6878 51.0533 23.1468 51.3436 22.7173C51.5743 22.3752 51.9959 22.1724 52.4056 22.2042C52.8232 22.232 53.1931 22.4826 53.4834 22.7849C54.255 23.5883 54.5335 24.8372 54.1914 25.8992L55.5596 27.1401L57.2023 28.6356C57.2023 28.6356 56.6216 32.3505 58.6898 35.7193Z" fill="#FBB2C3"/>
<path d="M61.9351 34.8244C60.8732 35.1983 59.7913 35.5005 58.6896 35.7193C56.6213 32.3505 57.202 28.6356 57.202 28.6356C57.202 28.6356 57.5719 27.6094 58.7771 26.7463C58.6697 27.3231 58.618 27.8719 58.618 28.385C58.6176 32.5811 61.8357 34.7568 61.9351 34.8244Z" fill="#303351"/>
<path d="M74.5516 25.5808L74.2891 25.6285C74.297 25.6126 74.3129 25.5967 74.3249 25.5808C74.472 25.5808 74.5516 25.5808 74.5516 25.5808Z" fill="white"/>
<path d="M55.7307 32.4419C55.6671 33.118 55.5398 33.7982 55.2415 34.4067C54.9671 34.9596 54.5375 35.4528 53.9847 35.7232C53.7222 35.234 53.4756 34.7408 53.2449 34.2397C53.5193 34.0766 53.7778 33.8817 54.0165 33.655C55.2534 32.4856 55.6671 30.7555 55.2256 29.2202C55.7665 30.1668 55.8377 31.3402 55.7307 32.4419Z" fill="#303351"/>
<path d="M74.3248 25.5809C74.3129 25.5968 74.297 25.6127 74.289 25.6286C74.1339 25.8156 73.9828 26.0065 73.8396 26.1934C70.785 30.0952 66.5928 33.1777 61.9393 34.8243C61.9393 34.8243 61.9393 34.8243 61.9353 34.8243C61.8359 34.7567 58.6182 32.5811 58.6182 28.385C58.6182 27.8719 58.6699 27.323 58.7773 26.7463C59.6642 26.1099 61.0046 25.565 62.9813 25.5809C67.1417 25.6167 73.0918 25.5889 74.3248 25.5809Z" fill="#FBB2C3"/>
<path d="M55.5593 27.14L54.1911 25.8991C54.5332 24.8371 54.2548 23.5882 53.4832 22.7848C53.1928 22.4825 52.8229 22.2319 52.4053 22.2041C51.9956 22.1723 51.574 22.3751 51.3433 22.7172C51.053 23.1467 51.0808 23.6877 51.1723 24.2087C51.1723 24.2246 51.1763 24.2445 51.1803 24.2604L51.1564 24.2644C49.9154 24.0854 48.7421 23.4371 47.9347 22.4746H47.9268C48.0262 22.924 47.9546 23.4013 47.7796 23.8269C47.5966 24.2763 47.3103 24.6741 46.9921 25.04C46.4551 25.6644 45.8227 26.2173 45.3335 26.8815C44.7091 27.7366 44.3511 28.7787 44.2795 29.8327L47.7478 33.4879C48.5671 34.359 49.6688 34.8164 50.7785 34.8641C50.0745 36.292 51.0768 38.0619 51.053 39.6171C51.049 40.0347 50.9655 40.4364 50.7586 40.8142C50.2217 41.7887 49.0404 42.1745 48.2131 42.9103C46.8568 44.1155 46.5387 46.1758 45.1983 47.4008C44.0607 48.4389 42.2471 48.6537 40.8987 47.9139C39.5186 47.1542 38.6555 45.5513 37.1441 45.1058C36.1855 44.8195 35.1673 45.0661 34.173 45.1774C33.1786 45.2888 32.0451 45.2092 31.3849 44.4615C30.832 43.841 30.7644 42.9262 30.84 42.0989C30.9155 41.2915 31.0985 40.4921 31.3849 39.7324C32.0411 37.9983 33.2542 36.3516 33.1031 34.5061C33.0514 33.8618 32.8326 33.2453 32.6616 32.6209C32.3235 31.3879 32.1843 30.0316 32.6815 28.8503C33.7037 26.436 36.8856 25.7042 38.3532 23.5325C38.8464 22.8007 39.1169 21.9416 39.5464 21.17C40.9862 18.5767 44.3392 17.2205 47.175 18.0875L47.4336 18.1989C48.2967 17.2364 49.7683 16.9102 51.0212 17.2722C52.3337 17.65 53.3956 18.6802 54.032 19.8933C54.6644 21.1024 54.9071 22.4825 54.9786 23.8507C55.0379 24.9564 54.9428 26.2173 55.5593 27.14Z" fill="#303351"/>
<path d="M100.524 26.5116C100.512 26.8536 100.48 27.1997 100.42 27.5378C98.6902 28.6912 96.4708 28.9617 94.3668 29.0014C93.444 29.0173 92.5093 29.0014 91.5985 29.1884C90.2144 29.4708 88.9774 30.2106 87.7166 30.8509C86.3007 31.5668 84.8211 32.1674 83.2739 32.4975C81.7545 32.8237 80.1914 32.8794 78.6442 33.0305C78.3777 33.0544 78.0993 33.0862 77.8686 33.2214C77.63 33.3606 77.4669 33.5913 77.2879 33.7981C77.1169 33.993 76.93 34.172 76.7231 34.3351C78.3181 35.0948 79.8852 35.9658 81.1022 37.2386C83.9779 40.2455 84.3597 44.8035 86.2171 48.5303C86.8973 49.8986 87.7882 51.1594 88.4723 52.5276C90.3456 56.2504 90.5883 60.8523 88.7507 64.591L88.6752 64.5552C88.6752 64.5552 83.1347 60.3988 80.6289 58.0124C79.0777 56.5368 77.801 54.7708 76.1583 53.3987C74.5117 52.0265 72.3162 51.052 70.24 51.577C69.5877 51.7441 68.9752 52.0503 68.3269 52.2412C68.1758 51.8475 67.9729 51.4776 67.7223 51.1395C66.8592 51.1952 65.9842 51.2031 65.1251 51.0759C64.4967 50.9804 63.8683 50.8054 63.2955 50.527C63.379 51.3941 63.4109 52.2651 63.383 53.1322C56.8283 54.4725 45.6598 57.563 46.1888 62.9682L45.9542 62.9801C45.7195 62.825 45.4928 62.658 45.274 62.487V62.483C43.9217 61.425 42.812 60.0568 42.0484 58.5175C41.9768 58.3743 41.9092 58.2312 41.8416 58.084V58.08C41.9171 57.5471 42.0325 57.0181 42.3387 56.5806C43.0268 55.5942 44.391 55.439 45.5803 55.272C45.8786 55.2322 46.1809 55.1805 46.4314 55.0254C46.6542 54.8902 46.8252 54.6794 46.9923 54.4805C47.6525 53.693 48.3883 52.9532 49.2713 52.4202C50.1503 51.8912 51.1924 51.585 52.2145 51.7202C52.139 50.6065 52.6123 49.465 53.4555 48.7332C51.8844 45.9808 51.1088 42.787 51.2242 39.621C51.2441 39.0125 51.2998 38.4039 51.3873 37.8034C51.4986 37.0516 51.6657 36.2959 51.9481 35.5919C52.6242 36.0653 53.5152 36.1408 54.3464 36.1448C55.8101 36.1528 57.2618 36.0056 58.6897 35.7192C59.7914 35.5005 60.8733 35.1982 61.9353 34.8243C61.9392 34.8243 61.9392 34.8243 61.9392 34.8243C66.5928 33.1777 70.7849 30.0952 73.8395 26.1934C73.9827 26.0065 74.1339 25.8156 74.289 25.6286C74.2969 25.6127 74.3128 25.5968 74.3248 25.5809C75.1918 24.5189 76.222 23.5087 77.5345 23.6002C78.4772 23.6678 79.3402 24.324 80.2789 24.2166C81.1897 24.1132 81.8778 23.3178 82.7648 23.0871C84.0455 22.757 85.2984 23.6558 86.6069 23.8547C87.9751 24.0615 89.3235 23.4888 90.636 23.0433C92.3741 22.4507 94.1838 22.0649 96.0174 21.8939C97.2901 21.7745 98.6782 21.7984 99.7442 22.4586C99.8396 22.6615 99.9232 22.8683 99.9948 23.0791C100.393 24.1729 100.571 25.3462 100.524 26.5116Z" fill="#1E9DF1"/>
<path d="M88.6749 64.5552C87.9749 65.4581 87.0839 66.1979 86.0578 66.8024C78.8508 71.0423 65.0214 68.5008 64.7152 68.4411C64.7112 68.4411 64.7112 68.4411 64.7112 68.4411C64.1186 67.6297 63.506 66.8581 62.8856 66.1581C57.8383 66.9774 54.9547 71.4878 53.9086 73.4844C50.4801 70.2707 47.5568 66.9297 46.467 64.1177C46.3158 63.724 46.2243 63.3421 46.1885 62.9683C45.6596 57.563 56.828 54.4726 63.3827 53.1322C66.0794 52.5793 67.9965 52.3248 67.9965 52.3248C68.1079 52.3009 68.2192 52.2731 68.3266 52.2413C68.9749 52.0504 69.5874 51.7441 70.2397 51.5771C72.3159 51.052 74.5114 52.0265 76.1581 53.3987C77.8007 54.7709 79.0775 56.5368 80.6286 58.0124C83.1348 60.3989 88.6749 64.5552 88.6749 64.5552Z" fill="#1D204F"/>
<path d="M77.833 88.6622C77.833 88.6622 81.2615 93.8327 81.9257 105.268C78.7438 107.209 74.9454 108.139 71.2305 107.861C68.5458 96.7601 64.7156 68.4412 64.7156 68.4412C65.0735 68.9304 65.4235 69.4355 65.7656 69.9486C65.4196 69.2287 65.0696 68.6957 64.7156 68.4412C65.0218 68.5008 78.8512 71.0424 86.0582 66.8025L77.833 88.6622Z" fill="#1D204F"/>
<path d="M81.15 121.058C81.15 121.058 77.113 123.52 75.0686 121.499C74.4442 120.64 72.897 114.77 71.2305 107.861C74.9453 108.139 78.7437 107.209 81.9256 105.268C82.1762 109.607 82.033 114.853 81.15 121.058Z" fill="#FBB2C3"/>
<path d="M113.645 19.7141C113.438 20.0601 113.2 20.3823 112.921 20.6766C112.961 20.6686 113.001 20.6607 113.04 20.6607C113.18 20.6527 113.331 20.7283 113.371 20.8596C113.394 20.9391 113.371 21.0266 113.343 21.1062C113.215 21.4641 112.945 21.7465 112.667 22.009C110.789 23.7869 108.458 25.004 106.144 26.1694C107.035 27.0165 107.778 28.0188 108.339 29.1126C108.439 29.3155 108.518 29.5979 108.339 29.7331C108.2 29.8365 108.005 29.7729 107.846 29.7013C106.641 29.1524 105.523 28.4404 104.358 27.816C103.192 27.1955 101.951 26.6586 100.639 26.5154L100.524 26.5114C100.571 25.346 100.392 24.1727 99.9946 23.0789C102.743 21.9255 105.165 20.1198 107.544 18.326C107.926 18.0396 108.311 17.7493 108.757 17.5862C108.884 17.6936 108.82 17.8964 108.745 18.0436C108.101 19.2845 107.265 20.426 106.283 21.4204C107.659 20.6408 109.043 19.8692 110.459 19.1692C110.873 18.9663 111.29 18.7675 111.736 18.6481C111.792 18.6322 111.851 18.6203 111.907 18.6442C112.018 18.6959 112.002 18.8589 111.963 18.9783C111.803 19.4436 111.557 19.8771 111.235 20.251C111.696 19.9607 112.165 19.6862 112.667 19.4675C112.909 19.3601 113.168 19.2646 113.434 19.2487C113.522 19.2448 113.621 19.2487 113.681 19.3163C113.784 19.4198 113.717 19.5908 113.645 19.7141Z" fill="#FBB2C3"/>
<path d="M45.2735 62.483V62.487C45.1542 62.9245 44.9037 63.3302 44.5536 63.6206C44.1877 63.9268 43.7224 64.1137 43.2451 64.1416C43.0184 65.2632 42.2985 66.2814 41.2962 66.8343C41.0854 66.9496 40.8507 67.049 40.6081 67.0292C40.3893 67.0093 40.1905 66.8939 40.0035 66.7706C39.399 66.3649 38.8541 65.8678 38.3927 65.299L38.3847 65.295C38.3052 65.4621 38.2137 65.6251 38.0904 65.7644C37.983 65.8837 37.808 65.9831 37.6688 65.9036C37.5853 65.8519 37.5495 65.7484 37.5216 65.657C37.4262 65.3308 37.3506 64.9967 37.3069 64.6626C36.9171 64.5155 36.6029 64.1456 36.4637 63.7399C36.2767 63.191 36.3443 62.5944 36.4279 62.0177C36.5193 61.425 36.6347 60.8085 36.9887 60.3233C37.2631 59.9494 37.6529 59.6829 38.0665 59.4721C39.2876 58.8477 40.6837 58.6767 42.0479 58.5176C42.8116 60.0568 43.9216 61.425 45.2735 62.483Z" fill="#FBB2C3"/>
<path d="M69.7628 85.9335C69.7628 85.9335 68.0525 84.792 65.5507 82.9703C62.329 80.6197 57.7948 77.1355 53.9089 73.4843C54.955 71.4876 57.8386 66.9773 62.8859 66.158C63.5063 66.858 64.1189 67.6296 64.7115 68.441C64.7115 68.441 64.7115 68.441 64.7155 68.441C68.4184 73.5121 71.3815 80.1106 71.3815 80.1106C72.7856 85.7147 69.7628 85.9335 69.7628 85.9335Z" fill="#FBB2C3"/>
<path d="M63.2295 50.4017C60.6518 49.6702 58.4241 47.8887 57.0928 45.5683C56.7138 44.9077 56.4135 44.2085 56.1944 43.4794C56.1208 43.2348 55.737 43.339 55.8109 43.5852C56.612 46.2473 58.4957 48.5375 60.9258 49.8806C61.6211 50.2648 62.3601 50.5687 63.1241 50.7855C63.3703 50.8551 63.4757 50.4717 63.2295 50.4017Z" fill="#303351"/>
<path d="M77.3174 28.6659C76.767 30.2882 76.2165 31.911 75.666 33.5334C75.5837 33.7764 75.9675 33.8806 76.0495 33.6392C76.5999 32.0168 77.1504 30.394 77.7009 28.7717C77.7836 28.5286 77.3994 28.4244 77.3174 28.6659Z" fill="#303351"/>
<path d="M80.5792 28.5536C79.3442 29.88 78.1092 31.2069 76.8743 32.5333C76.7001 32.7207 76.9805 33.0023 77.1555 32.8145C78.3904 31.4881 79.6254 30.1612 80.8604 28.8348C81.0346 28.6478 80.7538 28.3658 80.5792 28.5536Z" fill="#303351"/>
<path d="M76.8913 69.2104C73.6951 69.591 70.444 69.4713 67.2875 68.8381C66.3835 68.6567 65.4882 68.4332 64.604 68.1715C64.3582 68.0987 64.2528 68.4825 64.4982 68.5549C67.6177 69.4777 70.8815 69.9068 74.1338 69.8129C75.0558 69.7863 75.9753 69.7167 76.8913 69.6077C77.1423 69.5783 77.1455 69.1802 76.8913 69.2104Z" fill="#303351"/>
<path d="M88.0932 64.7614C85.7915 66.9215 82.7934 68.2984 79.6524 68.6258C79.4003 68.652 79.3979 69.0502 79.6524 69.0235C82.9027 68.6846 85.9904 67.2794 88.3744 65.0426C88.5617 64.8672 88.2801 64.5864 88.0932 64.7614Z" fill="#303351"/>
<path d="M67.0228 71.7448C64.9745 68.2534 62.7209 64.5067 58.8827 62.7619C57.8959 62.3132 56.8495 62.028 55.7672 61.9489C55.5119 61.9302 55.5131 62.3279 55.7672 62.3466C59.8079 62.6417 62.7969 65.8089 64.885 68.9988C65.515 69.9613 66.0977 70.9533 66.6796 71.9452C66.8088 72.1664 67.1525 71.9663 67.0228 71.7448Z" fill="#303351"/>
<path d="M49.521 60.8988C49.441 60.657 49.0568 60.7604 49.1376 61.0046C49.7067 62.732 49.6502 64.6049 48.9836 66.2965C48.8898 66.5347 49.2744 66.6382 49.3671 66.4023C50.0567 64.6515 50.1096 62.6854 49.521 60.8988Z" fill="#303351"/>
<path d="M42.9261 63.2583C42.7503 63.1676 42.5427 63.1568 42.3545 63.2117C42.3621 62.9313 42.3116 62.6565 42.1052 62.4397C41.886 62.2098 41.5515 62.1716 41.2791 62.2973C41.2202 62.2134 41.1613 62.1291 41.1025 62.0452C41.7404 61.5802 42.4961 60.8631 42.3406 60.0088C42.2949 59.7574 41.9115 59.864 41.9572 60.1146C42.0439 60.5895 41.6613 61.0115 41.3487 61.3181C41.0368 61.624 40.6809 61.8797 40.2943 62.0822C39.9041 62.2862 39.4972 62.4079 39.0704 62.5061C38.6655 62.5992 38.4579 62.8132 38.4046 63.2292C38.3382 63.7443 38.2956 64.2638 38.2415 64.7804C38.2181 65.0051 38.2296 65.346 38.0514 65.5158C37.74 65.8121 37.6123 65.3134 37.5845 65.0875C37.4596 64.0653 37.353 63.0407 37.2369 62.0177C37.2082 61.7664 36.8105 61.7636 36.8391 62.0177C36.9477 62.9771 37.0563 63.9364 37.1649 64.8958C37.2058 65.2569 37.2217 65.7004 37.567 65.9163C37.8601 66.0997 38.2225 65.9696 38.4118 65.7012C38.648 65.3659 38.6289 64.8767 38.6699 64.4861L38.7419 63.798C38.7642 63.5848 38.7335 63.2193 38.86 63.0383C38.9662 62.8864 39.2391 62.8804 39.4041 62.8402C39.611 62.7897 39.8142 62.7245 40.0123 62.6462C40.2764 62.5412 40.5269 62.4079 40.7688 62.2599C40.8451 62.3693 40.9219 62.4787 40.9983 62.5881C40.3659 63.3684 39.7335 64.1484 39.1011 64.9288C39.0334 65.0123 39.0195 65.1284 39.1011 65.21C39.1711 65.28 39.3142 65.2939 39.3823 65.21C40.0318 64.4089 40.6809 63.6075 41.3304 62.8064C41.3566 62.7738 41.3717 62.736 41.3793 62.6971C41.5265 62.5758 41.7428 62.6052 41.8554 62.7587C42.0065 62.9651 41.9719 63.2459 41.9345 63.4874C41.9258 63.5013 41.9162 63.5144 41.9099 63.5299C41.5046 64.4924 40.9382 65.3874 40.2473 66.1693C40.0783 66.3606 40.3587 66.643 40.5285 66.4505C41.2385 65.6471 41.8077 64.7402 42.2356 63.759C42.2432 63.7531 42.2523 63.7491 42.2583 63.7411C42.3677 63.6019 42.5554 63.5255 42.726 63.6023C42.8915 63.6767 42.9683 63.8783 42.9225 64.0474C42.8557 64.2948 43.2395 64.4006 43.3059 64.1532C43.3974 63.8127 43.2447 63.4225 42.9261 63.2583Z" fill="#303351"/>
<path d="M55.5436 29.2031C55.4971 28.9517 55.1137 29.0583 55.1602 29.3089C55.5619 31.4746 54.3806 33.6752 52.345 34.5216C52.1119 34.6187 52.2142 35.0033 52.4508 34.9051C54.6984 33.9708 55.9887 31.6022 55.5436 29.2031Z" fill="#303351"/>
<path d="M52.0978 40.0655C51.967 39.1627 51.4109 38.4125 50.9356 37.6628C50.4556 36.9051 49.9779 35.9951 50.3032 35.0863C50.3895 34.8448 50.0057 34.741 49.9198 34.9805C49.3849 36.474 50.629 37.7595 51.284 38.9714C51.6476 39.6439 51.9276 40.4736 51.5386 41.1983C51.2073 41.8156 50.5626 42.1767 49.962 42.4874C49.3327 42.8127 48.6769 43.1301 48.2107 43.6814C47.7855 44.1841 47.535 44.7938 47.2908 45.3976C47.0314 46.0376 46.7654 46.6851 46.2861 47.1958C45.8152 47.6977 45.2026 48.0577 44.5372 48.2311C43.031 48.6233 41.4126 47.9185 40.6139 46.5956C40.4819 46.3768 40.1378 46.5765 40.2707 46.7965C40.9826 47.9757 42.3055 48.7505 43.6908 48.7414C45.1024 48.7322 46.4432 47.9284 47.1333 46.7022C47.4845 46.0781 47.6889 45.3861 48.0039 44.7449C48.3535 44.0334 48.8455 43.5418 49.538 43.158C50.1807 42.8016 50.8716 42.5176 51.4113 42.0037C51.9491 41.491 52.2052 40.8045 52.0978 40.0655Z" fill="#303351"/>
<path d="M68.5259 85.4096C68.5259 85.4096 71.6036 89.9891 72.3338 93.0581C73.0641 96.1266 73.702 98.1933 75.3674 98.7362C77.6496 99.4804 78.4009 97.0661 78.4009 97.0661L76.8501 80.0942C76.8501 80.0942 75.2608 77.3467 71.0591 79.4877C71.0583 79.4877 71.3335 83.4281 68.5259 85.4096Z" fill="#303351"/>
<path d="M82.1166 126.853L77.5585 136.872H70.093C69.1822 133.248 73.3425 131.729 73.3425 131.729L73.4817 130.444L74.5596 120.493C77.2921 122.581 80.9672 121.145 80.9672 121.145C84.2736 122.295 82.1166 126.853 82.1166 126.853Z" fill="#303351"/>
<path d="M76.1933 83.287C76.031 81.9602 75.8691 80.6333 75.7068 79.3065C75.6762 79.0555 75.2781 79.0527 75.3091 79.3065C75.8834 84.0077 76.4582 88.7094 77.0325 93.4106L77.5189 97.3912C77.5496 97.6422 77.9477 97.6449 77.9167 97.3912C77.3419 92.6899 76.7676 87.9883 76.1933 83.287Z" fill="white"/>
<path d="M76.8415 95.0565C75.6499 95.3194 74.652 96.1896 74.1997 97.3172C74.1596 97.417 74.2435 97.5356 74.3386 97.5618C74.4519 97.5928 74.543 97.5228 74.5832 97.423C74.9845 96.4231 75.9005 95.671 76.9473 95.4399C77.1971 95.3846 77.0913 95.0012 76.8415 95.0565Z" fill="white"/>
<path d="M73.0023 83.0789C72.488 82.5896 71.8604 83.327 71.5613 83.6981C70.654 84.8237 70.1397 86.227 70.0924 87.6687C69.8904 87.6608 69.6867 87.6222 69.4954 87.5844C69.1068 87.5073 68.719 87.4277 68.3304 87.3494C67.9506 87.2726 67.5715 87.1867 67.1897 87.1207C66.8687 87.065 66.5199 87.0332 66.2216 87.1934C65.7487 87.4476 65.6095 88.0637 66.0546 88.4181C66.3008 88.6142 66.6174 88.6762 66.9212 88.7188C67.2947 88.7713 67.6714 88.7975 68.0488 88.7928C68.8761 88.7828 69.6979 88.6337 70.4774 88.3588C70.6393 88.3015 70.6425 88.1102 70.5542 88.0168C71.1166 87.874 71.4499 87.3808 71.6985 86.8828C72.0676 86.1438 72.4243 85.3985 72.7871 84.6563C72.9939 84.2339 73.4497 83.5044 73.0023 83.0789ZM66.938 88.3226C66.6977 88.2864 66.3012 88.2311 66.1934 87.9734C66.1178 87.7928 66.2658 87.6147 66.4225 87.5371C66.611 87.4436 66.8409 87.4659 67.0414 87.4969C67.4379 87.559 67.8317 87.6536 68.2246 87.7328C68.6267 87.8139 69.0285 87.8967 69.431 87.9762C69.6489 88.0192 69.8705 88.0553 70.0924 88.0621C69.4441 88.2634 68.7747 88.3819 68.0934 88.3942C67.708 88.4014 67.3194 88.3803 66.938 88.3226ZM72.7159 83.8819C72.5878 84.2311 72.3901 84.5656 72.2271 84.8997C72.0393 85.2843 71.8512 85.6689 71.6635 86.0531C71.4101 86.5722 71.1524 87.3844 70.5582 87.6075C70.5363 87.6159 70.5128 87.6163 70.4905 87.623C70.5434 86.3805 70.9607 85.169 71.7001 84.1643C71.8918 83.9038 72.1193 83.582 72.3969 83.4066C72.8189 83.1405 72.8149 83.6118 72.7159 83.8819Z" fill="white"/>
<path d="M81.599 125.27C80.6341 127.332 79.6692 129.395 78.7039 131.457C78.2214 132.489 77.739 133.52 77.2565 134.551C77.0481 134.997 76.8751 135.484 76.3234 135.555C75.7996 135.623 75.2499 135.593 74.7221 135.607C73.4382 135.641 72.1543 135.675 70.8704 135.709C70.6151 135.715 70.6139 136.113 70.8704 136.106C72.0557 136.075 73.2409 136.044 74.4262 136.012C75.0053 135.997 75.5868 135.997 76.1651 135.965C76.6138 135.94 76.9856 135.804 77.2505 135.426C77.5512 134.996 77.7358 134.463 77.9569 133.99C78.2087 133.451 78.4605 132.913 78.7122 132.376C79.2158 131.299 79.7193 130.223 80.2228 129.147C80.7964 127.922 81.3695 126.696 81.943 125.47C82.05 125.24 81.7072 125.038 81.599 125.27Z" fill="white"/>
<path d="M80.5927 122.396C80.2582 122.249 79.7833 122.371 79.4389 122.434C78.5822 122.591 77.7541 122.924 77.0207 123.392C76.3437 123.825 75.7562 124.378 75.2714 125.015C74.7806 123.831 73.8364 122.757 72.636 122.292C72.3063 122.164 71.93 122.128 71.6106 122.305C71.3386 122.455 71.1652 122.732 71.1898 123.046C71.2165 123.39 71.473 123.667 71.7204 123.882C72.0088 124.131 72.3174 124.361 72.6356 124.572C73.4005 125.078 74.2409 125.464 75.1191 125.728C75.2201 125.758 75.2949 125.71 75.3339 125.639C76.3183 125.43 77.2776 125.125 78.2027 124.728C78.6645 124.53 79.1167 124.308 79.5562 124.063C79.7762 123.941 79.9926 123.814 80.2057 123.68C80.3943 123.563 80.6019 123.447 80.7431 123.272C80.9702 122.991 80.9511 122.553 80.5927 122.396ZM71.8115 122.648C72.1854 122.446 72.6368 122.704 72.9598 122.896C73.2943 123.094 73.6005 123.334 73.8754 123.609C74.3407 124.075 74.6955 124.635 74.9337 125.246C74.2476 125.015 73.5902 124.709 72.978 124.32C72.6408 124.106 70.989 123.091 71.8115 122.648ZM80.2244 123.197C79.5284 123.664 78.7711 124.054 78.0019 124.384C77.2434 124.71 76.4555 124.963 75.6532 125.156C76.4487 124.149 77.5489 123.392 78.7763 123.008C79.1307 122.897 79.4958 122.814 79.8645 122.768C80.0065 122.751 80.2288 122.698 80.3696 122.741C80.6735 122.832 80.3593 123.107 80.2244 123.197Z" fill="white"/>
<path d="M76.5605 129.432C76.5135 129.063 76.1687 128.935 75.837 128.974C75.5446 129.009 75.2531 129.064 74.9624 129.123C75.1855 128.851 75.409 128.579 75.6322 128.307C75.8087 128.092 75.9857 127.877 76.1623 127.662C76.2912 127.505 76.4479 127.342 76.4817 127.134C76.5489 126.718 76.1257 126.578 75.7976 126.688C75.3291 126.844 74.8764 127.118 74.431 127.33C74.1999 127.441 74.4016 127.784 74.6318 127.674C74.9596 127.517 75.2869 127.361 75.6147 127.205C75.6584 127.184 76.0203 126.971 76.0808 127.042C76.1532 127.127 75.8378 127.433 75.7976 127.482C75.3044 128.083 74.8112 128.683 74.318 129.283C74.19 129.439 74.3101 129.653 74.5113 129.616C74.8514 129.553 75.1919 129.491 75.5319 129.428C75.6791 129.401 75.843 129.347 75.9941 129.361C76.2085 129.381 76.1894 129.571 76.0943 129.718C75.9161 129.995 75.627 130.232 75.4015 130.472C75.1652 130.723 74.9294 130.973 74.6931 131.224C74.5177 131.41 74.7985 131.692 74.9743 131.506C75.3088 131.15 75.6433 130.795 75.9778 130.44C76.2387 130.162 76.6146 129.856 76.5605 129.432Z" fill="white"/>
<path d="M77.1071 43.2336C74.0715 44.9996 71.2937 47.1947 68.8743 49.7406C68.6981 49.926 68.9789 50.208 69.1555 50.0218C71.553 47.4994 74.2998 45.3273 77.3079 43.5773C77.529 43.4484 77.329 43.1044 77.1071 43.2336Z" fill="#303351"/>
<path d="M79.2847 45.2975C76.8282 46.4291 74.3718 47.5606 71.9154 48.6926C71.6831 48.7996 71.8852 49.1424 72.1162 49.0358C74.5727 47.9043 77.0291 46.7727 79.4855 45.6408C79.7174 45.5342 79.5158 45.1913 79.2847 45.2975Z" fill="#303351"/>
<path opacity="0.8" d="M48.9257 29.8407C49.2013 30.077 49.4463 30.3625 49.6436 30.6704C49.8437 30.9755 49.9964 31.3139 50.101 31.6643C50.1972 31.9909 50.284 32.3707 50.2151 32.712C50.1583 33.0127 49.922 33.2887 49.6018 33.3126C49.2256 33.3404 49.0275 32.9952 48.942 32.6738C48.8095 32.177 48.3911 30.7149 48.308 30.4842C48.2451 30.3148 48.1525 30.1327 48.193 29.9473C48.2316 29.7807 48.3756 29.6514 48.5494 29.6554C48.699 29.6566 48.8191 29.75 48.9257 29.8407Z" fill="#2E333F"/>
<path opacity="0.8" d="M52.2132 29.1727C52.8575 29.1727 53.3798 28.6504 53.3798 28.0062C53.3798 27.3619 52.8575 26.8396 52.2132 26.8396C51.5689 26.8396 51.0466 27.3619 51.0466 28.0062C51.0466 28.6504 51.5689 29.1727 52.2132 29.1727Z" fill="#2E333F"/>
<path d="M49.1191 28.9231C49.8903 28.8241 50.475 28.1503 50.4782 27.3831C50.4782 27.3378 50.4746 27.296 50.471 27.2507C50.4639 27.156 50.4074 27.0729 50.3207 27.0307C50.234 26.9925 50.1282 26.9997 50.0486 27.0522C49.9802 27.1011 49.9424 27.1838 49.9496 27.2709C49.9532 27.3051 49.9532 27.3354 49.9532 27.3692C49.9524 27.6074 49.8796 27.8337 49.7388 28.0143C49.5753 28.2291 49.314 28.3715 49.0268 28.4081C48.9588 28.4152 48.898 28.453 48.8602 28.5095C48.8144 28.5735 48.7993 28.6527 48.8176 28.7247C48.8475 28.8579 48.972 28.9379 49.1191 28.9231Z" fill="#303351"/>
<path d="M47.5783 30.2371C47.4876 30.1914 47.3818 30.1985 47.3062 30.251C47.2343 30.2999 47.1961 30.3827 47.1996 30.4698C47.1996 30.4924 47.2032 30.5151 47.2032 30.5378C47.2024 30.7534 47.1185 30.9606 46.9706 31.1149C46.8075 31.2879 46.5879 31.3778 46.3537 31.377C46.2061 31.3766 46.0923 31.4856 46.092 31.6367C46.088 31.7047 46.1142 31.7616 46.1516 31.8109C46.2005 31.8678 46.2685 31.8984 46.3477 31.8988C46.7295 31.904 47.1118 31.7433 47.3623 31.4721C47.5938 31.2199 47.7239 30.8878 47.7251 30.5513L47.7255 30.4566C47.7175 30.3584 47.6614 30.2789 47.5783 30.2371Z" fill="#303351"/>
<path d="M52.4791 30.1741C52.6926 30.5913 52.7451 31.1004 52.4472 31.4898C52.2945 31.6887 52.0706 31.8199 51.8403 31.9082C51.6255 31.9858 51.3682 32.0641 51.1427 32.0216C50.9064 31.9739 50.7541 31.7611 50.7644 31.5256C50.7767 31.2607 50.9565 31.0774 51.153 30.9199C51.1741 30.9032 51.1924 30.8896 51.2162 30.8809C51.1669 30.7297 51.1311 30.5754 51.1327 30.4151C51.1291 30.1665 51.1781 29.8742 51.3527 29.6801C51.5193 29.4944 51.7858 29.4665 51.9998 29.5866C52.2138 29.7127 52.3669 29.9577 52.4791 30.1741Z" fill="white"/>
<path d="M46.3806 29.5398C46.1992 29.4443 46.0011 29.5016 45.8882 29.6691C45.6953 29.9554 45.5294 30.2589 45.3922 30.5759C45.3532 30.6654 45.3294 30.7457 45.354 30.8444C45.3755 30.9311 45.4411 31.0257 45.5219 31.0683C45.603 31.1109 45.7001 31.1335 45.7903 31.1065C45.8767 31.081 45.9765 31.0253 46.0143 30.9386C46.1515 30.6216 46.3174 30.3182 46.5103 30.0318C46.5588 29.9598 46.5691 29.8457 46.5488 29.7633C46.527 29.677 46.4609 29.5823 46.3806 29.5398Z" fill="#303351"/>
<path d="M49.2279 26.3227C48.8672 26.5124 48.5199 26.7264 48.1886 26.9638C48.1071 27.0223 48.0431 27.0828 48.0156 27.1834C47.9925 27.2669 48.0017 27.3779 48.0474 27.4527C48.0968 27.5334 48.1723 27.6042 48.267 27.6257C48.3521 27.6452 48.4619 27.6471 48.5363 27.5938C48.8676 27.3564 49.2148 27.1424 49.5755 26.9527C49.7422 26.8652 49.8166 26.627 49.7167 26.4639C49.6133 26.2948 49.4061 26.2288 49.2279 26.3227Z" fill="#303351"/>
<path d="M112.806 20.6472C111.229 21.42 109.653 22.1924 108.077 22.9652C107.847 23.0778 108.048 23.421 108.278 23.3085C109.854 22.5357 111.43 21.7633 113.006 20.9905C113.236 20.8783 113.035 20.5351 112.806 20.6472Z" fill="#303351"/>
<path d="M110.944 20.019L107.404 21.9229C107.179 22.0443 107.379 22.3879 107.605 22.2662L111.145 20.3622C111.371 20.2409 111.17 19.8977 110.944 20.019Z" fill="#303351"/>
</svg>
