<svg width="123" height="142" viewBox="0 0 123 142" fill="none" xmlns="http://www.w3.org/2000/svg">
<g clip-path="url(#clip0_76_2)">
<path d="M88.8403 124.907C88.5424 124.81 88.319 124.666 88.1165 124.437C87.5323 123.772 86.8609 123.216 85.9756 123.012C85.728 122.956 85.5822 122.849 85.4469 122.647C85.128 122.175 84.6811 121.799 84.1021 121.909C83.6416 121.996 83.5639 121.777 83.4601 121.47C82.9587 119.988 82.6398 118.467 82.4216 116.92C82.2118 115.431 82.0838 113.94 82.0912 112.434C82.1069 109.102 81.2782 106.004 79.304 103.29C78.3767 102.014 78.0368 100.597 77.9131 99.088C77.6823 96.2799 77.7127 93.4665 77.7798 90.6531C77.7861 90.3951 77.8354 90.2325 78.1082 90.1517C78.7984 89.9472 79.0155 89.451 79.0124 88.7566C79.003 86.7467 79.0407 84.7368 79.0449 82.727C79.046 82.4375 79.1246 82.2654 79.3743 82.0913C80.8618 81.057 81.9485 79.6933 82.5296 77.9688C83.5839 74.847 83.1758 71.8532 81.6642 68.9706C81.5782 68.8069 81.4293 68.6737 81.4985 68.4471C81.6758 67.8723 81.4775 67.3467 81.2373 66.8359C81.1324 66.6135 81.0317 66.4152 81.1376 66.1467C81.4083 65.4596 81.3128 64.7767 81.038 64.1085C80.3457 62.4322 80.4547 60.7151 80.8177 58.9979C80.995 58.1629 81.2541 57.3436 81.4765 56.5181C81.6894 56.0376 81.6191 55.4554 82.0083 55.039C82.1856 54.9844 82.0901 54.8418 82.1059 54.7358C82.2139 54.2837 82.474 53.8358 82.1384 53.3732C81.8982 53.2945 81.8856 53.5043 81.8426 53.6313C81.4114 54.9016 80.8827 56.1394 80.4988 57.4265C80.2659 58.208 79.9775 58.9674 79.883 59.7972C79.7016 61.4011 79.7351 62.9599 80.3834 64.4662C80.4736 64.675 80.525 64.8984 80.5156 65.1292C80.4967 65.6317 80.2901 65.7764 79.8138 65.6128C79.3523 65.4544 78.8981 65.2635 78.3935 65.3149C78.041 65.3505 77.7012 65.2918 77.3644 65.1942C75.9682 65.2173 74.5773 65.3757 73.201 65.5614C71.9422 65.7303 70.8072 65.5068 69.6953 65.0096C68.4029 64.4316 67.055 64.0278 65.6913 63.6721C65.1689 63.5358 64.9444 63.3428 64.9486 62.8162C64.9612 61.0633 64.4168 59.4458 63.7392 57.8692C63.007 56.1667 62.4541 54.3991 61.8583 52.6505C61.2394 50.8357 61.2656 48.9475 61.53 47.0541C61.8552 44.7149 62.7877 42.6022 63.8094 40.5063C64.1587 39.7899 64.7315 39.6609 65.4091 39.536C65.3903 39.8728 65.2518 40.1214 65.1731 40.3847C64.9633 41.0854 64.8773 41.7924 65.1238 42.4963C65.2203 42.7711 65.2455 43.133 65.6494 43.1897C65.8455 42.9012 65.8172 42.5718 65.7217 42.2844C65.4217 41.3739 65.685 40.542 66.005 39.7081C66.0721 39.6283 66.1266 39.5434 66.1225 39.4332C65.9368 38.9916 65.6294 38.8689 65.0053 38.9874C64.7063 39.0619 64.4 39.1143 64.1357 39.2874C63.885 39.557 63.5199 39.4416 63.2293 39.5591C63.0384 39.6357 62.6744 39.514 62.6818 39.8256C62.6902 40.1623 63.071 39.9021 63.2356 40.0427C63.2818 40.0909 63.3059 40.1497 63.3217 40.2126C62.8706 41.1704 62.2999 42.0725 61.9611 43.0848C61.915 43.068 61.8678 43.0606 61.8237 43.0889C61.6559 43.2337 61.6087 43.4425 61.5394 43.6386C61.1513 44.7432 60.8565 45.873 60.6698 47.03C60.5093 48.08 60.3562 49.129 60.46 50.1979C60.4873 50.4812 60.439 50.7392 60.1925 50.949C58.9275 52.0242 57.5931 53.0029 56.1634 53.8421C54.4724 54.8355 52.6818 55.6044 50.7863 56.1184C50.6531 56.1541 50.5125 56.1824 50.4181 56.3009C50.3698 56.5884 50.4968 56.7481 50.7989 56.7803C50.8146 56.7814 50.8293 56.796 50.844 56.8044C50.9122 56.795 50.9824 56.7929 51.0475 56.7751C53.8262 55.9999 56.3805 54.7579 58.7219 53.0795C59.3995 52.5938 60.0656 52.0934 60.7705 51.5742C61.0926 53.177 61.637 54.6561 62.2611 56.109C62.9608 57.7412 63.694 59.3619 64.0035 61.1294C64.1892 62.1878 64.2081 63.262 64.2804 64.3309C64.2878 64.4369 64.3266 64.6152 64.1189 64.5711C63.6185 64.4631 63.1045 64.6572 62.6125 64.5071C61.294 64.1064 59.9565 63.7823 58.596 63.5683C56.7498 63.2788 54.8931 63.026 53.0238 63.3281C51.0055 63.6533 49.388 64.5606 48.6946 66.6229C48.2477 67.9531 48.3086 69.3209 48.6967 70.6469C49.5055 73.4099 50.7233 76.0114 51.9559 78.6055C53.242 81.3119 54.8731 83.8389 56.1235 86.561C56.9145 88.2845 57.6015 90.0604 57.6897 91.9979C57.7673 92.1364 57.6414 92.3325 57.8134 92.4437C58.1229 92.5822 58.469 92.4511 58.7806 92.5749C59.3009 92.6871 59.6397 92.9965 59.8296 93.4938C59.9901 93.9144 59.9062 94.3141 59.7845 94.7211C59.7278 94.9099 59.5537 95.1648 59.7876 95.2833C59.989 95.3851 60.0887 95.105 60.1883 94.9582C60.4432 94.5837 60.7726 94.3948 61.2363 94.3833C61.5992 94.3749 61.9611 94.2941 62.2999 94.1431C62.4846 94.0487 62.6702 93.9574 62.8391 93.8378C63.5147 93.3616 63.9353 92.7521 63.8409 91.8815C63.7843 91.6612 63.7108 91.4451 63.6846 91.2196C63.6447 90.8661 63.6521 90.522 63.9248 90.243C64.058 90.1055 64.1934 90.0426 64.3874 90.1444C64.8846 90.4056 65.0882 90.8881 64.9591 91.4503C64.9109 91.6601 64.7053 91.9035 64.9969 92.1028C65.1951 92.0829 65.234 91.9109 65.2885 91.7724C65.4385 91.3916 65.6504 91.3696 65.9703 91.592C66.5179 91.9706 67.0508 92.3577 67.3823 92.9598C67.5092 93.1906 67.6833 93.3868 67.9225 93.5137C68.7774 94.1357 68.9243 94.6025 68.5708 95.5802C68.3967 96.0617 68.1585 96.5044 67.8092 96.882C67.5721 97.1379 67.3026 97.3635 67.0991 97.6498C66.7193 98.1324 66.2588 98.5268 65.7752 98.9034C64.5123 99.8884 63.2367 100.86 62.2433 102.143C61.3129 103.343 60.1831 104.317 58.8226 105.003C57.6225 105.61 56.3994 106.154 55.02 106.197C54.3791 106.359 53.7465 106.32 53.1475 106.048C52.5937 105.796 52.1164 105.444 51.9003 104.833C51.9055 104.494 51.9601 104.176 52.2234 103.925C52.5129 103.648 52.7783 103.346 53.0919 103.094C53.9469 102.408 54.5941 101.547 55.1742 100.629C55.2948 100.439 55.4207 100.237 55.2654 100.001C55.2224 99.9681 55.1742 99.9461 55.1207 99.9345C54.9098 99.9125 54.7357 99.9639 54.6403 100.173C54.5395 100.335 54.4451 100.501 54.3381 100.657C53.6469 101.675 52.7363 102.501 51.9213 103.41C50.4821 105.014 51.4356 106.907 53.1024 107.334C53.7245 107.494 54.3644 107.502 55.02 107.4C57.8627 106.956 60.2723 105.725 62.1898 103.566C62.7678 102.915 63.2965 102.216 63.8902 101.578C65.1343 100.242 66.8358 99.4635 68.1134 98.1628C68.1281 98.1492 68.1774 98.168 68.2288 98.1743C68.5624 99.3576 68.9096 100.544 69.2306 101.737C69.5201 102.809 70.2062 103.698 70.5702 104.737C72.2706 109.582 74.144 114.359 76.2095 119.063C77.1735 121.26 77.9561 123.53 78.0872 125.965C78.0326 126.234 78.2393 126.24 78.405 126.268C78.6117 126.302 78.8236 126.283 79.0323 126.286C79.7981 126.299 80.2229 126.699 80.2764 127.468C80.2974 127.766 80.2817 128.062 80.1873 128.349C80.139 128.498 80.0907 128.649 80.1044 128.81C80.1138 128.914 80.1222 129.033 80.2397 129.069C80.3656 129.107 80.4191 128.989 80.4799 128.91C80.5544 128.812 80.6027 128.698 80.6446 128.583C80.845 128.025 81.231 127.739 81.8216 127.6C83.48 127.212 84.3287 125.775 83.9479 124.112C83.8587 123.723 83.7328 123.329 83.9258 122.933C84.0979 122.578 84.3045 122.514 84.6413 122.712C85.0871 122.976 85.235 123.36 85.129 123.97C85.1196 124.162 85.085 124.36 85.2864 124.489C85.5214 124.415 85.5025 124.189 85.536 124.02C85.6126 123.645 85.7909 123.572 86.1203 123.741C86.755 124.068 87.356 124.43 87.7851 125.024C87.9246 125.217 88.0494 125.435 88.3001 125.515C89.0407 125.733 89.2914 126.065 89.3092 126.82C89.3218 127.297 89.2085 127.745 89.0501 128.19C88.7134 129.141 88.1239 129.926 87.4609 130.667C87.2616 130.999 86.9941 131.274 86.7392 131.561C85.8381 132.579 84.8259 133.505 84.1734 134.728C83.6384 135.731 83.0573 136.71 82.2758 137.547C81.0139 138.898 79.5631 139.958 77.7379 140.419C77.5354 140.472 77.3403 140.547 77.14 140.607C76.4067 140.827 75.663 140.911 74.9392 140.613C74.422 140.4 73.8461 140.222 73.6447 139.59C73.5251 139.007 73.8126 138.567 74.1912 138.193C75.0189 137.374 75.6105 136.39 76.2032 135.405C76.3385 135.046 76.6113 134.743 76.6238 134.337C76.6123 134.286 76.5913 134.238 76.5599 134.198C76.3333 134.122 76.0847 133.91 75.9336 134.297C75.834 134.655 75.6189 134.956 75.4427 135.275C74.8102 136.425 73.9143 137.399 73.2461 138.52C72.4405 139.873 73.0877 141.394 74.6035 141.83C75.129 141.981 75.6766 142.046 76.2116 141.963C79.3806 141.474 81.9254 139.922 83.6447 137.223C84.9601 135.158 86.243 133.121 88.1302 131.487C89.2169 130.546 90.0215 129.301 90.3362 127.823C90.6205 126.485 90.032 125.293 88.8403 124.907ZM65.2161 90.093C65.0168 89.6125 64.5007 89.3178 63.9112 89.43C63.6028 89.4887 63.5241 89.3293 63.4308 89.1048C62.8779 87.7747 62.6262 86.3691 62.3891 84.9603C62.0828 83.1361 62.0356 81.2867 61.872 79.4489C61.8625 79.3356 61.8709 79.2202 61.8709 78.9905C62.5905 79.8391 63.4874 80.2178 64.3874 80.5829C64.6035 80.6699 64.6077 80.8 64.6182 80.9836C64.7514 83.3343 64.9119 85.683 65.2193 88.0191C65.2812 88.4849 65.3504 88.9506 65.4333 89.4132C65.5088 89.8276 65.7406 90.1328 66.1791 90.1727C66.5924 90.2094 66.7466 90.3856 66.7036 90.7968C66.6847 90.9804 66.7581 91.1724 66.8127 91.5007C66.2106 90.9919 65.5214 90.8283 65.2161 90.093Z" fill="#12133C"/>
<path d="M62.6808 34.8879C62.7605 33.519 61.8867 32.3242 61.9622 30.9553C61.9769 30.6836 61.7849 30.5545 61.572 30.4538C61.3024 30.3259 61.0496 30.1811 60.8429 29.9577C60.5083 29.5968 60.4947 29.2076 60.8178 28.852C61.0978 28.5436 61.3748 28.231 61.6528 27.9205C62.2003 27.3079 62.3902 26.6355 62.1919 25.8026C61.9297 24.697 62.3021 23.647 62.6766 22.62C62.7154 22.513 62.7406 22.4354 62.6986 22.3357C62.7731 22.2162 62.8119 22.0808 62.8717 21.955C63.0143 21.6507 63.2357 21.5406 63.5514 21.6948C64.4095 22.1154 65.3347 22.1752 66.262 22.1564C67.5732 22.1291 68.8761 22.2896 70.1863 22.2864C71.1943 22.2843 71.2783 22.4878 70.7496 23.3302C70.5356 23.6711 70.3342 24.0173 70.2051 24.4022C70.0237 24.9425 70.0268 25.4649 70.3415 25.96C70.674 26.4551 70.9573 26.9639 71.0643 27.5702C71.1587 28.1073 71.7451 28.2625 72.1321 27.8754C72.3167 27.6908 72.4804 27.4842 72.6713 27.3048C72.9692 27.0237 73.3143 26.816 73.7129 26.7257C74.8144 26.4761 75.555 26.9785 75.6378 28.1167C75.7144 29.1604 75.2885 30.0468 74.5416 30.7769C73.9773 31.1294 73.372 31.3518 72.6975 31.3497C72.3388 32.1228 72.0996 32.9546 71.5489 33.6302C70.4391 34.8407 68.9621 35.2939 67.4232 35.5876C66.5389 35.7565 65.6578 35.9893 64.7326 35.8079C64.0854 35.6809 63.4801 35.5079 62.9986 35.0316C62.9115 34.9456 62.8224 34.8575 62.6808 34.891V34.8879Z" fill="#FBB2C3"/>
<path d="M82.1056 54.736C82.113 54.2755 82.2378 53.815 82.0994 53.3566C82.0333 53.2916 82.0007 53.2076 82.0154 53.1195C82.0847 52.7136 81.8444 52.658 81.5224 52.6506C80.4094 52.6255 79.5503 52.0422 78.751 51.3488C78.5811 51.202 78.3996 51.0656 78.2412 50.9041C77.0758 49.7124 76.5901 48.2008 76.3383 46.6211C76.0163 44.5997 76.0929 42.5898 76.8313 40.6397C77.0758 39.9946 77.4083 39.4082 77.81 38.8586C78.023 38.568 77.9684 38.4568 77.6191 38.3781C76.5135 38.1285 76.5072 38.1127 75.9166 39.0579C75.0848 40.3869 74.0966 41.5922 72.8284 42.509C71.6777 43.3419 70.4934 44.1748 69.0028 44.3185C67.9674 44.4192 66.9363 44.479 66.0457 43.7888C65.8485 43.6356 65.5852 43.5087 65.6334 43.1814C65.6565 42.7115 65.5799 42.2583 65.4782 41.7989C65.3072 41.0247 65.6596 40.323 65.8789 39.6075C65.8799 39.6033 65.9125 39.6033 65.9261 39.6107C65.9408 39.618 65.9502 39.6348 65.9618 39.6485C66.0887 39.81 66.0121 39.9831 65.988 40.152C65.9481 40.4289 65.859 40.6964 65.8086 40.9702C65.5285 42.5006 66.396 43.5412 67.9401 43.5769C69.8063 43.6199 71.3231 42.8038 72.6732 41.6373C73.7463 40.7111 74.6557 39.6254 75.4519 38.4463C75.6649 38.1316 75.688 37.9019 75.3795 37.6396C75.0397 37.3501 74.8299 36.9599 74.7239 36.5267C74.5078 35.6455 74.3316 34.7591 74.4932 33.8444C74.5393 33.7762 74.6002 33.729 74.6841 33.7164C75.0061 33.9063 74.7911 34.2231 74.8634 34.435C74.8634 34.113 74.8446 33.7521 74.9516 33.4017C75.0019 33.2371 75.0344 33.0566 75.2421 33.0094C75.2537 33.0063 75.2715 33.0231 75.2841 33.0335C75.3082 33.0556 75.3072 33.086 75.2841 33.1217C75.1204 34.2693 75.0523 35.4074 75.4551 36.5309C75.6345 37.0302 75.9806 37.2924 76.4611 37.4194C77.9296 37.8075 79.4119 38.0477 80.9371 38.1631C83.5679 38.3603 85.9837 39.2687 87.9705 41.0509C88.8664 41.8545 89.8314 42.4881 90.8961 43.022C93.2983 44.2262 95.6029 45.5857 97.766 47.1991C99.3279 48.3645 99.8671 49.9075 99.9332 51.7328C100.045 54.842 99.3352 57.8179 98.5632 60.7992C97.9359 63.2213 97.3296 65.6612 97.3034 68.1945C97.296 68.9634 97.1019 69.7145 96.9656 70.4698C96.7442 71.695 95.9155 72.3579 94.833 72.7576C94.4459 72.9013 94.0536 73.0366 93.6697 73.1887C93.4022 73.2947 93.1357 73.3681 92.8714 73.1982C92.7056 73.0912 92.5934 73.1772 92.4476 73.2527C91.7962 73.5884 91.3315 73.5055 90.8017 72.98C90.7178 72.8971 90.6706 72.8216 90.5101 72.8258C89.4947 72.851 88.9178 72.2656 88.9429 71.224C88.9492 70.9659 88.9188 70.753 88.7772 70.539C88.6303 70.3166 88.5695 70.0554 88.5884 69.789C88.7069 68.1379 89.0961 66.6147 90.5762 65.6098C90.8364 65.4336 91.064 65.1923 91.3441 65.0685C92.007 64.7738 92.2221 64.2482 92.3595 63.5769C92.863 61.1191 92.9364 58.6603 92.541 56.1836C92.3584 55.0392 92.3364 53.8863 92.5158 52.7408C92.5672 52.4146 92.5074 52.3202 92.1801 52.2814C90.2143 52.0422 88.3167 51.5429 86.503 50.7373C85.5967 50.3345 84.7187 49.874 83.8186 49.3736C83.5889 50.238 83.3823 51.0918 83.1316 51.9321C82.884 52.765 82.5976 53.5863 82.3175 54.4087C82.2766 54.5283 82.2661 54.6888 82.1035 54.7381L82.1056 54.736Z" fill="#101337"/>
<path d="M51.7335 104.851C51.7303 104.349 51.9538 103.975 52.323 103.638C53.3447 102.702 54.379 101.773 55.0839 100.551C55.1752 100.392 55.3346 100.245 55.1941 100.035C55.6042 99.8664 56.0112 100.027 56.4193 100.048C56.755 100.066 57.0843 100.199 57.4987 100.111C57.0927 99.7374 56.6406 99.7122 56.2022 99.6545C55.963 99.6231 55.7112 99.6849 55.4857 99.5549C55.4353 99.1112 55.6724 98.8017 55.9661 98.5174C56.6784 98.5846 57.3907 98.658 58.0861 98.8667C57.8679 98.5027 57.5039 98.5552 57.184 98.5027C56.8966 98.4555 56.5924 98.5489 56.3144 98.402C56.1812 98.3076 56.4036 98.0674 56.157 98.0192C56.841 97.8922 57.5102 97.9919 58.1763 98.1482C58.2949 98.1755 58.4103 98.2258 58.5288 98.2373C58.6872 98.252 58.8655 98.2394 58.9096 98.0475C58.9463 97.887 58.8141 97.7957 58.6862 97.7307C58.0484 97.4055 57.3739 97.2733 56.6606 97.3583C56.4791 97.3803 56.2441 97.523 56.1392 97.3405C56.05 97.1842 56.2399 96.9901 56.3102 96.8139C56.3962 96.5967 56.542 96.5558 56.7655 96.5862C57.5428 96.6932 58.3211 96.7918 59.1078 96.7876C59.3208 96.7876 59.6334 96.8779 59.6512 96.5527C59.668 96.2516 59.3743 96.1824 59.1267 96.153C58.3326 96.0586 57.5354 96.0166 56.6606 96.1089C56.9669 95.6537 56.7319 95.3925 56.477 95.1051C55.7521 94.2858 55.8675 93.1833 56.7214 92.5183C56.9144 92.3672 57.1368 92.3242 57.3634 92.3452C57.6445 92.3714 57.6749 92.2025 57.6875 91.999C57.7211 92.1239 57.7547 92.2476 57.7882 92.3714C58.1218 92.5183 58.4858 92.3525 58.8225 92.47C59.9701 92.7449 60.161 93.2893 59.7813 95.2897C59.9009 95.124 59.9869 95.0002 60.0761 94.8785C60.3561 94.4988 60.6824 94.2407 61.2027 94.2418C61.5604 94.2418 61.9181 94.1169 62.2747 94.0487C62.4761 94.0403 62.3964 94.1746 62.3555 94.2449C62.1845 94.5376 61.9097 94.6666 61.5814 94.6981C61.3569 94.719 61.1292 94.6876 60.9079 94.739C60.4117 94.8544 60.2638 95.2834 60.5796 95.6757C60.7191 95.8488 60.9194 95.9778 60.9677 96.2159C60.9247 96.5306 60.6058 96.623 60.4558 96.8527C60.097 97.2597 60.0792 97.8052 59.8757 98.2762C59.8044 98.4115 59.7058 98.5248 59.604 98.636C59.2809 98.9674 59.2023 99.4426 58.9138 99.7951C58.7931 99.943 58.6778 100.096 58.533 100.222C58.3578 100.365 58.1543 100.447 57.8375 100.535C58.6578 100.386 59.3722 100.256 59.9397 99.7363C60.0268 99.6566 60.139 99.5601 60.2628 99.6304C60.3887 99.7028 60.3394 99.8465 60.332 99.965C60.311 100.278 60.2712 100.587 60.1652 100.885C59.9995 101.312 60.2565 101.75 60.1317 102.178C59.7173 102.887 59.0848 103.389 58.4375 103.853C57.3277 104.646 56.1361 105.284 54.7965 105.627C53.6195 105.93 52.6503 105.515 51.7324 104.851H51.7335Z" fill="#468AC9"/>
<path d="M50.3906 56.3817C50.4221 56.4236 50.8207 56.796 50.8437 56.8044C49.9511 57.1023 49.0342 57.1558 48.1122 57.0173C47.0611 56.86 46.4065 56.1666 46.0027 55.2509C45.3334 53.7319 45.2411 52.1217 45.3387 50.4832C45.5464 47.0121 46.6656 43.7204 47.3181 40.3364C47.4922 39.4353 47.5468 38.5573 47.4492 37.651C47.3548 36.7793 47.4178 35.9086 47.5961 35.0484C47.7671 34.2197 48.1898 33.5683 48.9199 33.1277C49.8608 32.5602 50.8249 32.0504 51.9137 31.8165C52.1308 31.7703 52.3323 31.6529 52.541 31.5658C53.5302 31.1493 54.3778 31.4567 54.8698 32.4134C54.9568 32.5833 55.0596 32.7512 55.1089 32.9326C55.2537 33.4655 55.3219 33.9627 55.9691 34.2512C56.4726 34.4757 56.5974 35.1198 56.4663 35.6873C56.0541 37.4642 55.26 38.9916 53.59 39.9157C53.4159 40.0122 53.2931 40.1182 53.2386 40.3332C52.7718 42.1784 52.3134 44.0236 52.433 45.9526C52.455 46.3166 52.4928 46.6796 52.5305 47.1296C52.905 46.8306 53.1935 46.5159 53.548 46.3324C55.1582 45.5005 56.3446 44.2617 57.4419 42.8225C58.9419 40.8535 61.0231 39.7038 63.527 39.4154C63.7326 39.3912 63.933 39.3304 64.1365 39.2863C64.0526 39.6231 63.7358 39.5549 63.5176 39.6C63.2553 39.6545 62.9931 39.686 62.7214 39.793C62.9092 40.0301 63.0602 39.8108 63.2134 39.8224C63.3676 39.835 63.3896 39.8885 63.3267 40.0122C63.2302 40.1864 63.0508 40.2231 62.884 40.2577C60.2867 40.7885 58.4636 42.406 57.0034 44.4998C56.5848 45.0998 56.1327 45.5918 55.4635 45.9348C54.6568 46.3471 53.9393 46.9167 53.2302 47.4873C52.9375 47.7233 52.8221 47.9604 52.9249 48.3443C53.2155 49.429 53.1169 50.4906 52.6553 51.5165C52.5872 51.6686 52.5546 51.914 52.3385 51.8574C52.177 51.8144 52.2221 51.592 52.2357 51.4357C52.3406 50.1895 52.1781 48.9653 51.941 47.7475C51.7669 46.8548 51.6252 45.96 51.6525 45.0453C51.6567 44.8942 51.6882 44.7211 51.4973 44.6404C50.8217 44.6078 50.165 44.8648 49.4759 44.7127C48.8402 44.5722 48.2213 44.397 47.6674 44.0687C47.3202 43.8631 47.2216 43.9533 47.1702 44.2942C47.1524 44.4127 47.1083 44.5292 47.0789 44.6487C46.5345 47.0069 46.0058 49.365 46.0688 51.8091C46.0824 52.3336 46.1506 52.8476 46.2523 53.3585C46.33 54.0361 46.523 54.6792 46.8419 55.2834C47.1859 55.8488 47.5919 56.3187 48.3388 56.2841C48.8391 56.3754 49.3416 56.3712 49.8441 56.3261C50.0308 56.3093 50.2227 56.2421 50.3948 56.3817H50.3906Z" fill="#101337"/>
<path d="M78.0869 125.965C78.196 126.261 78.4425 126.12 78.6261 126.117C80.079 126.091 80.7188 126.911 80.3433 128.328C80.2877 128.539 80.1776 128.746 80.2982 129.039C80.5143 127.879 81.3808 127.598 82.3269 127.266C83.6266 126.81 84.1658 125.502 83.8081 124.148C83.6728 123.634 83.5731 123.125 83.9109 122.636C84.0808 122.392 84.2592 122.341 84.5319 122.472C85.1749 122.782 85.4456 123.317 85.2452 123.933C85.1529 124.152 85.2033 124.365 85.2515 124.589C85.5788 126.089 85.0071 127.318 84.0169 128.374C83.4001 129.032 82.6763 129.59 82.2252 130.395C81.8381 131.146 81.3881 131.859 81.2591 132.73C81.1426 133.517 80.594 134.001 79.886 134.313C79.694 134.398 79.4915 134.388 79.3793 134.216C79.2671 134.045 79.1191 134.132 78.9922 134.091C78.7468 133.747 78.3828 133.733 78.0083 133.727C77.6411 133.723 77.2782 133.744 76.9152 133.791C76.8659 133.787 76.8177 133.777 76.7715 133.759C76.6393 133.656 76.4799 133.603 76.3362 133.52C76.3047 133.479 76.2995 133.435 76.3204 133.386C76.5743 133.25 76.8145 133.095 77.0149 132.884C77.5971 132.738 78.1992 132.899 78.7803 132.772C78.9712 132.73 79.3205 132.767 79.2964 132.548C79.266 132.275 78.9303 132.368 78.7268 132.403C78.1625 132.5 77.5729 132.436 77.0327 132.675C76.8544 132.727 76.7096 132.626 76.5554 132.569C76.5837 132.133 76.8124 131.947 77.254 131.905C77.9663 131.838 78.6702 131.732 79.3835 131.903C79.5524 131.944 79.8136 132.023 79.8839 131.777C79.9657 131.49 79.7024 131.397 79.4905 131.317C78.8999 131.095 78.2821 131.209 77.6757 131.184C77.51 130.944 77.5981 130.749 77.7806 130.571C78.5097 130.52 79.2366 130.414 79.9699 130.452C80.2625 130.468 80.4755 130.351 80.4765 130.061C80.4776 129.759 80.1902 129.723 79.972 129.737C79.2775 129.78 78.5863 129.852 77.8939 129.923C77.6159 129.951 77.3957 129.943 77.4806 129.563C77.5289 129.348 77.3747 129.273 77.2236 129.169C76.2323 128.478 76.1673 127.094 77.0589 126.267C77.3631 125.986 77.7576 126.112 78.0848 125.965H78.0869Z" fill="#478BCA"/>
<path d="M75.2853 33.1206C74.9244 33.3828 75.0335 33.793 74.9737 34.1444C74.9234 34.4371 75.0188 34.7476 74.8846 35.143C74.616 34.6353 74.9213 34.1381 74.6485 33.7437C74.4167 33.4185 74.6045 33.1017 74.6695 32.7828C74.6506 32.7241 74.8447 32.7199 74.702 32.616C74.5835 32.53 74.4587 32.4188 74.5604 32.2373C74.8846 32.0936 75.1342 31.8576 75.3902 31.6174C76.6353 30.4446 77.7976 29.1963 78.6473 27.7036C79.4697 26.2592 79.733 24.7077 79.2892 23.0744C79.198 22.7367 79.0815 22.4094 78.835 22.145C78.3158 21.4758 77.7493 20.8705 76.8902 20.6376C76.6804 20.581 76.5682 20.4205 76.6007 20.2013C76.6993 19.5436 76.3489 19.0369 75.9671 18.5984C75.4185 17.9669 74.7587 17.4582 73.9352 17.1844C71.8624 16.4962 69.7886 16.6316 67.7105 17.134C67.4903 17.1875 67.2626 17.2054 67.0486 17.2819C66.4539 17.4036 65.8528 17.4833 65.2559 17.5924C64.7514 17.6847 64.2531 17.6082 63.7601 17.5022C63.33 17.3984 62.9167 17.2872 62.5527 16.984C62.2097 16.6966 62.281 17.1665 62.1551 17.2819C62.0586 17.5725 62.0439 17.8956 61.6747 18.0351C61.4439 18.1222 61.532 18.4085 61.4701 18.6026C61.5194 18.5155 61.4859 18.4138 61.5194 18.3225C61.5635 18.205 61.6023 18.0771 61.7513 18.0781C61.9023 18.0792 61.9411 18.2092 61.9715 18.3299C61.9936 18.4148 61.9988 18.5019 62.0062 18.589C62.1604 20.4415 63.2891 21.2429 64.9066 21.5041C65.8675 21.6594 66.8451 21.6247 67.8165 21.5566C68.6725 21.4968 69.5263 21.5272 70.3729 21.6656C70.8229 21.7391 71.1218 22.0223 71.3253 22.4104C71.4355 22.6213 71.4921 22.8856 71.3253 23.0556C70.9026 23.4835 70.9267 24.0406 70.8113 24.5598C70.805 24.6385 70.7872 24.7151 70.7673 24.7895C70.7327 25.271 70.7222 25.763 70.2669 26.0819C69.8305 25.5836 69.8484 25.0182 70.0215 24.4276C70.2229 23.7416 70.6918 23.1982 71.0148 22.5741C70.4673 22.3978 69.9134 22.4608 69.369 22.4199C67.8259 22.3034 66.2755 22.3674 64.7335 22.2185C64.1681 22.1639 63.6782 21.9352 63.1863 21.6761C63.0551 21.9321 62.966 22.1996 62.6985 22.3307C62.7478 21.8387 62.4782 21.4821 62.196 21.1254C61.1198 19.7712 60.9341 18.0267 61.6967 16.6263C61.8163 16.406 61.9904 16.2445 62.1604 16.0746C62.2684 15.9655 62.3649 15.9665 62.4562 16.1029C62.8988 16.7627 63.6059 16.7921 64.2898 16.8466C65.5098 16.9442 66.6699 16.5539 67.8553 16.3746C70.0225 16.0462 72.1761 15.805 74.3055 16.62C75.6105 17.1193 76.586 17.9292 77.0874 19.3044C77.3612 18.9519 77.5679 18.5921 77.9623 18.2638C77.8962 18.8774 77.7693 19.382 77.6025 19.8782C77.5437 20.0513 77.5186 20.1583 77.7661 20.2527C79.2536 20.8212 79.9459 22.0108 80.2145 23.5045C80.6015 25.657 79.8756 27.4823 78.5707 29.1502C77.8983 30.0103 77.0234 30.6785 76.3699 31.5523C75.7888 31.8167 75.623 32.3831 75.3912 32.9013C75.3555 32.9727 75.3199 33.045 75.2842 33.1164L75.2853 33.1206Z" fill="#111339"/>
<path d="M62.6804 34.8882C62.693 34.7885 62.7056 34.6878 62.7266 34.519C63.827 35.9435 65.2882 35.7977 66.761 35.5648C67.6883 35.419 68.6051 35.2302 69.4768 34.8525C70.2331 34.5252 70.9569 34.1623 71.5087 33.5266C71.6828 33.7479 71.537 33.9242 71.4122 34.0847C70.6905 35.013 69.8712 35.8554 68.7593 36.2844C68.1278 36.5278 67.8603 36.8687 67.9684 37.5212C67.9799 37.5883 67.9705 37.6596 67.9684 37.7288C67.8739 38.1663 67.9065 38.632 67.7114 39.0453C67.6306 39.2163 67.5058 39.5048 67.3106 39.1146C67.1816 38.8565 67.0411 39.0002 66.891 39.0789C66.6257 39.2195 66.4096 39.4901 66.0561 39.4072C65.8033 39.0254 65.3858 39.0537 65.006 38.9876C65.3302 38.824 65.6585 38.6971 66.0319 38.6593C66.7924 38.5827 67.3757 37.8296 67.2907 37.089C67.168 36.0253 67.1659 36.0138 66.1138 36.1921C65.3962 36.3138 64.6945 36.2718 64.0074 36.0505C63.4053 35.8564 62.9311 35.4945 62.6815 34.8882H62.6804Z" fill="#101337"/>
<path d="M84.8121 85.7663C84.147 85.7883 83.4904 85.7306 82.8421 85.5796C82.6963 85.546 82.4613 85.5607 82.4749 85.3687C82.4907 85.1579 82.7246 85.2366 82.8662 85.2334C84.4229 85.2009 85.9481 84.9963 87.444 84.5379C88.8255 84.1141 90.0916 83.4785 91.2623 82.6403C91.277 82.6298 91.2875 82.6141 91.3032 82.6078C91.4857 82.5333 91.663 82.2228 91.8266 82.3896C92.0249 82.591 91.7427 82.7798 91.6032 82.9361C90.1902 84.518 88.3639 85.3005 86.3205 85.6635C85.8201 85.7527 85.3177 85.7789 84.811 85.7663H84.8121Z" fill="#72D0F6"/>
<path d="M82.796 88.6115C83.0865 88.4112 83.3236 88.3965 83.5628 88.4007C85.8328 88.4447 87.9822 87.9328 90.0434 87.0034C90.228 86.9206 90.5008 86.6751 90.634 86.909C90.7389 87.0926 90.42 87.2699 90.2522 87.4031C88.9808 88.4122 87.5038 88.8947 85.9073 89.0059C84.8855 89.0773 83.8544 89.0762 82.7949 88.6105L82.796 88.6115Z" fill="#71CFF5"/>
<path d="M56.158 98.017C56.5188 98.0055 56.3101 98.2142 56.2881 98.3516C56.2482 98.5174 56.1192 98.5551 55.9744 98.5719C55.8034 98.8803 55.7059 99.2307 55.4541 99.494C55.3744 99.602 55.26 99.6188 55.1373 99.6125C55.0314 99.5769 54.8898 99.5737 54.9391 99.3954C55.2852 99.0933 55.4321 98.6653 55.6377 98.2761C55.7541 98.0548 55.8905 97.9153 56.1569 98.0181L56.158 98.017Z" fill="#2B5AA2"/>
<path d="M77.7818 130.572C77.7472 130.777 77.7115 130.98 77.6769 131.185C77.4944 131.366 77.2384 131.375 77.0748 131.26C76.951 131.173 77.0895 130.947 77.1377 130.782C77.2531 130.388 77.5573 130.61 77.7818 130.572Z" fill="#2859A3"/>
<path d="M75.391 32.9044C75.2673 32.5572 75.6522 32.361 75.6313 32.0012C75.6071 31.5712 76.1316 31.7337 76.3697 31.5554C76.0435 32.0054 75.7173 32.4544 75.391 32.9044Z" fill="#101337"/>
<path d="M76.9417 132.978C76.9973 133.48 76.5399 133.322 76.3155 133.462C76.2724 133.481 76.2273 133.498 76.1969 133.446C76.1854 133.426 76.2001 133.394 76.221 133.366C76.3333 133.1 76.4455 132.836 76.5578 132.571C76.669 132.507 76.7844 132.421 76.8358 132.631C76.8693 132.748 76.9669 132.843 76.9428 132.978H76.9417Z" fill="#253E85"/>
<path d="M76.2208 133.366C76.2522 133.398 76.2837 133.431 76.3152 133.462C76.3267 133.48 76.3372 133.498 76.3477 133.517C76.4232 133.713 76.655 133.56 76.7557 133.7L76.7526 133.696C76.8061 133.936 76.697 134.115 76.5355 134.273C76.332 134.218 76.1253 134.092 75.9344 134.299C75.8903 133.945 75.9764 133.631 76.2218 133.367L76.2208 133.366Z" fill="#549ED2"/>
<path d="M81.4763 56.5179C81.5886 56.0018 81.3704 55.3661 82.0082 55.0388C81.9347 55.5696 81.8047 56.0794 81.4763 56.5179Z" fill="#101337"/>
<path d="M54.9386 99.3945L55.1537 99.511C55.2093 99.6809 55.1998 99.8529 55.1799 100.027C54.9995 100.075 54.819 100.125 54.6397 100.174C54.604 99.8624 54.7026 99.6022 54.9397 99.3956L54.9386 99.3945Z" fill="#63BAE5"/>
<path d="M65.6345 43.1801C66.1097 43.8609 66.7968 44.163 67.5909 44.2238C68.8927 44.3224 70.1399 44.0749 71.2571 43.3972C72.9638 42.3619 74.4764 41.1063 75.5285 39.3618C75.7698 38.9611 76.052 38.5824 76.267 38.1638C76.3635 37.9761 76.4716 37.9415 76.6856 37.995C77.0884 38.0957 77.4776 38.2446 77.9013 38.2845C78.2097 38.3128 78.2979 38.4985 78.0566 38.7911C76.9017 40.1915 76.4506 41.8594 76.3415 43.6249C76.2272 45.4669 76.4065 47.2753 77.1608 48.9957C77.4576 49.6733 77.8279 50.2933 78.3241 50.8398C78.6199 51.1776 78.7804 51.551 78.5612 51.9874C78.4762 52.1573 78.5591 52.1793 78.6839 52.2255C78.8014 52.2696 78.8465 52.4091 78.9398 52.4794C80.1525 53.3846 79.7339 54.5931 79.4895 55.7186C79.1822 57.1316 79.0353 58.5624 79.2514 59.9702C79.3573 60.6594 79.3972 61.3328 79.415 62.0178C79.4203 62.236 79.4927 62.429 79.6311 62.5947C79.906 62.9252 80.0339 63.328 80.1598 63.7255C80.3224 64.2364 80.1797 64.57 79.6941 64.8007C78.965 65.1469 78.2076 65.3955 77.38 65.3137C75.9481 65.4469 74.5058 65.5193 73.0855 65.7322C71.7784 65.9284 70.6109 65.5812 69.4644 65.064C69.0521 64.8784 68.6503 64.6833 68.2087 64.5721C67.6695 64.4368 67.1262 64.3214 66.6331 64.0392C66.3751 63.8923 66.0803 63.8567 65.7782 63.8357C65.0722 63.7864 64.7827 63.4664 64.7943 62.7626C64.8236 61.0496 64.2425 59.4876 63.6215 57.9351C63.0918 56.6103 62.5631 55.2875 62.1624 53.9144C61.94 53.1518 61.5833 52.4311 61.4344 51.6391C61.0767 49.7457 61.1889 47.867 61.5644 45.9945C61.9935 43.8546 62.946 41.9171 63.9226 39.9901C64.1355 39.5705 64.5677 39.6293 64.9128 39.5013C65.1478 39.4142 65.4425 39.1751 65.6345 39.367C65.7877 39.5212 65.5107 39.7845 65.4394 40.0038C65.0796 41.0926 64.8624 42.1636 65.6345 43.1801Z" fill="#222659"/>
<path d="M57.6569 70.8765C57.3695 70.8157 57.1083 70.6436 56.7999 70.6667C56.6845 70.6751 56.5314 70.6289 56.4957 70.7915C56.4621 70.9447 56.6037 70.9982 56.7086 71.0496C59.222 72.2695 60.2825 74.5091 60.9098 77.0466C61.2465 78.4093 61.3368 79.8065 61.4144 81.2006C61.4721 82.2307 61.5487 83.2577 61.7217 84.2741C61.8015 84.7409 61.6819 85.0808 61.3116 85.364C60.0612 86.3228 58.6398 86.7539 57.0779 86.7802C56.91 86.7833 56.8314 86.7204 56.7642 86.5756C55.2254 83.2912 53.2994 80.2051 51.8067 76.8966C50.9896 75.085 50.207 73.2587 49.5021 71.402C49.0353 70.1716 48.8979 68.8782 49.1391 67.589C49.5325 65.491 50.8217 64.2931 52.9921 63.9584C55.1813 63.6207 57.3443 63.9196 59.4979 64.3161C60.8721 64.5689 62.2158 64.9445 63.5648 65.3001C63.8847 65.384 64.0117 65.6148 64.1459 65.8519C65.1173 67.5753 65.3491 69.4373 65.1572 71.3748C65.0554 72.4049 64.8341 73.4025 64.3557 74.3308C62.8064 74.3277 61.8749 73.2126 60.7986 72.3566C60.1839 71.8678 59.5556 71.4104 58.8192 71.102C58.4342 70.9405 58.0503 70.9122 57.6548 70.8765H57.6569Z" fill="#FBB2C3"/>
<path d="M77.0579 94.998C77.104 97.0572 77.2425 99.1058 77.5803 101.142C77.6663 101.659 77.8593 102.092 78.1362 102.513C79.0174 103.85 79.8912 105.186 80.4734 106.698C81.0755 108.263 81.4321 109.874 81.4437 111.539C81.4563 113.375 81.6094 115.196 81.793 117.018C81.7993 117.081 81.8475 117.14 81.8769 117.201C81.8108 117.482 81.6273 117.653 81.3619 117.746C80.1503 118.669 78.7939 119.184 77.2603 119.219C76.9991 119.225 76.8712 119.156 76.761 118.9C75.0648 114.949 73.4389 110.97 71.9734 106.927C71.6241 105.964 71.2056 105.025 70.9412 104.031C70.872 103.769 70.7147 103.521 70.5615 103.291C69.9227 102.34 69.6405 101.272 69.4989 100.155C69.3342 99.537 69.6394 98.9884 69.7853 98.4261C69.9867 97.6509 70.251 96.8914 70.4367 96.1099C70.5552 95.6106 70.7682 95.4627 71.2622 95.5236C72.5074 95.6767 73.7347 95.5424 74.9547 95.3106C75.5368 95.1994 76.1316 95.1575 76.7023 94.9875C76.8187 94.9529 76.9425 94.9361 77.0589 94.998H77.0579Z" fill="#FBB2C3"/>
<path d="M66.0573 77.6899C66.7853 76.4689 67.3433 75.1849 67.5804 73.7699C68.0315 71.0813 67.6947 68.527 66.3279 66.1395C66.5083 66.0504 66.6657 66.1395 66.8251 66.2077C69.3238 67.2735 71.898 68.1494 74.3967 69.2152C74.6002 69.3022 74.8215 69.3924 75.045 69.2487C76.159 69.7302 76.8629 70.6753 77.6276 71.5607C77.5395 70.839 77.0034 70.3512 76.7454 69.7271C76.865 69.491 77.0737 69.5099 77.2856 69.5403C77.7996 69.6138 78.3052 69.6924 78.8245 69.5026C79.0951 69.404 79.4119 69.4459 79.6993 69.5299C80.2416 69.6893 80.7389 70.0208 81.3441 69.9505C81.449 69.9379 81.5204 70.0481 81.5644 70.1477C82.8757 73.6545 82.9417 77.0301 80.4997 80.1341C80.2637 80.4341 80.0109 80.7267 79.6731 80.926C79.3584 80.8589 79.4035 80.497 79.1633 80.3313C78.6472 79.9778 78.5339 79.9211 78.1216 80.3806C77.7912 80.7488 77.3769 80.9176 76.9541 81.1274C76.1579 81.5219 75.2558 81.2837 74.4617 81.6247C73.226 81.1841 71.7963 81.4589 70.6948 80.4414C70.0675 79.8613 69.1707 79.6169 68.3955 79.2214C67.6979 78.8648 66.9762 78.5511 66.3583 78.0571C66.2335 77.9574 66.0143 77.927 66.0573 77.6889V77.6899Z" fill="#468CCA"/>
<path d="M46.136 53.4625C45.8643 52.5782 45.901 51.6656 45.9325 50.7624C46.0059 48.6445 46.4276 46.5811 46.9794 44.5419C47.2647 44.222 47.5385 44.4748 47.7735 44.5954C48.6798 45.0601 49.6333 45.273 50.6487 45.2458C51.6264 45.2185 51.4481 45.2667 51.5823 44.4569C51.7827 44.3887 51.833 44.4947 51.8204 44.6657C51.703 46.2024 52.0911 47.6836 52.3166 49.1826C52.4477 50.0491 52.3764 50.9208 52.3439 51.8428C52.9376 50.7047 53.1159 49.5561 52.7771 48.3696C52.6502 47.9238 52.754 47.6815 53.096 47.4077C53.9709 46.7081 54.8803 46.0629 55.8716 45.5437C56.1496 45.3979 56.3416 45.2164 56.5084 44.9594C57.6371 43.2212 59.0029 41.7275 60.8879 40.7813C61.6578 40.3942 62.4897 40.196 63.3247 40.0134C63.3603 40.0564 63.396 40.0994 63.4317 40.1414C62.9009 41.0897 62.4519 42.0789 61.9442 43.0398C61.3641 44.3237 61.0704 45.6895 60.784 47.0584C60.2858 46.9734 60.055 46.6283 59.927 46.1406C59.7854 47.2378 59.6522 48.2994 59.2536 49.3001C58.6095 50.9197 57.422 52.081 56.0311 53.0639C55.0324 53.7688 54.0359 54.4747 52.9544 55.0527C52.4981 55.2961 52.0512 55.5028 51.5152 55.4115C51.2645 55.3685 51.0348 55.4776 50.8082 55.5709C50.2952 55.7828 49.7581 55.8468 49.2148 55.7797C48.6462 55.7094 48.1616 55.5311 47.8658 54.9405C47.571 54.3499 47.0518 53.8999 46.6762 53.3513C46.436 53.0009 46.3322 53.4981 46.136 53.4614V53.4625Z" fill="#FBB2C3"/>
<path d="M78.3284 84.8332C78.3462 84.8532 78.3473 84.8731 78.3326 84.8951C78.3966 86.3742 78.4186 87.8533 78.3221 89.3323C77.3497 89.8694 76.2902 89.7803 75.258 89.6806C73.7674 89.5369 72.2862 89.2862 70.7977 89.1079C69.4278 88.9432 68.083 89.1477 66.7549 89.474C66.1276 89.6282 66.0102 89.5673 65.9357 88.9432C65.7196 87.1274 65.451 85.3158 65.4175 83.4821C65.4783 83.1087 65.7196 83.2954 65.8801 83.3542C66.8955 83.7255 67.9392 84.0119 68.9652 84.3507C70.1516 84.743 71.3768 84.8752 72.6251 84.8846C74.2992 84.8983 75.9713 84.9193 77.6361 84.6874C77.8763 84.6539 78.128 84.6402 78.3284 84.8332Z" fill="#3A7ABF"/>
<path d="M66.055 39.4071C66.4872 39.1585 66.9194 38.9088 67.3967 38.634V39.3347C67.79 38.7714 67.7114 38.2196 67.8467 37.7297C68.1928 37.4581 68.6061 37.3112 68.9922 37.115C69.9373 36.6336 70.6863 35.9496 71.1478 34.9919C71.5255 34.2083 72.0227 33.4887 72.3195 32.6631C72.4696 32.2467 72.6804 32.2205 73.0276 32.5215C73.186 32.6579 73.3308 32.81 73.4535 32.9799C73.7042 33.3282 73.9969 33.6146 74.4416 33.6943C74.5277 33.71 74.6126 33.7457 74.5644 33.8663C74.6 34.6132 74.5812 35.3632 74.7385 36.1028C74.8812 36.771 75.1445 37.3637 75.7151 37.7738C75.8693 37.8839 75.9197 37.9605 75.799 38.1409C74.3882 40.2484 72.8199 42.1858 70.4052 43.2285C69.6436 43.5569 68.8568 43.7362 68.0198 43.7216C66.2742 43.6911 65.3564 42.5834 65.6837 40.8662C65.7613 40.4571 65.8683 40.0543 65.9616 39.6483C65.9931 39.5686 66.0235 39.4889 66.055 39.4092V39.4071Z" fill="#FBB2C3"/>
<path d="M73.5134 139.622C73.4274 139.09 73.5511 138.645 73.9613 138.256C74.8393 137.424 75.455 136.389 76.0949 135.376C76.2879 135.212 76.5229 135.165 76.7642 135.126C77.3264 135.036 77.8908 134.961 78.4226 134.731C78.8926 134.527 79.3604 134.294 79.8975 134.331C80.4388 134.088 80.9738 133.834 81.3472 133.343C81.6986 133.161 81.686 133.455 81.706 133.642C81.7479 134.041 81.7143 134.444 81.7269 134.846C81.7332 135.04 81.7731 135.227 81.8287 135.41C81.8318 135.833 81.5297 136.108 81.3136 136.413C80.1912 137.999 78.7363 139.191 76.9708 140.006C75.7372 140.576 74.598 140.357 73.5134 139.621V139.622Z" fill="#4891CE"/>
<path d="M72.3163 93.628C70.9621 93.8284 69.5869 93.2829 68.2337 92.664C67.5833 92.3661 67.0378 91.0696 67.2109 90.3405C67.2487 90.1832 67.3336 90.1118 67.4836 90.0678C68.6113 89.7384 69.7662 89.8706 70.9117 89.8727C71.1645 89.8727 71.3544 90.1003 71.5128 90.2618C72.1558 90.9175 72.9898 91.0654 73.83 91.2227C74.7898 91.4021 75.7528 91.4619 76.7231 91.3266C77.0661 91.2783 77.17 91.4273 77.1731 91.7692C77.1857 92.9011 77.1385 92.9735 76.0612 93.2504C74.8916 93.5504 73.7041 93.6627 72.3153 93.6291L72.3163 93.628Z" fill="#222558"/>
<path d="M78.3282 84.8334C76.8544 84.9183 75.3827 85.0337 73.9078 85.0778C73.0434 85.104 72.1759 85.0264 71.3105 84.9823C69.566 84.8942 67.9999 84.1064 66.3352 83.7057C66.1306 83.6564 65.9376 83.5788 65.7698 83.4445C65.6449 83.3438 65.5191 83.3197 65.4173 83.4823C65.2683 82.7459 65.2547 81.998 65.2232 81.2511C65.2065 80.8451 65.4477 81.0077 65.6334 81.0811C66.8985 81.5815 68.1426 82.1438 69.4297 82.5759C72.0018 83.4414 74.6232 83.7707 77.2981 83.0354C77.3317 83.026 77.3674 83.0239 77.4009 83.0144C78.1016 82.8193 78.4338 83.0952 78.3975 83.8421C78.3807 84.1725 78.3523 84.5029 78.3282 84.8334Z" fill="#2E69B3"/>
<path d="M66.0574 77.6897C67.3382 78.6799 68.8487 79.2537 70.2617 80.0027C70.4463 80.1003 70.6719 80.1632 70.8051 80.309C71.5488 81.1188 72.5705 81.059 73.523 81.2877C74.2562 81.465 74.9192 81.2562 75.6094 81.2772C76.3364 81.2993 76.9249 80.972 77.5469 80.7297C77.8889 80.5964 78.0305 80.1548 78.3893 79.9775C78.6452 79.8506 78.7837 79.7006 79.047 80.0677C79.2484 80.3489 79.6313 80.5073 79.6732 80.9258C79.6103 80.9741 79.5473 81.0234 79.4844 81.0716C79.4152 81.0601 79.3375 81.0349 79.2788 81.0716C78.5623 81.5248 77.6518 81.5762 77.0056 82.1752C76.8441 82.3252 76.6605 82.3996 76.4318 82.3587C76.0605 82.2905 75.7133 82.4059 75.3168 82.5192C75.4741 82.5108 75.5664 82.5381 75.6273 82.6346C75.3115 82.7867 74.9769 82.7374 74.6465 82.7206C73.9499 82.4301 73.1831 82.4804 72.4677 82.2748C72.3586 82.2433 72.2149 82.3671 72.1425 82.4972C70.5135 82.2454 68.9788 81.6643 67.4347 81.1262C66.3333 80.7422 65.2507 80.3017 64.164 79.8768C63.9772 79.8034 63.7559 79.7593 63.6174 79.4446C64.6884 79.2149 65.4164 78.5079 66.0595 77.6897H66.0574Z" fill="#3A7CBF"/>
<path d="M60.9215 96.2674C60.7841 96.1111 60.6457 95.9558 60.5093 95.7974C60.3425 95.6044 60.1254 95.4429 60.2691 95.1208C60.4191 94.7862 60.6268 94.5743 61.0138 94.5753C61.4439 94.5753 61.9002 94.6593 62.2265 94.2585C62.2768 94.1967 62.3754 94.1442 62.2758 94.0477C63.138 93.5683 63.7737 92.9358 63.7402 91.8574C63.9405 91.8029 63.9384 92.0022 64.0244 92.0882C64.3737 92.4375 64.6769 92.4344 65.0031 92.0714C65.0178 92.062 65.0399 92.0557 65.0461 92.0431C65.5014 91.0843 65.4993 91.0885 66.3857 91.7252C66.8137 92.0326 67.1745 92.3913 67.4462 92.8487C67.5753 93.0658 67.6959 93.3103 67.9571 93.4152C68.0326 94.953 67.1819 96.0135 66.0951 96.9219C65.7049 97.2482 65.3462 97.6625 64.7954 97.7538C64.6287 97.6531 64.5238 97.4915 64.421 97.3363C64.1828 96.9796 63.9059 96.7509 63.4349 96.8873C63.2776 96.9324 63.0877 96.9198 62.9838 96.7321C63.0384 96.3764 63.3867 96.2904 63.5923 96.0722C63.7223 95.9348 63.8419 95.789 63.9657 95.6474C64.3612 95.0946 64.4975 94.4463 64.6108 93.8746C64.2793 94.526 63.6625 95.0705 63.2524 95.7649C62.5496 96.2747 61.7314 96.2485 60.9226 96.2684L60.9215 96.2674Z" fill="#4689C8"/>
<path d="M82.306 119.523C82.5116 119.875 82.477 120.292 82.6165 120.663C82.7256 120.955 82.7717 121.276 82.9092 121.552C83.1326 122 83.2648 122.379 82.9826 122.898C82.7403 123.343 82.7927 123.899 82.8966 124.429C83.0015 124.959 82.9637 125.49 82.7497 126.015C82.4749 126.689 81.8812 126.82 81.2916 126.969C81.0923 127.019 80.9948 126.877 80.9455 126.673C80.6696 125.543 80.1881 125.149 79.0143 125.105C78.6954 125.093 78.5664 125.001 78.5192 124.661C78.3775 123.63 78.0733 122.633 77.7891 121.635C77.9107 121.51 78.0691 121.508 78.2254 121.501C79.543 121.452 80.678 120.916 81.7532 120.202C82.0175 120.027 82.1214 119.749 82.3039 119.522L82.306 119.523Z" fill="#232559"/>
<path d="M73.5132 139.622C73.8373 139.634 74.13 139.771 74.3943 139.925C75.1108 140.343 75.8514 140.304 76.5647 140.016C78.8284 139.106 80.5676 137.577 81.7708 135.448C81.7571 135.186 81.9092 134.988 82.033 134.78C82.6666 133.694 83.3831 132.667 84.195 131.706C84.6481 131.17 85.2261 130.772 85.7202 130.281C86.4157 129.589 87.065 128.868 87.5906 128.039C88.0175 127.345 88.1706 126.571 88.2378 125.774C88.2472 125.656 88.2252 125.531 88.3081 125.427C88.9668 125.456 89.4494 125.954 89.4556 126.651C89.4682 128.132 88.778 129.32 87.8517 130.402C87.75 130.521 87.6325 130.626 87.5224 130.737C87.0996 131.157 86.6223 131.515 86.1052 131.797C84.6954 132.566 83.7565 133.747 83.0862 135.164C82.5219 136.358 81.8054 137.456 80.8718 138.377C79.9833 139.254 79.0445 140.102 77.8151 140.509C76.4671 141.077 75.1527 141.157 73.9181 140.221C73.723 140.073 73.4313 139.969 73.5132 139.624V139.622Z" fill="#FEFEFE"/>
<path d="M46.1357 53.4628C46.313 53.3464 46.142 52.9772 46.441 52.9855C46.6602 52.9908 46.7714 53.2132 46.8774 53.3947C47.254 54.0366 47.8634 54.5045 48.175 55.2052C48.3355 55.5661 48.7907 55.5933 49.1358 55.6447C49.6687 55.7234 50.2121 55.6846 50.724 55.4643C51.0586 55.3206 51.3796 55.1895 51.7772 55.3112C52.009 55.3825 52.2912 55.2587 52.5209 55.136C54.2601 54.2066 55.8987 53.123 57.3651 51.8044C58.7425 50.5655 59.4138 48.9543 59.6645 47.1385C59.7264 46.6895 59.7505 46.2437 59.8103 45.7654C60.1198 46.2133 60.2373 46.806 60.7838 47.0588C60.6233 48.2169 60.4691 49.3749 60.5939 50.5488C60.6149 50.7491 60.5205 50.8656 60.3768 50.9872C57.4658 53.4523 54.2664 55.3804 50.5278 56.3129C50.4796 56.3255 50.4355 56.358 50.3904 56.3822C49.6677 56.5018 48.9449 56.5983 48.2211 56.3937C47.6138 56.1996 47.1281 55.8283 46.7116 55.3573C46.419 54.7573 46.1861 54.1373 46.1357 53.4639V53.4628Z" fill="#FBB2C3"/>
<path d="M64.7857 97.7055C66.0329 96.9156 67.1574 96.0187 67.6966 94.5627C67.8361 94.1851 67.7826 93.776 67.9578 93.4141C68.6774 93.7749 68.9963 94.4096 68.8348 95.1606C68.6082 96.2149 67.9757 97.0047 67.1826 97.6887C66.6078 98.2981 65.8829 98.6768 65.1235 98.9852C63.7818 99.5317 62.6919 100.382 61.8223 101.543C61.1132 102.49 60.3873 103.421 59.4453 104.169C58.1152 105.225 56.6749 106.026 54.9861 106.326C53.657 106.61 52.6007 106.175 51.7762 105.118C51.708 105.031 51.6429 104.956 51.7332 104.85C52.0468 104.852 52.3017 105.025 52.5419 105.184C53.25 105.65 54.0074 105.712 54.7889 105.485C56.8721 104.879 58.6827 103.838 60.0516 102.113C60.1397 101.712 60.4953 101.503 60.7219 101.203C61.7394 99.8538 63.0139 98.7817 64.4039 97.8376C64.5171 97.7611 64.6304 97.6688 64.7846 97.7055H64.7857Z" fill="#FDFEFC"/>
<path d="M77.3799 65.3138C78.1142 65.1365 78.8694 65.0495 79.5639 64.7096C80.0884 64.4526 80.2531 64.161 80.0433 63.6323C79.9342 63.3574 79.8419 63.0354 79.6373 62.8476C79.0708 62.3263 79.2764 61.6896 79.31 61.0864C79.3237 60.8535 79.3992 60.6479 79.1978 60.4675C79.0677 60.3521 79.0614 60.1968 79.0562 60.0353C79.0058 58.4776 78.9995 56.9293 79.4244 55.4009C79.5744 54.8607 79.5387 54.2669 79.6761 53.7089C79.7244 53.5096 79.5639 53.3942 79.4443 53.2672C79.1946 53.0018 78.9009 52.7795 78.7446 52.4302C78.6638 52.2497 78.6355 52.2623 78.1792 52.4532C78.4275 51.8434 78.4761 51.3042 78.325 50.8357C78.8799 51.2993 79.4254 51.7724 80.0726 52.1123C80.4765 52.3242 80.8898 52.4994 81.3513 52.513C82.2304 52.5392 82.2304 52.5361 82.0993 53.3543C81.3954 55.2362 80.5929 57.0992 80.1534 59.0524C79.7674 60.7664 79.696 62.555 80.4597 64.2491C80.5583 64.4683 80.6171 64.7096 80.6611 64.9477C80.7912 65.6463 80.4198 65.9736 79.7789 65.7407C79.2125 65.5341 78.6481 65.3767 78.0271 65.4753C77.8257 65.5079 77.597 65.3704 77.3809 65.3117L77.3799 65.3138Z" fill="#1B1B4A"/>
<path d="M62.1832 86.9031C62.4223 87.1161 62.3479 87.4193 62.4087 87.6846C62.5451 88.2805 62.7528 88.8532 63.0056 89.4081C63.1168 89.6525 63.1346 89.8644 62.9993 90.1005C62.7003 90.6208 62.6405 91.1599 62.7738 91.76C62.9877 92.7166 62.0919 93.6943 61.1216 93.6334C60.9118 93.6198 60.745 93.5873 60.7041 93.3387C60.5069 92.1596 59.6436 91.7411 58.6103 91.5491C58.347 91.4998 58.1981 91.439 58.1813 91.1452C58.1404 90.4277 57.9453 89.7449 57.6736 89.0819C58.1194 88.9078 58.5998 88.9728 59.0603 88.8794C59.91 88.7085 60.6821 88.3686 61.4332 87.95C61.8611 87.7119 62.073 87.3521 62.1821 86.9021L62.1832 86.9031Z" fill="#232559"/>
<path d="M87.6735 128.153C87.0525 129.17 86.2427 130.021 85.3406 130.788C83.9926 131.933 83.0339 133.387 82.094 134.857C81.9303 134.752 81.8747 134.586 81.8621 134.409C81.8055 133.608 81.6922 132.814 81.6419 132.014C81.6398 131.601 81.8359 131.243 81.9723 130.87C82.031 130.708 82.1391 130.561 82.1013 130.376C82.5136 129.5 83.2856 128.939 83.9349 128.269C84.8434 127.331 85.3112 126.213 85.1853 124.89C85.1549 124.565 85.0532 124.244 85.243 123.936C85.2965 124.108 85.1465 124.32 85.3479 124.462C85.564 124.86 85.5976 125.304 85.5105 125.719C85.371 126.395 85.6752 126.98 85.8 127.598C85.8766 127.975 86.1808 127.849 86.4336 127.758C87.0127 127.551 87.2833 127.639 87.6725 128.154L87.6735 128.153Z" fill="#3C78BD"/>
<path d="M67.1031 71.3713C67.0611 73.0895 66.8367 74.7627 65.8821 76.2564C65.6744 76.5816 65.4572 76.891 65.174 77.1543C64.6401 77.6526 63.932 77.6841 63.3719 77.2351C63.2197 77.1134 63.3068 77.0337 63.3939 76.9404C64.8446 75.3837 65.496 73.4504 65.6964 71.4132C65.8569 69.7789 65.6723 68.1163 64.8834 66.5994C64.7555 66.3529 64.5436 66.0152 64.6632 65.8326C64.8132 65.604 65.1174 65.9134 65.3649 65.9323C65.6891 65.9575 65.8663 66.1736 65.9796 66.4337C66.481 67.5823 66.8881 68.7583 67.0087 70.0212C67.0517 70.4713 67.1346 70.916 67.1052 71.3713H67.1031Z" fill="#232256"/>
<path d="M77.0581 94.9982C76.0972 95.3873 75.065 95.4429 74.0601 95.6097C73.0856 95.7713 72.0911 95.8373 71.104 95.6359C70.826 95.5793 70.6582 95.7377 70.6079 95.9842C70.3393 97.2965 69.8799 98.5553 69.5284 99.8434C69.5012 99.9431 69.5085 100.051 69.4991 100.155C69.2316 99.4196 68.9735 98.6811 68.6924 97.951C68.598 97.7056 68.6588 97.5566 68.8141 97.351C69.6113 96.2947 70.0435 95.1608 69.3659 93.7918C71.9894 94.4495 74.5216 94.1988 77.0581 93.4478V94.9971V94.9982Z" fill="#FBB2C3"/>
<path d="M57.6567 70.8766C58.4676 70.5273 59.0718 71.0717 59.6886 71.4042C60.6096 71.9004 61.3355 72.6787 62.1621 73.3134C62.6992 73.7256 63.2101 74.269 64.0157 74.0592C64.2213 74.0057 64.237 74.247 64.3577 74.3319C63.9611 75.3746 63.3422 76.2694 62.4978 76.9932C61.9523 77.4611 61.6618 77.3394 61.5139 76.6481C60.9946 74.2134 59.8019 72.2277 57.6567 70.8787V70.8766Z" fill="#FBB2C3"/>
<path d="M87.6734 128.152C87.2192 127.834 86.7839 127.604 86.2164 127.99C85.9604 128.164 85.7611 127.992 85.6342 127.639C85.2576 126.596 85.4202 125.521 85.3489 124.461C85.545 123.269 85.4171 123.241 86.6066 123.842C87.3231 124.204 87.7993 124.834 88.3081 125.426C88.4518 126.417 88.178 127.312 87.6734 128.152Z" fill="#478BCA"/>
<path d="M76.2209 65.8424C77.6055 65.791 78.9514 65.9861 80.2469 66.4939C80.4525 66.5746 80.6224 66.689 80.6853 66.9072C80.7619 67.1736 80.806 67.4495 80.8909 67.7117C81.0074 68.0715 80.9109 68.1481 80.5553 68.039C79.5787 67.7401 78.6136 67.3876 77.5929 67.2596C76.9572 67.1799 76.3205 67.1138 75.6775 67.0844C74.8309 67.0456 73.9792 67.0414 73.1379 66.8998C72.9365 66.8662 72.7204 66.8117 72.7151 66.5946C72.7109 66.3995 72.9554 66.3711 73.1054 66.305C74.0988 65.8613 75.154 65.811 76.2198 65.8435L76.2209 65.8424Z" fill="#222659"/>
<path d="M81.5634 70.1485C81.4438 70.0751 81.3127 69.988 81.1752 70.0499C80.8228 70.2094 80.5333 70.03 80.2448 69.8884C79.6427 69.5947 79.0489 69.4982 78.4007 69.7688C78.0209 69.9272 77.6255 69.6975 77.2331 69.6733C77.0569 69.6629 76.8996 69.6219 76.7443 69.7279C76.7055 69.473 76.501 69.3555 76.3184 69.2254C75.5306 68.6642 74.6526 68.2792 73.7505 67.9457C73.6246 67.8995 73.4725 67.9048 73.3718 67.7317C74.7848 67.5313 76.1642 67.6635 77.5394 67.8733C78.4007 68.0044 79.2336 68.2509 80.0675 68.5027C80.9161 68.7586 81.3483 69.3408 81.5613 70.1485H81.5634Z" fill="#3976BB"/>
<path d="M54.9871 106.326C55.3962 106.182 55.8084 106.045 56.2154 105.895C58.5232 105.045 60.2687 103.487 61.6817 101.524C62.4842 100.408 63.4912 99.5516 64.7584 99.0125C65.6101 98.6506 66.4158 98.2058 67.1836 97.6897C66.699 98.489 65.9248 98.9925 65.2052 99.5244C63.9853 100.427 62.9656 101.51 61.9922 102.659C60.2981 104.657 58.0879 105.771 55.5588 106.304C55.3752 106.343 55.178 106.321 54.9881 106.327L54.9871 106.326Z" fill="#F27822"/>
<path d="M77.8152 140.507C80.4796 139.113 82.1968 136.875 83.4734 134.223C83.9853 133.159 84.8476 132.393 85.8599 131.806C86.4316 131.474 86.9099 130.999 87.5235 130.735C87.297 131.286 86.8574 131.673 86.4452 132.065C85.2137 133.237 84.3661 134.674 83.5017 136.112C82.3038 138.107 80.5709 139.5 78.4204 140.374C78.2316 140.451 78.0344 140.545 77.8152 140.506V140.507Z" fill="#F27322"/>
<path d="M81.3608 117.746C81.5328 117.565 81.7038 117.382 81.8758 117.201C82.0825 117.657 81.9692 118.162 82.0888 118.635C82.1307 118.8 82.1391 118.976 82.202 119.138C81.1824 120.136 79.9352 120.669 78.5516 120.916C78.2253 120.975 77.9023 121.042 77.5823 121.124C77.4313 120.74 77.2834 120.355 77.126 119.973C77.0305 119.743 77.1092 119.657 77.3463 119.642C78.2159 119.589 79.0614 119.401 79.8754 119.1C80.4125 118.901 80.9013 118.598 81.3062 118.18C81.4289 118.053 81.5653 117.917 81.3618 117.745L81.3608 117.746Z" fill="#212255"/>
<path d="M57.5448 88.6137C57.4021 88.2424 57.2668 87.8679 57.1158 87.5008C57.013 87.2521 57.1703 87.2721 57.335 87.2259C57.8364 87.0864 58.3578 87.1389 58.8697 86.9784C59.8494 86.671 60.7096 86.1685 61.5414 85.6021C61.8089 85.4196 61.9411 85.4773 61.9527 85.7657C61.9673 86.1381 62.1236 86.4738 62.1708 86.8336C61.4019 87.3843 60.5963 87.8648 59.6984 88.1858C58.9998 88.4354 58.2529 88.4249 57.5448 88.6148V88.6137Z" fill="#232559"/>
<path d="M75.0458 69.2488C74.8675 69.7607 74.5318 69.404 74.3283 69.3285C73.252 68.9257 72.1989 68.462 71.1278 68.0435C69.847 67.5431 68.5557 67.0711 67.2728 66.577C66.9497 66.4522 66.6434 66.2875 66.3287 66.1417C66.1808 65.978 66.0046 65.8343 65.9417 65.55C69.1411 66.449 72.1978 67.5882 75.0458 69.2498V69.2488Z" fill="#71CCEE"/>
<path d="M77.5823 121.124C77.5729 120.987 77.6043 120.9 77.7722 120.887C79.3992 120.765 80.8321 120.157 82.1014 119.144C82.1234 119.127 82.1685 119.139 82.2031 119.137C82.2073 119.274 82.2209 119.409 82.307 119.523C82.3007 119.701 82.394 119.878 82.1884 120.036C80.8898 121.035 79.4799 121.713 77.7921 121.635C77.7229 121.464 77.6526 121.294 77.5834 121.123L77.5823 121.124Z" fill="#4ABDED"/>
<path d="M57.5447 88.6138C57.5301 88.3809 57.6874 88.3882 57.8511 88.3809C59.3574 88.3096 60.6865 87.7651 61.8708 86.8483C61.983 86.7613 62.0627 86.7046 62.1697 86.8336C62.1592 86.8599 62.1634 86.884 62.1823 86.9039C62.3481 87.3791 62.1225 87.6539 61.7365 87.9067C60.59 88.6599 59.3417 89.0806 57.9738 89.1456C57.8752 89.1498 57.7745 89.1047 57.6738 89.0827C57.6308 88.9264 57.5867 88.7701 57.5437 88.6138H57.5447Z" fill="#43AAE0"/>
<path d="M65.0039 92.0703C64.9923 92.2759 64.9619 92.5895 64.7458 92.5423C64.429 92.4741 64.0189 92.4626 63.8573 92.0692C63.8259 91.9916 63.8238 91.9035 63.7398 91.8573C63.5133 91.2752 63.3716 90.7014 63.807 90.1391C64.0241 89.858 64.2392 89.8475 64.515 90.0478C65.0899 90.4643 65.22 90.8293 65.0521 91.5405C65.0123 91.7105 64.9168 91.8857 65.0028 92.0713L65.0039 92.0703Z" fill="#468AC9"/>
<path d="M80.0153 134.42C78.6873 134.651 77.4704 135.338 76.0952 135.375C76.1949 134.992 76.4781 134.683 76.5326 134.283C76.8243 134.117 77.1452 134.175 77.4557 134.173C77.996 134.171 78.5362 134.168 79.0754 134.126C79.1677 134.038 79.2464 133.886 79.3869 134.077C79.496 134.225 79.6303 134.321 79.8265 134.228C79.9041 134.278 79.9523 134.357 80.0163 134.42H80.0153Z" fill="#3474BA"/>
<path d="M75.6251 82.6354C75.4363 82.6228 75.2464 82.6102 75.0576 82.5966C75.4625 82.305 75.9104 82.1235 76.3898 82.2232C76.6636 82.2798 76.8157 82.2127 76.9752 82.0291C77.2238 81.7417 77.5101 81.5707 77.9193 81.5529C78.3095 81.535 78.5801 81.1878 78.9273 81.0326C79.1067 80.9518 79.3249 80.721 79.4843 81.0724C78.3546 81.9808 77.0727 82.5106 75.6262 82.6344L75.6251 82.6354Z" fill="#468CCA"/>
<path d="M79.0739 134.127C78.9438 134.291 78.7697 134.343 78.5662 134.337C77.8885 134.317 77.2098 134.302 76.5322 134.284L76.5343 134.272C76.4892 134.035 76.614 133.863 76.7525 133.695C77.3315 133.594 77.9168 133.576 78.5001 133.629C78.7886 133.656 79.1085 133.702 79.0749 134.127H79.0739Z" fill="#F5FBFC"/>
<path d="M55.1804 100.027C55.0146 99.863 55.0125 99.6909 55.1541 99.5105C55.2538 99.5042 55.3545 99.4979 55.4542 99.4927C56.0825 99.5032 56.715 99.4885 57.3067 99.7486C57.4923 99.8304 57.7619 99.9186 57.6979 100.166C57.6308 100.43 57.3707 100.341 57.163 100.31C56.5073 100.213 55.8507 100.125 55.194 100.034L55.1804 100.026V100.027Z" fill="#F7FCFD"/>
<path d="M72.1401 82.4984C72.1831 82.147 72.5534 81.9267 72.9195 82.1491C73.3695 82.4218 73.7881 82.4722 74.2801 82.3526C74.5161 82.2949 74.6755 82.447 74.6441 82.7218C73.7975 82.7816 72.9636 82.6988 72.1401 82.4984Z" fill="#468CCA"/>
<path d="M61.9441 43.0397C62.3112 42.0075 62.8022 41.0393 63.4316 40.1414C63.4567 40.1833 63.5134 40.2452 63.5018 40.263C62.9196 41.1484 62.5022 42.1166 62.0595 43.0733C62.0542 43.0848 62.0291 43.0995 62.0228 43.0964C61.9944 43.0806 61.9703 43.0586 61.9441 43.0397Z" fill="#101337"/>
<path d="M78.3208 89.3325C78.3239 87.8534 78.3281 86.3743 78.3313 84.8953C78.4991 85.3862 78.4026 85.8939 78.4163 86.3943C78.4372 87.2125 78.4299 88.0307 78.4236 88.8499C78.4226 89.0136 78.496 89.2034 78.3208 89.3335V89.3325Z" fill="#2E69B3"/>
<path d="M58.8246 92.4679C58.4774 92.4564 58.1228 92.5267 57.7903 92.3693C58.1354 92.3998 58.4952 92.2728 58.8246 92.4679Z" fill="#232559"/>
<path d="M78.9523 22.1006C79.5597 22.9639 79.6509 23.93 79.5974 24.9559C79.5292 26.2504 79.0698 27.3822 78.3586 28.4375C77.4313 29.8117 76.2522 30.9614 75.0784 32.1153C74.9211 32.2695 74.7448 32.2831 74.5497 32.2705C73.9937 31.788 73.9476 31.1219 74.4427 30.6928C75.1193 29.9386 75.6102 29.1015 75.5064 28.0431C75.4046 27.0088 74.6284 26.5357 73.6381 26.8703C73.0518 27.0686 72.6017 27.4546 72.2724 27.956C71.9986 28.3735 71.6388 28.2204 71.2937 28.1931C70.9234 28.1637 70.937 27.8333 70.9192 27.5973C70.8741 27.0109 70.5552 26.5588 70.2688 26.0857C70.5143 25.7018 70.6213 25.2748 70.6685 24.829C70.98 24.9926 71.2916 25.1122 71.6598 24.9989C71.8444 24.9423 72.0615 24.9926 72.2115 25.108C72.7108 25.4951 73.2888 25.5738 73.8878 25.5706C74.7333 25.5664 75.4319 25.9451 76.1096 26.3867C76.6959 26.7686 76.8701 26.7518 77.3799 26.2682C77.7114 25.9535 77.9914 25.6021 78.2065 25.1972C78.2935 25.0346 78.3743 24.787 78.5977 24.8437C78.8243 24.9014 78.7519 25.1594 78.7708 25.342C78.7803 25.428 78.7677 25.515 78.7645 25.6493C78.8233 25.428 78.8107 25.2496 78.8138 25.0703C78.9041 24.4744 78.9471 23.8786 78.8191 23.2828C78.9596 22.901 78.711 22.473 78.9534 22.1027L78.9523 22.1006Z" fill="#1A1B49"/>
<path d="M74.5644 33.8653C74.0514 33.7719 73.6371 33.5338 73.3675 33.0701C73.3077 32.9673 73.2133 32.8834 73.1294 32.7953C72.6028 32.2509 72.673 32.2886 72.3269 32.9673C71.7153 34.1642 71.2716 35.4818 70.2383 36.4164C69.5523 37.0364 68.7519 37.4864 67.8477 37.7297C67.7837 36.6199 67.7816 36.6157 68.7488 36.1563C69.7967 35.659 70.6443 34.9268 71.3188 33.9901C71.4174 33.8527 71.5643 33.7299 71.5087 33.5275C72.0059 32.8257 72.2136 31.9771 72.6552 31.248C73.0454 31.246 73.4346 31.2942 73.8185 31.1494C73.9979 31.0813 74.1689 31.1536 74.1773 31.3928C74.1951 31.9058 74.4658 32.3054 74.7584 32.6956C74.8423 33.0586 74.5948 33.3859 74.6483 33.7457C74.62 33.7866 74.5927 33.8265 74.5644 33.8674V33.8653Z" fill="#FBB2C3"/>
<path d="M67.1387 26.1475C66.911 26.1822 66.8072 26.0458 66.6918 25.9577C65.989 25.4154 65.218 25.2958 64.384 25.5779C64.1386 25.6608 63.8669 25.7479 63.7809 25.4248C63.7043 25.1353 63.9948 25.0744 64.2046 25.0031C65.4928 24.5657 66.7222 25.0325 67.1387 26.1475Z" fill="#19183A"/>
<path d="M65.585 26.8266C65.1769 26.7144 64.9892 26.7343 65.2042 27.1361C65.3825 27.4686 65.3836 27.8389 65.2042 28.1893C65.1224 28.3487 65.0143 28.4893 64.815 28.4903C64.5958 28.4903 64.4552 28.3508 64.3881 28.1651C64.2612 27.8137 64.2318 27.456 64.4143 27.1046C64.4804 26.9777 64.7007 26.8959 64.5024 26.6819C64.4311 26.6043 64.6 26.5256 64.6944 26.5161C64.9923 26.4857 65.2703 26.5424 65.5871 26.8266H65.585Z" fill="#181938"/>
<path d="M64.2865 32.5014C64.0095 32.4951 63.7326 32.4909 63.4557 32.4815C63.3109 32.4762 63.1546 32.4469 63.1578 32.2685C63.1609 32.1059 63.2501 31.9486 63.4431 31.9664C64.0788 32.0252 64.6966 31.8563 65.326 31.8374C65.0952 32.2392 64.7648 32.4846 64.2875 32.5014H64.2865Z" fill="#FBFBFB"/>
<path d="M64.2864 32.5013C64.6325 32.2799 64.9787 32.0586 65.3249 31.8373C65.5892 31.6946 65.8158 31.5089 65.9406 31.232C66.0036 31.0925 66.0466 30.9519 66.228 31.0715C66.3497 31.1512 66.4274 31.276 66.3718 31.4302C66.1966 31.9138 64.8581 32.6366 64.3168 32.5432C64.3042 32.5411 64.2969 32.5159 64.2864 32.5023V32.5013Z" fill="#1E1C33"/>
<path d="M74.6671 27.9734C73.7755 27.9115 73.1188 28.4486 73.0381 29.2678C73.0213 29.4336 73.0276 29.6318 72.8104 29.5752C72.4863 29.4902 72.8262 29.3559 72.8209 29.2374C72.7905 28.5021 73.2835 28.1349 73.8521 27.8464C74.0996 27.7206 74.3776 27.6597 74.6671 27.9734Z" fill="#432F3C"/>
<path d="M74.7584 32.6935C74.3451 32.4019 74.1783 31.9676 74.1322 31.4956C74.1049 31.2176 74.0031 31.1715 73.7724 31.2564C73.3989 31.3949 73.0265 31.3708 72.6562 31.247C72.6311 31.1977 72.5597 31.0812 72.6552 31.1117C73.3412 31.3267 73.8877 31.0026 74.4437 30.6931C73.9612 31.2543 74.3409 31.7568 74.5507 32.2708C74.5549 32.4439 74.8633 32.4669 74.7595 32.6935H74.7584Z" fill="#101337"/>
<path d="M81.9945 47.8996C81.3725 48.0548 80.8511 48.3789 80.4137 48.8426C80.1221 49.4888 79.606 49.9797 79.222 50.5619C79.1675 50.6437 79.0574 50.6846 78.9441 50.6416C78.2968 50.1213 77.9003 49.4153 77.6255 48.6664C76.5849 45.8257 76.5345 42.9767 77.7 40.1507C78.2318 38.8615 78.5192 38.6643 79.8903 38.6968C82.4592 38.7576 84.8352 39.4321 86.9258 40.9783C86.7569 41.3717 86.5219 41.185 86.2975 41.0476C85.3135 40.4413 84.2792 39.9514 83.162 39.6409C82.4949 39.4552 81.8277 39.2874 81.0882 39.3377C83.3414 39.6556 85.3083 40.6028 87.1975 41.741C87.4807 41.9119 87.7493 42.0221 88.0744 41.9266C88.6598 42.3536 89.1066 42.8865 89.3206 43.6029C89.3626 43.3564 89.1371 43.1665 89.2504 42.8896C89.6584 42.9903 90.0109 43.2106 90.3759 43.3952C92.7403 44.5963 95.0124 45.94 97.188 47.4695C98.6797 48.5185 99.2 49.9105 99.3028 51.6067C99.4822 54.5428 98.8696 57.3635 98.1174 60.1674C97.9874 60.6542 97.851 61.1388 97.7094 61.657C96.459 60.9248 95.131 60.7423 93.7484 60.8755C93.5071 60.8986 93.3991 60.8734 93.4148 60.5933C93.5208 58.7534 93.2743 56.9387 93.0445 55.1197C92.8715 53.7455 93.1075 52.4081 93.6068 51.1168C93.6498 51.0045 93.8051 50.8892 93.6582 50.7434C93.1841 51.0192 92.6942 50.7843 92.219 50.7601C90.0067 50.6458 87.9748 49.9692 86.1569 48.6863C86.0709 48.6255 85.9744 48.5709 85.9125 48.4901C85.0565 47.3719 83.8743 47.4359 82.669 47.5922C82.4183 47.6247 82.1288 47.6037 81.9935 47.9006L81.9945 47.8996Z" fill="#FBB2C3"/>
<path d="M89.4411 70.9482C89.7684 71.3311 89.9646 71.1276 90.145 70.8937C90.5856 70.3231 90.808 69.6748 90.8101 68.952C90.8101 68.6573 90.8101 68.3625 90.8101 68.0321C90.4901 68.2324 90.4272 68.565 90.381 68.8891C90.3107 69.379 90.1786 69.8437 89.9289 70.2706C89.8481 70.4091 89.7453 70.5433 89.5649 70.5234C89.3897 70.5045 89.2922 70.3682 89.245 70.214C89.1946 70.0493 89.1264 69.8709 89.1432 69.7062C89.288 68.2733 89.5796 66.9086 90.9045 66.0348C91.4426 65.6802 91.9146 65.1411 92.5 64.9659C93.0759 64.7928 93.6633 65.2974 94.2654 65.4453C95.0112 65.6278 95.7476 65.8491 96.5239 65.8439C96.7431 65.8428 96.826 65.8974 96.8249 66.1355C96.8176 67.4981 96.7798 68.8545 96.483 70.1961C96.29 71.0699 95.8976 71.7539 95.0102 72.1189C94.9777 71.8262 95.3364 71.65 95.2714 71.3039C94.8508 71.5032 94.5979 71.8367 94.3116 72.1263C94.063 72.377 93.8028 72.6046 93.4629 72.7221C93.3633 72.7567 93.2437 72.7798 93.1661 72.6948C93.0696 72.5889 93.186 72.5049 93.2364 72.4231C93.3916 72.1714 93.5647 71.929 93.7105 71.672C93.7713 71.565 93.9528 71.4308 93.8039 71.3133C93.6402 71.1843 93.5259 71.3783 93.4231 71.4822C93.079 71.8294 92.7517 72.1923 92.4024 72.5343C92.1884 72.7441 91.9409 72.9151 91.6115 72.8616C91.4311 72.8322 91.2622 72.7452 91.194 72.5826C91.129 72.4252 91.3136 72.3518 91.4038 72.2563C91.7321 71.9091 91.9556 71.4948 92.1769 71.0794C92.222 70.9944 92.3164 70.8916 92.2063 70.8014C92.0709 70.6912 91.986 70.8045 91.9083 70.901C91.6555 71.2126 91.4195 71.5388 91.1468 71.8315C90.8625 72.1357 90.5499 72.4986 90.0758 72.2836C89.5859 72.0612 89.3782 71.629 89.4411 70.9493V70.9482Z" fill="#FBB2C3"/>
<path d="M94.2506 61.3265C95.2702 61.3255 96.2458 61.551 97.1972 61.9003C97.513 62.0157 97.6955 62.1919 97.6084 62.5633C97.4249 63.3395 97.2539 64.1189 97.0797 64.8973C97.0158 65.1815 96.8888 65.3336 96.5479 65.3242C95.5608 65.2959 94.6429 64.9759 93.7104 64.7168C93.6443 64.698 93.5856 64.6529 93.5205 64.6298C92.989 64.4466 92.7894 64.0805 92.9216 63.5315C93.0632 62.9409 93.1964 62.3482 93.2163 61.7398C93.2258 61.4576 93.3359 61.3181 93.6244 61.3255C93.8331 61.3307 94.0429 61.3265 94.2517 61.3265H94.2506Z" fill="#25255B"/>
<path d="M81.9944 47.8995C81.8716 47.6845 81.8979 47.525 82.1717 47.4914C83.0685 47.3802 83.9654 47.29 84.8634 47.4872C85.0952 47.5376 85.2735 47.6635 85.4361 47.8282C87.0725 49.4929 89.1338 50.2293 91.388 50.5241C92.1423 50.6227 92.9028 50.672 93.6612 50.7433C93.2657 51.4283 92.7496 51.6265 91.9083 51.5384C88.7362 51.208 85.9616 49.8852 83.2689 48.3128C82.8703 48.0799 82.4612 47.91 81.9954 47.8995H81.9944Z" fill="#FBB2C3"/>
<path d="M78.9438 50.6418C79.504 50.2285 79.6813 49.5099 80.2016 49.0641C80.2792 48.998 80.3432 48.9162 80.4135 48.8417C80.6862 48.9718 80.853 48.7337 81.0387 48.6309C81.4247 48.4169 81.7132 48.4903 82.0216 48.782C83.0779 49.7806 83.144 50.4393 82.3079 52.0086C81.9607 52.0695 81.6114 52.0516 81.2632 52.0202C80.3149 51.8555 79.59 51.3142 78.9438 50.6408V50.6418Z" fill="#EDAEA8"/>
<path d="M88.0751 41.9254C87.8664 42.1876 87.6597 42.1761 87.3734 42.0019C86.1985 41.2886 84.9985 40.6215 83.6998 40.1473C82.9141 39.861 82.1138 39.6428 81.2903 39.5075C81.0889 39.4739 80.8917 39.4109 80.6924 39.2977C81.1109 39.1529 81.5526 39.1487 81.969 39.2221C83.5781 39.5043 85.0824 40.0792 86.4408 40.9918C86.659 41.1386 86.7681 41.1009 86.9265 40.9781C87.3692 41.2225 87.7458 41.5456 88.0762 41.9254H88.0751Z" fill="#FEF5F2"/>
<path d="M81.2634 52.0216C81.6117 52.0174 81.96 52.0142 82.3082 52.01C81.961 52.1579 81.6127 52.1422 81.2634 52.0216Z" fill="#1B1B4A"/>
<path d="M64.7855 97.7056C62.9488 98.8972 61.4498 100.451 60.0525 102.113C60.1071 101.695 59.8102 101.269 60.0787 100.856C60.1501 100.91 60.1679 100.997 60.233 101.125C60.3651 100.526 60.4018 99.963 60.4774 99.406C60.5445 98.9088 60.7784 98.5227 61.2788 98.4367C61.9008 98.3297 62.1494 97.9511 62.2355 97.3898C62.2732 97.2661 62.3236 97.1486 62.3886 97.0374C62.5565 96.8423 62.7086 96.6157 63.0243 96.687C63.1124 96.8014 63.2393 96.7814 63.3568 96.7772C64.1876 96.7447 64.4048 96.8853 64.7866 97.7056H64.7855Z" fill="#3B76BB"/>
<path d="M62.3564 97.3971C62.3239 97.5324 62.2841 97.6656 62.2589 97.802C62.1918 98.1723 62.0522 98.3926 61.6127 98.4796C60.7379 98.6527 60.7074 98.7461 60.5962 99.6084C60.5344 100.091 60.4651 100.572 60.398 101.055C60.3749 101.22 60.4001 101.411 60.1494 101.498C60.0287 101.292 60.1315 101.06 60.078 100.856C60.1368 100.478 60.1955 100.099 60.2648 99.6556C59.4749 100.32 58.6357 100.685 57.6287 100.492C57.914 100.373 58.2004 100.256 58.4857 100.137C58.9357 99.7405 59.6091 99.6262 59.8945 99.0209C59.9238 98.959 59.9763 98.9097 59.9794 98.8352C59.7179 98.8255 59.5763 98.7283 59.5546 98.5436C59.6207 98.4482 59.6868 98.3527 59.7539 98.2573C60.2574 98.0653 60.6434 97.7401 60.9361 97.2838C61.1249 96.9901 61.4302 96.8044 61.7375 96.5904C61.3893 96.6785 61.1197 96.8684 60.8228 96.9922C60.6298 97.073 60.3057 97.2376 60.3875 96.752C60.5648 96.5904 60.7431 96.4278 60.9204 96.2663C61.4113 96.1163 61.9075 96.0345 62.4246 96.0082C62.6921 95.9946 62.9512 95.7837 63.2135 95.661C63.3257 95.532 63.4652 95.4323 63.5942 95.3211C63.7348 95.1995 63.889 95.2362 64.0117 95.3474C64.1408 95.4628 64.168 95.6023 64.0117 95.7303C63.7998 96.1719 63.3498 96.3659 63.0204 96.6859C62.8012 96.774 62.6229 96.9156 62.4718 97.095C62.0785 97.3488 61.6568 97.566 61.3494 97.9415C61.5875 97.8251 61.8183 97.7107 61.9966 97.5104C62.0869 97.4086 62.1918 97.2985 62.3533 97.395L62.3564 97.3971Z" fill="#1A1535"/>
<path d="M60.3883 96.7531C60.4355 97.0626 60.6012 97.0238 60.7911 96.8842C61.1499 96.6209 61.5653 96.5087 62.0027 96.3933C62.0446 96.5979 61.8883 96.6346 61.7855 96.7007C61.3995 96.9503 61.045 97.2472 60.8184 97.6447C60.5729 98.0759 60.2247 98.2563 59.7537 98.2595C59.9865 97.7664 59.9299 97.1517 60.3883 96.7531Z" fill="#345B9C"/>
<path d="M55.9744 98.5716C56.0793 98.4982 56.1831 98.4247 56.288 98.3513C56.823 98.3954 57.3664 98.3272 57.8972 98.4625C58.1489 98.5265 58.4311 98.6157 58.3367 98.9167C58.2402 99.2241 57.9653 99.0762 57.765 98.9776C57.2971 98.7468 56.7821 98.7814 56.288 98.6985C56.1726 98.6786 56.0384 98.7174 55.9744 98.5716Z" fill="#DAEFF6"/>
<path d="M59.5554 98.5454C59.5921 98.6283 59.568 98.7762 59.74 98.7112C59.8974 98.6514 60.0432 98.5412 60.2299 98.5895C59.9939 99.3699 59.5617 99.7538 58.4875 100.138C58.7939 99.7696 59.0949 99.3972 59.2334 98.9272C59.2869 98.7458 59.4201 98.6482 59.5565 98.5454H59.5554Z" fill="#2E5290"/>
<path d="M48.1237 39.6107C48.2873 39.3526 48.2391 39.0883 48.1772 38.8071C47.8929 37.5106 47.8761 36.214 48.2055 34.9196C48.3429 34.3804 48.6723 34.0269 49.1244 33.707C49.9699 33.109 50.9077 32.7188 51.8664 32.3768C52.2661 32.2342 52.6815 32.1293 53.0875 31.9919C53.528 31.8419 53.9497 31.9887 54.2319 32.4052C54.4186 32.6811 54.5938 32.9706 54.6599 33.2958C54.6998 33.4919 54.9819 33.7762 54.6305 33.9C54.3609 33.9954 54.0263 34.0982 53.8952 33.5863C53.7903 33.173 53.5333 32.7639 52.9238 32.7776C53.9686 33.8811 53.912 34.2084 53.3633 34.8713C53.2081 34.5189 53.0864 34.1633 52.9018 33.8444C52.7245 33.5381 52.4937 33.2496 51.9514 33.2916C52.7035 33.9136 52.9826 34.6364 52.9406 35.4997C52.9091 36.1542 52.7581 36.3473 52.071 36.514C52.0469 34.8388 51.535 33.9577 50.5374 34.1224C51.408 34.4392 51.6084 35.1189 51.7406 35.8291C51.8276 36.2927 51.6325 36.6462 51.2255 36.877C50.9622 37.026 50.6916 37.0385 50.4367 36.8539C50.1639 36.6567 50.3653 36.4658 50.4419 36.2602C50.5814 35.8878 50.3391 35.5731 49.9405 35.6235C49.7538 35.6465 49.608 35.5448 49.3657 35.5385C49.5387 35.7598 49.7307 36.0021 49.1968 36.0399C49.5933 36.1731 49.7234 36.4217 49.823 36.7396C49.9279 37.0763 50.1744 37.4162 50.5154 37.477C51.1028 37.5809 51.2895 37.9291 51.3094 38.4893C51.5486 38.333 51.5308 38.1179 51.471 37.9658C51.2255 37.3323 51.7133 37.3176 52.0888 37.1382C52.136 37.4676 51.8581 37.6585 51.9168 37.9816C52.1927 37.6721 52.2252 37.2253 52.5829 37.0291C52.9333 36.8361 53.2857 36.6452 53.6476 36.4742C53.9833 36.3158 54.341 36.17 54.2319 36.8759C54.277 36.4438 54.5802 36.2487 54.8414 35.9738C54.6484 35.9539 54.5078 35.9612 54.383 35.9214C54.0368 35.8123 53.8207 35.5784 53.7924 35.2039C53.763 34.8147 53.956 34.5755 54.3169 34.4633C54.769 34.3227 55.2295 34.286 55.6029 34.6259C55.9543 34.9448 56.0089 35.3602 55.8914 35.8259C55.4561 37.5557 54.5854 38.9477 52.8829 39.6652C52.542 39.8089 52.6857 40.1142 52.5189 40.2935C52.499 40.4226 52.3941 40.4572 52.2934 40.4761C51.1804 40.6817 50.0706 40.7236 48.9954 40.3061C48.645 40.1698 48.2737 40.0177 48.1247 39.6107H48.1237Z" fill="#FBB2C3"/>
<path d="M48.1238 39.6106C49.2106 40.5169 50.4893 40.5662 51.8057 40.4257C52.0449 40.4005 52.2809 40.3386 52.518 40.2935C52.6827 40.497 52.5442 40.7047 52.4939 40.8883C52.2725 41.697 52.1141 42.5163 52.003 43.345C51.9694 43.5967 51.8813 43.7614 51.6138 43.8265C50.1976 44.1726 48.8507 44.1034 47.6255 43.2097C47.4608 43.0901 47.3129 42.982 47.3675 42.7513C47.6108 41.7023 47.7546 40.6292 48.1228 39.6106H48.1238Z" fill="#F47B21"/>
<path d="M51.5823 44.4556C51.8351 45.214 51.7249 45.3609 50.9812 45.3902C49.7759 45.4364 48.6304 45.2497 47.5678 44.6455C47.3926 44.5458 47.1986 44.442 46.9783 44.5416C47.0486 44.2395 47.1188 43.9364 47.1986 43.5923C48.5371 44.6255 50.0151 44.7766 51.5812 44.4556H51.5823Z" fill="#FBB2C3"/>
<path d="M46.7117 55.3567C47.2152 55.7018 47.7187 56.048 48.2212 56.3931C47.4376 56.456 47.0841 55.8917 46.7117 55.3567Z" fill="#FBB2C3"/>
<path d="M80.0151 134.42C79.8923 134.414 79.7759 134.403 79.8242 134.228C80.8249 133.802 81.1427 132.987 81.2927 131.963C81.3746 131.406 81.8214 130.901 82.1025 130.374C82.326 130.56 82.1592 130.752 82.0931 130.926C81.9704 131.247 81.8246 131.558 81.7805 131.904C81.6819 132.448 81.726 133.032 81.3242 133.489C81.0431 134.019 80.4819 134.154 80.014 134.421L80.0151 134.42Z" fill="#171F46"/>
<path d="M76.9415 132.978C76.8701 132.873 76.6058 132.829 76.8345 132.631C77.5992 132.222 78.4447 132.31 79.2629 132.245C79.4538 132.23 79.5933 132.366 79.587 132.574C79.5807 132.76 79.4412 132.825 79.2713 132.856C78.4992 132.994 77.7156 132.916 76.9404 132.979L76.9415 132.978Z" fill="#F3FAFD"/>
<path d="M76.7549 133.7C76.5923 133.698 76.435 133.881 76.2766 133.739C76.2021 133.672 76.3102 133.589 76.3458 133.517C76.5105 133.515 76.7067 133.443 76.7539 133.7H76.7549Z" fill="#F5FBFC"/>
<path d="M78.9523 22.1011C78.9398 22.4861 79.1024 22.87 78.9523 23.255C78.6838 23.2581 78.7037 23.0053 78.6146 22.8585C78.2978 22.3434 78.0565 21.7654 77.3159 21.4654C77.5656 21.7486 77.7156 21.9616 77.8845 22.1577C78.516 22.8899 78.752 23.769 78.8464 24.7036C78.8611 24.8547 78.8013 25.0225 78.9513 25.14C78.9586 25.4159 78.9796 25.696 78.6492 25.9582V24.9176L78.5233 24.8778C78.2327 25.4505 77.9013 25.9855 77.4229 26.4187C76.8796 26.9117 76.654 26.9432 76.0729 26.5142C75.3134 25.953 74.4606 25.6456 73.5134 25.6739C73.077 25.6865 72.6983 25.611 72.3542 25.3257C72.1035 25.1169 71.7857 25.0246 71.4741 25.1526C71.0766 25.3152 70.8489 25.1494 70.6664 24.8274C70.6664 24.7582 70.6664 24.6879 70.6675 24.6187C71.0745 23.6567 71.4846 22.6959 72.1528 21.8105C71.9535 21.8032 71.8035 21.8829 71.6472 21.9039C71.0325 21.9867 70.5038 21.8871 70.1618 21.2923C69.9468 20.9178 69.5849 20.7626 69.1737 20.6776C68.2915 20.4961 67.4009 20.5685 66.5135 20.5643C65.2914 20.5591 64.1595 20.2696 63.1882 19.508C62.4392 18.9206 61.8245 18.245 62.0668 17.1709C62.2808 16.5698 62.2986 16.5519 62.7591 16.9915C63.0214 17.2422 63.3676 17.2181 63.6518 17.3723C63.5983 17.4457 63.5218 17.4803 63.4357 17.5002C63.2071 17.5338 62.9899 17.5044 62.7854 17.3995C63.3392 17.8107 64.0085 17.8191 64.6484 17.8537C65.9659 17.9261 67.2499 17.6282 68.537 17.3943C69.6982 17.1834 70.8605 17.1876 72.028 17.3198C73.2511 17.4583 74.3022 17.9534 75.1854 18.8094C75.2599 18.8817 75.3281 18.9646 75.4361 18.9919C75.3333 18.6069 75.0134 18.2219 74.5193 17.9009C73.5501 17.2705 72.4518 17.0754 71.3304 17.0051C70.316 16.9411 69.309 17.0313 68.3198 17.2894C68.0691 17.3544 67.8121 17.4237 67.5446 17.388C67.3768 17.3513 67.2079 17.3156 67.0957 17.1667C67.8656 16.9013 68.6712 16.7827 69.4695 16.6589C71.0199 16.4166 72.5567 16.5687 74.0368 17.0764C75.2547 17.4939 76.1453 18.3237 76.7012 19.4954C76.7159 19.5269 76.7421 19.5657 76.7348 19.593C76.5292 20.3398 77.0044 20.5633 77.5803 20.7846C78.2034 21.0248 78.5663 21.5871 78.9544 22.1L78.9523 22.1011Z" fill="#24265A"/>
<path d="M62.0679 17.1715C62.0437 18.1281 62.5116 18.8236 63.2385 19.3827C64.2309 20.1464 65.3659 20.4317 66.6016 20.4275C67.4523 20.4244 68.3072 20.3593 69.1538 20.5261C69.6111 20.6163 70.0076 20.7621 70.2772 21.1933C70.6685 21.8216 71.064 21.9328 71.8224 21.7345C72.0332 21.679 72.2304 21.5216 72.521 21.6171C71.7542 22.4143 71.3766 23.4098 70.9056 24.3507C70.85 24.463 70.7902 24.5658 70.6695 24.6182C70.8206 24.057 70.6926 23.4318 71.2423 22.9608C71.5371 22.708 70.9423 21.8573 70.4062 21.8027C69.4244 21.702 68.4436 21.7083 67.4513 21.7408C66.1086 21.7849 64.705 21.8908 63.4441 21.2069C62.4298 20.6562 61.9472 19.7562 61.857 18.6243C61.8455 18.4764 61.9126 18.3117 61.771 18.1669C61.4615 18.3012 61.5948 18.6138 61.4427 18.831C61.4427 18.5876 61.4406 18.3432 61.4448 18.0998C61.4458 18.0327 61.4741 17.9057 61.4783 17.9057C62.0721 17.9771 61.8591 17.4022 62.07 17.1704L62.0679 17.1715Z" fill="#1A1B49"/>
<path d="M63.4214 17.3867C63.499 17.3814 63.5766 17.3772 63.6543 17.372C64.8239 17.6699 65.9515 17.2671 67.097 17.1674C67.2544 17.157 67.397 17.2052 67.5324 17.2818C67.4936 17.5335 67.2722 17.5472 67.097 17.5849C66.2075 17.7748 65.3064 17.8923 64.3969 17.8346C64.0361 17.8115 63.6102 17.8294 63.4224 17.3867H63.4214Z" fill="#272961"/>
<path d="M68.5118 57.8764C68.4279 57.6289 68.5642 57.4107 68.6303 57.1904C69.0457 55.8026 69.4601 54.4148 69.8964 53.0343C70.037 52.5895 69.7538 52.7039 69.5503 52.7406C68.5548 52.9189 67.5603 53.1098 66.5659 53.2997C66.4295 53.3259 66.289 53.3941 66.1725 53.2714C66.0288 53.1203 66.1421 52.9714 66.2134 52.8413C67.532 50.4013 69.1244 48.1576 71.0314 46.1414C71.0881 46.0816 71.1426 46.0019 71.3199 46.0386C71.0105 47.5827 70.4031 49.044 70.0307 50.6206C71.0147 50.5377 71.9493 50.3457 72.8861 50.1643C73.1431 50.115 73.399 50.0562 73.6581 50.0227C73.7892 50.0059 73.9581 49.9482 74.0483 50.0835C74.1448 50.2272 74.0074 50.3468 73.9308 50.4527C73.1882 51.4891 72.435 52.5171 71.6965 53.5556C70.7251 54.9214 69.7664 56.2956 68.7992 57.6656C68.7342 57.7568 68.7016 57.8995 68.5107 57.8775L68.5118 57.8764Z" fill="#60C7F2"/>
<path d="M52.2915 70.653C52.4866 70.0299 52.6828 69.4068 52.8779 68.7837C52.9136 69.4792 52.7226 70.1033 52.2915 70.653Z" fill="#895D64"/>
<path d="M74.1709 39.9188C73.7314 40.1999 73.2331 40.2199 72.7443 40.2398C71.5233 40.2881 70.3096 40.3552 69.2197 40.9993C69.1389 41.0465 69.0623 41.0832 68.9868 41.0045C68.9018 40.9153 68.9606 40.8272 69.033 40.7884C69.2732 40.6594 69.4064 40.2524 69.804 40.5062C69.9256 40.5839 70.0568 40.4307 70.1837 40.3804C71.4687 39.8779 72.8041 39.7898 74.1719 39.9178L74.1709 39.9188Z" fill="#D39392"/>
<path d="M81.3254 133.489C81.4775 132.962 81.6296 132.433 81.7817 131.906C81.8866 132.889 81.9905 133.873 82.0954 134.857C81.9873 135.055 81.8804 135.252 81.7723 135.449C81.4954 135.254 81.5803 134.958 81.573 134.695C81.5625 134.318 81.5751 133.941 81.5877 133.563C81.6003 133.161 81.4136 133.509 81.3254 133.489Z" fill="#224585"/>
<path d="M64.0137 95.7324C64.0577 95.3327 63.9056 95.2383 63.5626 95.4439C63.4451 95.5142 63.3308 95.5897 63.2144 95.6632C63.6182 94.8659 64.3326 94.29 64.7564 93.498C64.6179 94.2848 64.6022 95.104 64.0126 95.7324H64.0137Z" fill="#244585"/>
<path d="M78.9522 25.1408C78.8757 25.1555 78.755 25.2289 78.754 25.0862C78.7372 23.6344 78.1508 22.4375 77.0378 21.3959C77.7417 21.3067 78.048 21.7158 78.3239 22.1218C78.5652 22.4774 78.7456 22.875 78.9533 23.2547C79.1348 23.8841 79.0215 24.5124 78.9533 25.1408H78.9522Z" fill="#2F3B80"/>
<path d="M62.3563 97.397C62.0206 97.4809 61.9335 97.89 61.5895 97.9718C61.4132 98.0138 61.2737 98.1858 60.9548 98.1177C61.4437 97.6634 61.8108 97.1778 62.4748 97.0959C62.435 97.1966 62.3961 97.2963 62.3563 97.396V97.397Z" fill="#6A6A89"/>
<path d="M63.4209 17.3867C63.8468 17.671 64.323 17.7266 64.8192 17.6941C65.735 17.6343 66.6581 17.6238 67.5308 17.2808C68.1802 17.1685 68.8274 17.0458 69.4778 16.9472C70.9705 16.7185 72.4338 16.8454 73.8489 17.3815C74.5475 17.6469 75.1381 18.0738 75.5441 18.7179C75.6395 18.8689 75.8713 19.0536 75.7129 19.2078C75.5147 19.4008 75.3353 19.17 75.1979 19.0179C74.7814 18.5563 74.2706 18.2343 73.723 17.9511C72.9604 17.5556 72.138 17.4434 71.303 17.3783C69.7736 17.2598 68.2914 17.5892 66.7987 17.8451C65.6081 18.0486 64.4133 18.0969 63.2216 17.8074C62.7884 17.7014 62.5618 17.4266 62.3845 16.9399C62.7716 17.1528 63.0129 17.4895 63.4199 17.3878L63.4209 17.3867Z" fill="#314088"/>
</g>
<defs>
<clipPath id="clip0_76_2">
<rect width="54.6406" height="126" fill="white" transform="translate(45.3062 16)"/>
</clipPath>
</defs>
</svg>
