<svg width="123" height="142" viewBox="0 0 123 142" fill="none" xmlns="http://www.w3.org/2000/svg">
<g clip-path="url(#clip0_76_368)">
<path d="M87.1248 129.413C87.7125 129.927 88.2603 130.501 88.898 130.945C90.3402 131.949 91.0151 133.322 91.092 135.043C91.1267 135.822 91.4962 136.564 91.373 137.365C90.7341 138.185 90.4287 138.202 89.7256 137.459C89.6255 137.354 89.4985 137.173 89.401 137.183C88.5914 137.273 87.9357 136.663 87.1428 136.711C86.2357 136.564 85.3324 136.378 84.6806 135.664C83.6465 134.53 82.4956 133.524 81.3331 132.531C80.5081 131.826 79.6639 131.151 78.6002 130.807C77.9472 130.596 77.289 130.724 76.6359 130.674C75.7724 130.607 74.8974 130.809 74.0416 130.567C74.1583 130.413 74.3328 130.417 74.4996 130.401C75.1989 130.33 75.204 130.307 74.8409 129.682C74.6087 129.283 74.2699 128.946 74.1391 128.485C74.0634 126.981 73.8735 125.49 73.7452 123.993C73.7105 123.592 73.5874 123.127 74.0813 122.867C74.4906 122.749 74.8961 122.852 75.2823 122.95C76.7886 123.328 78.2974 123.15 79.805 123.008C80.2092 122.969 80.6146 122.959 81.0175 122.927C82.3814 122.817 83.4476 123.269 84.1264 124.501C84.3368 124.884 84.6704 125.09 85.0822 125.186C85.2683 125.288 85.2785 125.426 85.0925 125.511C84.6639 125.706 84.7692 126.002 84.9154 126.306C85.285 127.081 85.7379 127.801 86.3653 128.398C86.6758 128.694 86.9696 129 87.1248 129.411V129.413Z" fill="#F8A58A"/>
<path d="M68.7813 49.8876C71.0895 51.5325 73.5696 52.863 76.2666 53.7252C79.7334 54.8325 81.8171 57.3331 83.4889 60.3894C85.0426 63.2288 85.8266 66.3337 86.8723 69.3502C87.5074 71.1824 88.0925 73.0326 88.7006 74.875C89.5102 77.3462 90.3186 79.8186 91.1282 82.2898C91.1949 82.4938 91.295 82.6773 91.4553 82.8299C92.7012 84.027 93.9445 85.228 95.1878 86.4263C95.7651 86.7266 96.1988 87.1705 96.5093 87.7389C98.788 89.9676 101.067 92.1975 103.348 94.4249C103.438 94.5121 103.544 94.5827 103.643 94.661C105.175 96.1801 106.706 97.7005 108.24 99.2171C109.046 100.013 109.861 100.8 110.67 101.591C110.724 101.86 110.547 102.023 110.392 102.198C109.532 103.164 108.659 104.116 107.713 104.997C107.375 105.313 107.201 105.789 106.743 105.983C106.677 105.985 106.617 105.968 106.561 105.936C104.637 104.31 102.731 102.661 100.847 100.989C99.2204 99.5455 97.5883 98.1072 95.9884 96.6317C94.4667 95.2281 92.945 93.8231 91.4271 92.4143C87.9359 89.1708 84.9836 85.5744 83.3567 80.9708C81.9813 77.0793 80.7431 73.1557 79.6513 69.1796C79.4306 68.3764 79.1547 67.5873 79.0546 66.7456C78.7044 69.2617 78.458 71.7893 78.1013 74.3028C77.0698 78.7716 75.9869 83.229 74.963 87.6991C74.8693 88.1097 74.963 88.4394 75.176 88.7859C76.5052 90.9504 77.7613 93.1559 78.766 95.4937C78.9007 95.8054 79.0726 96.1082 79.0136 96.4701C78.9289 96.7408 78.7005 96.864 78.4721 96.9833C75.2119 98.6974 71.8028 100.034 68.2552 101.027C66.6283 101.483 64.986 101.86 63.3103 102.064C60.8392 102.366 58.4168 102.094 56.047 101.341C55.8455 101.276 55.6364 101.211 55.5222 101.003C55.4029 99.9189 55.1398 98.8591 54.9025 97.7993C54.4393 95.7259 54.1711 93.6255 54.1339 91.5162C54.0929 89.1541 54.5214 86.8472 55.4234 84.6339C56.0701 83.0481 56.913 81.6277 58.1576 80.4255C59.7332 78.9038 61.6321 78.1994 63.7594 78.0557C65.3414 77.9492 66.9221 78.1019 68.4797 78.3842C69.714 78.6087 70.9496 78.5561 72.1878 78.5407C72.9704 78.5304 73.6415 78.193 74.1996 77.6618C75.2132 76.6969 75.7367 75.4716 76.0125 74.1244C76.0292 74.041 76.0318 73.9538 76.0138 73.8691C76.0048 73.8242 75.9805 73.7921 75.933 73.7652C75.7367 73.7652 75.6623 73.9435 75.5571 74.0628C74.4626 75.3036 73.0423 75.7321 71.4423 75.8424C69.0199 76.0105 66.6822 75.505 64.3445 75.0226C62.8613 74.7172 61.4306 74.816 59.9718 75.1727C57.6598 75.7372 55.3118 75.7411 52.9715 75.3472C50.6517 74.9571 49.1441 73.6125 48.4013 71.3672C47.6571 69.1167 47.4159 66.829 47.7161 64.4117C47.48 64.8698 47.2966 65.2765 47.1631 65.7089C47.0245 66.158 46.877 66.6019 46.7731 67.0612C46.2829 69.2103 45.5862 71.2991 44.8895 73.3867C44.2262 75.3754 43.4679 77.3282 42.5813 79.2246C41.1905 82.2012 39.4969 84.9803 37.154 87.3309C34.3018 90.1921 31.3251 92.9173 28.3536 95.6515C25.7592 98.038 23.0764 100.324 20.4666 102.694C19.2824 103.769 18.0212 104.764 16.8266 105.832C16.665 105.977 16.4789 106.08 16.2608 106.116C16.0132 106.144 15.8862 105.968 15.7386 105.815C14.648 104.691 13.6318 103.499 12.5733 102.345C12.4399 102.2 12.2256 102.073 12.3359 101.813C12.9326 101.219 13.5305 100.625 14.1271 100.031C15.4153 98.6641 16.7355 97.3323 18.2406 96.1968C18.365 96.0954 18.4895 95.9928 18.6152 95.8914C20.7156 93.9168 22.8172 91.9435 24.9137 89.9663C25.8914 89.0438 26.8601 88.1123 27.8327 87.1846C28.2548 86.4751 28.8848 85.9503 29.4968 85.4307C30.2974 84.7507 30.9787 83.9526 31.7793 83.2764C32.0693 83.0314 32.1514 82.6619 32.2759 82.3206C33.0444 80.2138 33.7219 78.0749 34.5109 75.9746C34.8227 75.0893 35.096 74.1911 35.4347 73.3148C36.3662 70.5575 37.349 67.8169 38.3113 65.0699C38.4024 64.8108 38.4692 64.5349 38.7168 64.3655C39.8651 61.7828 41.1854 59.3039 43.1356 57.2189C43.8066 56.5017 44.6034 55.9808 45.5247 55.5625C46.4023 55.1648 47.1747 54.5194 48.1318 54.2474C49.4944 54.2474 50.8442 54.4501 52.2119 54.445C54.873 54.4347 57.4801 54.1242 60.0757 53.534C62.2929 53.0298 64.4381 52.3613 66.5013 51.4067C67.3481 51.0154 68.0063 50.37 68.7774 49.8799L68.7813 49.8876Z" fill="#1E9DF1"/>
<path d="M74.1751 122.986C73.6401 123.263 73.9262 123.744 73.9532 124.109C74.0686 125.62 74.3355 127.119 74.2983 128.642C74.0853 128.955 73.7517 128.947 73.4335 128.95C71.491 128.97 69.5536 128.903 67.6123 128.752C65.784 128.61 63.9543 128.461 62.1247 128.34C60.2271 128.216 58.3423 127.99 56.4536 127.79C52.5031 127.371 48.5641 126.876 44.638 126.264C40.6285 125.639 36.642 124.9 32.6851 123.996C28.6999 123.085 24.7712 121.986 21.0234 120.348C18.7948 119.374 16.6559 118.2 14.5556 116.965C12.971 116.033 11.4313 115.036 9.92503 113.985C9.76209 113.871 9.58118 113.82 9.40283 113.751C9.48751 112.539 9.88654 111.435 10.5383 110.417C10.5755 109.968 10.8899 109.705 11.2248 109.498C12.69 108.591 14.0488 107.532 15.464 106.554C15.8771 106.269 16.23 106.617 16.6033 106.512C16.9023 106.735 17.2487 106.74 17.6003 106.721C19.1258 106.934 20.6629 106.94 22.1949 107.038C24.6019 107.192 27.0012 107.43 29.3953 107.727C33.7603 108.268 37.979 109.387 42.1502 110.758C44.9934 111.694 47.7853 112.756 50.5824 113.812C53.1203 114.771 55.5965 115.874 58.0934 116.929C59.1198 117.362 60.2001 117.63 61.251 117.99C64.0583 118.948 66.8925 119.824 69.6896 120.818C70.775 121.202 71.8926 121.5 72.9845 121.871C73.5554 122.065 74.034 122.339 74.1751 122.983V122.986Z" fill="#222659"/>
<path d="M9.40294 113.752C9.57358 113.508 9.74294 113.609 9.93797 113.734C10.7412 114.246 11.4789 114.85 12.2885 115.357C14.7468 116.897 17.2591 118.334 19.8778 119.585C22.7877 120.973 25.8068 122.054 28.9284 122.852C30.6567 123.294 32.3798 123.77 34.1248 124.136C36.9693 124.732 39.8228 125.292 42.6853 125.793C44.9832 126.196 47.2915 126.557 49.6087 126.812C51.6538 127.037 53.6965 127.3 55.7442 127.516C58.0652 127.761 60.3863 127.999 62.7086 128.236C64.0186 128.371 65.3363 128.43 66.6514 128.511C68.8621 128.647 71.0703 128.86 73.2899 128.775C73.6338 128.762 73.9687 128.739 74.2984 128.642C74.7937 129.165 75.1016 129.803 75.4673 130.507C74.9476 130.53 74.4947 130.55 74.0405 130.57C70.1362 130.516 66.2306 130.471 62.3263 130.407C57.588 130.33 52.8509 130.249 48.1139 130.144C46.4511 130.107 44.7895 129.989 43.128 129.907C42.9227 129.817 42.7033 129.839 42.4967 129.863C40.3052 130.126 38.1792 129.591 36.0288 129.351C35.8569 129.332 35.6978 129.273 35.5708 129.146L35.5477 129.161C33.4525 128.939 31.3675 128.652 29.3031 128.212C24.924 127.279 20.6219 126.106 16.5329 124.248C15.9529 123.985 15.3499 123.748 14.8982 123.266C13.9514 122.578 12.9057 122.03 12.0858 121.163C10.1125 119.078 9.17199 116.631 9.40294 113.753V113.752Z" fill="#222659"/>
<path d="M9.40294 113.752C9.57358 113.508 9.74294 113.609 9.93797 113.734C10.7412 114.246 11.4789 114.85 12.2885 115.357C14.7468 116.897 17.2591 118.334 19.8778 119.585C22.7877 120.973 25.8068 122.054 28.9284 122.852C30.6567 123.294 32.3798 123.77 34.1248 124.136C36.9693 124.732 39.8228 125.292 42.6853 125.793C44.9832 126.196 47.2915 126.557 49.6087 126.812C51.6538 127.037 53.6965 127.3 55.7442 127.516C58.0652 127.761 60.3863 127.999 62.7086 128.236C64.0186 128.371 65.3363 128.43 66.6514 128.511C68.8621 128.647 71.0703 128.86 73.2899 128.775C73.6338 128.762 73.9687 128.739 74.2984 128.642C74.7937 129.165 75.1016 129.803 75.4673 130.507C74.9476 130.53 74.4947 130.55 74.0405 130.57C70.1362 130.516 66.2306 130.471 62.3263 130.407C57.588 130.33 52.8509 130.249 48.1139 130.144C46.4511 130.107 44.7895 129.989 43.128 129.907C42.9227 129.817 42.7033 129.839 42.4967 129.863C40.3052 130.126 38.1792 129.591 36.0288 129.351C35.8569 129.332 35.6978 129.273 35.5708 129.146L35.5477 129.161C33.4525 128.939 31.3675 128.652 29.3031 128.212C24.924 127.279 20.6219 126.106 16.5329 124.248C15.9529 123.985 15.3499 123.748 14.8982 123.266C13.9514 122.578 12.9057 122.03 12.0858 121.163C10.1125 119.078 9.17199 116.631 9.40294 113.753V113.752Z" fill="black" fill-opacity="0.2"/>
<path d="M9.40294 113.752C9.57358 113.508 9.74294 113.609 9.93797 113.734C10.7412 114.246 11.4789 114.85 12.2885 115.357C14.7468 116.897 17.2591 118.334 19.8778 119.585C22.7877 120.973 25.8068 122.054 28.9284 122.852C30.6567 123.294 32.3798 123.77 34.1248 124.136C36.9693 124.732 39.8228 125.292 42.6853 125.793C44.9832 126.196 47.2915 126.557 49.6087 126.812C51.6538 127.037 53.6965 127.3 55.7442 127.516C58.0652 127.761 60.3863 127.999 62.7086 128.236C64.0186 128.371 65.3363 128.43 66.6514 128.511C68.8621 128.647 71.0703 128.86 73.2899 128.775C73.6338 128.762 73.9687 128.739 74.2984 128.642C74.7937 129.165 75.1016 129.803 75.4673 130.507C74.9476 130.53 74.4947 130.55 74.0405 130.57C70.1362 130.516 66.2306 130.471 62.3263 130.407C57.588 130.33 52.8509 130.249 48.1139 130.144C46.4511 130.107 44.7895 129.989 43.128 129.907C42.9227 129.817 42.7033 129.839 42.4967 129.863C40.3052 130.126 38.1792 129.591 36.0288 129.351C35.8569 129.332 35.6978 129.273 35.5708 129.146L35.5477 129.161C33.4525 128.939 31.3675 128.652 29.3031 128.212C24.924 127.279 20.6219 126.106 16.5329 124.248C15.9529 123.985 15.3499 123.748 14.8982 123.266C13.9514 122.578 12.9057 122.03 12.0858 121.163C10.1125 119.078 9.17199 116.631 9.40294 113.753V113.752Z" fill="black" fill-opacity="0.2"/>
<path d="M16.1914 106.048C14.9083 104.638 13.6253 103.229 12.3422 101.819C12.1318 101.804 11.9188 101.799 11.7097 101.769C10.3612 101.582 9.01785 101.405 7.68604 101.895C7.37297 102.01 7.02398 102.028 6.69167 102.091C6.45431 101.983 6.25287 102.036 6.08094 102.227C5.54462 102.262 4.97495 102.76 4.49381 102.05C4.34882 101.836 4.17048 102.04 4.055 102.216C3.72012 102.72 3.58027 103.306 3.35446 103.855C3.19151 104.248 2.94388 104.601 2.8438 105.026C2.66546 105.785 3.12094 106.233 3.84458 106.71C3.05422 106.71 2.49481 106.669 1.94566 106.724C1.55177 106.764 0.99364 106.905 1.00005 107.324C1.00647 107.761 1.57358 107.679 1.9354 107.737C2.58976 107.843 3.27491 107.775 3.95236 108.072C3.73167 108.279 3.50842 108.213 3.30827 108.242C2.97211 108.293 2.63338 108.338 2.30364 108.418C2.14069 108.458 1.97902 108.573 1.99057 108.773C1.99955 108.952 2.1702 108.976 2.30748 109.038C2.87331 109.288 3.46736 109.292 4.06655 109.274C4.57977 109.26 5.07888 109.328 5.66395 109.51C5.16484 109.713 4.76966 109.863 4.38346 110.036C4.21025 110.113 4.01651 110.233 4.05628 110.458C4.09991 110.698 4.30263 110.807 4.53615 110.794C6.41325 110.686 8.33911 111.155 10.1598 110.321C10.265 110.272 10.4908 110.088 10.5383 110.418C10.7885 110.05 11.0938 109.737 11.4749 109.51C12.3294 108.998 13.1364 108.418 13.9384 107.832C14.331 107.545 14.7505 107.295 15.147 107.014C15.4395 106.806 15.6705 106.468 16.1247 106.688C16.1644 106.708 16.4454 106.781 16.5802 106.632C16.566 106.36 16.4005 106.189 16.1914 106.048ZM8.57391 104.238C7.77329 105.115 6.71092 105.271 5.60365 105.295H5.54078C4.20897 105.298 4.13198 105.197 4.48097 103.925C4.67001 103.238 5.10839 102.977 5.7961 103.141C6.51333 103.313 7.22671 103.269 7.94778 103.151C8.33655 103.088 8.84463 102.933 9.06019 103.352C9.24751 103.717 8.81128 103.979 8.57391 104.238Z" fill="#F8A58A"/>
<path d="M35.5707 129.145C37.272 129.337 38.9759 129.515 40.6747 129.731C41.2264 129.8 41.7755 129.778 42.3259 129.8C42.5954 129.81 42.8802 129.727 43.1291 129.905C42.6082 129.894 42.1412 129.968 41.7524 130.397C41.2892 130.909 40.64 131.102 39.9741 131.153C39.3506 131.2 38.7796 131.373 38.192 131.576C37.6069 131.779 37.0115 131.812 36.4945 132.296C36.0069 132.751 35.4809 132.45 35.2576 131.768C35.1357 131.398 35.1922 131.054 35.3102 130.707C35.4847 130.2 35.6015 129.686 35.572 129.145H35.5707Z" fill="#F8A48A"/>
<path d="M74.175 122.986C73.0216 121.621 71.2689 121.612 69.7626 121.063C67.7238 120.321 65.6658 119.635 63.6001 118.966C61.0135 118.128 58.4243 117.305 55.9249 116.205C52.2656 114.595 48.5319 113.165 44.7611 111.83C42.032 110.862 39.2722 109.994 36.4815 109.25C34.2734 108.661 32.0101 108.276 29.7352 107.964C27.5053 107.657 25.2638 107.478 23.0287 107.262C21.7662 107.14 20.4806 107.081 19.2014 107.086C18.6048 107.089 18.0197 106.996 17.4487 106.821C17.7887 106.189 18.4277 105.984 19.0218 105.713C19.8609 105.583 20.6576 105.258 21.5045 105.155C22.3012 105.028 23.0852 104.842 23.8755 104.682C27.318 103.986 30.7963 103.569 34.2952 103.314C34.4735 103.318 34.6455 103.268 34.8187 103.237C36.5611 103.218 38.2996 103.028 40.0433 103.065C40.7002 103.079 41.139 102.85 41.547 102.316C42.3207 101.304 43.1714 100.349 44.0169 99.3931C44.8457 98.5219 45.7349 97.7097 46.5176 96.7924C46.719 96.5563 46.8807 96.2573 47.2592 96.2689C49.0644 97.5956 50.9325 98.8157 52.9662 99.7716C53.5076 100.026 54.0645 100.236 54.611 100.473C54.8612 100.581 55.1448 100.645 55.2924 100.917C56.6614 103.902 58.8143 106.241 61.3471 108.264C62.1066 108.87 62.9817 109.278 63.8888 109.606C64.9678 109.998 66.0148 109.832 67.0785 109.451C69.778 108.485 72.543 107.73 75.3644 107.234C77.0285 106.94 78.6901 106.912 80.3683 107.442C82.2044 108.022 84.1354 107.837 86.0356 107.744C88.39 107.629 90.6789 107.05 93.0038 106.733C94.6115 106.515 96.2486 106.477 97.7947 107.18C98.0475 107.295 98.3105 107.39 98.5479 107.534C98.7416 107.651 99.0239 107.741 98.9546 108.034C98.8943 108.287 98.6249 108.262 98.4183 108.292C95.4185 108.748 92.4444 109.338 89.4857 110.009C87.7985 110.393 86.101 110.733 84.4086 111.096C81.1497 111.795 77.919 112.616 74.6741 113.377C71.5537 114.11 68.4423 114.874 65.3284 115.633C64.2147 115.903 63.0984 116.174 61.9912 116.513C63.7092 116.954 65.4259 117.366 67.1452 117.76C68.7888 118.137 70.4272 118.557 72.0811 118.875C73.989 119.242 75.8943 119.64 77.8099 119.966C79.7897 120.303 81.7784 120.597 83.7761 120.805C87.461 121.187 91.146 121.347 94.8078 120.563C96.2743 120.249 97.6754 119.723 99.0957 119.253C101.603 118.423 103.751 117.04 105.57 115.136C106.553 114.108 107.247 112.874 107.999 111.683C108.722 110.536 109.613 109.59 110.887 109.053C111.489 109.044 111.831 109.368 111.998 109.918C112.419 110.801 112.833 111.674 112.95 112.674C113.275 115.439 112.193 117.589 110.088 119.277C108.225 120.77 106.006 121.558 103.78 122.316C103.62 122.371 103.461 122.433 103.302 122.492C103.098 122.738 102.804 122.806 102.516 122.887C99.0816 123.858 95.5686 124.418 92.0325 124.853C90.0028 125.103 87.964 125.253 85.9291 125.445C85.6763 125.47 85.4158 125.522 85.2067 125.309C84.6332 125.388 84.2393 125.179 83.984 124.638C83.1756 122.933 81.6347 122.988 80.1309 123.163C78.3231 123.372 76.5346 123.5 74.7485 123.044C74.5651 122.996 74.3688 123.004 74.1776 122.986H74.175Z" fill="#222659"/>
<path d="M74.175 122.986C73.0216 121.621 71.2689 121.612 69.7626 121.063C67.7238 120.321 65.6658 119.635 63.6001 118.966C61.0135 118.128 58.4243 117.305 55.9249 116.205C52.2656 114.595 48.5319 113.165 44.7611 111.83C42.032 110.862 39.2722 109.994 36.4815 109.25C34.2734 108.661 32.0101 108.276 29.7352 107.964C27.5053 107.657 25.2638 107.478 23.0287 107.262C21.7662 107.14 20.4806 107.081 19.2014 107.086C18.6048 107.089 18.0197 106.996 17.4487 106.821C17.7887 106.189 18.4277 105.984 19.0218 105.713C19.8609 105.583 20.6576 105.258 21.5045 105.155C22.3012 105.028 23.0852 104.842 23.8755 104.682C27.318 103.986 30.7963 103.569 34.2952 103.314C34.4735 103.318 34.6455 103.268 34.8187 103.237C36.5611 103.218 38.2996 103.028 40.0433 103.065C40.7002 103.079 41.139 102.85 41.547 102.316C42.3207 101.304 43.1714 100.349 44.0169 99.3931C44.8457 98.5219 45.7349 97.7097 46.5176 96.7924C46.719 96.5563 46.8807 96.2573 47.2592 96.2689C49.0644 97.5956 50.9325 98.8157 52.9662 99.7716C53.5076 100.026 54.0645 100.236 54.611 100.473C54.8612 100.581 55.1448 100.645 55.2924 100.917C56.6614 103.902 58.8143 106.241 61.3471 108.264C62.1066 108.87 62.9817 109.278 63.8888 109.606C64.9678 109.998 66.0148 109.832 67.0785 109.451C69.778 108.485 72.543 107.73 75.3644 107.234C77.0285 106.94 78.6901 106.912 80.3683 107.442C82.2044 108.022 84.1354 107.837 86.0356 107.744C88.39 107.629 90.6789 107.05 93.0038 106.733C94.6115 106.515 96.2486 106.477 97.7947 107.18C98.0475 107.295 98.3105 107.39 98.5479 107.534C98.7416 107.651 99.0239 107.741 98.9546 108.034C98.8943 108.287 98.6249 108.262 98.4183 108.292C95.4185 108.748 92.4444 109.338 89.4857 110.009C87.7985 110.393 86.101 110.733 84.4086 111.096C81.1497 111.795 77.919 112.616 74.6741 113.377C71.5537 114.11 68.4423 114.874 65.3284 115.633C64.2147 115.903 63.0984 116.174 61.9912 116.513C63.7092 116.954 65.4259 117.366 67.1452 117.76C68.7888 118.137 70.4272 118.557 72.0811 118.875C73.989 119.242 75.8943 119.64 77.8099 119.966C79.7897 120.303 81.7784 120.597 83.7761 120.805C87.461 121.187 91.146 121.347 94.8078 120.563C96.2743 120.249 97.6754 119.723 99.0957 119.253C101.603 118.423 103.751 117.04 105.57 115.136C106.553 114.108 107.247 112.874 107.999 111.683C108.722 110.536 109.613 109.59 110.887 109.053C111.489 109.044 111.831 109.368 111.998 109.918C112.419 110.801 112.833 111.674 112.95 112.674C113.275 115.439 112.193 117.589 110.088 119.277C108.225 120.77 106.006 121.558 103.78 122.316C103.62 122.371 103.461 122.433 103.302 122.492C103.098 122.738 102.804 122.806 102.516 122.887C99.0816 123.858 95.5686 124.418 92.0325 124.853C90.0028 125.103 87.964 125.253 85.9291 125.445C85.6763 125.47 85.4158 125.522 85.2067 125.309C84.6332 125.388 84.2393 125.179 83.984 124.638C83.1756 122.933 81.6347 122.988 80.1309 123.163C78.3231 123.372 76.5346 123.5 74.7485 123.044C74.5651 122.996 74.3688 123.004 74.1776 122.986H74.175Z" fill="black" fill-opacity="0.2"/>
<path d="M74.175 122.986C73.0216 121.621 71.2689 121.612 69.7626 121.063C67.7238 120.321 65.6658 119.635 63.6001 118.966C61.0135 118.128 58.4243 117.305 55.9249 116.205C52.2656 114.595 48.5319 113.165 44.7611 111.83C42.032 110.862 39.2722 109.994 36.4815 109.25C34.2734 108.661 32.0101 108.276 29.7352 107.964C27.5053 107.657 25.2638 107.478 23.0287 107.262C21.7662 107.14 20.4806 107.081 19.2014 107.086C18.6048 107.089 18.0197 106.996 17.4487 106.821C17.7887 106.189 18.4277 105.984 19.0218 105.713C19.8609 105.583 20.6576 105.258 21.5045 105.155C22.3012 105.028 23.0852 104.842 23.8755 104.682C27.318 103.986 30.7963 103.569 34.2952 103.314C34.4735 103.318 34.6455 103.268 34.8187 103.237C36.5611 103.218 38.2996 103.028 40.0433 103.065C40.7002 103.079 41.139 102.85 41.547 102.316C42.3207 101.304 43.1714 100.349 44.0169 99.3931C44.8457 98.5219 45.7349 97.7097 46.5176 96.7924C46.719 96.5563 46.8807 96.2573 47.2592 96.2689C49.0644 97.5956 50.9325 98.8157 52.9662 99.7716C53.5076 100.026 54.0645 100.236 54.611 100.473C54.8612 100.581 55.1448 100.645 55.2924 100.917C56.6614 103.902 58.8143 106.241 61.3471 108.264C62.1066 108.87 62.9817 109.278 63.8888 109.606C64.9678 109.998 66.0148 109.832 67.0785 109.451C69.778 108.485 72.543 107.73 75.3644 107.234C77.0285 106.94 78.6901 106.912 80.3683 107.442C82.2044 108.022 84.1354 107.837 86.0356 107.744C88.39 107.629 90.6789 107.05 93.0038 106.733C94.6115 106.515 96.2486 106.477 97.7947 107.18C98.0475 107.295 98.3105 107.39 98.5479 107.534C98.7416 107.651 99.0239 107.741 98.9546 108.034C98.8943 108.287 98.6249 108.262 98.4183 108.292C95.4185 108.748 92.4444 109.338 89.4857 110.009C87.7985 110.393 86.101 110.733 84.4086 111.096C81.1497 111.795 77.919 112.616 74.6741 113.377C71.5537 114.11 68.4423 114.874 65.3284 115.633C64.2147 115.903 63.0984 116.174 61.9912 116.513C63.7092 116.954 65.4259 117.366 67.1452 117.76C68.7888 118.137 70.4272 118.557 72.0811 118.875C73.989 119.242 75.8943 119.64 77.8099 119.966C79.7897 120.303 81.7784 120.597 83.7761 120.805C87.461 121.187 91.146 121.347 94.8078 120.563C96.2743 120.249 97.6754 119.723 99.0957 119.253C101.603 118.423 103.751 117.04 105.57 115.136C106.553 114.108 107.247 112.874 107.999 111.683C108.722 110.536 109.613 109.59 110.887 109.053C111.489 109.044 111.831 109.368 111.998 109.918C112.419 110.801 112.833 111.674 112.95 112.674C113.275 115.439 112.193 117.589 110.088 119.277C108.225 120.77 106.006 121.558 103.78 122.316C103.62 122.371 103.461 122.433 103.302 122.492C103.098 122.738 102.804 122.806 102.516 122.887C99.0816 123.858 95.5686 124.418 92.0325 124.853C90.0028 125.103 87.964 125.253 85.9291 125.445C85.6763 125.47 85.4158 125.522 85.2067 125.309C84.6332 125.388 84.2393 125.179 83.984 124.638C83.1756 122.933 81.6347 122.988 80.1309 123.163C78.3231 123.372 76.5346 123.5 74.7485 123.044C74.5651 122.996 74.3688 123.004 74.1776 122.986H74.175Z" fill="black" fill-opacity="0.2"/>
<path d="M121.72 107.005C121.354 106.751 120.94 106.683 120.504 106.69C120.155 106.695 119.793 106.724 119.461 106.44C120.062 106.028 120.357 105.525 120.087 104.837C119.751 103.985 119.403 103.138 119.042 102.297C118.908 101.985 118.705 101.749 118.397 102.154C118.24 102.361 118.034 102.363 117.821 102.322C117.341 102.229 116.862 102.126 116.386 102.019C115.226 101.762 114.1 101.363 112.872 101.431C112.137 101.472 111.416 101.7 110.672 101.591C110.043 102.453 109.244 103.16 108.534 103.949C107.94 104.611 107.237 105.176 106.757 105.939C106.737 106.005 106.747 106.067 106.796 106.112C107.989 107.199 109.407 107.989 110.64 109.025C110.742 109.112 110.885 109.075 110.998 109.133C111.431 109.267 111.69 109.623 111.994 109.919C112.572 109.951 113.025 110.327 113.573 110.471C115.18 110.892 116.805 110.583 118.416 110.681C118.6 110.693 118.756 110.612 118.796 110.411C118.836 110.205 118.693 110.109 118.538 110.018C118.102 109.764 117.627 109.606 117.115 109.457C117.604 109.269 118.068 109.261 118.539 109.269C119.2 109.282 119.862 109.293 120.513 109.138C120.715 109.089 120.9 108.995 120.935 108.798C120.98 108.553 120.742 108.471 120.57 108.423C120.079 108.286 119.579 108.183 118.983 108.043C119.292 107.964 119.496 107.915 119.7 107.859C120.324 107.684 120.977 107.798 121.603 107.667C121.752 107.637 121.973 107.633 121.995 107.406C122.014 107.211 121.861 107.103 121.72 107.005ZM117.972 105.172C117.759 105.18 117.546 105.173 117.333 105.173C116.019 105.176 114.842 104.882 114.069 103.689C113.978 103.549 113.827 103.447 113.937 103.243C114.042 103.048 114.2 102.97 114.409 102.984C115.024 103.027 115.637 103.098 116.252 103.113C116.798 103.125 117.353 103.183 117.879 102.902C118.151 102.756 118.366 102.889 118.423 103.224C118.482 103.58 118.555 103.934 118.634 104.285C118.787 104.973 118.663 105.145 117.972 105.172Z" fill="#F8A58A"/>
<path d="M70.2181 41.4195C70.1424 41.4528 70.0577 41.5285 69.9923 41.5144C69.021 41.3079 68.6233 41.8737 68.2704 42.6563C67.8791 43.525 67.3813 44.3513 66.7346 45.0646C66.4062 45.4264 66.5037 45.8614 66.4472 46.272C66.2406 46.0038 66.1046 46.0141 65.8532 46.2861C64.7857 47.4396 63.5334 48.2222 61.8706 48.117C60.6671 48.04 59.6791 47.4883 58.7335 46.8006C58.346 46.5183 58.0702 46.059 57.53 46.0077C57.598 45.1095 56.9013 44.6027 56.4586 43.9792C56.0712 43.4339 55.7671 42.8501 55.4861 42.2547C55.3142 41.8891 55.0986 41.7556 54.697 41.7826C54.3493 41.8044 53.9734 41.8993 53.6462 41.6645C53.8053 41.4785 54.0285 41.5042 54.2377 41.4862C54.833 41.4336 54.8664 41.3964 54.6316 40.8254C54.2749 39.9555 53.9708 39.0689 53.7257 38.1605C53.6475 37.8693 53.5846 37.5806 53.6154 37.2765C54.0029 35.987 54.0132 34.6629 53.9747 33.3363C53.9593 32.7922 54.1261 32.3842 54.5097 31.9685C55.0486 31.3834 55.531 30.7894 56.3406 30.5533C56.6639 30.4584 56.9 30.162 57.1246 29.9054C59.189 27.5523 61.8 27.1083 64.7151 27.7242C64.9242 27.7678 65.1308 27.823 65.3412 27.8615C67.5506 28.2566 69.1917 30.0581 69.1955 32.3175C69.1981 33.9239 69.5214 35.4071 70.2373 36.8249C70.4567 37.4343 70.2579 38.0104 70.0539 38.5673C69.8037 39.2511 69.6356 39.9555 69.4188 40.6471C69.2853 41.0718 69.3803 41.2488 69.8268 41.2437C69.9756 41.2424 70.1244 41.2796 70.2194 41.4195H70.2181Z" fill="#F8A58A"/>
<path d="M70.0733 36.9017C69.3253 35.4326 68.9686 33.9058 69.0237 32.2262C69.0905 30.2285 67.3365 28.3938 65.3735 28.0563C64.3226 27.8754 63.2898 27.6393 62.2133 27.6624C60.3927 27.7009 58.8607 28.3719 57.5943 29.673C57.017 30.2657 56.4922 30.906 55.5812 31.0522C55.2232 31.11 55.1822 31.645 54.8871 31.8503C54.1827 32.3404 54.1365 33.023 54.1711 33.798C54.2237 34.9694 54.1917 36.1447 53.7644 37.2661C53.6092 37.3597 53.5373 37.2237 53.4539 37.1455C52.951 36.672 52.584 36.06 51.9656 35.702C51.8039 35.6084 51.7834 35.4287 51.7744 35.2568C51.3664 33.2386 51.1624 31.2101 51.5191 29.1623C51.9412 26.745 53.3654 24.9924 55.3079 23.6157C56.8348 22.5328 58.5528 21.9169 60.4158 21.7809C60.9136 21.7437 61.1445 21.5846 61.1997 21.1176C61.4153 21.4614 61.7386 21.582 62.1235 21.6937C63.4438 22.0799 64.7756 22.4417 66.1292 23.055C65.6403 22.3506 65.1464 21.7963 64.6832 21.2177C63.948 20.2977 63.599 19.3098 64.1315 18.1614C65.7584 17.6713 67.6984 18.3218 68.8236 19.7357C69.8962 21.0829 70.0168 22.7483 69.1367 24.288C68.9942 24.5369 68.8428 24.714 69.1482 24.9796C71.6001 27.1223 72.0145 29.9527 71.8003 32.9807C71.7528 33.662 71.6502 34.3381 71.5732 35.0169C71.3012 35.7405 70.7033 36.2525 70.3414 36.9196C70.2901 37.0133 70.1554 37.0043 70.0707 36.9017H70.0733Z" fill="#863D3C"/>
<path d="M57.5287 46.009C57.6057 45.796 57.5993 45.4586 57.9508 45.8435C58.5731 46.5235 59.2942 47.0855 60.1346 47.4883C61.7718 48.2749 63.3114 48.126 64.769 47.0495C65.3027 46.6556 65.7852 46.2066 66.2933 45.678C66.351 45.9038 66.3985 46.0898 66.4459 46.2746C66.3202 47.6821 66.9976 48.6482 68.1357 49.3693C68.3667 49.5156 68.5668 49.7132 68.7811 49.8877C68.3936 50.6652 67.6315 51.036 66.9399 51.4017C65.0718 52.3922 63.0677 53.0837 61.0071 53.5354C59.0414 53.9665 57.0797 54.4245 55.0434 54.5246C52.7622 54.6362 50.495 54.735 48.2343 54.3309C48.1984 54.3244 48.1676 54.2808 48.1355 54.2552C49.9703 53.4237 51.7896 52.5641 53.4781 51.4491C54.4584 50.8025 55.3475 50.0468 56.2662 49.3244C57.1117 48.6598 57.5813 47.8668 57.4928 46.7711C57.4723 46.5196 57.5133 46.2617 57.5274 46.0077L57.5287 46.009Z" fill="#1E85C8"/>
<path d="M70.0732 36.9017C70.1335 36.8914 70.2375 36.8991 70.249 36.8684C70.5415 36.1421 71.1074 35.6135 71.5744 35.0156C71.6334 35.0669 71.6925 35.158 71.754 35.1606C72.7292 35.2042 73.1436 35.5866 73.2655 36.5617C73.4874 38.3387 72.2608 40.9266 70.2169 41.4181C69.0275 41.3706 69.0391 41.3731 69.3406 40.1696C69.5613 39.2895 69.9719 38.4709 70.1387 37.5715C70.1849 37.3226 70.1682 37.1173 70.0732 36.9004V36.9017Z" fill="#F58E7C"/>
<path d="M51.7743 35.2581C51.9039 35.6738 52.3555 35.7213 52.6095 35.9907C53.0034 36.4077 53.3794 36.8414 53.763 37.2674C53.8695 38.4837 54.3519 39.591 54.7779 40.7137C54.8228 40.8317 54.8716 40.9497 54.9242 41.0652C55.1141 41.4758 55.055 41.7093 54.5316 41.6682C54.2365 41.6452 53.9388 41.6644 53.6424 41.6644C51.8795 40.8638 50.9467 39.4524 50.7504 37.5702C50.676 36.8607 50.7645 36.1152 51.4805 35.6584C51.6293 35.5635 51.7268 35.4275 51.773 35.2568L51.7743 35.2581Z" fill="#F58D7B"/>
<path d="M64.1327 18.1616C64.1879 18.1873 64.243 18.2142 64.2982 18.2399C63.5707 19.7205 64.4766 20.7123 65.3298 21.7285C65.7263 22.2007 66.0932 22.6959 66.5564 23.2874C65.9213 23.2194 65.5222 22.9667 65.0911 22.8127C63.9505 22.406 62.8086 22.0005 61.6154 21.7837C61.174 21.7028 61.2369 21.4013 61.2009 21.1178C61.5589 19.5191 62.5238 18.5196 64.1327 18.1616Z" fill="#6E2E2E"/>
<path d="M106.757 105.939C107.375 106.273 107.85 106.792 108.407 107.205C109.272 107.847 110.24 108.347 110.999 109.132C110.31 109.583 109.61 109.99 109.024 110.612C108.253 111.429 107.754 112.413 107.174 113.332C105.837 115.454 104.028 117.016 101.884 118.224C99.6795 119.467 97.2648 120.181 94.8193 120.727C92.6394 121.215 90.4043 121.441 88.1628 121.316C84.8333 121.133 81.5192 120.806 78.2333 120.196C75.8558 119.756 73.4834 119.295 71.1136 118.808C67.9714 118.161 64.869 117.353 61.7281 116.708C61.5985 116.681 61.4394 116.669 61.4356 116.519C61.4317 116.366 61.5921 116.353 61.7191 116.323C65.6414 115.369 69.5624 114.407 73.4847 113.456C76.2099 112.796 78.9313 112.121 81.6655 111.502C84.1905 110.931 86.7463 110.491 89.2573 109.87C90.6584 109.524 92.0736 109.212 93.4811 108.944C95.2248 108.612 96.9684 108.182 98.757 108.089C98.7891 108.088 98.8186 108.041 98.9251 107.951C97.8832 107.346 96.8337 106.915 95.652 106.827C93.6735 106.681 91.7541 107.078 89.8411 107.48C88.9416 107.668 88.032 107.721 87.1287 107.846C85.6878 108.044 84.2328 107.998 82.7843 107.978C81.7399 107.964 80.7237 107.785 79.7216 107.446C78.7003 107.1 77.6161 107.146 76.5551 107.26C73.7503 107.562 71.0726 108.423 68.3718 109.171C67.9419 109.29 67.5237 109.462 67.1144 109.639C65.6324 110.282 64.216 110.075 62.82 109.366C61.161 108.523 59.7997 107.327 58.5667 105.947C57.7147 104.991 56.8692 104.031 56.1674 102.964C55.7517 102.332 55.2718 101.709 55.2051 100.904C55.3372 100.814 55.4604 100.82 55.5733 100.936C57.0026 101.537 58.5077 101.813 60.0409 101.952C62.3696 102.164 64.6355 101.763 66.8796 101.206C70.9186 100.204 74.7755 98.7179 78.4681 96.801C78.6541 96.7048 78.8761 96.6522 78.9813 96.4392C79.4227 96.3866 79.6241 96.715 79.8487 96.9948C80.8328 98.2226 81.5076 99.6327 82.1671 101.043C82.4083 101.559 82.6932 101.783 83.2757 101.786C85.1759 101.795 87.0645 102.006 88.9532 102.191C89.3689 102.296 89.8 102.26 90.2196 102.335C92.1082 102.485 93.9712 102.826 95.8406 103.116C98.05 103.459 100.235 103.931 102.419 104.407C102.731 104.424 102.989 104.579 103.228 104.759C103.811 105.193 104.422 105.582 105.038 105.966C105.884 106.493 105.879 106.501 106.666 105.957C106.697 105.952 106.729 105.944 106.759 105.936L106.757 105.939Z" fill="#222659"/>
<path d="M55.5723 100.939C55.4491 100.929 55.3272 100.917 55.204 100.907C52.3018 99.7882 49.6099 98.3011 47.1721 96.3624C47.0207 95.8261 47.4095 95.4386 47.5545 94.9857C47.6379 94.7214 47.7623 94.4725 47.8752 94.2197C48.613 92.5594 49.4393 90.9415 50.3477 89.3698C50.6017 88.9297 50.6761 88.5345 50.5401 88.0392C49.8242 85.4231 49.1082 82.8057 48.3615 80.1985C48.1793 79.5608 48.0369 78.9155 47.8868 78.2714C47.8329 78.0828 47.7726 77.8967 47.7084 77.712C47.2927 76.4302 46.9694 75.1215 46.6204 73.8217C46.5447 73.6575 46.5704 73.4535 46.4202 73.2957C46.2265 73.678 46.1008 74.0745 45.9237 74.4492C45.2334 76.2968 44.4315 78.0969 43.6642 79.9111C43.4436 80.3948 43.2126 80.8734 42.9971 81.3597C41.9578 83.7705 40.848 86.1467 39.5495 88.4293C38.7643 89.8099 37.8123 91.0634 36.5536 92.0578C36.134 92.3888 35.8017 92.8148 35.3924 93.1573C34.9703 93.4807 34.579 93.8386 34.2171 94.2287C32.6582 95.6221 31.0608 96.968 29.4544 98.3062C28.5358 99.0709 27.5902 99.7997 26.6651 100.555C24.4929 102.232 22.2694 103.837 19.9817 105.351C19.6827 105.549 19.3838 105.748 19.0232 105.822C18.4972 106.155 17.9711 106.487 17.4464 106.819C17.0935 107.05 16.8279 106.881 16.5803 106.631C16.4815 106.416 16.1184 106.378 16.1915 106.048C16.7933 105.824 17.1654 105.296 17.6273 104.904C20.0587 102.833 22.4593 100.725 24.8496 98.6065C26.3803 97.249 27.866 95.8402 29.3877 94.4725C32.1476 91.9898 34.8702 89.466 37.4363 86.7844C39.1222 85.0228 40.4656 83.0148 41.5819 80.8388C42.6327 78.7897 43.5539 76.6868 44.3173 74.5223C45.2424 71.8959 46.1251 69.2515 46.7307 66.5225C46.9296 65.6243 47.2632 64.7506 47.8855 63.8345C47.8496 64.5106 47.8047 65.029 47.7918 65.5461C47.7302 68.1673 47.9638 70.7514 49.4303 73.0352C50.3682 74.4966 51.8617 75.0535 53.4924 75.2626C56.0534 75.5924 58.59 75.4345 61.0907 74.7597C62.3699 74.4145 63.6375 74.6929 64.8821 74.9483C66.4654 75.2742 68.0512 75.5526 69.664 75.6655C71.0728 75.7643 72.4559 75.6976 73.789 75.1625C74.5897 74.8418 75.1734 74.2606 75.7046 73.6139C75.8008 73.4971 75.8727 73.3419 76.0472 73.3765C76.2858 73.4253 76.2332 73.6421 76.2217 73.7974C76.1178 75.065 75.6315 76.1864 74.8758 77.1949C74.0354 78.3163 72.9178 78.75 71.5078 78.7653C69.6409 78.7859 67.8293 78.3933 65.9868 78.2521C62.1594 77.9596 59.0532 78.8334 56.7488 82.4272C55.299 84.6892 54.6279 87.2155 54.4008 89.8881C54.2276 91.923 54.4586 93.9105 54.7639 95.9108C54.9962 97.4248 55.29 98.9208 55.6723 100.403C55.7198 100.589 55.748 100.786 55.5723 100.938V100.939Z" fill="#1E85C8"/>
<path d="M90.9664 95.2874C89.8103 94.1929 88.6992 93.0459 87.4906 92.0143C85.0361 89.9203 83.5324 87.2054 82.2339 84.3275C80.7366 81.0096 79.3804 77.6326 78.0229 74.2568C78.1076 73.3754 78.182 72.4927 78.2796 71.6112C78.4425 70.1357 78.6183 68.6627 78.7966 67.1885C78.8338 66.8793 78.9057 66.5726 78.9634 66.2583C79.2342 66.3404 79.2175 66.5803 79.2495 66.7407C79.8 69.498 80.6699 72.168 81.4692 74.856C82.4212 78.0585 83.5298 81.2071 84.9951 84.2197C85.992 86.2701 87.3649 88.033 88.9623 89.6548C90.0503 90.7582 91.1293 91.868 92.2661 92.9227C94.795 95.2681 97.3265 97.6084 99.9195 99.8845C101.305 101.101 102.723 102.29 104.071 103.553C104.784 104.22 105.553 104.827 106.305 105.452C106.476 105.593 106.622 105.735 106.665 105.96C106.131 106.81 106.069 106.827 105.26 106.302C104.355 105.716 103.456 105.123 102.552 104.534C102.007 104.416 101.613 104.03 101.187 103.723C98.29 101.638 95.5161 99.3983 92.8268 97.0528C92.2546 96.632 91.7978 96.0751 91.1948 95.6902C91.0562 95.6017 90.9163 95.4926 90.9677 95.2874H90.9664Z" fill="#1E85C8"/>
<path d="M60.1284 33.3208C58.5271 33.2541 56.9656 33.2926 55.2964 33.7699C57.2338 32.1866 59.3111 32.0108 60.1284 33.3208Z" fill="#392915"/>
<path d="M68.2667 33.4033C66.7001 33.1582 65.1527 33.0517 63.522 33.2814C63.8812 32.5244 64.5086 32.3165 65.2041 32.2973C66.3614 32.2652 67.3352 32.7989 68.2654 33.4033H68.2667Z" fill="#362915"/>
<path d="M54.8704 36.2563C55.0936 35.9972 55.3246 35.9702 55.5555 36.0331C56.9874 36.4206 58.4167 36.4219 59.9038 35.96C59.4008 36.5591 58.4565 36.8029 57.4313 36.7901C56.5409 36.7785 55.8185 36.146 54.8704 36.2563Z" fill="#462A19"/>
<path d="M64.4251 42.4141C63.1844 43.1287 61.2316 43.1505 59.9575 42.5603C60.7646 42.5475 61.4741 42.1741 62.1939 42.6732C62.3915 42.8092 62.5724 42.3922 62.8611 42.4076C63.3807 42.4346 63.9042 42.4153 64.4251 42.4153V42.4141Z" fill="#8E3E31"/>
<path d="M63.8914 35.9151C65.544 36.4424 67.1786 36.0832 68.8158 35.8086C67.6289 36.214 66.5088 36.8799 65.1976 36.5502C64.719 36.4296 64.2622 36.2846 63.8901 35.9151H63.8914Z" fill="#422618"/>
<path d="M55.8467 30.4378C57.1991 28.136 59.8486 26.835 62.1517 27.2905C60.9456 27.347 59.7998 27.5856 58.7541 28.2374C57.7521 28.8622 57.0207 29.8489 55.8455 30.4378H55.8467Z" fill="#EC9F8A"/>
</g>
<defs>
<clipPath id="clip0_76_368">
<rect width="120.996" height="120" fill="white" transform="translate(1 18)"/>
</clipPath>
</defs>
</svg>
