<svg width="123" height="142" viewBox="0 0 123 142" fill="none" xmlns="http://www.w3.org/2000/svg">
<path d="M67.0226 62.8481C66.4973 64.6605 61.1237 59.9037 61.1237 59.9037C61.1237 59.9037 60.9941 59.5734 60.7824 59.0004C59.6084 55.8365 55.8861 45.2784 57.2847 42.1519C58.9359 38.4592 61.3834 39.3512 64.0946 46.2855C66.8057 53.2198 67.5479 61.0358 67.0226 62.8481Z" fill="#1E9DF1"/>
<path d="M66.9785 62.1983C67.3204 64.3761 65.6798 66.3606 63.4766 66.4366C59.682 66.5681 54.4679 65.4666 49.4785 65.4502C39.8134 65.418 42.7797 62.2444 46.6336 62.1551C50.4874 62.0659 57.2941 60.2832 59.8647 60.0212C65.6815 59.4289 66.6514 60.1153 66.6514 60.1153L66.9785 62.1983Z" fill="#1E9DF1"/>
<path d="M63.4246 61.2344C62.4559 60.43 61.6771 60.0649 61.1237 59.9038C61.1237 59.9038 60.9942 59.5735 60.7825 59.0005C62.2294 59.5013 63.3889 61.1815 63.4246 61.2344Z" fill="#002029"/>
<path d="M72.8776 60.8583L41.5483 54.5029L36.9999 76.9248L68.3292 83.2802L72.8776 60.8583Z" fill="#FF3E45"/>
<g opacity="0.2">
<path d="M64.0407 68.6772C63.3436 72.1137 59.9925 74.3347 56.556 73.6374C53.1194 72.9403 50.8985 69.5892 51.5958 66.1527C52.2929 62.7161 55.644 60.4951 59.0805 61.1925C62.5171 61.8899 64.738 65.2407 64.0407 68.6772Z" fill="white"/>
</g>
<path d="M69.5338 77.3509L68.5313 74.4768L65.2092 64.9551L51.6699 79.9042L68.3302 83.284L69.5338 77.3509Z" fill="#002029"/>
<path d="M49.581 79.4808L37.0005 76.9288L45.3469 68.0684L53.6933 59.208L57.9274 70.6204L62.1615 82.0327L49.581 79.4808Z" fill="#173953"/>
<path d="M51.1409 81.5836C51.458 81.8659 52.4763 81.9816 52.4763 81.9816C52.4763 81.9816 53.6516 82.5013 54.0537 81.5481C54.4553 80.5933 55.2303 78.6008 54.607 78.3352C53.9838 78.0697 53.1907 80.358 53.1907 80.358C53.1907 80.358 53.754 77.1239 53.1347 77.2915C52.514 77.459 51.6652 80.1856 51.6652 80.1856C51.6652 80.1856 52.5775 76.0256 51.7155 76.1671C50.8798 76.3044 50.2157 79.8189 50.1764 80.0342C50.1999 79.8195 50.5924 76.1694 49.8009 76.9872C49.2586 77.548 48.9421 78.5476 48.7533 79.3014L46.7002 78.8666C46.919 80.2617 48.5039 80.3986 48.5039 80.3986C48.7153 81.4514 49.9717 81.2078 49.9717 81.2078C50.5067 81.5288 51.1409 81.5836 51.1409 81.5836Z" fill="#FBB990"/>
<path d="M48.2825 64.9525L51.7412 68.8325L56.4384 66.607L53.6935 59.208L48.2825 64.9525Z" fill="white"/>
<path d="M60.6011 70.0435L63.4856 73.4533L67.4706 71.4369L65.2093 64.9551L60.6011 70.0435Z" fill="white"/>
<path d="M62.1692 128.22L62.1311 128.423L62.0815 128.686L61.8311 130.019L61.8279 130.037L61.2578 133.069L57.413 132.701L57.326 130.881V130.879L57.2058 128.343L57.1916 128.054L57.1716 127.633C57.1716 127.633 61.4193 127.116 62.1692 128.22Z" fill="#FBB990"/>
<path d="M62.131 128.423L62.0811 128.685L61.8307 130.018L61.8275 130.037L57.3255 130.88V130.879L57.205 128.343L57.1912 128.053L62.131 128.423Z" fill="#002029"/>
<path d="M63.847 98.8352C59.1459 102.561 55.1648 100.166 57.3345 92.9998C60.1143 83.8229 72.0684 64.8463 75.1401 61.481C75.1401 61.481 84.4333 68.2174 84.9531 72.7815C84.9531 72.7815 69.181 94.6813 63.847 98.8352Z" fill="#1D204F"/>
<path d="M56.6489 127.934L61.1251 128.008L61.6916 128.018L62.6709 128.034L63.0264 123.914C63.1672 119.351 65.5719 113.178 65.9992 107.619C66.4265 102.06 65.9992 96.8234 65.9992 96.8234C65.9354 96.2842 64.4988 96.8456 64.0057 96.2636C63.8868 96.1218 63.7573 95.982 63.6196 95.8444C61.3307 93.5544 56.7614 91.939 56.5391 96.572C56.2474 102.63 56.6489 127.934 56.6489 127.934Z" fill="#1D204F"/>
<path d="M61.4224 128.023L60.8271 127.993C60.9783 124.995 61.8426 119.871 62.6054 115.351C63.187 111.903 63.7361 108.648 63.8828 106.854C64.216 102.772 63.1519 97.1538 63.1413 97.0977L63.1152 96.9607L63.2038 96.8528C65.2395 94.3705 79.8827 74.973 80.0307 74.7773L80.5063 75.1363C80.3606 75.3294 66.0934 94.2287 63.7523 97.1232C63.9144 98.0193 64.7877 103.1 64.4773 106.902C64.3288 108.722 63.7774 111.99 63.1938 115.45C62.4329 119.954 61.5716 125.059 61.4224 128.023Z" fill="#1D204F"/>
<path d="M61.4224 128.023L60.8271 127.993C60.9783 124.995 61.8426 119.871 62.6054 115.351C63.187 111.903 63.7361 108.648 63.8828 106.854C64.216 102.772 63.1519 97.1538 63.1413 97.0977L63.1152 96.9607L63.2038 96.8528C65.2395 94.3705 79.8827 74.973 80.0307 74.7773L80.5063 75.1363C80.3606 75.3294 66.0934 94.2287 63.7523 97.1232C63.9144 98.0193 64.7877 103.1 64.4773 106.902C64.3288 108.722 63.7774 111.99 63.1938 115.45C62.4329 119.954 61.5716 125.059 61.4224 128.023Z" fill="white" fill-opacity="0.2"/>
<path d="M63.1148 129.639L56.2614 129.311C55.9034 128.442 55.8328 127.584 56.2234 126.743L63.1686 127.095C63.5434 127.88 63.5157 128.729 63.1148 129.639Z" fill="#173953"/>
<path d="M47.1636 138.688C47.5103 139.426 62.7166 138.623 62.7166 138.623C62.7166 138.623 63.1961 134.108 62.7185 132.718C62.241 131.327 60.0261 132.891 58.5054 132.543C58.5054 132.543 57.594 131.283 56.8557 131.326C56.5838 131.342 55.628 131.958 54.4311 132.747C54.2377 132.874 54.0373 133.007 53.8314 133.141C53.6889 133.236 53.5442 133.331 53.3979 133.427C53.1608 133.584 52.9184 133.742 52.6764 133.899C52.5849 133.958 52.4943 134.016 52.4025 134.075H52.4015C52.1795 134.219 51.9568 134.36 51.7358 134.497C50.4032 135.329 49.1422 136.032 48.412 136.162C46.4572 136.509 46.8159 137.949 47.1636 138.688Z" fill="#1D204F"/>
<path d="M52.6765 133.899C52.9037 133.871 53.1918 133.895 53.5095 134.061C54.1586 134.399 54.6806 135.332 54.6854 135.342C54.7202 135.406 54.777 135.45 54.8424 135.47C54.9107 135.492 54.988 135.486 55.056 135.449C55.1885 135.376 55.2362 135.21 55.1627 135.078C55.1392 135.034 54.5581 133.991 53.7615 133.577C53.6371 133.512 53.515 133.463 53.398 133.427C52.9994 133.461 52.6662 133.55 52.6765 133.899Z" fill="white"/>
<path d="M53.8318 133.142C53.9855 133.161 54.1557 133.209 54.3339 133.303C54.9848 133.643 55.5049 134.574 55.5098 134.584C55.5446 134.647 55.6013 134.692 55.6667 134.713C55.735 134.734 55.8124 134.729 55.8807 134.691C56.0131 134.618 56.0608 134.452 55.9874 134.32C55.9638 134.276 55.3828 133.234 54.5862 132.819C54.5343 132.792 54.4824 132.767 54.4315 132.747C54.1763 132.768 53.8898 132.753 53.8318 133.142Z" fill="white"/>
<path d="M51.7361 134.498C51.9294 134.5 52.1556 134.543 52.398 134.67C53.0489 135.01 53.5678 135.941 53.5729 135.951C53.6087 136.015 53.6657 136.06 53.7308 136.08C53.7991 136.101 53.8765 136.096 53.9448 136.058C54.076 135.985 54.1249 135.819 54.0515 135.688C54.027 135.643 53.4459 134.601 52.6503 134.187C52.5668 134.143 52.483 134.106 52.4028 134.076H52.4018C51.9684 134.034 51.7109 134.144 51.7361 134.498Z" fill="white"/>
<path d="M91.9246 128.643L92.2488 129.223L93.405 131.292L94.2358 132.779C96.1364 133.177 97.6726 133.653 97.9449 132.217L96.7922 128.507L96.4448 127.275L96.324 126.845C95.2412 126.264 91.9246 128.643 91.9246 128.643Z" fill="#FBB990"/>
<path d="M92.2488 129.223L93.4053 131.292L96.7926 128.507L96.4452 127.275L92.2488 129.223Z" fill="#002029"/>
<path d="M91.4862 65.8885C88.9117 62.3308 78.2524 60.8481 78.2524 60.8481C77.0888 65.1934 75.0972 87.1493 76.6898 96.3429C77.9344 103.521 83.2332 105.073 85.6292 99.6451C85.6292 99.6451 85.9898 98.0857 87.2169 91.8114C87.8792 88.4255 90.4118 78.6386 91.1865 74.4989C91.7788 71.3334 93.0095 67.9938 91.4862 65.8885Z" fill="#1D204F"/>
<path d="M95.2067 122.432C93.3579 118.449 93.0843 111.854 91.0496 106.881C89.1186 102.164 86.3289 98.2118 86.0475 97.8184C85.5464 97.8957 85.0331 97.9189 84.5294 97.9518C83.3354 98.0298 82.1466 98.1409 80.9504 98.1877C79.7452 98.2347 78.5364 98.2595 77.3276 98.2663C77.3734 98.615 77.4717 99.0181 77.6299 99.4815C80.0404 106.542 91.5107 128.907 91.5107 128.907L94.7613 127.165L95.236 126.911L96.682 126.136L95.2067 122.432Z" fill="#1D204F"/>
<path d="M95.2978 126.868C94.1983 124.654 92.9451 120.058 91.8391 116.002C91.0592 113.143 90.3225 110.442 89.7444 108.945C88.3587 105.358 83.8707 98.0398 83.8256 97.966L83.7646 97.8668L83.7914 97.7534L90.4324 69.7842L90.9812 69.9144L84.3669 97.7704C84.9341 98.6985 88.9385 105.294 90.2703 108.742C90.8591 110.266 91.5993 112.98 92.383 115.854C93.4823 119.884 94.7278 124.452 95.8028 126.617L95.2978 126.868Z" fill="#1D204F"/>
<path d="M95.2978 126.868C94.1983 124.654 92.9451 120.058 91.8391 116.002C91.0592 113.143 90.3225 110.442 89.7444 108.945C88.3587 105.358 83.8707 98.0398 83.8256 97.966L83.7646 97.8668L83.7914 97.7534L90.4324 69.7842L90.9812 69.9144L84.3669 97.7704C84.9341 98.6985 88.9385 105.294 90.2703 108.742C90.8591 110.266 91.5993 112.98 92.383 115.854C93.4823 119.884 94.7278 124.452 95.8028 126.617L95.2978 126.868Z" fill="white" fill-opacity="0.2"/>
<path d="M98.1831 126.997L91.5788 130.652C90.7895 130.038 90.2756 129.268 90.2034 128.247L96.9066 124.562C97.6678 125.086 98.0848 125.905 98.1831 126.997Z" fill="#2A5B74"/>
<path d="M83.0854 138.606C83.4321 139.343 98.6384 138.541 98.6384 138.541C98.6384 138.541 99.1179 134.025 98.6403 132.635C98.1627 131.245 95.9479 132.808 94.4275 132.46C94.4275 132.46 93.5161 131.2 92.7778 131.243C92.5058 131.26 91.55 131.876 90.3532 132.664C90.1598 132.792 89.9594 132.924 89.7535 133.059C89.611 133.154 89.4663 133.248 89.32 133.344C89.0829 133.501 88.8405 133.659 88.5985 133.816C88.507 133.876 88.4164 133.934 88.3246 133.993H88.3236C88.1016 134.136 87.8789 134.277 87.6578 134.415C86.3253 135.247 85.0643 135.949 84.3341 136.079C82.3793 136.427 82.7376 137.866 83.0854 138.606Z" fill="#1D204F"/>
<path d="M88.5984 133.816C88.8252 133.789 89.1137 133.813 89.4314 133.979C90.0804 134.316 90.6025 135.25 90.6073 135.259C90.6421 135.323 90.6992 135.367 90.7643 135.387C90.8326 135.41 90.9099 135.403 90.9782 135.367C91.1107 135.293 91.1584 135.127 91.0849 134.996C91.0614 134.951 90.4804 133.909 89.6837 133.495C89.5593 133.43 89.4372 133.381 89.3202 133.344C88.921 133.379 88.5881 133.468 88.5984 133.816Z" fill="white"/>
<path d="M89.7537 133.059C89.9074 133.079 90.0775 133.127 90.2557 133.221C90.9067 133.561 91.4268 134.492 91.4316 134.502C91.4664 134.565 91.5235 134.61 91.5886 134.63C91.6569 134.652 91.7342 134.647 91.8026 134.609C91.935 134.536 91.9827 134.37 91.9092 134.238C91.8857 134.194 91.3047 133.152 90.5081 132.737C90.4562 132.71 90.4043 132.685 90.3534 132.665C90.0978 132.686 89.8113 132.671 89.7537 133.059Z" fill="white"/>
<path d="M87.6579 134.415C87.8516 134.417 88.0775 134.461 88.3201 134.588C88.9711 134.928 89.4899 135.859 89.4951 135.868C89.5308 135.932 89.5879 135.977 89.653 135.997C89.7213 136.019 89.7986 136.014 89.8666 135.976C89.9981 135.902 90.0468 135.736 89.9733 135.605C89.9488 135.56 89.3678 134.519 88.5721 134.104C88.4887 134.06 88.4052 134.024 88.3246 133.993H88.3237C87.8902 133.951 87.6331 134.062 87.6579 134.415Z" fill="white"/>
<path d="M64.4527 55.4012C71.871 64.5049 65.7185 74.3785 65.7185 74.3785C74.1052 81.5332 92.8652 70.3706 92.8652 70.3706C92.8652 66.5709 92.7467 62.3906 85.3938 54.1315C83.0906 51.5444 82.3852 48.318 80.8835 45.9507C80.2332 44.9246 79.587 43.9582 78.9458 43.0414C77.0212 40.2848 75.1605 37.9804 73.4658 35.8567C69.2269 30.5434 60.4812 31.1963 56.7314 37.0771C56.1829 37.9349 55.872 38.6955 55.8172 39.1775C55.2945 43.798 56.8758 45.4422 58.5628 47.7808L64.4527 55.4012Z" fill="#1E9DF1"/>
<path d="M60.0945 44.7638C60.1061 44.759 60.117 44.7529 60.1277 44.7452C60.2682 44.6427 63.561 42.1961 63.1549 38.7999C63.1443 38.7109 63.0637 38.6478 62.9748 38.6584C62.8865 38.669 62.8227 38.7496 62.8333 38.8382C63.2165 42.0447 59.9694 44.4596 59.9363 44.4838C59.8641 44.5367 59.8483 44.6378 59.9011 44.71C59.9466 44.7716 60.0271 44.7919 60.0945 44.7638Z" fill="#1E9DF1"/>
<path d="M68.1108 39.6787C68.1779 39.7467 69.8307 45.7458 80.8831 45.9501C80.2331 44.9237 79.5863 43.9573 78.9454 43.0411C76.5578 42.8864 71.317 41.8668 68.1108 39.6787Z" fill="#002029"/>
<path d="M57.83 39.0282C57.8355 39.0282 57.8413 39.0278 57.8468 39.0272C59.566 38.8493 61.0687 37.8825 62.1927 36.2316C63.0357 34.9932 63.366 33.8247 63.3795 33.7754C63.4034 33.6894 63.3531 33.6001 63.2671 33.5762C63.1807 33.5524 63.0918 33.6027 63.0676 33.6887C63.0547 33.7348 61.7389 38.2989 57.8132 38.7053C57.7243 38.7143 57.6595 38.7939 57.6689 38.8828C57.6776 38.9663 57.7478 39.0282 57.83 39.0282Z" fill="#1E9DF1"/>
<path d="M74.6914 53.0629C74.6724 53.1506 74.586 53.2066 74.4983 53.1867C74.442 53.1741 68.9459 51.9879 64.0463 52.4941C63.9812 52.5009 63.9184 52.4671 63.8884 52.4091C63.8878 52.4081 63.8875 52.4071 63.8868 52.4058C63.8349 52.3059 63.8997 52.1844 64.0118 52.1728C68.9659 51.6605 74.51 52.858 74.5686 52.8699C74.6553 52.8895 74.7104 52.9759 74.6914 53.0629Z" fill="#1E9DF1"/>
<path d="M72.7257 67.6096C76.8793 67.6096 79.8498 65.8617 81.6416 64.3497C83.6885 62.6227 84.6534 60.8726 84.6933 60.7988C84.7384 60.7159 84.7078 60.6125 84.625 60.5677C84.5425 60.5226 84.4387 60.5532 84.3939 60.636C84.3843 60.6537 83.4133 62.4123 81.4115 64.098C79.5695 65.6493 76.45 67.4562 72.049 67.2529C71.9568 67.2481 71.8753 67.3212 71.8708 67.4153C71.8666 67.5094 71.9391 67.589 72.0332 67.5935C72.2678 67.6041 72.4985 67.6096 72.7257 67.6096Z" fill="#1E9DF1"/>
<path d="M104.782 56.4092C104.782 56.4092 109.045 63.1649 103.993 66.9704C98.9402 70.776 94.0906 65.2699 94.0906 65.2699L104.782 56.4092Z" fill="#E3E3E3"/>
<path d="M73.4739 54.3848C76.5717 58.1226 81.0214 60.0839 85.5262 60.1216C85.5262 60.1216 85.5352 60.1142 85.5426 60.1232C86.7817 60.5315 90.894 61.9935 93.4872 64.2564C93.4872 64.2564 96.2028 63.5172 99.4972 60.787C102.801 58.0491 104.022 55.5252 104.022 55.5252C103.339 54.3509 102.81 52.9572 102.416 51.6347C102.416 51.6347 102.416 51.6347 102.425 51.6272C101.69 49.1375 101.427 46.8669 101.385 46.5959C101.396 46.5717 101.389 46.5627 101.389 46.5627C102.025 42.2644 100.896 37.7342 97.9108 34.1317C92.3151 27.3798 82.3178 26.4436 75.5659 32.0396C74.9959 32.512 74.4554 33.0209 73.9708 33.56C73.9617 33.5674 73.9692 33.5764 73.9601 33.5839C68.7058 39.3287 68.3584 48.2123 73.4739 54.3848Z" fill="#FFAE25"/>
<path d="M84.5592 51.7001C84.6375 51.6353 84.6733 51.5322 84.652 51.4326L84.3884 50.2074L85.543 50.694C85.6368 50.7333 85.7444 50.7175 85.8228 50.6527C85.9011 50.588 85.9368 50.4848 85.9156 50.3853L85.652 49.1604L86.8063 49.6466C86.9001 49.6863 87.008 49.6702 87.0863 49.6054C87.1646 49.5406 87.2004 49.4375 87.1788 49.3379L86.9149 48.1134L88.0695 48.6C88.1633 48.6393 88.2713 48.6235 88.3492 48.5587C88.4275 48.4936 88.4633 48.3908 88.4417 48.2912L88.1781 47.0667L89.3324 47.553C89.4262 47.5926 89.5342 47.5765 89.6125 47.5117C89.6908 47.4466 89.7266 47.3438 89.7053 47.2442L89.4417 46.0193L90.596 46.5059C90.6898 46.5456 90.7977 46.5295 90.876 46.4647C90.9543 46.3996 90.9901 46.2968 90.9685 46.1972L90.7049 44.9727L91.8589 45.4593C91.9527 45.4989 92.0606 45.4828 92.139 45.418C92.2173 45.3532 92.253 45.2501 92.2314 45.1505L91.9675 43.926L93.1218 44.4126C93.2156 44.4522 93.3236 44.4361 93.4019 44.3713C93.4802 44.3066 93.516 44.2034 93.4944 44.1039L93.1199 42.3672C93.0883 42.22 92.943 42.1262 92.7957 42.1581C92.6484 42.1897 92.555 42.335 92.5866 42.4823L92.8505 43.7065L91.6965 43.2199C91.6027 43.1806 91.4948 43.1964 91.4168 43.2612C91.3385 43.3263 91.3027 43.4291 91.324 43.5286L91.5876 44.7532L90.4333 44.2666C90.3395 44.2273 90.2315 44.2431 90.1532 44.3078C90.0749 44.3729 90.0391 44.4757 90.0607 44.5753L90.3243 45.7999L89.17 45.3136C89.0762 45.2743 88.9683 45.2901 88.89 45.3549C88.8117 45.42 88.7759 45.5228 88.7975 45.6223L89.0611 46.8472L87.9065 46.3606C87.8127 46.321 87.7051 46.3371 87.6264 46.4019C87.5481 46.4666 87.5123 46.5698 87.5339 46.6693L87.7975 47.8942L86.6429 47.4076C86.5491 47.3683 86.4412 47.3841 86.3632 47.4489C86.2849 47.5136 86.2491 47.6168 86.2707 47.7163L86.5343 48.9406L85.38 48.4543C85.2862 48.4147 85.1782 48.4308 85.0999 48.4959C85.0216 48.5606 84.9859 48.6638 85.0075 48.763L85.2711 49.9879L84.1164 49.5013C84.0226 49.4617 83.9147 49.4778 83.8367 49.5426C83.7584 49.6077 83.7226 49.7105 83.7439 49.81L84.0075 51.0352L82.8525 50.549C82.7136 50.4906 82.5538 50.5557 82.4951 50.6946C82.4365 50.8335 82.5019 50.9934 82.6408 51.0517L84.2785 51.7413C84.3729 51.7809 84.4806 51.7652 84.5592 51.7001Z" fill="white"/>
<path d="M99.5676 55.7617C99.7043 55.6319 99.8403 55.5004 99.975 55.3683L93.7145 43.856L93.7142 43.8557L93.2634 43.0268L92.7916 42.1593L92.6253 41.8535C92.545 41.8693 92.4661 41.8941 92.3904 41.9273C92.3262 41.9544 92.2637 41.9892 92.2038 42.0288C92.1812 42.0514 92.16 42.0756 92.1396 42.1004L92.7458 43.2154L93.1976 44.0461L93.2524 44.147L93.3823 44.3864L99.5676 55.7617Z" fill="white"/>
<path d="M91.9476 43.7808C92.2157 44.1044 92.6182 44.2504 93.0075 44.2033C93.0903 44.1933 93.1721 44.1753 93.2524 44.1469C93.3468 44.115 93.438 44.0702 93.524 44.0129C93.5592 43.9893 93.5927 43.9648 93.6262 43.9374C93.6578 43.9113 93.6874 43.8843 93.7148 43.8556C94.1395 43.4257 94.1776 42.7345 93.7838 42.2591C93.4928 41.9082 93.0426 41.7664 92.6256 41.8528C92.5454 41.8689 92.4664 41.8937 92.3903 41.9269C92.3262 41.9543 92.2637 41.9888 92.2038 42.0284C92.1699 42.0506 92.1367 42.0755 92.1048 42.1019C92.0468 42.1499 91.9953 42.2018 91.9495 42.2572C91.5879 42.6897 91.5747 43.3313 91.9476 43.7808Z" fill="white"/>
<path d="M82.2262 51.8377C82.6429 52.3404 83.3847 52.4135 83.892 52.0039C83.8965 52.0014 83.9007 51.9975 83.9045 51.9943C84.0473 51.876 84.1556 51.7316 84.2277 51.5741C84.4127 51.1709 84.3641 50.6804 84.0621 50.316C83.6574 49.8274 82.9458 49.7443 82.4405 50.1139C82.4215 50.1281 82.4019 50.1432 82.3832 50.1587C82.2559 50.2641 82.1563 50.3907 82.0851 50.5283C81.8721 50.9405 81.9114 51.4577 82.2262 51.8377Z" fill="white"/>
<path d="M82.0857 50.5285L82.4798 50.8501L82.8166 51.1257L83.8919 52.0038L94.0069 60.2638C94.1596 60.1569 94.313 60.0479 94.4684 59.9371L84.4491 51.755L84.2277 51.5739L83.1014 50.6535L82.4405 50.1138C82.4215 50.1279 82.4018 50.1434 82.3835 50.1589C82.2565 50.2643 82.1566 50.3906 82.0857 50.5285Z" fill="white"/>
<path d="M73.4739 54.3844C76.5717 58.1223 81.0214 60.0835 85.5262 60.1212C85.5262 60.1212 85.5352 60.1138 85.5426 60.1228C86.7817 60.5311 90.894 61.9932 93.4872 64.2561C93.4872 64.2561 96.2028 63.5168 99.4972 60.7867C102.801 58.0488 104.022 55.5249 104.022 55.5249C103.339 54.3506 102.81 52.9568 102.416 51.6343C100.455 54.0386 94.3692 60.8988 91.5221 57.3347C88.0917 53.048 82.381 55.3683 75.3903 49.0704C69.2375 43.5438 72.9753 35.4532 73.9601 33.5835C68.7058 39.3283 68.3584 48.2119 73.4739 54.3844Z" fill="#E3E3E3"/>
<path d="M101.987 53.2142C103.135 51.8613 105.441 52.6522 105.423 54.4265C105.399 56.9614 103.48 59.0605 100.337 61.665C97.0222 64.4122 94.6378 66.0067 92.151 65.3996C90.4872 64.9936 90.1888 62.7516 91.6373 61.8377C94.5196 60.0196 98.7907 56.9788 101.987 53.2142Z" fill="white"/>
<path d="M72.78 66.5709C72.7932 66.5709 72.8064 66.5693 72.8199 66.5661C72.9978 66.5235 77.1904 65.4801 78.1726 62.0142C78.1984 61.9237 78.1459 61.8292 78.055 61.8038C77.9648 61.7783 77.87 61.8309 77.8445 61.9214C76.9174 65.1936 72.7819 66.2248 72.7403 66.2348C72.6488 66.257 72.5924 66.3489 72.6143 66.4404C72.633 66.5184 72.703 66.5709 72.78 66.5709Z" fill="#1E9DF1"/>
<path d="M87.3994 39.298C89.438 37.5926 91.6774 38.1939 93.124 40.4236C95.6153 44.2639 98.7254 50.0958 101.624 55.3672C107.018 65.1763 101.648 62.8216 99.1627 58.894C96.6781 54.9663 91.4318 50.497 89.5653 48.0024C85.3425 42.3581 85.4495 40.9295 85.4495 40.9295L87.3994 39.298Z" fill="#1E9DF1"/>
<path d="M88.2769 44.1784C88.2769 44.1784 80.8347 44.1404 76.0963 43.0206C71.3579 41.9007 68.4205 40.4654 67.0235 38.6576C65.6265 36.85 64.4271 31.856 69.4852 32.7071C74.5434 33.5582 88.6642 36.5229 91.6728 38.8996C94.682 41.2762 88.2769 44.1784 88.2769 44.1784Z" fill="#1E9DF1"/>
<path d="M100.214 59.6635C100.214 59.6635 98.917 62.6975 98.9544 64.0549C98.9699 64.6156 99.2402 65.312 99.5522 65.9362C99.8735 66.5791 100.818 66.4869 101.008 65.7937L101.131 65.3484C101.131 65.3484 103.542 68.3531 104.065 68.7869C104.588 69.2203 105.418 68.2783 104.926 67.2162C104.926 67.2162 106.57 68.0328 105.456 65.5266C105.456 65.5266 106.689 65.7032 105.804 64.0333C105.804 64.0333 107.345 64.0951 105.912 61.9302L102.909 57.856C102.909 57.856 100.866 58.6481 100.214 59.6635Z" fill="#FBB990"/>
<path d="M86.0569 41.2261C86.0569 41.2261 85.7117 42.6604 85.984 44.08C86.295 44.1164 86.605 44.1492 86.9112 44.1789C86.5776 43.5743 86.2309 42.6388 86.0569 41.2261Z" fill="#002029"/>
<path d="M47.3855 27.5582C47.3855 27.5582 45.9885 27.254 44.2029 24.6408C42.0973 21.5591 46.712 22.9154 49.4395 21.638C52.1671 20.3606 56.1083 19.3677 58.3264 21.2864C60.5441 23.2051 60.7494 26.05 60.7494 26.05L47.3855 27.5582Z" fill="#002029"/>
<path d="M47.2127 22.7997C47.2127 22.7997 44.6559 22.3534 45.0971 21.1049C45.6633 19.503 48.6857 21.9882 50.0666 21.7269C51.4474 21.4655 47.8407 22.8361 47.2127 22.7997Z" fill="#002029"/>
<path d="M55.155 20.645C55.155 20.645 56.6384 18.7027 57.4173 19.0392C58.1962 19.3756 56.6477 20.5309 56.6477 20.5309C56.6477 20.5309 57.7366 19.5045 58.5026 19.8854C59.2689 20.2663 57.3087 20.9124 57.3087 20.9124C57.3087 20.9124 55.5601 21.4519 55.155 20.645Z" fill="#002029"/>
<path d="M56.4719 36.7825C56.6108 36.8911 56.7542 37.0026 56.9011 37.1135C57.2943 37.4119 57.7132 37.7145 58.1421 38.0026C60.1334 36.8689 61.2922 35.1526 62.1339 33.2258C60.9528 32.3828 59.241 30.9304 58.4973 29.1689L54.3247 34.9602C54.3247 34.9602 54.5529 35.1735 54.9367 35.5109C54.9576 35.5299 54.9799 35.5486 55.0024 35.5683C55.0066 35.5722 55.0114 35.5757 55.0159 35.5805C55.2902 35.8177 55.6344 36.1094 56.0269 36.4268C56.169 36.5421 56.3172 36.6617 56.4719 36.7825Z" fill="#FBB990"/>
<path d="M54.9373 35.5109C54.9582 35.5299 54.9804 35.5486 55.003 35.5683C55.0069 35.5721 55.012 35.5757 55.0165 35.5805C55.2908 35.8177 55.6349 36.1093 56.0274 36.4268C56.1692 36.5421 56.3175 36.6617 56.4725 36.7825C56.6114 36.8911 56.7548 37.0026 56.9017 37.1135C57.0693 35.7523 56.5289 33.8716 56.5292 33.8262L54.9373 35.5109Z" fill="#002029"/>
<path d="M60.4112 27.6802C60.0674 28.4787 59.5295 29.4261 58.8883 30.4135C58.8754 30.4338 58.8618 30.4551 58.8483 30.4757C56.8155 33.599 53.7969 37.1077 52.767 37.6543C52.0068 38.0577 51.274 37.798 50.4432 36.5161C50.3163 36.3185 50.187 36.11 50.0594 35.8912L49.334 34.5419C49.2532 34.3818 49.1732 34.2177 49.0965 34.054C48.675 34.1298 47.7705 34.2625 47.8094 33.9757C47.8578 33.6132 48.1372 31.8169 48.1491 31.7448C48.1491 31.7431 48.1491 31.7431 48.1491 31.7431L48.1481 31.7415C47.7624 30.6443 47.4724 29.5479 47.348 28.5657C47.3045 28.2251 47.3183 27.8848 47.3854 27.5587C47.3931 27.5187 47.4024 27.4794 47.4118 27.4394C47.5694 26.7901 47.9319 26.1975 48.4562 25.7547C50.141 24.3281 53.3712 21.8006 55.4807 21.4406C58.4448 20.9357 61.8472 24.3422 60.4112 27.6802Z" fill="#FBB990"/>
<path d="M50.9306 35.409C50.9084 35.4299 50.8849 35.4502 50.8604 35.4705C50.7921 35.5266 50.6909 35.517 50.6348 35.4486C50.5787 35.3803 50.5877 35.2811 50.6567 35.2231C51.2181 34.7645 51.0157 34.0114 51.0138 34.004C50.9906 33.9186 51.0415 33.8306 51.1262 33.8074C51.2116 33.7842 51.2996 33.8348 51.3228 33.9202C51.3334 33.9576 51.5587 34.8212 50.9306 35.409Z" fill="#F9927D"/>
<path d="M50.2588 31.9804C50.4641 32.2846 51.1134 32.2056 51.7096 31.8038C52.3055 31.4019 52.6222 30.8296 52.417 30.5251C52.2117 30.2206 51.5623 30.2998 50.9665 30.7017C50.3703 31.1035 50.0535 31.6759 50.2588 31.9804Z" fill="#F9927D"/>
<path d="M49.3961 30.6005C49.4715 30.8874 49.661 31.0862 49.8193 31.0446C49.9778 31.003 50.0452 30.7369 49.9697 30.45C49.8943 30.1632 49.7049 29.9644 49.5466 30.006C49.3881 30.0476 49.3207 30.3137 49.3961 30.6005Z" fill="#002029"/>
<path d="M49.4867 28.869C49.4822 28.8313 49.4697 28.7942 49.4478 28.7601C49.3714 28.6405 49.2125 28.6057 49.093 28.6821C48.6747 28.9496 47.9792 29.7275 48.3418 30.7552C48.3891 30.8889 48.5358 30.9591 48.6695 30.9118C48.8032 30.8644 48.8735 30.7181 48.8261 30.584C48.5061 29.6788 49.334 29.1374 49.3694 29.1149C49.4555 29.0604 49.4977 28.9634 49.4867 28.869Z" fill="#002029"/>
<path d="M54.5595 30.087C54.6356 30.0532 54.68 29.9694 54.6613 29.885C54.4 28.7062 54.9968 27.7839 55.0029 27.7749C55.0571 27.6927 55.0348 27.5818 54.9527 27.5274C54.8705 27.4729 54.76 27.4952 54.7055 27.577C54.6771 27.6195 54.0175 28.6305 54.3127 29.9623C54.3339 30.0587 54.4293 30.1196 54.5257 30.098C54.5376 30.0958 54.5489 30.0919 54.5595 30.087Z" fill="#F9927D"/>
<path d="M55.4944 28.7571C55.5521 28.7316 55.5943 28.6765 55.6001 28.6095C55.6088 28.5112 55.5363 28.4245 55.438 28.4158C55.4106 28.4136 54.7616 28.3594 54.3607 28.6198C54.2779 28.6736 54.2547 28.7842 54.3085 28.867C54.3624 28.9498 54.4729 28.9733 54.5557 28.9192C54.8022 28.759 55.2537 28.7584 55.4068 28.7716C55.4377 28.7745 55.4677 28.769 55.4944 28.7571Z" fill="#F9927D"/>
<path d="M60.4111 27.6804C60.0605 28.496 59.811 29.331 59.153 30.3413C59.0747 30.3729 58.9854 30.3973 58.8881 30.4138C58.2223 30.5279 57.1753 30.2749 56.514 29.4622C56.9259 28.2518 56.7174 26.8258 55.4754 26.4504C53.2928 25.7897 52.8026 28.353 52.8026 28.353C52.6273 28.421 52.4401 28.4706 52.2442 28.5044C51.9532 27.7458 51.61 27.0975 51.3264 26.3576C50.7305 26.5577 50.0216 26.6463 49.3651 26.1813C49.0026 26.8306 48.0536 27.1909 47.4116 27.4394C47.5692 26.79 47.9317 26.1974 48.456 25.7546C50.1408 24.328 53.3711 21.8005 55.4806 21.4406C58.4447 20.9359 61.847 24.3425 60.4111 27.6804Z" fill="#002029"/>
<path d="M56.5142 29.4616C56.5142 29.4616 56.7781 32.2391 57.6682 32.1653C58.5582 32.0915 57.9672 30.9266 57.9672 30.9266C57.9672 30.9266 59.3635 32.8166 60.1963 32.3867C61.0286 31.9572 59.4444 30.5251 59.4444 30.5251C59.4444 30.5251 61.1363 31.9903 61.4318 30.9266C61.7273 29.8625 59.8472 29.4023 59.6326 28.8C59.4174 28.1974 56.5142 29.4616 56.5142 29.4616Z" fill="#002029"/>
</svg>
