<svg width="123" height="142" viewBox="0 0 123 142" fill="none" xmlns="http://www.w3.org/2000/svg">
<path d="M41.2583 30.9084C41.2583 30.9084 39.3421 33.3139 34.1852 37.1623C30.0651 40.2371 29.9658 40.1924 26.1769 42.4398C22.3879 44.6872 16.6241 44.9807 12.4551 45.8405C6.36463 43.6398 6.87518 49.9664 11.8264 50.3374C15.1183 50.584 25.3741 52.5946 31.323 53.5813C38.1933 54.721 38.5705 49.9528 38.9559 47.8979C39.3412 45.8429 49.9155 39.8924 49.9155 39.8924L41.2583 30.9084Z" fill="#FBB2C3"/>
<path d="M49.9173 39.8924C49.9173 39.8924 49.1703 40.311 48.0704 40.9677C48.0704 40.9677 48.0663 40.9718 48.0663 40.9677C44.1223 37.6967 41.4587 33.0057 40.6953 31.5405C41.0811 31.126 41.2576 30.9084 41.2576 30.9084L49.9173 39.8924Z" fill="#181820"/>
<path d="M35.5156 42.4919C35.4405 43.5019 36.9803 44.6027 38.48 43.5512C40.1413 42.3869 39.2651 40.7255 38.5292 40.3635" stroke="#181820" stroke-width="0.307809" stroke-miterlimit="10" stroke-linecap="round" stroke-linejoin="round"/>
<path d="M70.0151 93.7839C69.7796 92.1591 69.3179 90.6008 68.5812 89.2107C64.8809 82.2292 48.716 85.8662 50.4295 94.8617C51.4567 100.256 54.1966 108.732 60.7895 110.702C62.693 111.27 64.5234 110.427 66.0575 108.741C66.1487 108.652 66.2451 108.545 66.3494 108.412C66.3633 108.394 66.3793 108.376 66.3937 108.358C66.4167 108.33 66.4396 108.303 66.4622 108.274C69.528 104.497 77.0574 101.026 77.0574 101.026C80.1946 93.6115 81.299 87.3729 78.9412 85.5539L70.0151 93.7839Z" fill="#FBB2C3"/>
<path d="M90.2436 70.9727C90.2436 70.9727 90.4147 66.092 88.6167 62.3249C88.6167 62.3249 94.472 55.125 108.086 53.0701C108.086 53.0701 111.544 60.2478 112.248 70.4588L90.2436 70.9727Z" fill="#FBB2C3"/>
<path d="M108.951 55.1554C101.785 61.6441 89.0213 63.2734 89.0213 63.2734C88.8982 62.9533 88.7627 62.6332 88.615 62.3253C88.615 62.3253 94.4716 55.1267 108.085 53.0706C108.085 53.0706 108.442 53.8093 108.951 55.1554Z" fill="#181820"/>
<path d="M88.6167 62.3255C88.6167 62.3255 87.8316 60.9437 86.7226 60.537C84.1846 59.6061 79.9488 58.3371 79.5318 51.6039C79.5318 51.6039 79.7678 45.939 79.27 44.3212C78.9137 43.1638 66.7191 29.7593 65.6266 29.3313C64.5341 28.9032 63.3587 29.8751 60.961 32.5296C58.5638 35.1837 49.916 39.8932 49.916 39.8932C49.916 39.8932 43.4221 35.9861 41.2588 30.9089C41.2588 30.9089 54.9268 14.3779 64.6223 12.1518C74.3183 9.92573 101.299 32.5748 108.748 54.2371C108.748 54.2371 108.479 55.6945 103.03 58.1012C96.9304 60.7939 88.6167 62.3255 88.6167 62.3255Z" fill="#1E9DF1"/>
<path d="M91.7006 112.2L77.9846 111.885L78.9417 120.666C79.0279 121.942 78.3437 122.582 77.6259 122.65L56.415 124.106C55.7653 124.073 54.4708 123.892 53.0209 123.167C50.4012 121.858 49.039 120.81 47.2574 120.705C45.4762 120.6 45.2665 124.152 48.5671 124.867C48.5671 124.867 45.0379 125.246 42.1359 125.32C39.6743 125.383 39.4075 127.404 41.391 127.87C41.391 127.87 40.026 127.87 39.6648 128.74C39.2577 129.719 39.9324 130.503 41.4288 130.534C41.4288 130.534 41.18 132 42.28 132H90.1517C90.1517 132 92.3934 131.59 92.8916 128.297C93.3024 125.582 91.7006 112.2 91.7006 112.2Z" fill="#FBB2C3"/>
<path d="M91.9094 114.017C86.176 115.576 80.188 115.01 78.3001 114.772L77.9841 111.887L91.7001 112.199C91.7001 112.199 91.7822 112.9 91.9094 114.017Z" fill="#181820"/>
<path d="M78.9412 122.42C78.9412 122.42 83.0387 122.918 85.6083 127.334" stroke="#181820" stroke-width="0.307809" stroke-miterlimit="10" stroke-linecap="round" stroke-linejoin="round"/>
<path d="M41.7454 127.916C41.7454 127.916 45.419 128.238 47.219 127.726" stroke="#181820" stroke-width="0.307809" stroke-miterlimit="10" stroke-linecap="round" stroke-linejoin="round"/>
<path d="M42.1138 130.492C42.1138 130.492 45.6803 130.503 47.3264 130.118" stroke="#181820" stroke-width="0.307809" stroke-miterlimit="10" stroke-linecap="round" stroke-linejoin="round"/>
<path d="M76.2308 96.0588C75.2709 100.163 77.2133 109.616 77.8023 113.973C77.8023 113.973 86.9902 114.233 91.9989 112.82C91.9989 112.82 90.3933 101.326 93.0261 99.3992C95.5182 97.5757 105.121 100.073 106.669 91.516C106.837 90.5926 107.237 89.7274 107.85 89.0166C114.194 81.655 112.805 69.7313 112.805 69.7313C112.805 69.7313 107.282 67.9973 102.466 67.9973C93.283 67.9973 89.8155 69.7313 89.8155 69.7313C89.8155 69.7313 89.3558 75.033 85.2776 79.4495C82.2787 82.6966 78.9416 85.5531 78.9416 85.5531C79.2432 86.6485 76.6663 94.1976 76.2308 96.0588Z" fill="#1E9DF1"/>
<path d="M91.0201 101.411C91.0201 101.411 90.5921 95.8039 93.5897 95.1616" stroke="#181820" stroke-width="0.410412" stroke-miterlimit="10" stroke-linecap="round"/>
<path d="M52.6995 97.2967C54.4557 96.7972 55.8289 95.4121 56.4257 93.8131C56.5636 95.0965 59.8448 97.4871 62.1136 95.5143C62.5568 97.3176 66.9507 99.9398 71.0831 96.1377C72.5565 94.7821 72.1912 92.4493 71.9224 90.8327C72.8454 88.5537 72.5889 86.1175 70.5381 84.3884C69.2273 83.2836 65.9661 82.5022 64.0602 84.1857C63.5316 83.0004 61.3781 80.0163 56.053 80.8712C50.5408 81.756 49.1335 85.8729 49.848 87.5913C47.5928 87.9249 46.6443 90.275 46.5565 91.2489C46.3234 93.832 47.3145 96.8957 50.4332 97.4145C51.1843 97.5397 51.9698 97.5044 52.6995 97.2967Z" fill="#181820"/>
<path d="M58.5483 82.6988C57.8485 80.1296 56.889 74.6132 64.0798 73.5966C70.1235 72.7422 75.2845 81.1798 67.9381 85.8758C63.8922 88.4622 59.1992 85.0898 58.5483 82.6988Z" fill="#181820"/>
<path d="M61.1357 96.7106C61.2104 95.7285 62.4523 94.9692 63.8785 95.6641C65.7763 96.5891 65.2226 99.7879 63.0364 99.5679" fill="#FBB2C3"/>
<path d="M61.1357 96.7106C61.2104 95.7285 62.4523 94.9692 63.8785 95.6641C65.7763 96.5891 65.2226 99.7879 63.0364 99.5679" stroke="#181820" stroke-width="0.307809" stroke-miterlimit="10" stroke-linecap="round"/>
<path d="M62.9211 96.3899C63.5446 96.259 64.1269 96.8911 64.1339 97.5071C64.1397 98.0172 63.8946 98.4962 63.3262 98.6595" stroke="#181820" stroke-width="0.307809" stroke-miterlimit="10" stroke-linecap="round"/>
<path d="M62.8535 97.2832C62.8535 97.2832 63.843 97.33 63.7995 98.3876L62.8535 97.2832Z" fill="#FBB2C3"/>
<path d="M62.8535 97.2832C62.8535 97.2832 63.843 97.33 63.7995 98.3876" stroke="#181820" stroke-width="0.307809" stroke-miterlimit="10" stroke-linecap="round"/>
<path d="M66.2969 23.1072C64.2895 25.5561 65.2532 28.4873 65.2532 28.4873C65.2532 28.4873 65.7149 25.7974 67.8228 24.8539" stroke="#181820" stroke-width="0.307809" stroke-miterlimit="10" stroke-linecap="round" stroke-linejoin="round"/>
<path d="M88.7803 60.6469C88.7803 60.6469 99.7009 59.2416 107.69 53.6206" stroke="#181820" stroke-width="0.307809" stroke-miterlimit="10" stroke-linecap="round" stroke-linejoin="round"/>
<path d="M53.3848 101.411C53.3848 101.411 53.9823 102.063 54.1633 103.077C54.3443 104.091 54.6238 107.554 54.9961 108.074C55.4364 108.69 56.861 107.942 57.3678 107.296" fill="#FBB2C3"/>
<path d="M53.3848 101.411C53.3848 101.411 53.9823 102.063 54.1633 103.077C54.3443 104.091 54.6238 107.554 54.9961 108.074C55.4364 108.69 56.861 107.942 57.3678 107.296" stroke="#181820" stroke-width="0.307809" stroke-miterlimit="10" stroke-linecap="round"/>
</svg>
