<svg width="123" height="142" viewBox="0 0 123 142" fill="none" xmlns="http://www.w3.org/2000/svg">
<path d="M69.8771 57.5267C73.0571 55.5969 84.1847 57.0016 87.0387 62.1917C88.6131 65.0556 72.8311 81.8117 72.8311 81.8117C72.8311 81.8117 75.795 80.2633 78.7955 80.2026C82.9809 80.1177 92.97 80.0758 101.434 81.6331L101.854 86.5205C100.574 88.3896 64.8379 95.6282 61.1936 94.8673C55.9383 93.7699 55.1373 66.4692 69.8771 57.5267Z" fill="#1E9DF1"/>
<mask id="mask0_76_264" style="mask-type:luminance" maskUnits="userSpaceOnUse" x="57" y="56" width="45" height="39">
<path d="M69.8771 57.5267C73.0571 55.5969 84.1847 57.0016 87.0387 62.1917C88.6131 65.0556 72.8311 81.8117 72.8311 81.8117C72.8311 81.8117 75.795 80.2633 78.7955 80.2026C82.9809 80.1177 92.97 80.0758 101.434 81.6331L101.854 86.5205C100.574 88.3896 64.8379 95.6282 61.1936 94.8673C55.9383 93.7699 55.1373 66.4692 69.8771 57.5267Z" fill="white"/>
</mask>
<g mask="url(#mask0_76_264)">
<path d="M72.8315 81.811C65.7 80.3233 57.9613 81.7262 55.6181 85.5304C51.9756 93.3673 55.7074 101.049 55.7074 101.049C55.7074 101.049 70.7392 107.376 71.8858 107.614C73.0324 107.853 107.781 109.52 111.953 109.592C116.125 109.665 123.621 81.7503 123.621 81.7503L115.773 73.1213L90.4556 72.406L72.8315 81.811Z" fill="#FBB2C3"/>
</g>
<mask id="mask1_76_264" style="mask-type:luminance" maskUnits="userSpaceOnUse" x="57" y="56" width="45" height="39">
<path d="M69.8771 57.5267C73.0571 55.5969 84.1847 57.0016 87.0387 62.1917C88.6131 65.0556 72.8311 81.8117 72.8311 81.8117C72.8311 81.8117 75.795 80.2633 78.7955 80.2026C82.9809 80.1177 92.97 80.0758 101.434 81.6331L101.854 86.5205C100.574 88.3896 64.8379 95.6282 61.1936 94.8673C55.9383 93.7699 55.1373 66.4692 69.8771 57.5267Z" fill="white"/>
</mask>
<g mask="url(#mask1_76_264)">
<path d="M87.7152 79.6776C87.7152 79.6776 86.2551 85.6178 88.4671 90.3891C90.679 95.1603 104.768 85.8232 104.768 85.8232L102.591 80.166L99.4554 78.4104L87.7152 79.6776Z" fill="#1D204F"/>
</g>
<path d="M94.7942 81.6054C98.7618 81.1581 101.472 84.0933 98.4761 87.4564L105.97 90.8622C107.019 91.2052 108.009 91.707 108.906 92.3509L111.384 94.5342C113.001 95.9586 115.549 94.9334 115.73 92.7875L115.736 92.7143C115.829 91.6061 114.236 88.21 111.028 83.6093C107.82 79.0086 102.743 74.7696 102.743 74.7696C99.8245 72.037 97.3929 72.5603 97.7885 76.0323L94.1504 80.4597C93.7405 80.9571 94.1549 81.6778 94.7942 81.6054Z" fill="#1E9DF1"/>
<mask id="mask2_76_264" style="mask-type:luminance" maskUnits="userSpaceOnUse" x="93" y="73" width="23" height="23">
<path d="M94.7942 81.6054C98.7618 81.1581 101.472 84.0933 98.4761 87.4564L105.97 90.8622C107.019 91.2052 108.009 91.707 108.906 92.3509L111.384 94.5342C113.001 95.9586 115.549 94.9334 115.73 92.7875L115.736 92.7143C115.829 91.6061 114.236 88.21 111.028 83.6093C107.82 79.0086 102.743 74.7696 102.743 74.7696C99.8245 72.037 97.3929 72.5603 97.7885 76.0323L94.1504 80.4597C93.7405 80.9571 94.1549 81.6778 94.7942 81.6054Z" fill="white"/>
</mask>
<g mask="url(#mask2_76_264)">
<path d="M114.342 94.8834C115.371 92.4053 111.717 87.9903 109.058 84.7479C106.227 81.2938 101.368 76.5162 97.7869 76.0313C94.6239 75.6027 97.9021 69.1955 98.0513 69.0919C98.1995 68.9883 110.931 73.4265 111.75 74.1793C112.569 74.9321 117.645 83.1628 118.618 84.0299C119.59 84.897 120.356 87.8939 120.296 88.2297C120.236 88.5654 118.483 92.8036 118.483 92.8036L114.342 94.8834Z" fill="#1D204F"/>
</g>
<mask id="mask3_76_264" style="mask-type:luminance" maskUnits="userSpaceOnUse" x="93" y="73" width="23" height="23">
<path d="M94.7942 81.6054C98.7618 81.1581 101.472 84.0933 98.4761 87.4564L105.97 90.8622C107.019 91.2052 108.009 91.707 108.906 92.3509L111.384 94.5342C113.001 95.9586 115.549 94.9334 115.73 92.7875L115.736 92.7143C115.829 91.6061 114.236 88.21 111.028 83.6093C107.82 79.0086 102.743 74.7696 102.743 74.7696C99.8245 72.037 97.3929 72.5603 97.7885 76.0323L94.1504 80.4597C93.7405 80.9571 94.1549 81.6778 94.7942 81.6054Z" fill="white"/>
</mask>
<g mask="url(#mask3_76_264)">
<path d="M101.407 90.8666C101.571 90.8666 101.723 90.7604 101.773 90.5952L102.683 87.6313C102.746 87.4286 102.631 87.2143 102.429 87.1518C102.226 87.0902 102.012 87.2036 101.949 87.4063L101.039 90.3701C100.977 90.5729 101.091 90.7872 101.293 90.8497C101.332 90.8613 101.369 90.8666 101.407 90.8666Z" fill="white"/>
</g>
<mask id="mask4_76_264" style="mask-type:luminance" maskUnits="userSpaceOnUse" x="93" y="73" width="23" height="23">
<path d="M94.7942 81.6054C98.7618 81.1581 101.472 84.0933 98.4761 87.4564L105.97 90.8622C107.019 91.2052 108.009 91.707 108.906 92.3509L111.384 94.5342C113.001 95.9586 115.549 94.9334 115.73 92.7875L115.736 92.7143C115.829 91.6061 114.236 88.21 111.028 83.6093C107.82 79.0086 102.743 74.7696 102.743 74.7696C99.8245 72.037 97.3929 72.5603 97.7885 76.0323L94.1504 80.4597C93.7405 80.9571 94.1549 81.6778 94.7942 81.6054Z" fill="white"/>
</mask>
<g mask="url(#mask4_76_264)">
<path d="M103.183 91.4177C103.347 91.4177 103.499 91.3114 103.549 91.1462L104.459 88.1824C104.522 87.9796 104.407 87.7653 104.206 87.7028C104.003 87.6412 103.789 87.7546 103.726 87.9564L102.816 90.9203C102.754 91.123 102.868 91.3373 103.071 91.3998C103.107 91.4123 103.146 91.4177 103.183 91.4177Z" fill="white"/>
</g>
<mask id="mask5_76_264" style="mask-type:luminance" maskUnits="userSpaceOnUse" x="93" y="73" width="23" height="23">
<path d="M94.7942 81.6054C98.7618 81.1581 101.472 84.0933 98.4761 87.4564L105.97 90.8622C107.019 91.2052 108.009 91.707 108.906 92.3509L111.384 94.5342C113.001 95.9586 115.549 94.9334 115.73 92.7875L115.736 92.7143C115.829 91.6061 114.236 88.21 111.028 83.6093C107.82 79.0086 102.743 74.7696 102.743 74.7696C99.8245 72.037 97.3929 72.5603 97.7885 76.0323L94.1504 80.4597C93.7405 80.9571 94.1549 81.6778 94.7942 81.6054Z" fill="white"/>
</mask>
<g mask="url(#mask5_76_264)">
<path d="M104.847 92.134C105.011 92.134 105.163 92.0277 105.213 91.8625L106.123 88.8987C106.186 88.6959 106.071 88.4816 105.869 88.4191C105.666 88.3575 105.452 88.4709 105.389 88.6736L104.479 91.6375C104.417 91.8402 104.531 92.0545 104.733 92.117C104.772 92.1286 104.809 92.134 104.847 92.134Z" fill="white"/>
</g>
<mask id="mask6_76_264" style="mask-type:luminance" maskUnits="userSpaceOnUse" x="93" y="73" width="23" height="23">
<path d="M94.7942 81.6054C98.7618 81.1581 101.472 84.0933 98.4761 87.4564L105.97 90.8622C107.019 91.2052 108.009 91.707 108.906 92.3509L111.384 94.5342C113.001 95.9586 115.549 94.9334 115.73 92.7875L115.736 92.7143C115.829 91.6061 114.236 88.21 111.028 83.6093C107.82 79.0086 102.743 74.7696 102.743 74.7696C99.8245 72.037 97.3929 72.5603 97.7885 76.0323L94.1504 80.4597C93.7405 80.9571 94.1549 81.6778 94.7942 81.6054Z" fill="white"/>
</mask>
<g mask="url(#mask6_76_264)">
<path d="M106.493 92.7342C106.657 92.7342 106.809 92.6279 106.859 92.4627L107.769 89.4988C107.831 89.2961 107.717 89.0818 107.515 89.0193C107.312 88.9568 107.098 89.0711 107.036 89.2738L106.126 92.2377C106.063 92.4404 106.177 92.6547 106.379 92.7172C106.418 92.7288 106.456 92.7342 106.493 92.7342Z" fill="white"/>
</g>
<mask id="mask7_76_264" style="mask-type:luminance" maskUnits="userSpaceOnUse" x="93" y="73" width="23" height="23">
<path d="M94.7942 81.6054C98.7618 81.1581 101.472 84.0933 98.4761 87.4564L105.97 90.8622C107.019 91.2052 108.009 91.707 108.906 92.3509L111.384 94.5342C113.001 95.9586 115.549 94.9334 115.73 92.7875L115.736 92.7143C115.829 91.6061 114.236 88.21 111.028 83.6093C107.82 79.0086 102.743 74.7696 102.743 74.7696C99.8245 72.037 97.3929 72.5603 97.7885 76.0323L94.1504 80.4597C93.7405 80.9571 94.1549 81.6778 94.7942 81.6054Z" fill="white"/>
</mask>
<g mask="url(#mask7_76_264)">
<path d="M101.496 85.3446C101.509 85.3446 101.522 85.3437 101.536 85.3401C101.639 85.3187 101.706 85.2169 101.684 85.1133C100.709 80.459 96.9519 80.3796 96.9135 80.3787H96.9117C96.8064 80.3787 96.7207 80.4635 96.7207 80.5689C96.7198 80.6742 96.8046 80.7609 96.9109 80.7626C97.0529 80.7644 100.399 80.8493 101.309 85.1919C101.328 85.283 101.407 85.3446 101.496 85.3446Z" fill="#1E9DF1"/>
</g>
<mask id="mask8_76_264" style="mask-type:luminance" maskUnits="userSpaceOnUse" x="93" y="73" width="23" height="23">
<path d="M94.7942 81.6054C98.7618 81.1581 101.472 84.0933 98.4761 87.4564L105.97 90.8622C107.019 91.2052 108.009 91.707 108.906 92.3509L111.384 94.5342C113.001 95.9586 115.549 94.9334 115.73 92.7875L115.736 92.7143C115.829 91.6061 114.236 88.21 111.028 83.6093C107.82 79.0086 102.743 74.7696 102.743 74.7696C99.8245 72.037 97.3929 72.5603 97.7885 76.0323L94.1504 80.4597C93.7405 80.9571 94.1549 81.6778 94.7942 81.6054Z" fill="white"/>
</mask>
<g mask="url(#mask8_76_264)">
<path d="M111.396 87.3906C111.469 87.3906 111.539 87.3487 111.571 87.2772C111.614 87.1808 111.571 87.0674 111.474 87.0236L104.596 83.9392L105.519 85.8654L102.506 84.5286C102.41 84.4857 102.295 84.5295 102.253 84.6259C102.21 84.7233 102.254 84.8358 102.351 84.8786L106.315 86.6378L105.395 84.717L111.318 87.3728C111.343 87.3862 111.37 87.3906 111.396 87.3906Z" fill="#1D204F"/>
</g>
<mask id="mask9_76_264" style="mask-type:luminance" maskUnits="userSpaceOnUse" x="93" y="73" width="23" height="23">
<path d="M94.7942 81.6054C98.7618 81.1581 101.472 84.0933 98.4761 87.4564L105.97 90.8622C107.019 91.2052 108.009 91.707 108.906 92.3509L111.384 94.5342C113.001 95.9586 115.549 94.9334 115.73 92.7875L115.736 92.7143C115.829 91.6061 114.236 88.21 111.028 83.6093C107.82 79.0086 102.743 74.7696 102.743 74.7696C99.8245 72.037 97.3929 72.5603 97.7885 76.0323L94.1504 80.4597C93.7405 80.9571 94.1549 81.6778 94.7942 81.6054Z" fill="white"/>
</mask>
<g mask="url(#mask9_76_264)">
<path d="M109.619 84.9954C109.692 84.9954 109.762 84.9534 109.794 84.882C109.838 84.7855 109.794 84.6721 109.698 84.6284L102.09 81.218L103.014 83.1442L100.001 81.8074C99.9034 81.7645 99.7909 81.8083 99.7481 81.9047C99.7052 82.0012 99.7489 82.1146 99.8454 82.1575L103.81 83.9167L102.89 81.9958L109.542 84.9784C109.567 84.99 109.593 84.9954 109.619 84.9954Z" fill="#1D204F"/>
</g>
<path d="M17.4199 123.408L26.4722 114.313C28.1671 112.61 30.4719 111.652 32.875 111.652H87.6809C90.1777 111.652 92.562 112.685 94.2703 114.506L103.279 124.111" stroke="#1D204F" stroke-width="5.32681" stroke-miterlimit="10" stroke-linecap="round"/>
<path d="M97.2612 95.7542L82.5661 111.652" stroke="#1D204F" stroke-width="5.32681" stroke-miterlimit="10" stroke-linecap="round"/>
<path d="M26.3473 95.7542L38.9626 111.652" stroke="#1D204F" stroke-width="5.32681" stroke-miterlimit="10" stroke-linecap="round"/>
<path d="M44.7447 99.1011H117.271C118.226 99.1011 119 98.3269 119 97.3723V93.1627C119 92.2081 118.226 91.4338 117.271 91.4338H44.7447C43.7901 91.4338 43.0159 92.2081 43.0159 93.1627V97.3723C43.0159 98.3269 43.7901 99.1011 44.7447 99.1011Z" fill="#1D204F"/>
<path d="M16.9216 99.1011H40.0475C41.0021 99.1011 41.7764 98.3269 41.7764 97.3723V93.1627C41.7764 92.2081 41.0021 91.4338 40.0475 91.4338H16.9216C15.967 91.4338 15.1928 92.2081 15.1928 93.1627V97.3723C15.1928 98.3269 15.9661 99.1011 16.9216 99.1011Z" fill="#1D204F"/>
<path d="M41.7452 90.8354C41.0397 92.7545 36.1238 95.8389 35.2075 95.7522C34.2922 95.6656 34.3458 94.7682 34.5753 94.3806C34.8048 93.993 35.9621 92.5178 35.9621 92.5303C35.9621 92.5419 27.4456 93.3474 27.4465 91.9374C27.4465 91.1239 30.1076 91.0622 32.2231 90.5309C33.2188 90.2809 34.1511 89.829 34.9647 89.2039L39.7458 85.531C39.7466 85.5301 42.0702 89.9522 41.7452 90.8354Z" fill="#1D204F"/>
<mask id="mask10_76_264" style="mask-type:luminance" maskUnits="userSpaceOnUse" x="27" y="85" width="15" height="11">
<path d="M41.7452 90.8354C41.0397 92.7545 36.1238 95.8389 35.2075 95.7522C34.2922 95.6656 34.3458 94.7682 34.5753 94.3806C34.8048 93.993 35.9621 92.5178 35.9621 92.5303C35.9621 92.5419 27.4456 93.3474 27.4465 91.9374C27.4465 91.1239 30.1076 91.0622 32.2231 90.5309C33.2188 90.2809 34.1511 89.829 34.9647 89.2039L39.7458 85.531C39.7466 85.5301 42.0702 89.9522 41.7452 90.8354Z" fill="white"/>
</mask>
<g mask="url(#mask10_76_264)">
<path d="M38.5547 94.5701C38.4609 94.1129 37.3598 92.3296 35.1184 93.0761C32.8779 93.8226 33.595 96.0346 33.595 96.0346L36.7321 97.0508L38.5547 94.5701Z" fill="#FBB2C3"/>
</g>
<mask id="mask11_76_264" style="mask-type:luminance" maskUnits="userSpaceOnUse" x="27" y="85" width="15" height="11">
<path d="M41.7452 90.8354C41.0397 92.7545 36.1238 95.8389 35.2075 95.7522C34.2922 95.6656 34.3458 94.7682 34.5753 94.3806C34.8048 93.993 35.9621 92.5178 35.9621 92.5303C35.9621 92.5419 27.4456 93.3474 27.4465 91.9374C27.4465 91.1239 30.1076 91.0622 32.2231 90.5309C33.2188 90.2809 34.1511 89.829 34.9647 89.2039L39.7458 85.531C39.7466 85.5301 42.0702 89.9522 41.7452 90.8354Z" fill="white"/>
</mask>
<g mask="url(#mask11_76_264)">
<path d="M33.0665 90.0515C33.6532 90.2918 33.9193 91.1973 33.7595 91.8634C33.5996 92.5296 32.4807 93.3824 32.3735 93.436C32.2673 93.4896 27.9229 93.4896 27.9229 93.4896L26.8298 92.7171L27.1763 90.2123C27.1763 90.2123 28.6417 89.8926 28.7489 89.8926C28.856 89.8917 33.0665 90.0515 33.0665 90.0515Z" fill="#FBB2C3"/>
</g>
<path d="M47.0646 49.071C48.6568 51.9259 47.4174 66.7121 46.8432 70.9369C46.7664 71.4995 46.653 72.054 46.5029 72.6014L41.7459 90.8364L40.2252 89.8889C39.0062 89.1299 38.3195 87.7493 38.4508 86.3196C38.674 83.8889 37.7551 80.0008 37.665 77.8308C37.5435 74.9107 37.631 70.3109 37.631 70.3109C37.631 70.3109 37.1917 55.6309 37.6882 53.1288C38.2579 50.2515 44.8107 45.0302 47.0646 49.071Z" fill="#FBB2C3"/>
<path d="M86.1073 83.9471C86.1073 83.9471 92.127 83.8703 92.0037 82.5201C91.8805 81.1699 86.8217 80.2197 86.8217 80.2197L86.1073 83.9471Z" fill="#1D204F"/>
<path d="M71.3335 61.7607C71.2879 62.5313 73.5624 76.1388 76.1413 84.5526C77.2371 88.1273 78.0095 91.3671 78.8748 93.3129C82.0816 100.528 84.9231 124.947 84.9231 124.947H90.9785C90.9785 124.947 93.1467 93.4737 92.0242 89.9454C90.9017 86.4172 87.7646 83.2908 87.7646 83.2908C87.7646 83.2908 89.8149 67.5652 87.0404 62.1911C83.3068 54.9623 71.3335 61.7607 71.3335 61.7607Z" fill="#1E9DF1"/>
<mask id="mask12_76_264" style="mask-type:luminance" maskUnits="userSpaceOnUse" x="71" y="58" width="22" height="67">
<path d="M71.3335 61.7607C71.2879 62.5313 73.5624 76.1388 76.1413 84.5526C77.2371 88.1273 78.0095 91.3671 78.8748 93.3129C82.0816 100.528 84.9231 124.947 84.9231 124.947H90.9785C90.9785 124.947 93.1467 93.4737 92.0242 89.9454C90.9017 86.4172 87.7646 83.2908 87.7646 83.2908C87.7646 83.2908 89.8149 67.5652 87.0404 62.1911C83.3068 54.9623 71.3335 61.7607 71.3335 61.7607Z" fill="white"/>
</mask>
<g mask="url(#mask12_76_264)">
<path d="M92.3455 82.8806C92.3455 82.8806 81.4349 75.9653 74.3329 86.8821C67.2309 97.799 86.9911 134.815 86.9911 134.815L105.367 128.885L92.3455 82.8806Z" fill="#FBB2C3"/>
<mask id="mask13_76_264" style="mask-type:luminance" maskUnits="userSpaceOnUse" x="72" y="80" width="34" height="55">
<path d="M92.3455 82.8806C92.3455 82.8806 81.4349 75.9653 74.3329 86.8821C67.2309 97.799 86.9911 134.815 86.9911 134.815L105.367 128.885L92.3455 82.8806Z" fill="white"/>
</mask>
<g mask="url(#mask13_76_264)">
<path d="M93.846 109.945C93.846 109.945 85.3268 108.776 81.1074 111.916C76.8879 115.055 86.1287 127.017 86.1287 127.017L93.9986 123.654L95.0774 120.226L93.846 109.945Z" fill="#1D204F"/>
<mask id="mask14_76_264" style="mask-type:luminance" maskUnits="userSpaceOnUse" x="80" y="109" width="16" height="19">
<path d="M93.846 109.945C93.846 109.945 85.3268 108.776 81.1074 111.916C76.8879 115.055 86.1287 127.017 86.1287 127.017L93.9986 123.654L95.0774 120.226L93.846 109.945Z" fill="white"/>
</mask>
<g mask="url(#mask14_76_264)">
<path d="M92.3455 111.809C92.3455 111.809 86.6865 110.672 81.7581 112.795" stroke="#1E9DF1" stroke-width="1.12482" stroke-miterlimit="10"/>
</g>
</g>
</g>
<path d="M91.034 120.397C90.4786 124.351 86.9593 126.244 84.45 122.504L79.2831 128.912C78.6892 129.843 77.9561 130.676 77.1095 131.384L74.377 133.239C72.5946 134.449 72.9518 137.172 74.9851 137.882L75.0548 137.906C76.104 138.272 79.7912 137.577 85.0456 135.618C90.3009 133.658 95.6722 129.799 95.6722 129.799C99.046 127.654 99.1451 125.169 95.6848 124.686L92.3039 120.058C91.9244 119.538 91.1233 119.76 91.034 120.397Z" fill="#1E9DF1"/>
<mask id="mask15_76_264" style="mask-type:luminance" maskUnits="userSpaceOnUse" x="73" y="119" width="26" height="19">
<path d="M91.034 120.397C90.4786 124.351 86.9593 126.244 84.45 122.504L79.2831 128.912C78.6892 129.843 77.9561 130.676 77.1095 131.384L74.377 133.239C72.5946 134.449 72.9518 137.172 74.9851 137.882L75.0548 137.906C76.104 138.272 79.7912 137.577 85.0456 135.618C90.3009 133.658 95.6722 129.799 95.6722 129.799C99.046 127.654 99.1451 125.169 95.6848 124.686L92.3039 120.058C91.9244 119.538 91.1233 119.76 91.034 120.397Z" fill="white"/>
</mask>
<g mask="url(#mask15_76_264)">
<path d="M73.301 136.017C75.4442 137.631 80.6316 135.192 84.434 133.427C88.4855 131.545 94.323 128.032 95.6857 124.685C96.8895 121.73 102.277 126.502 102.339 126.671C102.403 126.841 94.9303 138.063 93.9971 138.669C93.0639 139.274 83.8276 142.138 82.7453 142.863C81.663 143.588 78.5697 143.583 78.2598 143.441C77.949 143.299 74.2824 140.545 74.2824 140.545L73.301 136.017Z" fill="#151A4F"/>
</g>
<mask id="mask16_76_264" style="mask-type:luminance" maskUnits="userSpaceOnUse" x="73" y="119" width="26" height="19">
<path d="M91.034 120.397C90.4786 124.351 86.9593 126.244 84.45 122.504L79.2831 128.912C78.6892 129.843 77.9561 130.676 77.1095 131.384L74.377 133.239C72.5946 134.449 72.9518 137.172 74.9851 137.882L75.0548 137.906C76.104 138.272 79.7912 137.577 85.0456 135.618C90.3009 133.658 95.6722 129.799 95.6722 129.799C99.046 127.654 99.1451 125.169 95.6848 124.686L92.3039 120.058C91.9244 119.538 91.1233 119.76 91.034 120.397Z" fill="white"/>
</mask>
<g mask="url(#mask16_76_264)">
<path d="M83.4309 126.591C83.5595 126.591 83.6854 126.526 83.7577 126.408C83.8685 126.228 83.8122 125.991 83.6309 125.88L80.9877 124.26C80.8073 124.15 80.5715 124.207 80.4608 124.387C80.3501 124.568 80.4063 124.804 80.5876 124.915L83.2309 126.535C83.2934 126.572 83.3622 126.591 83.4309 126.591Z" fill="white"/>
</g>
<mask id="mask17_76_264" style="mask-type:luminance" maskUnits="userSpaceOnUse" x="73" y="119" width="26" height="19">
<path d="M91.034 120.397C90.4786 124.351 86.9593 126.244 84.45 122.504L79.2831 128.912C78.6892 129.843 77.9561 130.676 77.1095 131.384L74.377 133.239C72.5946 134.449 72.9518 137.172 74.9851 137.882L75.0548 137.906C76.104 138.272 79.7912 137.577 85.0456 135.618C90.3009 133.658 95.6722 129.799 95.6722 129.799C99.046 127.654 99.1451 125.169 95.6848 124.686L92.3039 120.058C91.9244 119.538 91.1233 119.76 91.034 120.397Z" fill="white"/>
</mask>
<g mask="url(#mask17_76_264)">
<path d="M82.4549 128.174C82.5844 128.174 82.7094 128.108 82.7827 127.99C82.8934 127.81 82.8371 127.573 82.6558 127.463L80.0126 125.842C79.8322 125.731 79.5956 125.788 79.4857 125.969C79.375 126.149 79.4312 126.386 79.6125 126.496L82.2558 128.117C82.3174 128.156 82.3862 128.174 82.4549 128.174Z" fill="white"/>
</g>
<mask id="mask18_76_264" style="mask-type:luminance" maskUnits="userSpaceOnUse" x="73" y="119" width="26" height="19">
<path d="M91.034 120.397C90.4786 124.351 86.9593 126.244 84.45 122.504L79.2831 128.912C78.6892 129.843 77.9561 130.676 77.1095 131.384L74.377 133.239C72.5946 134.449 72.9518 137.172 74.9851 137.882L75.0548 137.906C76.104 138.272 79.7912 137.577 85.0456 135.618C90.3009 133.658 95.6722 129.799 95.6722 129.799C99.046 127.654 99.1451 125.169 95.6848 124.686L92.3039 120.058C91.9244 119.538 91.1233 119.76 91.034 120.397Z" fill="white"/>
</mask>
<g mask="url(#mask18_76_264)">
<path d="M81.3457 129.607C81.4743 129.607 81.6002 129.542 81.6725 129.424C81.7833 129.243 81.727 129.007 81.5457 128.896L78.9025 127.276C78.7221 127.165 78.4855 127.223 78.3756 127.403C78.2649 127.583 78.3211 127.82 78.5024 127.931L81.1457 129.551C81.2082 129.588 81.2778 129.607 81.3457 129.607Z" fill="white"/>
</g>
<mask id="mask19_76_264" style="mask-type:luminance" maskUnits="userSpaceOnUse" x="73" y="119" width="26" height="19">
<path d="M91.034 120.397C90.4786 124.351 86.9593 126.244 84.45 122.504L79.2831 128.912C78.6892 129.843 77.9561 130.676 77.1095 131.384L74.377 133.239C72.5946 134.449 72.9518 137.172 74.9851 137.882L75.0548 137.906C76.104 138.272 79.7912 137.577 85.0456 135.618C90.3009 133.658 95.6722 129.799 95.6722 129.799C99.046 127.654 99.1451 125.169 95.6848 124.686L92.3039 120.058C91.9244 119.538 91.1233 119.76 91.034 120.397Z" fill="white"/>
</mask>
<g mask="url(#mask19_76_264)">
<path d="M80.3546 131.051C80.4841 131.051 80.6091 130.986 80.6823 130.868C80.793 130.687 80.7368 130.451 80.5555 130.34L77.9122 128.72C77.7318 128.609 77.4952 128.666 77.3854 128.847C77.2746 129.027 77.3309 129.264 77.5122 129.375L80.1554 130.995C80.2171 131.033 80.2867 131.051 80.3546 131.051Z" fill="white"/>
</g>
<mask id="mask20_76_264" style="mask-type:luminance" maskUnits="userSpaceOnUse" x="73" y="119" width="26" height="19">
<path d="M91.034 120.397C90.4786 124.351 86.9593 126.244 84.45 122.504L79.2831 128.912C78.6892 129.843 77.9561 130.676 77.1095 131.384L74.377 133.239C72.5946 134.449 72.9518 137.172 74.9851 137.882L75.0548 137.906C76.104 138.272 79.7912 137.577 85.0456 135.618C90.3009 133.658 95.6722 129.799 95.6722 129.799C99.046 127.654 99.1451 125.169 95.6848 124.686L92.3039 120.058C91.9244 119.538 91.1233 119.76 91.034 120.397Z" fill="white"/>
</mask>
<g mask="url(#mask20_76_264)">
<path d="M86.3222 126.204C90.7273 126.204 91.6828 122.792 91.6926 122.756C91.7194 122.653 91.6587 122.549 91.5569 122.522C91.4533 122.495 91.3497 122.556 91.322 122.658C91.2854 122.795 90.3576 126.011 85.9364 125.812C85.8212 125.8 85.7408 125.889 85.7364 125.995C85.731 126.1 85.8132 126.19 85.9185 126.195C86.0561 126.201 86.1909 126.204 86.3222 126.204Z" fill="#151A4F"/>
</g>
<mask id="mask21_76_264" style="mask-type:luminance" maskUnits="userSpaceOnUse" x="73" y="119" width="26" height="19">
<path d="M91.034 120.397C90.4786 124.351 86.9593 126.244 84.45 122.504L79.2831 128.912C78.6892 129.843 77.9561 130.676 77.1095 131.384L74.377 133.239C72.5946 134.449 72.9518 137.172 74.9851 137.882L75.0548 137.906C76.104 138.272 79.7912 137.577 85.0456 135.618C90.3009 133.658 95.6722 129.799 95.6722 129.799C99.046 127.654 99.1451 125.169 95.6848 124.686L92.3039 120.058C91.9244 119.538 91.1233 119.76 91.034 120.397Z" fill="white"/>
</mask>
<g mask="url(#mask21_76_264)">
<path d="M81.4775 135.272C81.5338 135.272 81.5891 135.247 81.6275 135.2L86.3301 129.308L84.2342 129.722L86.2809 127.138C86.3461 127.055 86.3327 126.934 86.2497 126.868C86.1675 126.803 86.0461 126.815 85.98 126.899L83.2885 130.3L85.3781 129.887L81.3293 134.961C81.2632 135.044 81.2766 135.165 81.3597 135.231C81.3936 135.258 81.4355 135.272 81.4775 135.272Z" fill="#151A4F"/>
</g>
<mask id="mask22_76_264" style="mask-type:luminance" maskUnits="userSpaceOnUse" x="73" y="119" width="26" height="19">
<path d="M91.034 120.397C90.4786 124.351 86.9593 126.244 84.45 122.504L79.2831 128.912C78.6892 129.843 77.9561 130.676 77.1095 131.384L74.377 133.239C72.5946 134.449 72.9518 137.172 74.9851 137.882L75.0548 137.906C76.104 138.272 79.7912 137.577 85.0456 135.618C90.3009 133.658 95.6722 129.799 95.6722 129.799C99.046 127.654 99.1451 125.169 95.6848 124.686L92.3039 120.058C91.9244 119.538 91.1233 119.76 91.034 120.397Z" fill="white"/>
</mask>
<g mask="url(#mask22_76_264)">
<path d="M84.2401 134.148C84.2964 134.148 84.3517 134.123 84.3901 134.075L89.5901 127.559L87.4942 127.973L89.541 125.389C89.607 125.306 89.5927 125.186 89.5097 125.119C89.4258 125.053 89.3061 125.068 89.24 125.151L86.5476 128.551L88.6372 128.139L84.0901 133.837C84.024 133.92 84.0374 134.041 84.1205 134.107C84.1562 134.134 84.1982 134.148 84.2401 134.148Z" fill="#151A4F"/>
</g>
<path d="M86.1085 80.7886C86.1085 80.7886 89.4625 81.1011 92.004 82.521C92.1531 75.1966 91.3638 63.7315 84.3966 59.4844L86.1085 80.7886Z" fill="#1E9DF1"/>
<path d="M32.9712 25.305C30.7718 25.2246 25.4263 26.5391 23.8788 29.169C22.3321 31.7989 22.8661 37.731 22.0222 38.7598C21.6329 39.2339 20.3228 39.8823 20.6925 40.8226C20.8604 41.2494 22.2669 41.846 22.2669 41.846C22.2669 41.846 22.4518 47.7487 25.3585 48.9328C30.5423 51.0447 35.3011 46.945 36.954 45.1349C38.6069 43.3248 42.6219 38.2918 42.1647 32.0069C41.8798 28.0751 39.1829 25.5318 32.9712 25.305Z" fill="#FBB2C3"/>
<path d="M27.6438 43.1013C27.6438 43.1013 26.8973 44.9203 24.846 44.4533" stroke="#1D204F" stroke-width="0.656352" stroke-miterlimit="10" stroke-linecap="round"/>
<path d="M28.1653 36.5246C28.1653 36.5246 27.2732 34.3868 24.846 35.7923" stroke="#1D204F" stroke-width="0.656352" stroke-miterlimit="10" stroke-linecap="round"/>
<path d="M25.0826 39.7131C24.7926 39.7131 24.5575 39.105 24.5575 38.3548C24.5575 37.6047 24.7926 36.9966 25.0826 36.9966C25.3726 36.9966 25.6077 37.6047 25.6077 38.3548C25.6077 39.105 25.3726 39.7131 25.0826 39.7131Z" fill="#1D204F"/>
<path d="M34.6012 57.0008C34.6012 57.0008 33.4519 51.7875 31.7578 48.8219L39.3314 40.6492C39.3314 40.6492 38.8125 44.2122 41.2183 46.9618L34.6012 57.0008Z" fill="#FBB2C3"/>
<mask id="mask23_76_264" style="mask-type:luminance" maskUnits="userSpaceOnUse" x="31" y="40" width="11" height="18">
<path d="M34.6012 57.0008C34.6012 57.0008 33.4519 51.7875 31.7578 48.8219L39.3314 40.6492C39.3314 40.6492 38.8125 44.2122 41.2183 46.9618L34.6012 57.0008Z" fill="white"/>
</mask>
<g mask="url(#mask23_76_264)">
<path d="M35.344 46.6511C33.4794 48.2889 31.054 49.0765 31.054 49.0765L31.4148 51.6751C34.8805 49.8695 35.344 46.6511 35.344 46.6511Z" fill="#1D204F"/>
</g>
<path d="M36.0308 35.919C36.0308 35.919 36.9479 34.6188 38.5518 34.9734C40.1556 35.3279 39.6528 38.7516 38.2097 39.7134C36.7667 40.6751 35.7853 39.4544 35.7853 39.4544" stroke="#1D204F" stroke-width="0.656352" stroke-miterlimit="10" stroke-linecap="round"/>
<path d="M40.3414 40.283C40.3414 40.283 39.4073 38.8399 39.3448 37.4915C39.2823 36.1439 38.9091 35.2733 37.7267 35.3929C35.5308 35.6171 34.7682 38.7256 34.7682 38.7256C34.7682 38.7256 31.7481 35.4197 31.7579 33.1363C31.7642 31.7665 34.3387 30.8985 33.702 30.4323C32.0044 29.1893 25.098 31.1271 23.6165 29.6992C20.5955 26.7889 21.2581 23.3455 24.5577 23.2018C27.8564 23.058 38.1902 22.14 42.1694 25.904C44.8841 28.4731 46.6683 34.132 40.3414 40.283Z" fill="#1D204F"/>
<path d="M47.679 43.6202C44.7813 43.0665 39.4849 42.0405 37.1399 46.359C34.7958 50.6775 33.2411 63.6376 35.0432 65.6299C37.4891 68.3356 42.7461 68.4544 42.7461 68.4544C42.7461 68.4544 51.1957 73.949 56.9099 74.9179C56.9099 74.9179 60.5846 69.6465 67.0642 70.0555C67.0642 70.0555 59.3282 59.1503 58.4388 55.8024C57.5484 52.4555 55.5499 45.1222 47.679 43.6202Z" fill="#FBB2C3"/>
<path d="M39.7286 43.8408C38.4981 50.7383 43.022 56.0088 48.763 55.4489C54.6077 54.8791 57.9752 52.627 57.9752 52.627C59.3995 53.4512 61.6427 53.0297 65.5523 56.3392C67.3115 57.8287 72.5569 55.5989 73.9375 63.6144C72.7284 78.481 59.304 75.4868 59.304 75.4868C42.8916 74.0446 28.9118 66.8783 34.259 55.6078C34.259 55.6078 35.069 58.7146 36.0745 57.7894C37.7846 56.216 35.7691 49.3926 37.1407 46.3582C37.9873 44.4865 39.7286 43.8408 39.7286 43.8408Z" fill="#1D204F"/>
<mask id="mask24_76_264" style="mask-type:luminance" maskUnits="userSpaceOnUse" x="33" y="43" width="41" height="33">
<path d="M39.7286 43.8408C38.4981 50.7383 43.022 56.0088 48.763 55.4489C54.6077 54.8791 57.9752 52.627 57.9752 52.627C59.3995 53.4512 61.6427 53.0297 65.5523 56.3392C67.3115 57.8287 72.5569 55.5989 73.9375 63.6144C72.7284 78.481 59.304 75.4868 59.304 75.4868C42.8916 74.0446 28.9118 66.8783 34.259 55.6078C34.259 55.6078 35.069 58.7146 36.0745 57.7894C37.7846 56.216 35.7691 49.3926 37.1407 46.3582C37.9873 44.4865 39.7286 43.8408 39.7286 43.8408Z" fill="white"/>
</mask>
<g mask="url(#mask24_76_264)">
<path d="M53.0902 51.3091C53.0902 51.3091 53.1697 59.1755 54.8959 64.0093L58.7768 59.4782C58.7768 59.4782 58.9974 72.1096 67.3103 78.4722" stroke="#1E9DF1" stroke-width="2.81205" stroke-miterlimit="10"/>
</g>
<path d="M54.0348 80.9277L69.1685 81.073L69.1443 83.5913L54.0107 83.446L54.0348 80.9277Z" fill="#1D204F"/>
<path d="M70.4426 89.0096C69.0272 88.9962 67.8905 87.8371 67.9038 86.4217L67.986 77.8954C67.9994 76.48 69.1585 75.3432 70.5739 75.3566C71.9893 75.37 73.1261 76.5291 73.1127 77.9445L73.0305 86.4717C73.0171 87.8862 71.8589 89.023 70.4426 89.0096Z" fill="#1D204F"/>
<path d="M52.8462 88.8076C51.4308 88.7942 50.294 87.6351 50.3074 86.2197L50.3896 77.6925C50.4029 76.2771 51.5621 75.1403 52.9775 75.1537C54.3929 75.1671 55.5296 76.3262 55.5162 77.7416L55.4341 86.2688C55.4207 87.6851 54.2616 88.821 52.8462 88.8076Z" fill="#1D204F"/>
<path d="M43.7231 54.2985C47.6085 57.5561 60.2051 55.7862 62.3545 54.1806C62.3545 54.1806 59.6461 59.2233 61.7018 75.4723C61.8411 76.5743 66.0141 77.1958 66.0141 77.1958C66.0141 77.1958 74.9047 53.4028 72.0686 47.593C68.0921 39.447 41.3388 45.4953 41.3388 45.4953C41.3388 45.4953 38.2249 49.6879 43.7231 54.2985Z" fill="#FBB2C3"/>
<path d="M61.7018 75.4724C61.7018 75.4724 57.7842 79.1622 57.277 80.3267C56.8046 81.4117 57.6288 83.9076 57.6288 83.9076C58.6326 85.7276 64.5897 87.3215 65.4158 83.6469C66.2418 79.9722 66.7437 76.4779 66.7437 76.4779C65.1148 75.1571 63.4449 74.6097 61.7018 75.4724Z" fill="#1D204F"/>
<path d="M64.1814 80.0886C64.1814 80.0886 64.1046 78.2169 63.2446 77.9106C62.3847 77.6052 61.3827 78.2035 60.6165 79.1206C59.8521 80.0377 64.185 81.6379 64.1814 80.0886Z" fill="#FBB2C3"/>
<path d="M76.1407 84.5525C76.1407 84.5525 79.1242 93.0797 80.0297 96.6562C80.9352 100.233 82.5658 110.148 82.9587 113.926" stroke="#1D204F" stroke-width="0.656352" stroke-miterlimit="10" stroke-linecap="round"/>
<path d="M72.0739 73.0259C72.0739 73.0259 74.1358 77.0944 74.8047 79.6662" stroke="#1D204F" stroke-width="0.656352" stroke-miterlimit="10" stroke-linecap="round"/>
</svg>
