<svg width="123" height="142" viewBox="0 0 123 142" fill="none" xmlns="http://www.w3.org/2000/svg">
<g clip-path="url(#clip0_76_367)">
<path d="M76.9255 62.308C77.5226 62.1442 78.1341 62.1075 78.7464 62.1327C80.5826 62.2085 82.4081 62.3922 84.2067 62.7818C87.0418 63.3956 89.2384 64.9716 90.9522 67.2769C92.6177 69.518 93.7589 72.0277 94.7516 74.6148C95.3271 76.1134 95.8369 77.635 96.2854 79.1758C96.6474 80.4195 97.2812 81.5439 97.8185 82.7088C100.663 88.8764 103.129 95.1916 105.223 101.652C106.397 105.274 107.782 108.818 109.181 112.357C109.536 113.255 109.749 114.207 110.206 115.067C110.328 115.296 110.33 115.562 110.333 115.815C110.338 116.232 110.48 116.583 110.761 116.887C111.208 117.371 111.219 117.907 110.938 118.478C110.623 119.119 110.629 119.129 111.165 119.597C111.454 119.849 111.425 120.224 111.086 120.47C110.867 120.629 110.616 120.723 110.352 120.781C110.227 120.87 110.1 120.949 109.942 120.972C109.2 121.075 108.463 121.228 107.711 121.259C107.332 121.275 106.962 121.403 106.577 121.354C106.314 121.383 106.056 121.481 105.784 121.409C105.415 121.31 105.279 121.015 105.458 120.678C105.505 120.589 105.572 120.51 105.622 120.421C105.802 120.104 105.704 119.882 105.353 119.8C104.919 119.699 104.838 119.561 105.055 119.161C105.218 118.859 105.192 118.616 105.049 118.307C104.708 117.563 104.313 116.855 103.839 116.19C103.434 115.622 103.275 114.94 102.959 114.33C101.062 110.679 98.9957 107.126 96.8641 103.609C93.1595 97.497 89.1948 91.5552 85.1237 85.6831C85.0739 85.612 85.0211 85.5423 84.9385 85.4298C84.4976 86.1156 84.0766 86.7761 83.5753 87.3762C81.9083 89.3723 80.2321 91.3585 78.3454 93.1564C76.7602 94.6673 75.4797 96.4346 74.1632 98.1698C71.7645 101.332 69.0948 104.223 65.9108 106.62C65.1798 107.171 64.5132 107.808 63.8205 108.409C63.7355 108.483 63.6559 108.573 63.6039 108.671C62.4787 110.8 60.8408 112.471 58.9373 113.906C56.4551 115.777 53.9974 117.68 51.4502 119.464C50.9588 119.807 50.4858 120.175 50.0702 120.61C49.6783 121.022 49.3698 121.483 49.2191 122.039C49.0706 122.59 48.7805 123.008 48.1881 123.155C47.9761 123.208 47.8345 123.346 47.8153 123.585C47.7809 124.031 47.5168 124.23 47.0882 124.262C46.7843 124.285 46.5463 124.385 46.5279 124.756C46.5195 124.917 46.371 124.982 46.2195 124.985C46.0419 124.988 45.8636 124.972 45.686 124.965C45.5674 124.988 45.4564 124.955 45.3546 124.903C44.5096 124.479 43.5827 124.388 42.6688 124.256C42.13 124.178 41.6057 124.009 41.0569 123.998C40.9344 123.996 40.8479 123.916 40.7523 123.856C40.5617 123.84 40.3711 123.83 40.1813 123.807C39.9907 123.783 39.7848 123.76 39.7266 123.53C39.6669 123.294 39.7573 123.086 39.9585 122.97C40.2218 122.818 40.381 122.624 40.4094 122.313C40.4239 122.153 40.5632 122.081 40.7109 122.067C41.0393 122.037 41.1778 121.824 41.2161 121.536C41.2857 121.012 41.5001 120.633 42.0565 120.489C42.3213 120.42 42.5073 120.192 42.6282 119.95C43.4158 118.371 44.5976 117.077 45.6753 115.708C48.1605 112.553 50.782 109.518 53.643 106.696C54.5133 105.837 55.3889 104.983 56.3495 104.222C56.4612 104.133 56.5416 104.033 56.5883 103.89C57.2565 101.854 58.2032 99.9363 59.0804 97.9876C61.2403 93.1886 63.7654 88.587 66.5139 84.1041C66.5108 83.9725 66.5989 83.8967 66.6899 83.8255C67.8082 82.9537 68.7886 81.9327 69.8043 80.9499C71.0404 79.7544 72.2919 78.5726 73.6412 77.5049C74.4602 76.8574 75.3228 76.2673 76.2941 75.8517C76.8888 75.5968 77.5256 75.5241 78.1448 75.3901C78.8207 75.2439 79.221 74.9133 79.4758 74.2489C79.9389 73.0419 80.3606 71.8295 80.529 70.5459C80.803 68.4633 80.6676 66.4258 79.7491 64.4932C79.2937 63.5349 78.6094 62.8522 77.5402 62.6034C77.3236 62.5529 77.0511 62.5659 76.9248 62.3072L76.9255 62.308Z" fill="#1D204F"/>
<path d="M41.4189 111.144C40.0198 110.774 39.1174 109.789 38.3551 108.644C38.0742 108.221 37.7948 107.784 37.6065 107.315C37.1082 106.075 36.3176 105.044 35.4374 104.062C34.9445 103.513 34.4929 102.929 34.1944 102.249C34.0673 102.584 34.0979 103.12 34.2732 103.662C34.5097 104.391 34.9475 104.998 35.4381 105.572C36.0428 106.28 36.6651 106.973 36.8518 107.934C36.972 108.553 36.9904 109.173 36.9406 109.908C36.8824 109.366 36.8373 108.932 36.7891 108.498C36.6635 107.376 35.9754 106.577 35.2544 105.791C35.0225 105.539 34.8136 105.263 34.6085 104.988C33.827 103.938 33.6303 102.779 33.9403 101.513C34.1339 100.722 34.2847 99.9231 34.3995 99.1148C34.5143 98.3066 34.3658 97.5787 33.9341 96.8898C33.5821 96.3265 33.1664 95.8114 32.7792 95.2748C32.264 94.5615 31.7696 93.8374 31.7107 92.909C31.4841 93.6055 31.4734 94.3181 31.5767 95.033C31.6693 95.6721 31.9388 96.2484 32.2633 96.8003C32.5419 97.274 32.7286 97.7815 32.8105 98.331C32.5572 97.5756 32.0605 96.9556 31.6908 96.2668C31.021 95.0199 31.0777 93.7188 31.4895 92.4115C31.6954 91.7571 31.9081 91.1027 32.1638 90.4659C32.695 89.1417 32.5656 87.8895 31.8814 86.6527C31.5002 85.9646 31.1466 85.2589 30.8381 84.5318C30.3376 83.35 30.4355 82.1055 30.4547 80.8762C30.4723 79.7052 30.6108 78.538 30.4034 77.3684C30.2549 76.5311 29.9487 75.7527 29.5752 75.0011C28.3031 72.4401 28.7517 69.9893 30.0245 67.5898C30.4975 66.6981 31.0922 65.9174 32.0758 65.5217C32.3467 65.413 32.5074 65.204 32.5886 64.9025C33.3693 62.007 35.3823 60.4815 38.2219 59.9266C39.6608 59.6457 41.0852 59.746 42.4675 60.2802C44.6022 61.1061 45.9018 62.581 46.1047 64.9193C46.1253 65.0112 46.0978 65.0716 45.9952 65.0678C45.8904 65.064 45.8023 65.0073 45.7143 64.9576C44.2846 64.1501 42.7232 63.7551 41.1189 63.5056C40.2808 63.3755 39.9356 63.7238 39.9019 64.7318C40.1132 64.219 40.4982 63.958 40.926 63.7452C41.0301 63.6931 41.1709 63.6457 41.2383 63.7597C41.3011 63.8661 41.1656 63.9335 41.089 63.9909C40.6964 64.281 40.5594 64.6943 40.5288 65.1535C40.5089 65.4589 40.4668 65.7612 40.4124 66.0613C40.3374 66.4723 40.1507 66.6284 39.7175 66.6858C39.5973 66.6881 39.4771 66.6858 39.3684 66.6254C39.2184 66.4715 39.3638 66.3223 39.3983 66.1286C39.1312 66.2664 38.9 66.3973 38.6497 66.4776C37.755 66.7639 37.4098 67.4306 37.3838 68.3108C37.3723 68.6912 37.3608 69.0731 37.4373 69.4512C37.4749 69.638 37.4963 69.8431 37.4473 70.0199C37.3011 70.5427 37.53 70.8733 37.9188 71.1841C38.4783 71.6318 38.8648 72.2411 39.3225 72.7837C39.4863 72.9307 39.5705 73.1274 39.6639 73.3195C39.9302 74.0857 40.443 74.5204 41.2743 74.577C41.5376 74.5946 41.7917 74.711 42.0213 74.8564C42.094 74.9023 42.1897 74.9498 42.1698 75.0569C42.1514 75.1534 42.0611 75.1993 41.9746 75.2192C41.6769 75.2881 41.3845 75.3769 41.0929 75.4664C40.913 75.5215 40.6918 75.5675 40.7293 75.8277C40.7637 76.0627 40.9482 76.1576 41.1663 76.1882C41.5475 76.2418 41.9088 76.1331 42.2433 75.9838C42.7048 75.7779 43.2207 75.7022 43.6309 75.3623C43.823 75.2039 44.1001 75.2965 44.342 75.282C44.2838 75.2284 44.2057 75.2575 44.1407 75.236C44.0381 75.2024 43.9325 75.158 43.9394 75.0401C43.9455 74.9414 44.0549 74.9115 44.1407 74.8901C44.6236 74.7676 45.0836 74.5755 45.5574 74.4286C45.9945 74.2938 46.4399 74.3482 46.8739 74.4875C47.0867 74.5556 47.1823 74.698 47.1808 74.9153C47.1808 75.4328 47.0446 75.9234 46.8823 76.4079C46.3932 77.8636 45.7128 79.2291 44.9359 80.5517C44.3274 81.5888 43.9088 82.694 43.9707 83.9225C44.0282 85.0538 44.4445 86.0779 44.9665 87.0675C45.3354 87.7678 45.7832 88.4054 46.2616 89.0384C47.0362 90.064 47.2313 91.2113 46.6006 92.4107C46.4407 92.7153 46.293 93.0261 46.1177 93.3231C45.3982 94.5423 45.35 95.8251 45.7296 97.1623C45.9501 97.9361 46.3527 98.6096 46.7774 99.2771C47.2107 99.9567 47.5612 100.677 47.8268 101.438C47.8528 101.608 47.7633 101.733 47.6508 101.841C46.384 103.056 45.5276 104.571 44.6022 106.033C43.6141 107.595 42.7499 109.229 41.794 110.81C41.7052 110.957 41.644 111.146 41.4189 111.145V111.144Z" fill="#291514"/>
<path d="M76.9257 62.308C77.2135 62.3998 77.4974 62.5062 77.7898 62.5812C79.0099 62.8942 79.6107 63.8227 80.0416 64.8889C80.683 66.4755 80.8369 68.128 80.6998 69.831C80.5644 71.5149 80.0745 73.0862 79.4209 74.627C79.2433 75.0456 78.9754 75.2783 78.5514 75.3793C78.0447 75.4995 77.5388 75.6189 77.029 75.7261C76.0746 75.9258 75.2801 76.4662 74.4925 77.0073C73.1446 77.9335 71.9889 79.0846 70.7773 80.1715C69.535 81.2867 68.4313 82.5465 67.1348 83.6027C66.9289 83.7704 66.7215 83.938 66.5148 84.1048C66.5018 84.1056 66.4865 84.1018 66.4773 84.1079C64.6105 85.367 62.56 85.3233 60.4651 84.9506C60.2034 84.9039 59.9462 84.8327 59.6867 84.773C58.8456 84.7501 58.12 84.362 57.3722 84.0444C56.5088 83.6777 55.7327 83.158 54.9941 82.5947C54.1996 81.9893 53.3577 81.4604 52.489 80.9813C51.2169 80.2794 49.9165 79.6303 48.5678 79.0808C48.2081 78.9338 47.8093 78.9721 47.4611 78.7976C47.0508 78.359 47.0952 77.5844 47.5522 77.1803C47.742 77.1229 47.8438 77.2408 47.9119 77.3839C48.0489 77.6717 48.2908 77.8018 48.5747 77.9159C50.6773 78.7632 52.7591 79.6602 54.8112 80.6246C55.6148 81.0019 56.3833 81.465 57.2788 81.6349C58.671 81.899 59.8873 81.3739 60.5692 80.1256C61.2259 78.9239 61.3752 77.6686 60.8073 76.3805C60.5998 75.909 60.2983 75.4911 59.947 75.1252C58.4024 73.5164 56.6366 72.1861 54.7201 71.0518C53.6332 70.4081 52.4867 69.8831 51.3279 69.3832C50.6696 69.0993 50.0695 68.7135 49.4649 68.3354C49.3501 68.2635 49.298 68.1464 49.2146 68.0522C48.5992 67.5134 48.7806 66.8467 48.9169 66.1877C49.0676 66.1625 49.1595 66.2604 49.2337 66.3615C49.9402 67.3175 50.949 67.8042 52.0519 68.0806C54.2716 68.6362 56.4721 68.5696 58.6113 67.6871C60.0709 67.0855 61.0009 65.6872 60.8937 64.2551C60.8348 63.4576 60.5799 62.7098 60.2432 61.988C60.1804 61.8541 60.0748 61.724 60.1536 61.5579C61.813 61.9352 63.4984 61.7722 65.1746 61.7967C67.2274 61.8265 69.2641 62.1174 71.3146 62.1702C72.5499 62.2016 73.786 62.174 75.0214 62.1954C75.6567 62.2069 76.2912 62.2681 76.9257 62.3072V62.308Z" fill="#1E9DF1"/>
<path d="M60.1528 61.5585C60.4911 62.3101 60.8324 63.0549 60.9534 63.8884C61.1585 65.3028 60.5217 66.702 59.3009 67.4367C58.162 68.1218 56.9121 68.421 55.604 68.4953C54.3457 68.5672 53.0935 68.5366 51.8735 68.147C50.7767 67.7965 49.7633 67.328 49.0882 66.3323C49.0477 66.2726 48.9742 66.2358 48.9153 66.1884C48.9022 64.8382 48.6558 63.5057 48.655 62.1509C48.6535 60.2742 48.8448 58.412 48.9642 56.5444C48.9849 56.2268 48.9849 55.9068 48.9849 55.5884C48.9826 53.2938 49.0813 51.0045 49.3722 48.7274C49.5452 47.3765 49.8023 46.0409 50.1583 44.7252C50.1973 44.5813 50.1996 44.4581 50.1322 44.3218C49.5413 43.1278 49.3156 41.8335 49.1587 40.5316C48.8793 38.2155 48.7492 35.8864 48.7882 33.5543C48.8226 31.4923 48.854 29.4265 49.0745 27.3737C49.2229 25.9937 48.7017 24.9176 47.7029 24.0198C47.262 23.6233 47.0133 23.1112 46.8602 22.5494C46.6152 21.6539 46.3971 20.7523 46.2149 19.8415C46.0435 18.9865 45.5276 18.2885 45.1388 17.5323C45.0294 17.3187 44.9475 17.0876 44.8778 16.8572C44.8219 16.6712 44.7982 16.4531 45.0133 16.352C45.2138 16.2571 45.3455 16.4248 45.4564 16.561C45.8981 17.1067 46.2348 17.7221 46.5999 18.3183C46.6321 18.3704 46.6642 18.4217 46.727 18.5235C46.8143 18.3199 46.7699 18.1622 46.7354 18.0152C46.5471 17.2146 46.2433 16.4646 45.7511 15.7971C45.4075 15.3302 45.1518 14.8205 45.0554 14.2426C45.0248 14.0612 44.9283 13.8285 45.151 13.7298C45.3937 13.6226 45.5146 13.8553 45.6248 14.0184C46.0565 14.659 46.4782 15.3073 46.9459 15.9318C46.8173 15.1994 46.665 14.4791 46.1614 13.8951C45.9532 13.654 45.7389 13.4191 45.5207 13.1879C45.3401 12.9966 45.2253 12.7715 45.1771 12.5174C45.1442 12.346 45.1847 12.1738 45.3355 12.0727C45.4809 11.9748 45.6363 12.036 45.7603 12.1355C45.9203 12.2641 46.0374 12.3774 46.2065 12.1171C46.3458 11.9036 46.564 12.023 46.7048 12.1523C47.8514 13.2017 48.8387 14.349 48.9933 15.9915C49.0171 16.2449 49.1081 16.4799 49.2046 16.7164C49.3477 16.672 49.3416 16.5572 49.3821 16.4722C49.4702 16.2893 49.5383 16.0903 49.6569 15.9288C49.8023 15.7298 49.9669 15.4627 50.2662 15.579C50.5616 15.6938 50.4858 16.0015 50.4369 16.2204C50.0894 17.7741 50.4338 19.272 50.8731 20.7324C51.7243 23.5636 52.3014 26.4568 52.9673 29.3308C53.4586 31.4502 53.9898 33.5596 54.4613 35.6836C54.9129 37.7188 55.3867 39.7486 55.5198 41.8458C55.5696 42.6334 55.8367 43.4118 55.9064 44.2116C55.9431 44.6295 56.0066 45.0467 56.0181 45.4653C56.0656 47.1722 56.1046 48.8767 56.0625 50.5858C56.0112 52.6738 56.0319 54.7672 56.2707 56.8467C56.4077 58.0392 56.6802 59.2034 57.3966 60.2122C57.6155 60.5206 57.8696 60.7403 58.2515 60.8612C58.746 61.0174 59.2106 61.2684 59.6897 61.4751C59.8359 61.5378 59.9775 61.6488 60.1528 61.5593V61.5585Z" fill="#FBB2C3"/>
<path d="M47.5322 78.7622C48.6949 78.8648 49.6746 79.4625 50.6933 79.9432C52.4009 80.7492 54.0151 81.712 55.5275 82.8509C56.7713 83.7878 58.1858 84.381 59.6867 84.7736C59.6484 84.7767 59.6079 84.7728 59.5734 84.7851C58.5401 85.1609 57.425 85.3721 56.58 86.1437C55.7426 86.9083 55.3132 87.9163 55.0216 88.9856C54.7216 90.0824 54.6052 91.2075 54.4897 92.3365C54.3136 94.0594 54.1858 95.7853 54.0618 97.5113C53.9508 99.062 53.7955 100.607 53.5046 102.133C53.2681 103.373 52.8716 104.537 52.156 105.626C50.4538 108.215 48.4545 110.545 46.3252 112.78C44.7676 114.415 43.0868 115.921 41.491 117.516C40.7042 118.302 39.9495 119.088 39.6326 120.216C39.4283 120.944 38.7723 121.366 38.2105 121.823C37.628 122.296 37.0219 122.739 36.431 123.203C35.9541 123.577 35.6013 124.062 35.266 124.559C35.0158 124.93 34.7456 125.284 34.4088 125.581C34.2718 125.702 34.1057 125.818 33.9281 125.698C33.7322 125.566 33.7842 125.375 33.873 125.186C34.1555 124.583 34.5718 124.064 34.9231 123.503C34.9874 123.402 35.0977 123.32 35.0716 123.135C34.4279 123.569 33.8654 124.051 33.4253 124.667C32.9905 125.274 32.6844 125.979 32.0522 126.432C31.8669 126.566 31.6557 126.792 31.4506 126.619C31.2347 126.437 31.4406 126.197 31.5569 126.007C31.8876 125.463 32.2259 124.925 32.5581 124.383C32.6078 124.301 32.6407 124.209 32.7081 124.064C31.7957 124.593 31.2378 125.317 30.914 126.237C30.8084 126.537 30.666 126.82 30.428 127.047C30.2596 127.209 30.0614 127.251 29.8647 127.174C29.6435 127.088 29.7108 126.883 29.7498 126.71C29.7835 126.56 29.7942 126.435 29.5922 126.396C29.2998 126.34 29.2692 126.115 29.3427 125.894C29.8149 124.477 30.3859 123.122 31.7422 122.289C31.9879 122.139 32.2136 121.956 32.4494 121.703C32.0583 121.637 31.6985 121.718 31.3625 121.598C31.1628 121.527 30.9553 121.451 30.9584 121.203C30.9622 120.941 31.1796 120.827 31.3947 120.792C32.8749 120.557 33.9802 119.64 35.103 118.762C36.2656 117.853 37.2974 116.786 38.5021 115.927C38.6644 115.811 38.7746 115.663 38.8733 115.499C39.7053 114.114 40.5365 112.73 41.3731 111.348C41.416 111.277 41.4497 111.223 41.419 111.144C41.5698 111.089 41.6043 110.941 41.6732 110.824C43.0424 108.5 44.3375 106.131 45.8514 103.895C46.3727 103.124 46.936 102.385 47.6011 101.73C47.6731 101.66 47.7573 101.595 47.7665 101.483C47.7328 100.962 47.618 100.452 47.543 99.9361C47.3792 98.8132 47.3355 97.682 47.2445 96.5538C47.1289 95.124 47.2138 93.7027 47.2728 92.2806C47.3286 90.9213 47.4871 89.5657 47.5422 88.2064C47.631 86.0197 47.7282 83.8314 47.5874 81.6409C47.5307 80.7652 47.5851 79.8835 47.458 79.0102C47.445 78.9206 47.4634 78.8319 47.5322 78.763V78.7622Z" fill="#FBB2C3"/>
<path d="M49.2137 68.0523C50.3687 68.8827 51.676 69.4193 52.9557 70.0124C54.8593 70.8949 56.5913 72.0469 58.2048 73.3832C59.0291 74.066 59.8443 74.751 60.475 75.6327C61.3689 76.8826 61.4661 78.2075 60.9212 79.6113C60.6816 80.2282 60.3211 80.7632 59.8045 81.1765C58.9977 81.8209 58.0831 81.9273 57.0988 81.7023C56.3564 81.5332 55.7035 81.1604 55.0292 80.8374C52.8264 79.7842 50.5861 78.8168 48.3136 77.9243C48.0947 77.8386 47.9646 77.6825 47.8536 77.4911C47.7939 77.3878 47.7985 77.2316 47.6332 77.2102C47.6492 76.8222 47.8039 76.4471 47.7403 76.0522C47.6653 75.5899 47.624 75.1069 47.0959 74.8964C47.1181 74.7081 47.0101 74.6163 46.8479 74.5757C46.3481 74.4502 45.849 74.3851 45.3523 74.6002C44.9076 74.7916 44.4422 74.9209 43.9424 75.0411C44.1797 75.2118 44.4981 75.0625 44.7117 75.3021C44.4499 75.4506 44.1828 75.3847 43.9279 75.3855C43.7718 75.3855 43.6217 75.3603 43.5506 75.5516C43.5353 75.5937 43.4832 75.6389 43.4396 75.6511C42.6979 75.8578 42.0297 76.3139 41.223 76.3032C41.0638 76.3009 40.9184 76.2672 40.789 76.1823C40.6222 76.0728 40.5808 75.9014 40.5915 75.7139C40.6015 75.5309 40.7217 75.4598 40.8839 75.4161C41.3011 75.3028 41.7144 75.1789 42.1828 75.0434C41.595 74.7112 40.9903 74.5665 40.3719 74.4877C40.1744 74.4624 40.0894 74.3997 40.0244 74.2206C39.9035 73.8846 39.7098 73.583 39.5177 73.283C39.6157 73.2524 39.6891 73.2845 39.7687 73.4024C39.4412 72.9347 39.3485 72.5681 39.4259 72.0614C39.4871 71.6611 39.5345 71.2585 39.6011 70.859C39.6455 70.5911 39.6279 70.3293 39.546 70.0714C39.5736 69.8563 39.5315 69.6864 39.272 69.6703C39.1052 69.6596 38.9926 69.7116 39.0332 69.9114C39.1273 70.9064 39.1059 71.9114 39.3294 72.8919C39.1802 72.8743 39.1296 72.7472 39.0585 72.6462C38.5847 71.9787 38.0841 71.3351 37.3983 70.8689C37.2491 70.7671 37.246 70.6538 37.2835 70.51C37.3876 70.1074 37.3516 69.7017 37.3172 69.2945C37.2728 68.774 37.2361 68.2536 37.3562 67.7346C37.4978 67.12 37.8323 66.6753 38.4347 66.448C38.825 66.3011 39.2154 66.1526 39.5705 65.8923C39.6172 66.1771 39.3807 66.3447 39.3501 66.5781C39.4373 66.7167 39.5858 66.7159 39.7182 66.7197C39.8912 66.7251 39.657 66.624 39.742 66.5957C40.0841 66.6003 40.2571 66.409 40.3045 66.0921C40.3527 65.7653 40.3956 65.4362 40.4216 65.1063C40.4668 64.5399 40.6543 64.0638 41.1855 63.7783C40.5747 63.9873 40.0749 64.3164 39.8767 64.9961C39.7848 64.5782 39.794 64.1786 39.9394 63.7875C40.0068 63.6053 40.1384 63.5257 40.3367 63.4852C41.6516 63.2165 42.8303 63.7638 44.0404 64.0998C44.6788 64.2766 45.2704 64.5843 45.8513 64.9057C45.9218 64.9448 46.0159 65.1216 46.1047 64.9149C46.159 65.1147 46.3297 65.2027 46.4782 65.3175C47.5528 66.148 48.397 67.1621 48.9275 68.4235C48.9474 68.4702 48.9734 68.5146 49.0017 68.5567C49.0139 68.5758 49.0384 68.5865 49.0759 68.6156C49.2038 68.4434 49.2351 68.2543 49.2137 68.0492V68.0523Z" fill="#FBB2C3"/>
<path d="M42.0282 130.642C41.8445 130.907 41.5437 130.888 41.2773 130.939C41.1373 130.965 41.0217 130.869 40.9811 130.742C40.6857 129.819 40.1032 129.076 39.4963 128.346C39.4312 128.267 39.36 128.198 39.1924 128.243C39.3692 128.518 39.5406 128.774 39.7029 129.036C39.97 129.465 40.2372 129.897 40.3703 130.391C40.44 130.651 40.5242 130.942 40.1859 131.08C39.6937 131.281 39.5001 131.195 39.3233 130.75C39.0814 130.139 38.8656 129.516 38.427 128.975C38.2793 129.142 38.4048 129.281 38.4699 129.413C38.6956 129.872 38.851 130.351 38.8839 130.861C38.9023 131.139 38.616 131.381 38.2701 131.386C38.0106 131.389 37.8973 131.242 37.8805 130.975C37.856 130.593 37.7098 130.238 37.5537 129.892C37.4825 129.735 37.4312 129.558 37.2368 129.442C37.1541 129.816 37.4358 130.075 37.4603 130.399C37.4764 130.611 37.4963 130.826 37.5131 131.04C37.5368 131.347 37.36 131.515 37.1006 131.541C36.2074 131.631 35.3271 131.813 34.4293 131.889C33.9655 131.928 33.4994 131.806 33.0187 131.976C32.77 132.065 32.3957 131.863 32.0658 131.834C31.8783 131.817 31.6892 131.778 31.5002 131.789C31.1351 131.81 30.7838 131.843 30.4516 131.603C30.2932 131.488 30.0544 131.529 29.8584 131.598C29.6441 131.675 29.5346 131.588 29.4329 131.404C29.0119 130.636 29.0678 130.466 29.8821 130.127C31.0846 129.628 32.3612 129.401 33.6203 129.11C33.7435 129.082 33.8675 129.059 33.9915 129.033C34.1339 129.121 34.2303 129.26 34.3597 129.364C34.9115 129.81 35.3922 129.841 36.003 129.472C36.3704 129.25 36.7753 129.108 37.1404 128.867C37.5981 128.564 38.0213 128.224 38.4193 127.858C38.6375 127.657 39.0523 127.568 39.0439 127.238C39.0347 126.871 38.6643 126.629 38.4951 126.306C38.4431 126.205 38.3214 126.156 38.2747 126.046C38.3137 126.015 38.3573 125.987 38.3903 125.95C38.8135 125.482 39.2613 125.067 39.97 125.21C39.9983 125.236 40.0267 125.264 40.0374 125.301C40.29 126.208 40.9589 126.488 41.8154 126.479C42.1713 126.476 42.528 126.5 42.8839 126.452C43.5306 126.364 44.11 126.13 44.6206 125.718C44.916 125.479 45.2367 125.275 45.6202 125.202C45.6232 125.24 45.6117 125.288 45.6301 125.315C45.9929 125.856 45.9837 125.894 45.6018 126.502C45.4633 126.722 45.2375 126.903 45.2359 127.197C44.8464 127.183 44.5341 127.409 44.2088 127.561C43.1388 128.06 42.2356 128.756 41.7427 129.877C41.5799 130.246 41.6751 130.501 42.0282 130.642Z" fill="#E5E4DB"/>
<path d="M110.446 121.682C110.723 121.589 110.842 121.679 110.867 121.98C110.895 122.326 111.076 122.66 110.86 123.013C110.759 123.178 110.932 123.244 111.04 123.333C111.354 123.591 111.316 123.902 110.933 124.109C111.078 124.221 111.213 124.331 111.352 124.436C111.559 124.591 111.62 124.799 111.554 125.039C111.508 125.207 111.456 125.409 111.624 125.49C112.027 125.688 112.121 126.096 112.291 126.433C112.572 126.991 112.927 127.522 113.061 128.149C113.243 129.005 113.469 129.864 112.879 130.664C112.765 130.818 112.647 130.985 112.459 131.04C112.053 131.158 111.788 131.473 111.47 131.712C111.4 131.764 111.357 131.852 111.246 131.8C111.128 131.746 111.129 131.646 111.135 131.542C111.164 131.072 110.989 130.88 110.531 130.874C110.223 130.87 109.785 131.311 109.85 131.618C109.916 131.923 109.769 131.909 109.557 131.947C108.743 132.095 108.158 131.702 107.655 131.149C107.527 131.007 107.381 130.886 107.244 130.763C106.735 130.312 106.768 129.682 106.712 129.112C106.656 128.538 106.647 127.949 106.752 127.363C106.806 127.065 106.946 126.822 107.061 126.559C107.127 126.409 107.323 126.226 106.95 126.177C106.799 126.157 106.789 125.657 106.944 125.462C107.049 125.33 107.127 125.187 107.194 125.036C107.236 124.94 107.247 124.847 107.146 124.764C106.859 124.532 106.829 124.218 107.067 123.954C107.222 123.784 107.446 123.67 107.043 123.474C106.786 123.348 106.911 122.962 106.861 122.698C106.804 122.396 106.785 122.073 106.849 121.759C107.019 121.755 107.006 121.953 107.123 122.008C107.404 122.112 107.49 122.323 107.492 122.609C107.493 123.131 107.496 123.653 107.515 124.175C107.531 124.619 107.702 125.017 107.777 125.44C107.824 125.709 107.937 125.963 107.938 126.252C107.938 126.591 108.183 126.746 108.596 126.685C109.024 126.622 109.438 126.481 109.871 126.44C110.01 126.427 110.15 126.41 110.288 126.39C110.855 126.308 111.143 125.924 111.041 125.369C110.969 124.985 110.906 124.606 110.729 124.238C110.582 123.933 110.645 123.545 110.584 123.194C110.532 122.894 110.503 122.593 110.415 122.298C110.355 122.097 110.27 121.879 110.445 121.683L110.446 121.682Z" fill="#E4E4DB"/>
<path d="M110.446 121.682C110.414 121.954 110.471 122.218 110.574 122.462C110.65 122.646 110.677 122.825 110.673 123.017C110.664 123.412 110.704 123.855 110.826 124.172C110.98 124.573 111.059 124.973 111.149 125.379C111.27 125.931 110.928 126.449 110.37 126.497C109.812 126.544 109.269 126.645 108.728 126.781C108.092 126.94 107.798 126.681 107.84 126.033C107.848 125.918 107.843 125.808 107.769 125.705C107.512 125.344 107.517 124.887 107.427 124.487C107.296 123.898 107.367 123.258 107.391 122.641C107.403 122.325 107.313 122.138 107 122.076C107.463 121.957 107.81 121.628 108.213 121.401C108.78 121.082 109.374 121.207 109.959 121.341C110.097 121.373 110.226 121.422 110.368 121.375C110.477 121.455 110.432 121.575 110.447 121.68L110.446 121.682Z" fill="#D8D6C6"/>
<path d="M45.6201 125.201C44.4345 126.054 43.216 126.792 41.6516 126.593C40.9497 126.503 40.3297 126.347 40.0343 125.611C39.9807 125.477 39.9371 125.351 39.9692 125.208C40.205 124.848 40.443 124.489 40.6764 124.128C40.7285 124.047 40.8111 123.969 40.7522 123.855C41.8643 123.961 42.955 124.2 44.0572 124.369C44.6351 124.457 45.1815 124.664 45.6867 124.965C45.6645 125.044 45.6423 125.123 45.6201 125.202V125.201Z" fill="#FBB2C3"/>
<path d="M42.0283 130.642C41.99 130.641 41.9495 130.648 41.9143 130.637C41.7803 130.597 41.6027 130.763 41.5285 130.633C41.4374 130.473 41.4688 130.266 41.5407 130.081C42.0459 128.783 43.0333 127.982 44.264 127.428C44.4837 127.33 44.7087 127.239 44.9177 127.12C45.0646 127.037 45.1496 127.087 45.2361 127.196C45.4902 127.976 45.6471 128.764 45.4856 129.589C45.4542 129.749 45.4649 129.92 45.4695 130.085C45.4779 130.37 45.3241 130.457 45.0807 130.391C44.5434 130.243 44.0221 130.424 43.4948 130.452C43.0042 130.478 42.5174 130.575 42.0291 130.642H42.0283Z" fill="#D8D6C6"/>
<path d="M38.2739 126.045C38.4905 126.074 38.5823 126.242 38.6856 126.405C38.7997 126.587 38.9191 126.766 39.0523 126.935C39.2559 127.192 39.2138 127.396 38.9375 127.594C38.4997 127.908 38.1177 128.299 37.6891 128.619C37.324 128.892 36.9536 129.202 36.5004 129.334C36.1032 129.451 35.8039 129.768 35.3608 129.807C34.8036 129.854 34.2318 129.569 33.9907 129.034C35.5529 128.231 36.9643 127.211 38.2739 126.046V126.045Z" fill="#D8D6C7"/>
<path d="M110.367 121.376C110.367 121.681 110.181 121.525 110.063 121.489C109.562 121.335 109.062 121.24 108.536 121.372C108.251 121.443 108.018 121.605 107.821 121.787C107.575 122.016 107.315 122.102 106.998 122.078C106.948 121.971 106.898 121.865 106.849 121.758C106.836 121.57 106.884 121.34 106.575 121.354C107.541 121.067 108.556 121.126 109.532 120.92C109.803 120.864 110.078 120.827 110.351 120.782C110.218 120.984 110.371 121.178 110.366 121.376H110.367Z" fill="#EDA981"/>
<path d="M84.7999 84.815C84.7922 84.906 84.7624 84.9619 84.6996 84.9902C84.6108 85.0308 84.5572 84.9634 84.5037 84.9129C84.2741 84.6971 84.0896 84.443 83.8431 84.234C82.9821 83.5008 82.1302 82.7545 81.3564 81.9256C81.1535 81.7082 80.9936 81.4687 80.8665 81.2031C80.8206 81.1082 80.7846 80.9926 80.8857 80.926C80.992 80.8556 81.0877 80.939 81.1398 81.0278C81.8753 82.2876 83.08 83.0767 84.1302 84.022C84.3552 84.2248 84.5396 84.4721 84.7402 84.7017C84.7716 84.7377 84.7861 84.7889 84.7999 84.8157V84.815Z" fill="#252223"/>
<path d="M39.3293 72.8933C39.0905 72.542 39.0584 72.1417 39.027 71.733C38.978 71.09 39.0622 70.4379 38.8938 69.8034C39.2023 69.6197 39.4166 69.7399 39.5811 70.0177C39.7893 70.2451 39.7265 70.5214 39.7036 70.7824C39.6745 71.1115 39.6324 71.4421 39.5666 71.7659C39.4311 72.4341 39.5023 73.0487 40.0266 73.6036C39.7709 73.55 39.7281 73.2898 39.5161 73.2844C39.5099 73.1268 39.3837 73.0273 39.3278 72.8933H39.3293Z" fill="#301812"/>
<path d="M39.742 66.5979C39.8369 66.6944 39.9946 66.5933 40.0872 66.7051C39.7252 66.9179 39.4458 66.8696 39.3494 66.5803L39.742 66.5987V66.5979Z" fill="#976146"/>
<path d="M78.0683 73.6289C78.0438 73.8134 77.8869 73.8287 77.7576 73.8601C77.1292 74.0124 76.5138 74.2076 75.8984 74.4035C73.815 75.0656 72.184 76.3292 70.8262 78.0284C70.132 78.8971 69.4186 79.7735 68.517 80.457C68.3249 80.6024 68.1266 80.7402 67.9246 80.8711C67.8342 80.93 67.7179 81.0226 67.6268 80.8803C67.5312 80.731 67.6406 80.6506 67.7592 80.581C68.4014 80.2014 68.9395 79.6954 69.4355 79.1474C70.2544 78.2427 71.0145 77.2867 71.8702 76.4127C72.7611 75.5026 73.8235 74.8704 74.9937 74.4066C75.9023 74.0468 76.8315 73.7476 77.7851 73.5271C77.9084 73.4988 78.0377 73.4161 78.0691 73.6297L78.0683 73.6289Z" fill="#1D204F"/>
<path d="M66.9318 68.2558C67.2042 68.2558 67.4208 68.2642 67.6367 68.2519C67.7415 68.2466 67.8533 68.2068 67.8717 68.356C67.89 68.5038 67.7867 68.5543 67.6589 68.5673C67.6336 68.5696 67.6076 68.5719 67.5823 68.5703C66.9065 68.5275 66.2368 68.6308 65.5632 68.6507C63.9383 68.6982 62.3157 68.7716 60.7742 69.3763C60.6678 69.4184 60.5553 69.4291 60.5124 69.3135C60.4535 69.1528 60.5874 69.09 60.7076 69.0441C61.4217 68.7724 62.1687 68.6155 62.9196 68.5091C64.2667 68.3193 65.6306 68.343 66.931 68.2558H66.9318Z" fill="#1D204F"/>
<path d="M65.8549 65.0487C64.7657 65.0365 63.7891 64.8015 62.8668 64.34C62.6969 64.255 62.5147 64.1945 62.3425 64.1134C62.2415 64.0659 62.1098 64.017 62.1856 63.8639C62.2514 63.7315 62.3662 63.7506 62.481 63.8042C62.8484 63.9756 63.2112 64.1601 63.5863 64.3139C64.6609 64.754 65.7761 64.7946 66.9104 64.6285C67.499 64.542 68.0906 64.477 68.6639 64.304C68.7818 64.268 68.9486 64.245 68.9976 64.3958C69.0588 64.5818 68.8728 64.5841 68.7619 64.6155C68.1021 64.8045 67.4247 64.9117 66.7435 64.9645C66.4274 64.989 66.1182 65.0977 65.8549 65.0479V65.0487Z" fill="#1D204F"/>
<path d="M64.6373 80.4363C64.6549 80.4363 64.5906 80.4386 64.5271 80.4363C64.4268 80.4309 64.3028 80.4424 64.312 80.2909C64.3204 80.163 64.426 80.1393 64.5347 80.1309C64.6863 80.1186 64.8394 80.114 64.9886 80.0865C65.7548 79.9457 66.3204 79.4704 66.8225 78.9231C67.392 78.3024 67.8298 77.5928 68.1107 76.7907C68.1619 76.6438 68.1964 76.5006 68.2048 76.3468C68.2109 76.2312 68.279 76.1478 68.4023 76.1638C68.524 76.1799 68.5079 76.2917 68.5056 76.3774C68.4926 76.8229 68.3089 77.2254 68.1099 77.602C67.4922 78.7685 66.7 79.7757 65.4226 80.2893C65.1976 80.3796 64.9649 80.4416 64.6381 80.4363H64.6373Z" fill="#1D204F"/>
<path d="M79.5204 64.8819C79.4844 65.0043 79.4163 65.0449 79.2915 65.0081C78.4825 64.7678 77.6597 64.5673 76.9265 64.1241C76.8155 64.0568 76.7343 63.9856 76.8063 63.8539C76.8729 63.7322 76.9793 63.7705 77.0688 63.8279C77.737 64.2619 78.5108 64.4219 79.2517 64.6668C79.3673 64.7051 79.5081 64.715 79.5219 64.8811L79.5204 64.8819Z" fill="#1D204F"/>
<path d="M77.7476 71.0969C77.495 71.0969 77.3037 71.0999 77.1131 71.0953C77.0036 71.093 76.8628 71.1183 76.859 70.9461C76.8551 70.7693 76.9967 70.7961 77.1062 70.793C77.6014 70.7785 78.0966 70.8206 78.5903 70.7241C78.8758 70.6682 79.1689 70.6545 79.4376 70.5289C79.5095 70.4953 79.593 70.4692 79.645 70.545C79.7085 70.6384 79.655 70.7211 79.57 70.767C79.4491 70.832 79.348 70.9246 79.1972 70.9484C78.6951 71.0249 78.1976 71.1313 77.7468 71.0984L77.7476 71.0969Z" fill="#1D204F"/>
<path d="M79.0373 68.1118C78.6438 68.0162 78.1639 68.0774 77.7185 67.9052C77.6144 67.8646 77.4583 67.8524 77.4981 67.7016C77.5401 67.5424 77.6879 67.5722 77.8172 67.6044C78.2964 67.7253 78.7854 67.7751 79.2776 67.8026C79.4031 67.8095 79.5661 67.7942 79.56 67.971C79.5547 68.1172 79.4046 68.1088 79.2906 68.1118C79.2271 68.1134 79.1635 68.1118 79.0365 68.1118H79.0373Z" fill="#1D204F"/>
<path d="M55.3629 59.3145C55.4594 59.316 55.4877 59.3833 55.5091 59.4614C55.9079 60.9287 57.0345 61.7844 58.1727 62.6301C58.5799 62.9325 58.9878 63.2348 59.382 63.5547C59.4807 63.6343 59.7081 63.7247 59.5611 63.903C59.4226 64.0698 59.3208 63.8624 59.2228 63.7897C58.2331 63.058 57.2037 62.3753 56.3388 61.4889C55.8191 60.9562 55.3912 60.3607 55.2496 59.6053C55.2106 59.3986 55.2458 59.3137 55.3629 59.3152V59.3145Z" fill="#1D204F"/>
<path d="M44.6274 72.6147C44.518 73.0204 44.485 73.599 43.9516 73.9633C43.6776 74.1509 43.4204 74.1287 43.1755 73.9549C42.4039 73.4092 42.5356 71.5485 43.3699 71.113C43.7441 70.9178 44.1138 71.0212 44.3358 71.3832C44.5187 71.6817 44.6274 72.0881 44.6282 72.6147H44.6274Z" fill="#CC544E"/>
<path d="M45.3149 65.8035C45.3654 66.1992 45.2238 66.5559 44.9368 66.8246C44.7087 67.0389 44.4347 67.2157 44.0749 67.0725C43.6563 66.9057 43.4886 66.5528 43.4182 66.1602C43.3577 65.8242 43.3861 65.4805 43.5407 65.1545C43.7848 64.6424 44.1063 64.4373 44.5801 64.5207C44.9345 64.5827 45.2666 64.9983 45.3126 65.4468C45.324 65.5601 45.3141 65.6757 45.3141 65.8028L45.3149 65.8035Z" fill="#CC544E"/>
<path d="M46.1461 67.1443C47.5567 68.3674 47.3952 69.7321 45.6968 70.6812C45.8307 70.0612 45.5108 69.478 45.6838 68.8595C45.8415 68.2947 45.8284 67.6854 46.1453 67.1443H46.1461Z" fill="#973E2F"/>
<path d="M43.0929 75.4995C42.799 75.7284 42.5388 75.7513 42.2846 75.6312C42.0068 75.5003 41.7412 75.5745 41.4695 75.6189C41.3455 75.6388 41.2598 75.6955 41.272 75.8455C41.2759 75.8922 41.4435 75.9542 41.2713 75.9871C41.1901 76.0032 41.1266 75.9542 41.1167 75.86C41.1052 75.7514 41.1465 75.6595 41.2131 75.5814C41.3685 75.4 41.9356 75.2845 42.1691 75.3824C42.6023 75.5631 42.636 75.5684 43.0937 75.5003L43.0929 75.4995Z" fill="#C37141"/>
<path d="M41.7312 73.6119C41.7549 72.9721 41.3768 72.2679 42.1468 71.6938C41.8536 72.2794 41.7679 72.8113 41.9501 73.3693C41.9883 73.4864 41.9592 73.4964 41.7312 73.6119Z" fill="#55291A"/>
<path d="M42.7805 64.2795C42.9259 64.3722 43.0461 64.4502 42.9274 64.6117C42.6557 64.9829 42.6465 65.3809 42.8241 65.8494C42.5822 65.7254 42.5294 65.5478 42.4912 65.3748C42.4491 65.185 42.472 64.9906 42.6006 64.8337C42.7269 64.6798 42.7368 64.4908 42.7805 64.2795Z" fill="#5A2D1B"/>
<path d="M39.5811 70.0186C39.3706 69.8877 39.1609 69.7545 38.8938 69.8043C38.9252 69.6351 39.0109 69.5417 39.2 69.5509C39.3997 69.5609 39.5628 69.619 39.6829 69.7905C39.7847 69.9351 39.6041 69.9382 39.5811 70.0186Z" fill="#9D6748"/>
<path d="M43.6975 75.2667C43.934 75.1848 44.1759 75.2253 44.5111 75.2544C44.1812 75.3485 43.9424 75.2911 43.6975 75.2667Z" fill="#422912"/>
<path d="M46.097 68.3338C46.097 68.0652 46.0909 67.8868 46.1001 67.7093C46.1039 67.6289 46.0809 67.5171 46.2064 67.4965C46.3082 67.4796 46.3687 67.5478 46.4246 67.6212C46.5409 67.7751 46.6519 67.9396 46.6772 68.1287C46.7483 68.6652 46.7032 69.1972 46.5195 69.7085C46.4506 69.9006 46.3098 70.0552 46.1467 70.1838C46.0748 70.2404 45.9967 70.2955 45.9041 70.2511C45.797 70.1991 45.8467 70.0935 45.8544 70.0139C45.9095 69.4207 46.1552 68.852 46.0962 68.3323L46.097 68.3338Z" fill="#F7F2F0"/>
</g>
<defs>
<clipPath id="clip0_76_367">
<rect width="84.4429" height="120" fill="white" transform="translate(28.8176 12)"/>
</clipPath>
</defs>
</svg>
