<svg width="123" height="142" viewBox="0 0 123 142" fill="none" xmlns="http://www.w3.org/2000/svg">
<path d="M96.4276 126.79L96.3798 127.433C96.5626 126.611 96.7034 125.749 96.7924 124.899C97.1018 123.165 97.3828 121.158 97.1828 120.434C96.629 118.429 94.0882 116.353 93.5975 115.967C93.5731 115.948 93.5545 115.934 93.541 115.923C93.5308 115.901 93.5187 115.874 93.5041 115.842L87.4729 80.7324L88.7678 59.1553C88.7678 59.1553 88.7725 59.1473 88.7794 59.1356C88.7809 59.133 88.782 59.1312 88.7838 59.1283C88.7871 59.1228 88.7911 59.1163 88.7951 59.109C88.798 59.1039 88.801 59.0988 88.8046 59.0926C88.8097 59.0838 88.8152 59.0743 88.821 59.0637C88.8247 59.0575 88.828 59.0513 88.832 59.0448C88.8382 59.0338 88.8447 59.0221 88.852 59.0097C88.8575 59.0002 88.863 58.9904 88.8688 58.9802C88.8765 58.9667 88.8838 58.9532 88.8922 58.9382C88.898 58.928 88.9038 58.9167 88.91 58.9061C88.9192 58.8897 88.9279 58.8733 88.9381 58.8554C88.9454 58.8419 88.9535 58.8269 88.9611 58.8127C88.9706 58.7952 88.9797 58.7784 88.9899 58.7598C88.9899 58.7598 88.9899 58.7598 88.9899 58.7594C90.1082 56.6835 94.7931 46.8879 87.6889 40.1675L80.1239 53.0066L79.5497 48.0298L79.5964 53.9023C79.5964 53.9023 77.9316 64.9661 78.195 68.6492C78.4052 71.5887 79.1093 81.1188 79.1093 81.1188C79.1093 81.1188 79.5285 89.2018 80.1371 91.9528C80.3808 93.0546 84.8187 106.498 87.0858 113.342L87.8597 120.047C87.6951 121.749 87.7451 124.078 88.6123 126.571C89.1986 126.138 90.511 125.511 91.2016 125.277C91.168 125.152 91.368 125.47 91.7036 125.98C92.4377 127.393 93.549 128.886 94.4746 129.323C94.6891 129.469 94.8949 129.565 95.0854 129.592C95.3053 129.623 95.83 129.929 96.1762 129.661C96.2437 129.646 96.3116 129.626 96.3802 129.592C96.5743 129.495 96.5061 128.654 96.2941 127.426C96.3295 127.261 96.3751 127.045 96.4276 126.79Z" fill="#FBB2C3"/>
<path d="M89.7615 66.1163C93.8001 66.1163 97.074 62.8423 97.074 58.8037C97.074 54.7651 93.8001 51.4912 89.7615 51.4912C85.7229 51.4912 82.449 54.7651 82.449 58.8037C82.449 62.8423 85.7229 66.1163 89.7615 66.1163Z" fill="#171A3F"/>
<path d="M89.7615 66.1163C93.8001 66.1163 97.074 62.8423 97.074 58.8037C97.074 54.7651 93.8001 51.4912 89.7615 51.4912C85.7229 51.4912 82.449 54.7651 82.449 58.8037C82.449 62.8423 85.7229 66.1163 89.7615 66.1163Z" fill="black" fill-opacity="0.2"/>
<path d="M89.7615 66.1163C93.8001 66.1163 97.074 62.8423 97.074 58.8037C97.074 54.7651 93.8001 51.4912 89.7615 51.4912C85.7229 51.4912 82.449 54.7651 82.449 58.8037C82.449 62.8423 85.7229 66.1163 89.7615 66.1163Z" fill="black" fill-opacity="0.2"/>
<path d="M96.8209 59.6469C96.6746 63.4872 94.1944 66.6004 90.4898 67.6139C90.1859 67.6971 90.3147 68.1703 90.62 68.0868C94.5479 67.012 97.1566 63.716 97.3112 59.6465C97.3233 59.3309 96.8329 59.3317 96.8209 59.6469Z" fill="#171A3F"/>
<path d="M96.8209 59.6469C96.6746 63.4872 94.1944 66.6004 90.4898 67.6139C90.1859 67.6971 90.3147 68.1703 90.62 68.0868C94.5479 67.012 97.1566 63.716 97.3112 59.6465C97.3233 59.3309 96.8329 59.3317 96.8209 59.6469Z" fill="black" fill-opacity="0.2"/>
<path d="M96.8209 59.6469C96.6746 63.4872 94.1944 66.6004 90.4898 67.6139C90.1859 67.6971 90.3147 68.1703 90.62 68.0868C94.5479 67.012 97.1566 63.716 97.3112 59.6465C97.3233 59.3309 96.8329 59.3317 96.8209 59.6469Z" fill="black" fill-opacity="0.2"/>
<path d="M97.1939 60.1385C97.218 63.178 96.2526 65.9932 94.3463 68.3654C94.1504 68.6091 94.4952 68.9582 94.6933 68.7123C96.6802 66.2398 97.7098 63.3123 97.6843 60.1385C97.6817 59.8233 97.1914 59.8226 97.1939 60.1385Z" fill="#171A3F"/>
<path d="M97.1939 60.1385C97.218 63.178 96.2526 65.9932 94.3463 68.3654C94.1504 68.6091 94.4952 68.9582 94.6933 68.7123C96.6802 66.2398 97.7098 63.3123 97.6843 60.1385C97.6817 59.8233 97.1914 59.8226 97.1939 60.1385Z" fill="black" fill-opacity="0.2"/>
<path d="M97.1939 60.1385C97.218 63.178 96.2526 65.9932 94.3463 68.3654C94.1504 68.6091 94.4952 68.9582 94.6933 68.7123C96.6802 66.2398 97.7098 63.3123 97.6843 60.1385C97.6817 59.8233 97.1914 59.8226 97.1939 60.1385Z" fill="black" fill-opacity="0.2"/>
<path d="M75.1025 33.9775C75.1025 33.9775 82.0364 33.512 84.344 33.6542C86.8435 33.8082 94.2359 35.2315 94.2359 35.2315L96.2984 43.27L92.1228 50.7303L77.0767 46.246" fill="#FBB2C3"/>
<path d="M98.4004 60.6633C91.9857 60.6633 86.7856 55.4632 86.7856 49.0486C86.7856 42.6339 91.9857 37.4338 98.4004 37.4338C104.815 37.4338 110.021 42.3431 110.021 48.7578C110.021 55.1724 104.815 60.6633 98.4004 60.6633Z" fill="#1D204F"/>
<path d="M98.4004 60.6633C91.9857 60.6633 86.7856 55.4632 86.7856 49.0486C86.7856 42.6339 91.9857 37.4338 98.4004 37.4338C104.815 37.4338 110.021 42.3431 110.021 48.7578C110.021 55.1724 104.815 60.6633 98.4004 60.6633Z" fill="black" fill-opacity="0.2"/>
<path d="M110.028 47.2171L105.868 33.6031L103.94 34.4291C103.94 34.4291 100.044 29.5924 98.1527 29.5548C95.4055 29.4997 89.4695 36.2938 89.4695 36.2938L98.5843 50.4847L110.028 47.2171Z" fill="#FBB2C3"/>
<path opacity="0.2" d="M110.028 47.2172L108.606 41.8591C104.558 44.9566 98.5758 51.2494 96.7272 43.8406C96.2759 44.5097 95.9581 45.2613 95.7461 46.065L98.5849 50.4847L110.028 47.2172Z" fill="#EC204F"/>
<path d="M103.1 41.1789C103.019 41.1789 102.94 41.1304 102.907 41.0498C102.863 40.9432 102.914 40.821 103.02 40.7765C103.549 40.5572 104.409 40.0549 104.464 39.6419C104.471 39.5948 104.49 39.4514 104.244 39.2613C104.153 39.1906 104.136 39.0592 104.207 38.968C104.277 38.8768 104.409 38.86 104.5 38.9308C104.86 39.2095 104.904 39.5018 104.879 39.6977C104.773 40.4821 103.343 41.0954 103.18 41.1629C103.154 41.1738 103.127 41.1789 103.1 41.1789Z" fill="#485157"/>
<path d="M103.064 43.1454C102.953 43.1454 102.888 43.141 102.884 43.1407C102.769 43.1319 102.683 43.0312 102.692 42.9163C102.701 42.801 102.803 42.7171 102.916 42.7237C103.025 42.7324 105.574 42.897 106.341 40.7783C106.38 40.6696 106.499 40.6138 106.608 40.6528C106.717 40.6922 106.773 40.8119 106.733 40.9203C105.984 42.9911 103.721 43.1454 103.064 43.1454Z" fill="#485157"/>
<path d="M110.028 47.4261C109.938 47.4261 109.856 47.3681 109.828 47.278L105.737 33.8868L104.023 34.6213C103.936 34.6581 103.836 34.6333 103.778 34.5603C102.711 33.236 99.62 29.7933 98.1486 29.7638C98.1355 29.7634 98.1216 29.7634 98.1081 29.7634C95.4831 29.7634 91.0185 34.7862 90.9733 34.8372C90.8966 34.9241 90.7646 34.9317 90.6781 34.8555C90.5916 34.7792 90.5832 34.6472 90.6599 34.5607C90.8496 34.3454 95.3386 29.2847 98.157 29.346C99.971 29.3825 103.362 33.3976 104.002 34.1754L105.785 33.4114C105.841 33.3885 105.902 33.3888 105.956 33.414C106.009 33.4392 106.05 33.4859 106.068 33.5424L110.227 47.1565C110.261 47.267 110.199 47.3838 110.088 47.4174C110.069 47.4232 110.048 47.4261 110.028 47.4261Z" fill="#485157"/>
<path d="M97.0744 48.3267C97.4301 48.0005 95.8751 41.7562 94.4851 42.9325C91.6798 45.3058 94.4851 50.7003 97.0744 48.3267Z" fill="#FBB2C3"/>
<path d="M111.315 44.0113C108.805 42.024 99.2477 53.9423 96.727 43.8406C92.9746 49.4055 98.3688 60.6259 98.3688 60.6259C107.215 60.8415 116.494 48.111 111.315 44.0113Z" fill="#1D204F"/>
<path opacity="0.3" d="M86.7856 49.0488C86.7856 55.4634 91.9857 60.6635 98.4004 60.6635C99.4084 60.6635 100.385 60.5231 101.317 60.2688C90.869 59.4701 89.9499 43.4018 91.5483 39.6724C88.6617 41.7852 86.7856 45.1972 86.7856 49.0488Z" fill="#171A3F"/>
<path d="M100.655 35.9235C100.623 35.9235 100.591 35.9162 100.56 35.9008C100.458 35.8487 100.416 35.7228 100.469 35.6199C101.003 34.567 101.815 33.6808 102.817 33.0565C102.916 32.9952 103.044 33.0259 103.105 33.1237C103.166 33.2218 103.136 33.3506 103.039 33.4115C102.101 33.9953 101.341 34.8242 100.841 35.8089C100.805 35.8819 100.731 35.9235 100.655 35.9235Z" fill="#485157"/>
<path d="M45.3381 117.649C45.2392 108.827 45.1404 100.004 45.0415 91.1814L36.2327 102.395C35.4593 110.258 34.4899 118.682 33.7168 126.545C49.3247 127.622 71.9708 126.97 87.6014 126.299C74.8823 123.119 58.5603 114.004 45.3381 117.649Z" fill="#1E85C8"/>
<path d="M94.0572 124.422C91.1465 122.622 86.8622 125.678 86.8067 125.675C75.7301 125.026 59.8041 115.882 45.4578 119.317V133.374C62.8202 132.95 88.2318 131.778 92.8671 132.382C96.274 132.826 106.337 135.686 108.187 134.257C109.266 133.424 97.8304 126.755 94.0572 124.422Z" fill="#FBB2C3"/>
<path opacity="0.2" d="M46.6825 133.344C46.8861 133.339 47.0901 133.333 47.2955 133.328C47.4224 133.324 47.5498 133.321 47.6775 133.317C47.8712 133.312 48.0657 133.307 48.2608 133.302C48.3816 133.298 48.5024 133.295 48.6239 133.292C48.838 133.286 49.0536 133.28 49.2696 133.274C49.3754 133.271 49.4809 133.268 49.587 133.265C49.9041 133.255 50.2226 133.246 50.5429 133.237C50.5838 133.236 50.6254 133.235 50.6666 133.234C50.9523 133.225 51.239 133.217 51.5269 133.208C51.6404 133.205 51.7542 133.201 51.868 133.198C52.0818 133.191 52.2956 133.185 52.5105 133.178C52.6371 133.174 52.7644 133.171 52.8914 133.167C53.1191 133.16 53.3475 133.153 53.5762 133.146C53.678 133.142 53.7798 133.139 53.882 133.136C54.1228 133.129 54.3643 133.121 54.6065 133.113C54.7116 133.11 54.816 133.107 54.921 133.104C55.2592 133.093 55.5985 133.082 55.9386 133.072H55.9397C56.2877 133.061 56.6365 133.049 56.986 133.038C57.0459 133.036 57.1061 133.034 57.1663 133.032C57.4596 133.023 57.7533 133.013 58.0474 133.004C58.1159 133.001 58.1845 132.999 58.2531 132.997C58.5443 132.988 58.8358 132.978 59.1273 132.969C59.1926 132.966 59.2583 132.964 59.3236 132.962C60.4042 132.927 61.4875 132.891 62.5688 132.856C64.7648 129.339 65.8021 123.912 65.0461 120.364C61.7957 119.556 58.4804 118.909 55.1728 118.659C51.5605 118.935 48.0777 119.568 45.4578 120.62V133.374C45.7613 133.367 46.0678 133.359 46.3761 133.351C46.4779 133.349 46.5804 133.346 46.6825 133.344Z" fill="#EC204F"/>
<path opacity="0.2" d="M92.8675 132.382C96.1036 132.804 105.342 135.404 107.845 134.438C103.758 133.819 99.7699 132.132 95.5943 132.198C94.1828 132.221 92.7566 132.242 91.3757 131.947C89.9947 131.652 88.639 130.472 87.7495 129.375C83.0025 132.18 64.2303 132.18 55.9597 129.516L51.4441 133.211C68.1619 132.713 88.7422 131.844 92.8675 132.382Z" fill="#EC204F"/>
<path d="M58.8838 118.399C51.1495 117.53 43.7877 117.975 39.804 121.541C37.5909 121.309 26.078 118.76 23.8648 118.528C23.3894 132.949 25.4223 132.089 29.2495 133.151C31.5871 133.8 59.8787 133.513 59.9185 132.883C60.5621 122.687 58.8838 118.399 58.8838 118.399Z" fill="#1E9DF1"/>
<path d="M49.3439 74.0811C41.8176 71.6169 22.4317 69.116 22.4317 69.116C22.4317 69.116 15.897 85.7892 24.2522 126.475C24.6587 128.455 42.7946 125.264 42.7946 125.264C42.7946 125.264 42.9471 102.087 43.9201 93.3473C46.8841 90.924 49.0115 89.063 49.9856 85.3605C50.9598 81.6581 50.7317 77.6492 49.3439 74.0811Z" fill="#1E9DF1"/>
<path opacity="0.3" d="M32.7278 89.4578L41.3585 95.2836C41.3585 95.2836 42.2217 104.993 42.9959 112.45C43.1561 105.594 43.437 97.6893 43.9204 93.3473C41.1429 92.4787 32.7278 89.4578 32.7278 89.4578Z" fill="#002B68"/>
<g opacity="0.3">
<path d="M23.0931 69.2037C22.6666 69.1467 22.4323 69.1165 22.4323 69.1165C22.4323 69.1165 16.1264 85.2111 23.8275 124.356C24.0883 132.721 26.0366 132.259 29.2501 133.151C29.5281 133.228 29.9729 133.29 30.5614 133.338C25.3916 122.902 17.8393 102.188 23.0931 69.2037Z" fill="#002B68"/>
</g>
<path opacity="0.3" d="M42.8689 119.666C42.878 119.032 42.8776 118.462 42.8897 117.755C39.9052 119.009 37.4634 121.404 35.9956 124.405C38.2832 122.86 40.5813 121.211 42.8689 119.666Z" fill="#002B68"/>
<path opacity="0.2" d="M94.0571 124.422C91.1464 122.622 86.8066 125.675 86.8066 125.675C86.8066 125.675 88.1879 126.742 89.2299 127.032C90.836 127.479 92.5901 127.375 94.1327 126.743C95.4709 126.194 96.9584 126.903 98.0719 127.826C99.1853 128.749 100.086 129.928 101.296 130.72C102.542 131.536 104.082 131.838 105.557 131.654C102.168 129.269 96.503 125.935 94.0571 124.422Z" fill="#EC204F"/>
<path d="M87.5284 44.1021C87.1628 41.7788 86.0592 39.2592 84.834 37.2515C75.8998 33.6275 65.3139 26.0162 57.4807 27.2212C55.1224 27.5839 51.52 31.7704 47.9868 34.1259C41.817 38.2391 40.2015 38.863 37.6297 41.2461C32.7795 45.741 25.6311 58.135 23.3888 64.5493C22.7795 66.2925 21.6299 69.6669 21.4468 71.4539C29.3449 75.7776 41.6561 78.2947 50.5757 77.0641L49.9285 72.9643C50.6768 72.2161 50.5757 71.6991 50.5757 71.2383C50.5757 69.9438 49.2937 68.2929 49.2937 68.2929L54.4595 60.0183L69.0148 55.688C69.0148 55.688 75.4036 56.4151 78.5412 55.8496C81.6792 55.2845 84.7735 53.669 86.3977 50.9254C87.597 48.9016 87.8943 46.4254 87.5284 44.1021Z" fill="#1D204F"/>
<g opacity="0.3">
<path d="M50.5764 77.0642L49.9292 72.9645C50.6775 72.2162 50.5764 71.6992 50.5764 71.2384C50.5764 69.9436 49.2944 68.2931 49.2944 68.2931L54.4602 60.0184L69.0155 55.6881C69.0155 55.6881 69.2987 55.7202 69.7711 55.7655C69.5869 54.911 69.4274 54.0285 69.2935 53.1218C65.3675 52.2754 61.0401 50.8813 61.0401 50.8813L50.5764 57.8604L45.4106 66.135L47.6624 69.006C47.6624 69.006 46.7934 70.0585 46.0451 70.8068L47.0422 77.3546C48.2641 77.3152 49.4476 77.22 50.5764 77.0642Z" fill="#1D204F"/>
<path d="M50.5764 77.0642L49.9292 72.9645C50.6775 72.2162 50.5764 71.6992 50.5764 71.2384C50.5764 69.9436 49.2944 68.2931 49.2944 68.2931L54.4602 60.0184L69.0155 55.6881C69.0155 55.6881 69.2987 55.7202 69.7711 55.7655C69.5869 54.911 69.4274 54.0285 69.2935 53.1218C65.3675 52.2754 61.0401 50.8813 61.0401 50.8813L50.5764 57.8604L45.4106 66.135L47.6624 69.006C47.6624 69.006 46.7934 70.0585 46.0451 70.8068L47.0422 77.3546C48.2641 77.3152 49.4476 77.22 50.5764 77.0642Z" fill="black" fill-opacity="0.4"/>
</g>
<path d="M60.2861 56.3502C60.2861 56.9942 60.3168 57.6308 60.3759 58.2584L69.0157 55.6881C69.0157 55.6881 75.4044 56.4152 78.5421 55.8497C81.6801 55.2845 84.7743 53.669 86.3986 50.9254C87.5967 48.9016 87.8941 46.4255 87.5285 44.1018C87.2738 42.4848 86.662 40.7737 85.9006 39.2052C83.5667 38.0239 80.9541 37.3621 78.1951 37.3621C68.3043 37.3624 60.2861 45.8636 60.2861 56.3502Z" fill="#FBB2C3"/>
<path opacity="0.2" d="M69.0156 55.688C69.0156 55.688 75.4043 56.4151 78.542 55.8496C78.8433 55.7952 79.1436 55.7281 79.4428 55.6544C79.2545 55.6248 79.0666 55.5935 78.8802 55.5574C75.4156 54.8868 69.1123 51.5831 69.1123 51.5831L61.0266 50.9326C60.5454 52.6496 60.2856 54.4672 60.2856 56.3498C60.2856 56.9937 60.3163 57.6304 60.3754 58.2579L69.0156 55.688Z" fill="#EC204F"/>
<g opacity="0.6">
<path d="M32.9635 49.2565C34.5003 47.2528 36.1223 45.2334 38.2859 43.9317C39.2629 43.3439 40.3268 42.9182 41.3852 42.4946C44.1412 41.3924 47.0782 39.7557 49.8342 38.6535C49.7167 36.1285 50.322 33.5859 51.5095 31.356C50.3603 32.3429 49.1694 33.337 47.9866 34.1255C41.8168 38.2387 40.2013 38.8626 37.6295 41.2461C33.8289 44.7683 28.6183 53.1396 25.4617 59.6845C27.8561 56.1335 30.3571 52.6547 32.9635 49.2565Z" fill="#1D204F"/>
<path d="M32.9635 49.2565C34.5003 47.2528 36.1223 45.2334 38.2859 43.9317C39.2629 43.3439 40.3268 42.9182 41.3852 42.4946C44.1412 41.3924 47.0782 39.7557 49.8342 38.6535C49.7167 36.1285 50.322 33.5859 51.5095 31.356C50.3603 32.3429 49.1694 33.337 47.9866 34.1255C41.8168 38.2387 40.2013 38.8626 37.6295 41.2461C33.8289 44.7683 28.6183 53.1396 25.4617 59.6845C27.8561 56.1335 30.3571 52.6547 32.9635 49.2565Z" fill="white" fill-opacity="0.2"/>
</g>
<path d="M21.4479 71.6633C21.4406 71.6633 21.4333 71.663 21.4264 71.6622C21.3115 71.6502 21.2279 71.5477 21.2396 71.4331C21.4377 69.4987 22.7581 65.7215 23.1922 64.4807C25.5032 57.8698 32.6975 45.5326 37.4882 41.0929C39.1865 39.5189 40.5014 38.6871 42.889 37.1767C44.1612 36.3715 45.7446 35.37 47.8716 33.9518C49.2449 33.0361 50.6232 31.8467 51.956 30.696C54.013 28.9207 55.9558 27.2442 57.4494 27.0144C63.0158 26.1592 69.9336 29.6894 76.6229 33.1039C79.3943 34.5188 82.2601 35.9818 84.9129 37.0577C85.0198 37.1011 85.0716 37.223 85.0282 37.3299C84.9844 37.4372 84.8618 37.489 84.756 37.4452C82.0865 36.3623 79.2122 34.8953 76.4329 33.4761C69.8022 30.0914 62.9458 26.5919 57.5129 27.4277C56.1378 27.6393 54.2392 29.2778 52.2289 31.0127C50.8863 32.1714 49.4981 33.3699 48.1029 34.2995C45.9719 35.7206 44.3863 36.7235 43.1122 37.5298C40.6689 39.0757 39.4423 39.8517 37.7724 41.3997C33.0218 45.8019 25.8826 58.0507 23.587 64.6186C23.1569 65.8485 21.8485 69.5907 21.6555 71.4758C21.6446 71.5831 21.5537 71.6633 21.4479 71.6633Z" fill="#485157"/>
<path d="M95.4568 119.571C94.8431 117.349 91.7886 115.04 91.7886 115.04L85.7472 79.8691L87.0417 58.292C87.0417 58.292 93.9463 46.8561 85.9628 39.3042L77.8703 53.039C77.8703 53.039 76.2055 64.1029 76.4689 67.7859C76.6791 70.7255 77.3832 80.2555 77.3832 80.2555C77.3832 80.2555 77.8024 88.3386 78.411 91.0895C78.7393 92.5729 86.6703 116.429 86.6703 116.429C86.6703 116.429 85.1598 120.745 86.8859 125.707C87.4722 125.274 88.7845 124.647 89.4752 124.413C89.3635 123.996 91.8485 128.513 93.3589 128.728C93.6293 128.767 94.3593 129.22 94.6534 128.513C94.7424 128.299 94.4907 126.912 94.4907 126.912C94.4907 126.912 95.8351 120.94 95.4568 119.571Z" fill="#FBB2C3"/>
<path d="M93.2481 128.798C93.0686 128.798 92.8763 128.75 92.6731 128.656C91.2243 127.985 89.4483 124.985 89.0568 123.383C89.0294 123.271 89.098 123.158 89.21 123.13C89.3209 123.103 89.4355 123.172 89.4629 123.284C89.8664 124.934 91.614 127.704 92.849 128.277C93.0759 128.382 93.2714 128.405 93.4294 128.347C93.425 128.109 93.0971 127.324 92.7796 126.563C92.2229 125.23 91.4604 123.404 90.9985 121.439C90.9718 121.327 91.0415 121.215 91.1539 121.188C91.2674 121.161 91.379 121.231 91.4053 121.344C91.8599 123.275 92.6147 125.083 93.1653 126.402C93.8063 127.937 94.046 128.511 93.6688 128.699C93.5378 128.765 93.3973 128.798 93.2481 128.798Z" fill="#485157"/>
<path d="M94.2809 129.026C93.947 129.026 93.6351 128.868 93.4271 128.66C93.3458 128.578 93.3458 128.446 93.4275 128.364C93.5092 128.283 93.6413 128.283 93.7234 128.365C93.8664 128.508 94.1959 128.704 94.533 128.554C94.7931 127.966 93.6059 122.92 93.1561 121.008C93.1294 120.896 93.1991 120.784 93.3115 120.757C93.4246 120.73 93.5366 120.8 93.5629 120.912C95.1018 127.452 95.1711 128.704 94.7475 128.915C94.5928 128.993 94.4345 129.026 94.2809 129.026Z" fill="#485157"/>
<path d="M94.6542 126.78C94.6389 126.78 94.6239 126.778 94.6086 126.774C94.4959 126.749 94.4247 126.638 94.4499 126.525C94.9165 124.425 95.0727 122.328 94.8782 120.77C94.864 120.656 94.945 120.551 95.0595 120.537C95.1708 120.519 95.2785 120.604 95.2927 120.718C95.493 122.321 95.3343 124.471 94.8578 126.615C94.8366 126.713 94.7502 126.78 94.6542 126.78Z" fill="#485157"/>
<path opacity="0.2" d="M91.8716 115.104C91.8187 115.063 91.7888 115.04 91.7888 115.04L85.7474 79.8694L87.0418 58.2923C87.0418 58.2923 87.1257 58.1533 87.264 57.8965C85.2807 60.1176 84.3059 64.0371 84.7284 66.3707C86.1968 74.4785 83.7119 78.4072 83.7119 78.4072C86.6704 84.9269 86.8864 97.0101 87.3906 103.132C87.6157 105.863 91.849 115.135 91.849 115.135C91.849 115.135 91.8581 115.122 91.8716 115.104Z" fill="#EC204F"/>
<path d="M86.8863 125.916C86.7998 125.916 86.7192 125.862 86.6889 125.776C85.0778 121.144 86.2668 117.012 86.4503 116.43C85.9008 114.777 78.5281 92.5874 78.2067 91.1343C77.601 88.3979 77.1913 80.5965 77.1742 80.266C77.1742 80.2671 76.4704 70.74 76.2599 67.8008C75.9983 64.1367 77.5948 53.4607 77.6631 53.0079L77.6142 47.1683C77.6131 47.053 77.7058 46.9585 77.8214 46.9578C77.8221 46.9578 77.8225 46.9578 77.8232 46.9578C77.9378 46.9578 78.0312 47.0501 78.0323 47.165L78.079 53.0375C78.06 53.1805 76.4186 64.1531 76.6773 67.7713C76.8874 70.7108 77.5912 80.2401 77.5912 80.2401C77.5959 80.3251 78.0173 88.3418 78.6146 91.0441C78.9367 92.5002 86.7892 116.125 86.8684 116.363C86.883 116.407 86.8826 116.455 86.8673 116.498C86.8523 116.541 85.4028 120.808 87.0833 125.638C87.1212 125.748 87.0636 125.866 86.9545 125.904C86.9322 125.912 86.9093 125.916 86.8863 125.916Z" fill="#485157"/>
</svg>
