<svg width="370" height="438" viewBox="0 0 370 438" fill="none" xmlns="http://www.w3.org/2000/svg">
<g clip-path="url(#clip0_23_29)">
<path d="M208.376 161.768C208.475 161.768 208.545 161.758 208.595 161.738C208.545 161.768 208.465 161.778 208.366 161.778C201.611 161.148 194.857 160.498 188.093 159.877C187.035 159.777 186.167 159.267 185.359 158.647C177.936 152.955 169.586 149.054 160.796 146.113C149.353 142.272 137.59 140.392 125.478 141.412C122.515 141.662 122.535 141.722 122.515 144.703C122.445 152.835 124.72 160.328 128.701 167.36C133.709 176.202 140.464 183.374 149.173 188.626C155.449 192.417 162.333 193.768 169.596 193.367V193.407C169.316 194.068 168.788 194.528 168.269 194.978C165.775 197.159 163.211 199.269 160.796 201.53C158.392 203.78 155.568 205.591 153.573 208.292C154.99 208.342 156.406 208.462 157.823 208.412C162.542 208.242 167.102 209.002 171.541 210.603C172.968 211.123 174.415 211.603 175.871 212.033C180.461 213.393 185.1 214.394 189.929 214.074C192.064 213.934 194.159 213.583 196.074 212.563C197.621 211.743 198.549 210.953 198.918 210.012C198.568 210.973 197.631 211.773 196.064 212.603C194.149 213.613 192.064 213.974 189.919 214.114C185.09 214.434 180.451 213.433 175.861 212.073C174.405 211.643 172.958 211.163 171.531 210.643C167.092 209.042 162.532 208.282 157.813 208.452C156.396 208.502 154.98 208.372 153.563 208.332C145.432 215.464 138.309 223.506 131.933 232.249C110.543 261.568 99.6983 297.628 105.854 333.859C106.522 337.75 107.301 341.631 108.029 345.513C109.496 347.853 110.004 350.574 110.842 353.135C114.095 363.058 118.874 372.16 124.86 380.663C126.137 382.484 127.414 384.294 128.691 386.115C128.701 386.105 128.711 386.095 128.721 386.085C129.04 386.495 129.349 386.885 129.669 387.285C129.649 387.285 129.639 387.295 129.619 387.295C129.23 388.095 128.412 388.355 127.703 388.715C108.977 398.268 90.1505 407.601 71.0848 416.444C63.6521 419.895 55.8302 422.005 47.6293 422.505C42.7008 422.806 37.8919 422.215 33.3325 420.205C30.3894 418.904 27.6657 416.964 25.9896 414.153C24.0641 410.942 23.7648 407.281 23.7947 403.69C23.8047 403.28 23.8047 402.86 23.8047 402.449C23.7947 390.436 23.7648 378.412 23.7648 366.399V91.3771C23.7648 84.0049 24.5729 76.7628 27.2267 69.8107C27.2367 69.6107 27.2567 69.4006 27.2567 69.2005C27.2567 68.3203 27.2467 67.7301 27.127 67.37C27.2567 67.34 27.3764 67.32 27.5061 67.3C30.1998 66.8198 32.9534 66.5397 35.697 66.4697C36.4154 69.2005 37.3432 71.9013 38.5105 74.5621C42.3416 83.3147 47.1504 91.3871 53.6353 98.4192C68.431 114.464 86.6885 124.507 107.7 129.819C117.776 132.359 128.062 133.55 138.358 134.69C141.272 135.01 144.175 135.67 147.138 135.19H147.148C147.806 135.27 148.465 135.35 149.113 135.46C149.493 135.52 149.862 135.57 150.241 135.63C152.486 135.97 154.74 136.21 156.985 136.531C159.23 136.851 161.465 137.211 163.7 137.611C165.884 138.011 168.059 138.451 170.224 138.961C172.379 139.471 174.524 140.052 176.639 140.712C186.137 143.683 194.927 147.964 202.459 154.576C204.794 156.626 207.228 158.637 208.625 161.548C208.535 161.618 208.456 161.678 208.376 161.758V161.768Z" fill="#0F0D0D"/>
<path d="M158.023 317.514C157.165 319.195 156.357 320.895 155.588 322.636C154.361 325.417 153.294 328.227 152.396 331.068C148.794 342.412 147.796 354.165 148.854 366.219C149.153 369.62 149.562 373.071 150.809 376.272C151.129 376.292 151.418 376.272 151.687 376.202C151.408 376.272 151.109 376.302 150.79 376.282C149.542 373.081 149.133 369.63 148.834 366.229C147.777 354.175 148.774 342.422 152.376 331.078C153.274 328.237 154.341 325.427 155.568 322.646C156.337 320.905 157.155 319.195 158.023 317.514Z" fill="#4D83C4"/>
<path d="M163.32 308.342C162.373 309.822 161.455 311.322 160.567 312.853C161.445 311.322 162.363 309.822 163.32 308.342Z" fill="#4D83C4"/>
<path d="M180.5 287.185C178.635 289.056 176.819 290.996 175.053 292.987C174.464 293.657 173.886 294.327 173.307 294.998C171.96 296.568 170.663 298.169 169.396 299.789C170.653 298.169 171.95 296.578 173.287 295.008C173.866 294.337 174.445 293.667 175.033 292.997C176.799 291.006 178.615 289.066 180.48 287.195C180.48 287.195 180.487 287.192 180.5 287.185Z" fill="#4D83C4"/>
<path d="M207.388 264.719C207.158 264.949 206.939 265.199 206.739 265.459L206.729 265.469C206.939 265.199 207.158 264.949 207.398 264.719H207.388Z" fill="#4D83C4"/>
<path d="M298.776 215.514C298.716 215.584 298.656 215.644 298.596 215.714C298.596 215.714 298.586 215.744 298.576 215.754V215.734C298.636 215.654 298.706 215.574 298.776 215.514Z" fill="#4D83C4"/>
<path d="M299.873 214.104C299.763 214.484 299.474 214.804 299.155 215.124C299.464 214.804 299.743 214.484 299.853 214.114C301.14 209.702 301.978 205.241 301.37 200.59C301.04 198.069 299.913 196.538 297.419 195.848C294.885 195.148 292.43 194.148 289.916 193.337C272.796 187.786 256.634 180.213 242.177 169.43C238.027 166.339 233.866 164.599 228.828 164.719C227.052 164.759 226.144 163.999 225.486 162.318C221.246 151.445 213.444 144.203 202.629 140.112C201.522 139.701 200.424 139.271 199.277 138.831C199.307 138.831 199.327 138.841 199.357 138.841C200.484 139.281 201.562 139.701 202.649 140.102C213.464 144.193 221.266 151.435 225.506 162.308C226.164 163.989 227.072 164.749 228.848 164.709C233.886 164.589 238.047 166.329 242.197 169.42C256.653 180.203 272.816 187.776 289.936 193.327C292.45 194.138 294.905 195.138 297.439 195.838C299.933 196.528 301.06 198.059 301.39 200.58C301.998 205.231 301.16 209.692 299.873 214.104Z" fill="#4D83C4"/>
<path d="M299.873 214.104C299.763 214.484 299.474 214.804 299.155 215.124C299.025 215.254 298.895 215.384 298.776 215.514C298.716 215.584 298.656 215.644 298.596 215.714C298.596 215.714 298.586 215.744 298.576 215.754C298.017 215.984 297.429 216.174 296.9 216.464C291.502 219.365 285.846 221.626 279.969 223.286C270.491 225.957 261.003 228.628 251.475 231.139C230.215 236.73 209.313 243.332 189.38 252.735C172.808 260.557 157.464 270.12 145.123 284.034C143.486 285.875 141.94 287.765 140.473 289.706C139.995 290.346 139.516 291.006 139.047 291.667C133.929 298.899 129.998 306.771 127.204 315.264C127.075 315.664 126.945 316.054 126.815 316.454C126.686 316.844 126.566 317.244 126.446 317.644C121.847 332.969 121.937 348.583 124.151 364.258C125.069 370.72 126.686 377.032 128.511 383.294C128.711 383.964 129.289 384.694 129.09 385.454C129.08 385.504 129.06 385.564 129.03 385.614C128.97 385.775 128.87 385.925 128.721 386.085C128.711 386.085 128.701 386.105 128.691 386.115C127.414 384.294 126.137 382.484 124.86 380.663C118.874 372.16 114.095 363.058 110.842 353.135C110.004 350.574 109.495 347.853 108.029 345.513C107.301 341.631 106.522 337.75 105.854 333.859C99.6983 297.628 110.543 261.568 131.933 232.249C138.309 223.506 145.432 215.464 153.563 208.332C154.98 208.372 156.396 208.502 157.813 208.452C162.532 208.282 167.092 209.042 171.531 210.643C172.958 211.163 174.405 211.643 175.861 212.073C180.451 213.433 185.09 214.434 189.919 214.114C192.064 213.974 194.149 213.613 196.064 212.603C197.631 211.773 198.568 210.973 198.918 210.012C199.007 209.782 199.067 209.552 199.087 209.302C199.167 208.392 198.828 207.332 198.09 205.981C194.548 199.459 189.14 194.798 182.925 190.957C181.768 190.246 180.67 190.166 179.503 190.857C176.44 192.667 173.018 193.067 169.586 193.407V193.367C162.333 193.768 155.449 192.417 149.173 188.626C140.464 183.374 133.709 176.202 128.701 167.36C124.72 160.328 122.445 152.835 122.515 144.703C122.535 141.722 122.515 141.662 125.478 141.412C137.59 140.392 149.353 142.272 160.796 146.113C169.586 149.054 177.936 152.955 185.359 158.647C186.167 159.267 187.035 159.777 188.093 159.877C194.857 160.498 201.611 161.148 208.366 161.778C208.465 161.778 208.545 161.778 208.595 161.738C208.615 161.728 208.635 161.708 208.645 161.698C208.665 161.658 208.665 161.618 208.625 161.558C207.228 158.647 204.794 156.636 202.459 154.586C194.927 147.974 186.137 143.693 176.639 140.722C174.524 140.062 172.379 139.481 170.224 138.971C168.059 138.461 165.884 138.021 163.7 137.621C161.465 137.221 159.23 136.861 156.985 136.541C154.74 136.22 152.486 135.98 150.241 135.64C149.862 135.58 149.493 135.53 149.113 135.47C148.465 135.36 147.806 135.28 147.148 135.2H147.138C146.909 135.03 146.669 134.89 146.42 134.78C146.42 134.78 146.42 134.78 146.41 134.78C145.651 134.45 144.813 134.34 144.005 134.17C142.219 133.8 140.424 133.45 138.648 133.039C138.049 132.909 137.46 132.769 136.872 132.619C121.168 128.618 106.034 123.097 91.8864 115.104C87.6163 112.693 83.476 110.123 79.4952 107.332C78.1783 106.402 76.8713 105.451 75.5843 104.471C73.3894 102.791 71.2444 101.04 69.1692 99.2095C67.7924 97.9891 66.4356 96.7187 65.1286 95.4183C62.4947 92.8176 59.9906 90.0467 57.646 87.1059C43.1198 68.8605 36.7446 48.3144 40.6555 24.9674C40.6954 24.7274 40.7253 24.4773 40.7553 24.2272C40.8251 23.587 40.855 22.9368 40.9149 22.2966V22.2366C44.1574 13.1639 50.4926 6.44193 57.227 0.0200195C57.4165 0.120049 57.6061 0.220079 57.7957 0.320109C57.5462 1.37042 57.3268 2.43073 57.0574 3.48105C53.7151 16.1148 52.488 28.9386 54.3537 41.8924C56.9676 60.0378 64.7695 75.5624 78.4277 87.9561C79.7047 89.1165 81.0716 90.1668 82.3985 91.2671C87.1375 95.0982 91.6969 99.1795 97.1043 102.15C96.7551 101.11 96.2762 100.22 95.7475 99.3695C91.9463 93.3177 88.9632 86.8858 86.4491 80.2138C81.8797 68.0702 80.5228 55.5865 82.2688 42.7427C82.5382 40.7421 83.466 38.8415 83.1767 36.7509C88.7537 21.3463 100.087 11.5734 114.494 4.50135C114.783 5.56166 114.075 5.95178 113.686 6.46193C107.171 14.8344 102.023 23.9471 100.047 34.4702C96.2263 54.7963 100.267 73.5719 112.259 90.4268C125.239 108.692 143.097 119.105 165.216 121.666C178.485 123.197 191.405 121.176 203.168 114.304C215.589 107.042 223.461 96.1185 227.87 82.5445C228.17 81.6242 228.14 80.5539 229.287 79.4436C231.791 106.522 222.473 126.388 197.042 137.541C196.872 137.631 196.713 137.701 196.543 137.771C197.511 138.141 198.419 138.501 199.297 138.841C199.317 138.841 199.337 138.861 199.357 138.861C200.484 139.301 201.561 139.721 202.649 140.122C213.464 144.213 221.266 151.455 225.506 162.328C226.164 164.009 227.072 164.769 228.848 164.729C233.886 164.609 238.047 166.349 242.197 169.44C256.653 180.223 272.816 187.796 289.936 193.347C292.45 194.158 294.905 195.158 297.439 195.858C299.933 196.548 301.06 198.079 301.389 200.6C301.998 205.251 301.16 209.712 299.873 214.124V214.104Z" fill="#1E9DF1"/>
<path d="M352.7 262.188C352.461 262.538 352.211 262.888 351.972 263.238C351.722 263.598 351.463 263.938 351.204 264.278C351.204 264.278 351.2 264.282 351.194 264.288C350.545 265.139 349.867 265.959 349.168 266.759C348.47 267.559 347.752 268.32 347.003 269.07C346.714 269.37 346.405 269.67 346.096 269.96C345.168 270.84 344.22 271.681 343.232 272.491C342.584 273.031 341.915 273.551 341.247 274.051C340.229 274.822 339.182 275.552 338.104 276.262C338.094 276.262 338.094 276.272 338.084 276.272C337.077 276.932 336.069 277.582 335.051 278.213C335.051 278.213 335.045 278.216 335.031 278.223C334.004 278.863 332.986 279.483 331.948 280.103C330.911 280.713 329.873 281.323 328.836 281.924C327.678 282.584 326.521 283.234 325.364 283.884C323.438 284.945 321.513 285.995 319.577 287.035C319.408 287.125 319.248 287.215 319.078 287.305C317.123 288.366 315.167 289.416 313.212 290.476C313.132 290.526 313.042 290.566 312.963 290.616C295.473 300.139 277.884 309.472 260.335 318.885C259.816 319.165 259.297 319.435 258.769 319.685C258.469 319.825 258.17 319.955 257.871 320.075C257.322 320.285 256.753 320.455 256.155 320.565C255.756 320.935 255.327 321.255 254.888 321.555C254.449 321.855 253.99 322.116 253.531 322.366C253.521 322.366 253.521 322.376 253.511 322.376C252.583 322.876 251.605 323.316 250.687 323.816C233.497 333.019 216.247 342.102 199.087 351.364C184.162 359.427 169.077 367.169 154.072 375.071C153.493 375.371 152.954 375.762 152.306 376.022C152.106 376.102 151.907 376.162 151.687 376.202C151.418 376.262 151.129 376.292 150.809 376.272C149.562 373.071 149.153 369.62 148.854 366.219C147.796 354.165 148.794 342.412 152.396 331.068C153.294 328.227 154.361 325.417 155.588 322.636C156.357 320.895 157.165 319.195 158.023 317.514V317.504C158.292 316.974 158.561 316.454 158.841 315.934C159.4 314.893 159.968 313.873 160.557 312.853C161.445 311.322 162.363 309.822 163.31 308.341C163.949 307.351 164.597 306.381 165.266 305.411C165.795 304.63 166.343 303.86 166.892 303.1C166.892 303.1 166.912 303.09 166.912 303.08C167.71 301.98 168.528 300.889 169.366 299.809C169.366 299.809 169.366 299.799 169.386 299.789C170.653 298.168 171.95 296.568 173.297 294.998C173.876 294.327 174.455 293.657 175.043 292.987C176.809 290.996 178.625 289.056 180.49 287.185C180.949 286.715 181.418 286.245 181.887 285.775C183.294 284.384 184.731 283.024 186.187 281.684C190.806 277.432 195.655 273.421 200.644 269.56C201.851 268.63 203.058 267.709 204.285 266.789C204.385 266.709 204.495 266.639 204.594 266.559C205.073 266.199 205.542 265.799 206.111 265.599C206.201 265.569 206.291 265.539 206.38 265.519C206.44 265.499 206.5 265.489 206.56 265.489C206.61 265.489 206.65 265.489 206.7 265.489H206.71L206.72 265.479C206.919 265.209 207.139 264.959 207.368 264.729C208.046 264.038 208.835 263.468 209.663 262.948C212.536 261.137 215.449 259.377 218.343 257.586C218.352 257.586 218.352 257.576 218.362 257.576C219.809 256.856 221.206 256.006 222.702 255.436C232.549 251.675 242.357 247.804 252.294 244.302C262.051 240.861 271.808 237.45 281.127 232.939C287.831 229.698 293.338 225.007 297.538 218.815C298.167 217.895 298.815 216.984 298.556 215.764C298.556 215.754 298.576 215.744 298.576 215.734C298.636 215.654 298.696 215.594 298.756 215.524C298.875 215.394 299.005 215.264 299.135 215.134C299.454 214.814 299.743 214.494 299.853 214.114C301.14 209.702 301.978 205.241 301.37 200.59C301.04 198.069 299.913 196.538 297.419 195.848C294.885 195.148 292.43 194.148 289.916 193.337C272.796 187.786 256.633 180.213 242.177 169.43C238.027 166.339 233.866 164.599 228.828 164.719C227.052 164.759 226.144 163.999 225.486 162.318C221.246 151.445 213.444 144.203 202.629 140.112C201.542 139.711 200.464 139.291 199.337 138.851C203.148 139.391 206.939 140.232 210.61 141.342C210.77 141.392 210.93 141.432 211.089 141.492C213.554 142.262 217.245 143.773 233.038 151.455C233.777 151.815 234.485 152.155 235.163 152.485C235.163 152.495 235.173 152.495 235.173 152.495C236.42 153.105 237.568 153.666 238.615 154.176C244.911 157.267 247.844 158.797 249.48 159.657C249.5 159.667 249.52 159.677 249.55 159.687C249.67 159.757 249.799 159.827 249.939 159.897C249.999 159.927 250.059 159.957 250.119 159.987C250.568 160.238 251.096 160.548 251.685 160.888C251.685 160.888 252.194 161.198 252.772 161.558C252.862 161.608 252.952 161.668 253.042 161.728C253.172 161.808 253.331 161.918 253.541 162.058C266.67 170.321 279.341 179.223 291.642 188.656C291.702 188.706 291.772 188.756 291.832 188.806C293.358 189.986 294.984 191.047 296.75 191.847C309.092 197.449 320.665 204.441 332.118 211.613C337.964 215.274 343.801 218.975 348.779 223.876C360.732 235.66 359.574 252.045 352.68 262.198L352.7 262.188Z" fill="#0F0D0D"/>
<path d="M360.462 272.991C355.404 279.683 348.819 284.624 341.855 289.056C329.325 297.018 316.235 304.03 303.235 311.172C287.113 320.035 270.99 328.888 254.828 337.66C239.463 346.003 224.049 354.235 208.655 362.508C174.095 381.073 139.426 399.419 104.527 417.324C94.3108 422.565 84.1145 427.847 73.4493 432.158C63.9115 436.009 54.0843 438.34 43.7583 437.96C27.6258 437.37 14.8954 430.448 5.85639 416.964C1.70603 410.762 0.119722 403.75 0.0798145 396.378C0.00997681 380.183 0.00997681 363.988 0 347.783V153.115C0 134.58 0.0299304 116.034 0.0598609 97.499C0.0598609 94.338 0.119722 91.1571 1.04757 88.1062C2.60395 82.9846 5.14803 78.7934 8.58006 75.4824C11.623 72.5215 15.3543 70.2509 19.7242 68.6104C21.4302 67.9702 23.216 67.51 24.9919 67.1099C26.3986 66.7898 26.9274 66.7198 27.1269 67.37C27.2467 67.7301 27.2566 68.3203 27.2566 69.2005C27.2566 69.4006 27.2367 69.6107 27.2267 69.8107C24.5729 76.7628 23.7648 84.0049 23.7648 91.3771V366.399C23.7648 378.412 23.7947 390.436 23.8047 402.449C23.8047 402.86 23.8047 403.28 23.7947 403.69C23.7648 407.281 24.0641 410.942 25.9896 414.153C27.6657 416.964 30.3894 418.904 33.3325 420.205C37.8919 422.215 42.7008 422.806 47.6293 422.505C55.8302 422.005 63.6521 419.895 71.0848 416.444C90.1505 407.601 108.977 398.268 127.703 388.715C128.412 388.355 129.23 388.095 129.619 387.295C129.639 387.295 129.649 387.285 129.669 387.285C129.978 387.205 130.277 387.115 130.577 387.015C130.856 386.925 131.125 386.825 131.395 386.725C133.27 385.985 135.006 384.944 136.812 384.064C141.88 381.603 141.232 382.103 139.256 377.402C132.901 362.308 128.97 346.773 130.307 330.198C131.584 314.393 137.52 300.709 148.415 289.176C154.93 282.274 162.732 277.182 171.042 272.841C173.696 271.451 176.39 270.17 179.104 268.98C180.012 268.59 180.919 268.2 181.837 267.819C181.857 267.819 181.877 267.81 181.887 267.799C183.713 267.039 185.549 266.319 187.404 265.639H187.414C189.27 264.949 191.126 264.298 193.001 263.678C193.939 263.368 194.877 263.058 195.815 262.758C197.681 262.168 199.556 261.598 201.442 261.048C201.462 261.048 201.472 261.047 201.492 261.037C203.377 260.497 205.263 259.977 207.158 259.457C207.178 259.457 207.198 259.457 207.208 259.447C209.104 258.947 211.01 258.447 212.915 257.967C213.893 257.717 214.871 257.476 215.848 257.236C215.938 257.216 216.038 257.186 216.128 257.166C216.257 257.126 216.397 257.096 216.527 257.066C216.567 257.056 216.617 257.046 216.656 257.046C216.746 257.026 216.826 257.016 216.916 257.006C216.986 256.986 217.055 256.986 217.115 256.996C217.554 256.996 217.963 257.136 218.333 257.576H218.362C215.469 259.367 212.556 261.128 209.683 262.938C208.855 263.458 208.066 264.028 207.388 264.719C207.149 264.949 206.929 265.199 206.72 265.469C206.67 265.469 206.62 265.479 206.57 265.489C206.51 265.489 206.45 265.499 206.39 265.519C206.3 265.539 206.211 265.569 206.121 265.599C205.552 265.799 205.083 266.199 204.604 266.559C204.505 266.639 204.395 266.709 204.295 266.789C203.068 267.709 201.861 268.63 200.654 269.56C195.665 273.421 190.816 277.432 186.197 281.684C184.741 283.024 183.304 284.384 181.897 285.775C181.428 286.245 180.959 286.715 180.5 287.185C180.5 287.185 180.494 287.189 180.48 287.195C178.615 289.066 176.799 291.006 175.033 292.997C174.445 293.667 173.866 294.337 173.287 295.008C171.95 296.578 170.653 298.169 169.396 299.789C169.386 299.799 169.386 299.809 169.376 299.809C168.538 300.889 167.72 301.98 166.922 303.08C166.922 303.09 166.902 303.1 166.902 303.1C166.353 303.86 165.805 304.63 165.276 305.411C164.607 306.381 163.959 307.351 163.32 308.342C162.363 309.822 161.445 311.322 160.567 312.853C159.978 313.873 159.409 314.893 158.851 315.934C158.571 316.454 158.302 316.974 158.033 317.504V317.514C157.165 319.195 156.347 320.905 155.578 322.646C154.351 325.427 153.284 328.237 152.386 331.078C148.784 342.422 147.786 354.175 148.844 366.229C149.143 369.63 149.552 373.081 150.799 376.282C151.119 376.302 151.418 376.272 151.697 376.202C151.917 376.162 152.116 376.102 152.316 376.022C152.964 375.762 153.503 375.371 154.082 375.071C169.087 367.169 184.172 359.427 199.097 351.364C216.257 342.102 233.507 333.019 250.697 323.816C251.615 323.316 252.593 322.876 253.521 322.376C253.531 322.376 253.531 322.366 253.541 322.366C254 322.116 254.459 321.856 254.898 321.555C255.337 321.255 255.766 320.935 256.165 320.565C256.763 320.455 257.332 320.285 257.881 320.075C258.18 319.955 258.479 319.825 258.779 319.685C259.307 319.435 259.826 319.165 260.345 318.885C277.894 309.472 295.483 300.139 312.973 290.616C313.052 290.566 313.142 290.526 313.222 290.476C315.177 289.416 317.133 288.366 319.088 287.305C319.258 287.215 319.418 287.125 319.587 287.035C321.523 285.995 323.448 284.945 325.374 283.884C326.531 283.234 327.688 282.584 328.846 281.924C329.883 281.324 330.921 280.723 331.958 280.103C332.996 279.483 334.014 278.863 335.041 278.223C335.041 278.223 335.048 278.219 335.061 278.213C336.079 277.582 337.087 276.932 338.094 276.272C338.104 276.272 338.104 276.262 338.114 276.262C339.192 275.552 340.239 274.822 341.257 274.051C341.925 273.551 342.594 273.031 343.242 272.491C344.23 271.681 345.178 270.84 346.106 269.96C346.415 269.67 346.724 269.37 347.013 269.07C347.762 268.32 348.48 267.559 349.178 266.759C349.877 265.959 350.555 265.139 351.204 264.288C351.204 264.288 351.207 264.285 351.214 264.278C351.473 263.938 351.732 263.598 351.982 263.238C352.231 262.898 352.491 262.538 352.73 262.178C359.624 252.025 360.781 235.64 348.829 223.856C343.851 218.955 338.014 215.254 332.168 211.593C320.715 204.421 309.141 197.429 296.8 191.827C295.094 191.047 293.817 190.016 291.882 188.786C291.812 188.746 291.742 188.696 291.672 188.646C279.371 179.213 266.7 170.311 253.571 162.048C253.361 161.908 253.201 161.798 253.072 161.718C252.982 161.658 252.892 161.598 252.802 161.548C252.224 161.188 251.715 160.878 251.715 160.878C251.126 160.538 250.598 160.228 250.149 159.977C250.089 159.947 250.029 159.917 249.969 159.887C249.829 159.817 249.7 159.747 249.58 159.677C251.775 160.518 255.007 161.808 258.918 163.579C260.076 164.099 260.904 164.499 261.243 164.649C284.489 175.162 307.595 185.955 329.883 198.399C336.628 202.16 343.382 205.921 349.697 210.402C356.521 215.244 362.338 221.096 365.82 228.778C372.963 244.523 370.838 259.287 360.472 272.991H360.462Z" fill="#1E9DF1"/>
<path d="M155.568 322.646C156.337 320.905 157.155 319.195 158.023 317.514C157.165 319.195 156.357 320.895 155.588 322.636C154.361 325.417 153.294 328.227 152.396 331.068C148.794 342.412 147.796 354.165 148.854 366.219C149.153 369.62 149.562 373.071 150.809 376.272C151.129 376.292 151.418 376.272 151.687 376.202C151.408 376.272 151.109 376.302 150.79 376.282C149.542 373.081 149.133 369.63 148.834 366.229C147.777 354.175 148.774 342.422 152.376 331.078C153.274 328.237 154.341 325.427 155.568 322.646Z" fill="#FBFDFE"/>
<path d="M160.567 312.853C161.445 311.322 162.363 309.822 163.32 308.342C162.373 309.822 161.455 311.322 160.567 312.853Z" fill="#FBFDFE"/>
<path d="M180.48 287.195C180.48 287.195 180.49 287.185 180.5 287.185C178.635 289.056 176.819 290.996 175.053 292.987C174.464 293.657 173.886 294.327 173.307 294.998C171.96 296.568 170.663 298.169 169.396 299.789C170.653 298.169 171.95 296.578 173.287 295.008C173.866 294.337 174.445 293.667 175.033 292.997C176.799 291.006 178.615 289.066 180.48 287.195Z" fill="#FBFDFE"/>
<path d="M207.388 264.719C207.158 264.949 206.939 265.199 206.739 265.459L206.729 265.469C206.939 265.199 207.158 264.949 207.398 264.719H207.388Z" fill="#FBFDFE"/>
<path d="M256.165 320.555C254.568 322.026 252.553 322.816 250.687 323.816C233.497 333.019 216.247 342.101 199.087 351.364C184.162 359.427 169.077 367.169 154.072 375.071C153.104 375.581 152.216 376.342 150.819 376.262C149.582 373.061 149.163 369.61 148.864 366.209C147.537 351.144 149.433 336.55 155.588 322.636C160.068 312.503 166.134 303.39 173.307 294.998C182.536 284.194 193.261 275.032 204.604 266.559C205.253 266.079 205.871 265.519 206.739 265.459C206.63 266.059 206.63 266.699 206.4 267.239C201.522 279.223 204.355 290.016 211.628 299.979C217.205 307.611 224.977 312.423 233.657 315.734C240.132 318.204 246.896 319.655 253.85 319.975C254.668 320.015 255.486 320.015 256.175 320.545H256.165V320.555Z" fill="#8FC9FF"/>
<path d="M259.307 25.7577C259.307 25.7577 259.297 25.7977 259.297 25.8077C259.297 25.8077 259.277 25.7977 259.267 25.7977L259.307 25.7577Z" fill="#FBFDFE"/>
<path d="M328.516 90.2868C328.516 100.52 325.324 109.683 319.418 117.955C318.859 118.735 318.3 119.495 317.741 120.266C317.193 121.016 316.574 121.726 315.996 122.456C315.367 123.247 314.738 124.097 314.01 124.797C314 124.797 314 124.807 313.99 124.807C313.392 125.017 312.923 125.397 312.484 125.807C312.424 125.867 312.354 125.927 312.294 125.987C312.194 126.077 312.095 126.167 311.995 126.277C311.895 126.377 311.795 126.467 311.686 126.568C311.596 126.678 311.496 126.768 311.396 126.848C310.568 127.558 309.74 128.278 308.912 128.978C308.912 128.978 308.905 128.982 308.892 128.988C307.655 130.059 306.398 131.089 305.111 132.089C304.243 132.759 303.365 133.41 302.467 134.05C302.028 134.37 301.579 134.67 301.13 134.97C299.414 136.1 297.678 137.181 295.902 138.201C295.314 138.541 294.715 138.881 294.126 139.211C288.898 142.092 283.451 144.523 277.764 146.483C276.587 146.894 275.4 147.274 274.203 147.644C273.514 147.854 272.826 148.064 272.137 148.254C269.384 149.054 266.61 149.734 263.827 150.295C262.44 150.575 261.043 150.835 259.646 151.065C258.26 151.295 256.873 151.505 255.486 151.675C254.768 151.765 254.059 151.845 253.341 151.925C252.812 151.985 252.294 152.035 251.765 152.085C246.278 152.605 240.76 152.725 235.193 152.485C235.193 152.485 235.183 152.485 235.183 152.475C234.505 152.145 233.797 151.805 233.058 151.445C217.265 143.763 213.574 142.252 211.109 141.482C214.062 141.482 217.006 141.552 219.949 141.462C226.075 141.282 232.061 140.292 237.787 138.031C249.151 133.53 256.205 125.347 258.539 113.294C260.265 104.381 259.148 95.6784 256.155 87.1658C254.498 82.4544 252.433 77.9431 249.989 73.5918C250.338 73.3817 250.717 73.3917 251.086 73.5518C255.785 75.5924 260.155 78.0331 263.388 82.2244C270.761 91.7972 272.556 102.57 270.481 114.244C270.152 116.114 269.374 117.925 269.434 119.946C270.621 119.766 270.94 118.835 271.439 118.135C277.295 109.823 279.979 100.45 280.448 90.3868C281.027 78.0931 278.543 66.3597 274.133 54.9163C270.521 45.5635 265.413 37.031 260.445 28.3984C259.986 27.5882 258.898 26.998 259.297 25.8076C265.573 28.7085 270.701 33.1098 275.44 38.0513C285.018 48.0142 290.365 59.9778 292.261 73.5918C292.4 74.5721 292.36 75.6124 293.169 76.9928C294.406 67.2699 294.276 58.0272 292.929 48.8145C291.582 39.6317 288.809 30.8491 285.227 22.2266C288.07 24.5172 290.525 27.138 292.68 30.0289C299.733 39.4817 303.654 50.1549 304.772 61.8783C305.799 72.6315 305.091 83.2447 301.908 93.6177C299.165 102.56 294.934 110.743 289.477 118.315C288.908 119.105 288.04 119.745 287.891 120.846C294.555 118.825 308.224 106.962 313.112 99.6195C319.438 90.1067 322.65 79.7136 322.89 68.3202C324.047 68.2302 323.917 69.0905 324.087 69.5206C326.691 76.1926 328.516 83.0346 328.516 90.2868Z" fill="#1E9DF1"/>
<path d="M297.578 218.795C293.378 224.987 287.871 229.678 281.166 232.919C271.848 237.43 262.091 240.841 252.333 244.282C242.397 247.784 232.589 251.655 222.742 255.416C221.246 255.986 219.849 256.836 218.402 257.556H218.382C218.003 257.106 217.564 256.966 217.115 256.996C217.056 256.986 216.986 256.986 216.916 257.006C216.826 257.016 216.746 257.026 216.656 257.046C216.617 257.046 216.567 257.046 216.527 257.066C216.397 257.096 216.257 257.136 216.128 257.166C216.038 257.186 215.938 257.216 215.848 257.236C214.871 257.476 213.893 257.716 212.915 257.967C211.01 258.447 209.104 258.947 207.208 259.447C207.198 259.457 207.178 259.457 207.159 259.457C205.263 259.977 203.377 260.497 201.492 261.037C201.472 261.047 201.462 261.047 201.442 261.047C199.556 261.598 197.681 262.168 195.815 262.758C194.877 263.058 193.939 263.368 193.001 263.678C191.136 264.298 189.27 264.959 187.414 265.639H187.404C185.559 266.329 183.713 267.049 181.887 267.799C181.877 267.799 181.857 267.819 181.837 267.819C180.919 268.2 180.012 268.59 179.104 268.98C176.4 270.17 173.726 271.451 171.092 272.831C162.782 277.182 154.98 282.264 148.465 289.166C137.57 300.709 131.634 314.383 130.357 330.188C129.02 346.763 132.951 362.297 139.306 377.392C141.282 382.093 141.94 381.593 136.862 384.054C135.036 384.934 133.28 385.995 131.395 386.725C131.125 386.825 130.856 386.925 130.577 387.015C130.277 387.115 129.978 387.205 129.669 387.285C129.349 386.885 129.04 386.495 128.721 386.085H128.711C128.86 385.924 128.96 385.774 129.03 385.614C129.06 385.564 129.08 385.504 129.09 385.454C129.329 384.684 128.731 383.944 128.531 383.254C126.706 376.992 125.079 370.68 124.171 364.218C121.957 348.543 121.857 332.939 126.466 317.604C126.586 317.224 126.706 316.834 126.815 316.454C126.945 316.054 127.075 315.664 127.204 315.264C129.998 306.771 133.929 298.899 139.047 291.667C139.516 291.006 139.995 290.346 140.474 289.706C141.94 287.755 143.496 285.845 145.143 283.994C157.474 270.08 172.818 260.507 189.4 252.695C209.333 243.292 230.235 236.69 251.495 231.099C261.023 228.598 270.511 225.927 279.989 223.246C285.876 221.586 291.522 219.315 296.92 216.424C297.449 216.134 298.037 215.954 298.596 215.714C298.865 216.954 298.207 217.865 297.578 218.795Z" fill="#8FC9FF"/>
<path d="M147.138 135.19C144.175 135.67 141.272 135.01 138.358 134.69C128.062 133.55 117.776 132.359 107.7 129.818C86.6885 124.507 68.4309 114.464 53.6353 98.4192C47.1504 91.3871 42.3416 83.3147 38.5105 74.5621C37.3432 71.9013 36.4153 69.2005 35.697 66.4697C35.6072 66.1396 35.5174 65.8095 35.4476 65.4794C34.0907 60.0078 33.552 54.3861 33.6318 48.6644C33.7416 40.1019 35.8966 31.9594 39.5181 24.1971C39.8673 23.4569 40.2265 22.7267 40.9049 22.2166H40.9149V22.2766C40.855 22.9168 40.8251 23.567 40.7553 24.2071C40.7253 24.4572 40.6954 24.7073 40.6555 24.9474C36.7446 48.2943 43.1198 68.8404 57.646 87.0858C59.9905 90.0267 62.4947 92.7975 65.1286 95.3983C66.4455 96.6987 67.7924 97.959 69.1692 99.1894C71.2444 101.02 73.3894 102.77 75.5843 104.451C80.7224 108.362 86.1996 111.863 91.8864 115.074C106.034 123.056 121.168 128.588 136.872 132.589C137.46 132.739 138.049 132.879 138.648 133.019C140.424 133.42 142.229 133.76 144.005 134.14C144.823 134.31 145.651 134.42 146.41 134.76C146.42 134.76 146.42 134.76 146.42 134.76C146.669 134.87 146.909 135 147.138 135.18V135.19Z" fill="#8FC9FF"/>
<path d="M199.087 209.302C199.067 209.552 199.007 209.782 198.918 210.012C198.549 210.953 197.621 211.743 196.074 212.563C194.159 213.583 192.064 213.934 189.929 214.074C185.1 214.394 180.461 213.393 175.871 212.033C174.415 211.603 172.968 211.123 171.541 210.603C167.102 209.002 162.542 208.242 157.823 208.412C156.406 208.462 154.99 208.342 153.573 208.292C155.568 205.591 158.392 203.781 160.796 201.53C163.211 199.269 165.775 197.159 168.269 194.978C168.788 194.528 169.316 194.068 169.586 193.407C169.596 193.407 169.596 193.377 169.606 193.367C173.038 193.027 176.45 192.627 179.513 190.817C180.68 190.126 181.768 190.206 182.935 190.917C189.15 194.748 194.558 199.409 198.1 205.941C198.838 207.312 199.187 208.382 199.087 209.302Z" fill="#8FC9FF"/>
<path d="M83.1767 36.731C83.466 38.8216 82.5381 40.7221 82.2688 42.7227C80.5228 55.5665 81.8797 68.0503 86.4491 80.1939C88.9632 86.8658 91.9463 93.2977 95.7474 99.3495C96.2762 100.2 96.7551 101.09 97.1043 102.12C91.7068 99.1495 87.1474 95.0683 82.3985 91.2371C82.2289 90.5569 82.1291 89.8367 81.8597 89.1865C78.0586 80.0238 76.4523 70.451 76.9711 60.598C77.3602 53.2859 78.5374 46.0537 81.6203 39.2817C82.0393 38.3614 82.2688 37.3411 83.1767 36.731Z" fill="#8FC9FF"/>
<path d="M313.99 124.797C312.873 128.018 310.359 130.139 307.964 132.299C294.805 144.183 279.161 150.745 261.841 153.445C254.409 154.606 246.856 154.476 239.344 154.216C239.104 154.206 238.865 154.196 238.635 154.166C237.588 153.656 236.44 153.095 235.193 152.485C235.193 152.485 235.183 152.485 235.183 152.475C240.75 152.725 246.288 152.595 251.765 152.085C252.294 152.035 252.812 151.985 253.341 151.925C254.059 151.845 254.768 151.765 255.486 151.675C256.873 151.495 258.26 151.295 259.646 151.065C261.043 150.835 262.44 150.575 263.827 150.295C266.61 149.724 269.384 149.044 272.137 148.254C272.826 148.064 273.514 147.854 274.203 147.644C275.4 147.274 276.587 146.894 277.764 146.483C283.451 144.523 288.899 142.092 294.126 139.211C294.715 138.881 295.314 138.541 295.902 138.201C297.658 137.171 299.394 136.1 301.11 134.97C301.569 134.67 302.018 134.36 302.467 134.05C303.365 133.41 304.243 132.759 305.111 132.089C306.398 131.079 307.655 130.039 308.892 128.988C308.892 128.988 308.899 128.985 308.912 128.978C309.74 128.268 310.558 127.558 311.376 126.848C311.476 126.758 311.586 126.658 311.686 126.568C311.795 126.467 311.895 126.377 311.995 126.277C312.095 126.167 312.194 126.077 312.294 125.987C312.354 125.927 312.424 125.867 312.484 125.807C312.923 125.387 313.392 125.007 313.99 124.797Z" fill="#8FC9FF"/>
<path d="M259.288 24.5372L259.148 24.5872H259.248L259.298 24.5372H259.288Z" fill="#FBFDFE"/>
<path d="M249.989 72.3714V72.2014L249.929 72.4014L249.989 72.3714Z" fill="#FBFDFE"/>
<path d="M208.646 161.698C208.646 161.698 208.616 161.728 208.596 161.738C208.546 161.758 208.476 161.768 208.376 161.768C208.456 161.688 208.536 161.628 208.626 161.558H208.636C208.636 161.558 208.676 161.658 208.646 161.698Z" fill="#4D83C4"/>
</g>
<defs>
<clipPath id="clip0_23_29">
<rect width="370" height="438" fill="white"/>
</clipPath>
</defs>
</svg>
