<svg width="16" height="15" viewBox="0 0 16 15" fill="none" xmlns="http://www.w3.org/2000/svg">
<rect x="1" y="1" width="13" height="10" rx="2" fill="#1E9DF1"/>
<path d="M3.86852 13.8977L3.70822 9.6287L6.55475 10.5759L3.86852 13.8977Z" fill="#1E9DF1"/>
<path d="M8.00102 4.7647C8.76844 5.13439 8.7518 6.23298 7.97354 6.57926L4.66033 8.05344C3.99302 8.35035 3.24287 7.85496 3.25393 7.12465L3.30009 4.07665C3.31115 3.34634 4.07595 2.87389 4.73397 3.19087L8.00102 4.7647Z" fill="white"/>
<path d="M10 4.33333C10 4.14924 10.1492 4 10.3333 4V4C10.5174 4 10.6667 4.14924 10.6667 4.33333V6.66667C10.6667 6.85076 10.5174 7 10.3333 7V7C10.1492 7 10 6.85076 10 6.66667V4.33333Z" fill="white"/>
<rect x="11.3333" y="4" width="0.666666" height="3" rx="0.333333" fill="white"/>
</svg>
