<svg width="268" height="333" viewBox="0 0 268 333" fill="none" xmlns="http://www.w3.org/2000/svg">
<path d="M25.2722 89.3537C25.2722 84.1309 25.2817 78.4467 25.2617 72.7633C25.2588 71.9789 25.3971 71.3303 26.1245 70.8634C26.5859 70.567 27.0588 70.4753 27.5679 70.6239C27.9912 70.7478 28.4002 70.9239 28.8035 71.1019C32.8457 72.8771 36.8899 74.6486 40.9255 76.4375C46.1138 78.7366 51.2963 81.0494 56.4797 83.3585C59.9938 84.9236 63.508 86.4914 67.0192 88.062C67.4215 88.2418 67.8305 88.4198 68.2004 88.6528C68.8926 89.0905 68.9298 89.84 68.311 90.3473C68.1671 90.4656 68.0098 90.5739 67.8458 90.6638C66.0792 91.6298 64.3479 92.6628 62.5355 93.5408C56.1842 96.6169 49.8004 99.6315 43.4358 102.684C39.8559 104.4 36.295 106.155 32.7132 107.868C31.5206 108.439 30.3098 108.987 29.0695 109.449C27.464 110.046 25.6135 108.855 25.563 107.221C25.4886 104.781 25.4352 102.342 25.4838 99.8957C25.5496 96.538 25.3628 93.1766 25.2741 89.3547L25.2722 89.3537Z" fill="#1AA0F0"/>
<path d="M16.8844 131.603C16.8844 125.31 16.8911 119.016 16.8768 112.724C16.8749 111.893 16.9854 111.147 17.7148 110.593C18.0923 110.306 18.4956 110.177 18.9532 110.327C19.3727 110.464 19.7845 110.627 20.1888 110.803C23.6037 112.28 27.0216 113.749 30.426 115.246C32.3881 116.109 34.3177 117.04 36.2807 117.902C40.6661 119.827 45.1031 121.65 49.4457 123.661C53.5061 125.541 57.7152 127.109 61.6898 129.162C62.1922 129.421 62.728 129.619 63.0827 130.087C63.5069 130.647 63.5031 131.255 62.9921 131.74C62.6785 132.037 62.3248 132.311 61.9463 132.525C60.6859 133.233 59.4303 133.953 58.1299 134.587C54.3927 136.408 50.6193 138.161 46.8878 139.992C43.1583 141.823 39.4763 143.745 35.7458 145.574C32.2403 147.294 28.6966 148.941 25.1711 150.624C23.7496 151.302 22.3329 151.99 20.9124 152.67C20.4595 152.886 20.02 153.127 19.4919 153.165C18.2944 153.252 17.3859 152.544 17.2953 151.394C17.2524 150.847 17.2676 150.295 17.2638 149.746C17.2276 144.796 17.1914 139.848 17.159 134.898C17.1513 133.8 17.158 132.701 17.158 131.603C17.0665 131.603 16.9759 131.603 16.8844 131.603Z" fill="#22A1EE"/>
<path d="M209.179 228.012C209.426 228.091 209.856 228.201 210.261 228.363C212.839 229.398 215.43 230.405 217.982 231.494C223.495 233.846 228.992 236.234 234.486 238.626C237.494 239.935 240.459 241.339 243.491 242.595C245.766 243.538 248.033 244.493 250.247 245.561C251.589 246.208 251.602 246.558 250.327 247.403C249.858 247.714 249.358 247.989 248.848 248.234C246.349 249.434 243.864 250.665 241.332 251.798C236.728 253.86 232.118 255.915 227.465 257.871C222.692 259.88 218.076 262.201 213.336 264.271C212.237 264.751 211.152 265.266 209.977 265.556C208.685 265.874 207.736 265.235 207.592 263.933C207.538 263.448 207.554 262.956 207.553 262.467C207.512 251.772 207.475 241.076 207.438 230.38C207.437 230.013 207.422 229.646 207.454 229.281C207.525 228.484 208.158 227.969 209.178 228.011L209.179 228.012Z" fill="#1AA1EF"/>
<path d="M62.1443 296.774C62.1443 291.826 62.1434 286.878 62.1453 281.932C62.1453 281.199 62.1386 280.465 62.1806 279.734C62.2607 278.338 63.501 277.581 64.8395 278.092C65.0159 278.159 65.1865 278.243 65.3572 278.325C69.2107 280.2 73.1796 281.832 77.1141 283.536C82.7256 285.967 88.382 288.304 93.9191 290.896C96.8851 292.284 99.9206 293.533 102.919 294.855C103.378 295.058 103.839 295.278 104.246 295.562C104.805 295.95 104.796 296.741 104.234 297.119C103.663 297.502 103.062 297.85 102.449 298.169C98.2646 300.351 94.0269 302.429 89.7396 304.42C85.969 306.172 82.2452 308.015 78.4946 309.804C74.2311 311.837 69.9601 313.857 65.6918 315.881C65.464 315.988 65.2304 316.085 64.9921 316.17C63.6507 316.646 62.4075 315.925 62.2454 314.547C62.1749 313.942 62.1901 313.326 62.1901 312.716C62.1863 307.403 62.1882 302.089 62.1882 296.775H62.1443V296.774Z" fill="#199FEF"/>
<path d="M0.000376639 274.952C0.000376639 269.511 -0.0015301 264.07 0.00323674 258.629C0.00323674 258.081 -0.0148772 257.52 0.0861797 256.985C0.276853 255.981 1.04527 255.566 2.05965 255.846C2.18168 255.88 2.30467 255.915 2.41907 255.964C4.78724 257.001 7.15445 258.038 9.52071 259.079C10.0984 259.333 10.6485 259.67 11.2501 259.841C12.1358 260.093 12.8508 260.456 13.3342 261.276C13.6488 261.81 14.3181 262.028 14.8939 262.288C16.2238 262.888 17.6272 263.345 19.062 263.548C20.3529 263.73 21.5131 264.165 22.6667 264.666C26.7757 266.449 30.8752 268.255 34.9775 270.051C38.3286 271.518 37.6889 270.815 37.7328 274.173C37.7452 275.089 37.7394 276.007 37.7471 276.923C37.7509 277.394 37.5554 277.745 37.1226 277.974C36.6774 278.209 36.2427 278.463 35.7908 278.686C33.1909 279.965 30.5882 281.238 27.9855 282.512C23.9671 284.479 19.9629 286.474 15.9254 288.404C11.9451 290.307 7.93144 292.145 3.93016 294.006C3.5307 294.192 3.11884 294.358 2.70031 294.499C1.46856 294.916 0.397931 294.35 0.151009 293.099C0.0337445 292.505 0.0451849 291.882 0.0442316 291.272C0.0366046 285.831 0.0404181 280.39 0.0404181 274.95H0.000376639V274.952Z" fill="#1AA0EF"/>
<path d="M81.9767 262.003C81.9767 256.687 81.9767 251.37 81.9767 246.054C81.9767 245.687 81.9872 245.321 81.9767 244.954C81.9586 244.282 82.3056 243.798 82.8138 243.386C83.0769 243.172 83.361 243.091 83.6899 243.198C83.8701 243.257 84.0484 243.324 84.2229 243.396C86.1458 244.194 88.0821 244.965 89.986 245.802C93.0463 247.146 96.078 248.549 99.1364 249.897C100.289 250.404 101.495 250.798 102.655 251.292C108.403 253.735 114.146 256.189 119.886 258.649C121.162 259.196 122.403 259.816 123.688 260.342C124.774 260.787 124.665 261.861 123.884 262.348C123.351 262.68 122.829 263.032 122.271 263.321C120.65 264.16 119.03 265.005 117.38 265.787C110.035 269.273 102.682 272.74 95.3286 276.207C92.1377 277.712 88.9392 279.202 85.7425 280.695C85.4575 280.828 85.1667 280.957 84.8683 281.057C83.5059 281.509 82.257 280.781 82.1026 279.417C82.0339 278.811 82.0473 278.196 82.0473 277.585C82.0435 272.391 82.0454 267.198 82.0454 262.003H81.9767Z" fill="#1BA2F0"/>
<path d="M32.0622 208.268C32.0622 203.565 32.0622 198.862 32.0622 194.159C32.0622 193.671 32.0355 193.178 32.0861 192.694C32.1776 191.816 32.8259 191.281 33.743 191.253C34.2006 191.239 34.6172 191.354 35.0282 191.533C38.9045 193.213 42.7828 194.887 46.6592 196.565C48.4525 197.341 50.2449 198.121 52.0362 198.903C55.2148 200.291 58.3904 201.683 61.568 203.073C64.8009 204.487 68.0376 205.895 71.2676 207.315C71.9016 207.594 72.5222 207.905 73.1371 208.222C73.4146 208.365 73.6967 208.524 73.9198 208.734C74.5834 209.356 74.4766 210.268 73.6538 210.715C72.1628 211.526 70.6612 212.322 69.1358 213.072C65.7457 214.737 62.344 216.38 58.9367 218.012C53.37 220.68 47.7966 223.337 42.2213 225.987C41.369 226.393 40.4833 226.734 39.6186 227.118C39.121 227.339 38.6529 227.308 38.1561 227.094C36.5936 226.418 35.0367 225.728 33.4456 225.12C32.5313 224.772 32.209 224.2 32.2319 223.296C32.2672 221.892 32.2214 220.487 32.2195 219.081C32.2157 215.477 32.2186 211.874 32.2186 208.269C32.1652 208.269 32.1128 208.269 32.0594 208.269L32.0622 208.268Z" fill="#1AA1EF"/>
<path d="M43.9312 166.644C43.9312 161.27 43.9293 155.895 43.934 150.521C43.934 150.033 43.9245 149.539 43.996 149.058C44.1333 148.137 45.0104 147.597 45.9495 147.845C46.3747 147.956 46.7875 148.126 47.1917 148.3C54.545 151.471 61.906 154.624 69.2431 157.829C73.8641 159.847 78.446 161.949 83.0498 164.004C83.5074 164.208 83.9946 164.351 84.4684 164.521C84.9546 164.696 85.3703 164.94 85.6315 165.406C85.9623 165.995 85.9404 166.471 85.376 166.855C84.6543 167.348 83.9031 167.817 83.1127 168.196C76.6965 171.275 70.268 174.328 63.8442 177.394C61.9127 178.316 59.9869 179.249 58.0591 180.18C54.771 181.767 51.4885 183.366 48.1908 184.934C47.512 185.256 46.7865 185.508 46.0582 185.712C44.9675 186.017 44.1819 185.498 44.037 184.414C43.9808 183.993 43.9998 183.561 43.9989 183.134C43.997 177.637 43.9979 172.14 43.9979 166.644C43.975 166.644 43.9531 166.644 43.9302 166.644H43.9312Z" fill="#1AA0EE"/>
<path d="M183.968 279.141C183.968 273.944 183.968 268.747 183.968 263.549C183.968 263.12 183.948 262.691 183.98 262.265C184.066 261.121 185.303 260.317 186.436 260.672C186.796 260.785 187.138 260.954 187.483 261.111C192.017 263.182 196.624 265.092 201.225 267.019C205.01 268.605 208.723 270.349 212.483 271.99C216.184 273.604 219.813 275.375 223.605 276.797C224.077 276.974 224.546 277.176 224.979 277.427C225.771 277.888 225.79 278.858 225.037 279.397C224.783 279.579 224.51 279.739 224.232 279.887C221.786 281.188 219.327 282.462 216.802 283.618C213.59 285.089 210.403 286.612 207.207 288.114C201.214 290.93 195.225 293.752 189.225 296.554C188.37 296.953 187.474 297.277 186.582 297.595C186.029 297.791 185.465 297.763 184.923 297.482C184.38 297.201 184.017 296.818 183.996 296.199C183.978 295.649 183.957 295.099 183.956 294.549C183.953 289.413 183.954 284.277 183.954 279.141H183.968Z" fill="#1BA1EE"/>
<path d="M120.748 21.9555C120.748 18.9116 120.766 16.2823 120.743 13.653C120.719 10.9649 121.018 8.27786 120.75 5.58984C120.738 5.46875 120.743 5.3449 120.748 5.22288C120.816 3.44127 121.735 2.76697 123.49 3.36788C125.402 4.02199 127.281 4.77427 129.144 5.55223C131.299 6.45221 133.42 7.42558 135.555 8.36868C139.766 10.2292 143.974 12.097 148.188 13.9511C150.787 15.0942 153.398 16.2107 155.996 17.3556C157.439 17.9914 158.885 18.6281 160.294 19.3308C161.041 19.7042 162.128 19.8244 162.177 20.917C162.227 22.0418 161.143 22.1885 160.397 22.5619C157.466 24.0279 154.527 25.4784 151.572 26.8976C144.47 30.3095 137.36 33.7094 130.244 37.0937C128.08 38.1221 125.888 39.0946 123.698 40.0689C122.362 40.6633 121.143 39.9964 120.943 38.5918C120.908 38.3506 120.909 38.1038 120.905 37.8597C120.83 32.4195 120.6 26.9811 120.748 21.9546V21.9555Z" fill="#1BA2F0"/>
<path d="M72.8583 31.7748C72.8583 30.429 72.863 29.0841 72.8554 27.7382C72.8525 27.23 72.8983 26.7529 73.4446 26.4915C73.9851 26.2328 74.0614 25.7658 74.0624 25.2548C74.0643 23.8484 74.0833 22.442 74.0767 21.0347C74.0729 20.2953 74.0462 19.5852 74.7202 19.0228C75.0434 18.7531 74.9404 18.3421 74.6535 18.0403C74.4399 17.8164 74.2225 17.5577 73.9489 17.4339C72.9832 16.9944 72.8459 16.2312 72.8487 15.311C72.8611 10.7854 72.8325 6.25983 72.8201 1.73425C72.8201 1.49022 72.823 1.24343 72.864 1.00399C72.9822 0.318683 73.4903 -0.0666288 74.2159 0.00951621C75.112 0.104927 75.9291 0.45079 76.7375 0.81225C78.2362 1.48104 79.7263 2.16635 81.2365 2.81129C86.6363 5.11857 92.0534 7.38916 97.4437 9.71663C102.08 11.7175 106.691 13.7707 111.308 15.8137C112.172 16.1963 113.037 16.5963 113.849 17.0697C114.626 17.5229 114.619 18.5531 113.879 19.077C113.575 19.2925 113.222 19.4467 112.887 19.6228C109.208 21.5613 105.462 23.3668 101.683 25.1209C97.7364 26.9538 93.8457 28.8997 89.9293 30.7932C89.0779 31.2051 88.2218 31.6088 87.3657 32.0106C85.1977 33.0289 83.0307 34.05 80.858 35.0573C79.427 35.7206 77.9902 36.371 76.5478 37.0096C76.0873 37.2132 75.6097 37.3912 75.1225 37.5242C74.0261 37.8242 72.864 37.2793 72.9202 35.9931C72.9812 34.5894 72.9345 33.1812 72.9345 31.7748H72.8583Z" fill="#1BA1F0"/>
<path d="M185.548 68.8193C185.548 63.4423 185.553 58.0645 185.542 52.6875C185.541 51.9967 185.561 51.349 186.189 50.8646C186.611 50.538 187.049 50.338 187.587 50.5169C188.067 50.6766 188.543 50.8481 189.01 51.0389C199.881 55.4746 210.671 60.0864 221.414 64.801C222.913 65.4588 224.311 66.3285 225.901 66.7991C226.562 66.9945 226.73 67.4844 226.742 68.0807C226.755 68.6587 226.407 68.9541 225.914 69.1853C222.892 70.6055 219.871 72.0265 216.86 73.4659C210.948 76.2934 205.045 79.1392 199.133 81.9657C195.836 83.5428 192.531 85.1033 189.22 86.6537C188.709 86.8931 188.163 87.0785 187.614 87.2179C186.599 87.4748 185.707 86.8776 185.564 85.8657C185.514 85.5051 185.537 85.1336 185.537 84.7675C185.536 79.4511 185.537 74.1356 185.537 68.8193H185.549H185.548Z" fill="#1CA3F0"/>
<path d="M70.3877 22.6793C70.3877 23.7802 70.3763 24.8811 70.3925 25.981C70.4001 26.5242 70.2171 26.9177 69.6822 27.1553C69.1054 27.4113 68.5506 27.7113 67.9795 27.9801C62.4481 30.5901 56.9119 33.1928 51.3833 35.8093C47.7348 37.5358 44.1034 39.2936 40.452 41.0146C39.0839 41.6596 37.6834 42.2412 36.2943 42.8449C36.0636 42.9449 35.8234 43.0302 35.5784 43.0907C34.0673 43.466 32.9023 42.6825 32.8155 41.1816C32.7211 39.5339 32.6487 37.8835 32.6401 36.234C32.5886 26.2673 32.559 16.3005 32.5219 6.3338C32.5219 6.15032 32.5171 5.96684 32.5219 5.78336C32.5571 4.56412 33.337 3.55497 34.5096 3.18434C35.1093 2.99535 35.6489 3.21461 36.1675 3.42378C37.8083 4.08432 39.4424 4.76045 41.0621 5.46685C48.466 8.69797 55.8641 11.9401 63.2623 15.1813C65.2281 16.0427 67.1701 16.9556 69.1579 17.7638C70.1351 18.161 70.4964 18.7454 70.4154 19.7436C70.3362 20.716 70.3982 21.6986 70.3982 22.6775H70.3858L70.3877 22.6793Z" fill="#20A0ED"/>
<path d="M14.9981 238.9C15.2269 234.844 15.3862 229.411 15.4014 223.973C15.4062 222.365 16.473 221.687 18.0642 222.198C18.3635 222.294 18.6476 222.438 18.9327 222.572C24.1285 225.003 29.414 227.239 34.7138 229.449C37.7989 230.735 40.8239 232.156 43.8861 233.493C46.9484 234.831 50.0268 236.134 53.0919 237.465C54.5934 238.116 56.0826 238.794 57.5775 239.461C57.6347 239.487 57.689 239.519 57.7462 239.545C59.0933 240.164 59.4785 241.44 57.874 242.286C56.8729 242.813 55.8862 243.37 54.8661 243.863C51.576 245.451 48.2707 247.01 44.9768 248.59C39.5254 251.204 34.0817 253.835 28.6256 256.439C26.1249 257.632 23.6013 258.782 21.0863 259.948C20.6859 260.133 20.2664 260.282 19.8756 260.483C18.886 260.992 18.0003 260.882 17.024 260.331C16.125 259.824 15.5921 259.265 15.5006 258.216C15.2651 255.537 15.0391 252.859 15.0077 250.172C14.9686 246.874 14.9981 243.575 14.9981 238.9V238.9Z" fill="#21A3F0"/>
<path d="M169.363 34.466C169.363 29.2147 169.363 23.9626 169.363 18.7113C169.363 18.5278 169.347 18.3434 169.363 18.1618C169.421 17.5416 170.048 17.0407 170.679 17.1288C170.927 17.1636 171.17 17.2535 171.404 17.3444C176.523 19.326 181.693 21.1846 186.712 23.4038C190.166 24.9313 193.682 26.3285 197.157 27.8138C200.054 29.0523 202.926 30.3459 205.822 31.589C206.688 31.9614 207.594 32.2477 208.483 32.5724C208.837 32.7027 209.214 32.7945 209.544 32.9678C210.259 33.344 210.328 34.343 209.673 34.8183C209.371 35.0366 209.015 35.1825 208.682 35.3604C204.468 37.6209 200.101 39.5906 195.779 41.6475C189.753 44.5162 183.733 47.3978 177.701 50.2546C175.938 51.0894 174.138 51.8555 172.357 52.6573C171.888 52.8683 171.417 53.0105 170.888 52.894C170.158 52.7334 169.768 52.3912 169.686 51.6784C169.595 50.8913 169.531 50.0959 169.529 49.3042C169.516 44.3575 169.522 39.4117 169.522 34.4651H169.362L169.363 34.466Z" fill="#1BA1EE"/>
<path d="M95.0614 318.607C95.0614 314.941 95.0614 311.276 95.0614 307.61C95.0614 307.243 95.068 306.877 95.0604 306.511C95.0499 306.025 95.2978 305.723 95.7382 305.51C97.4934 304.658 99.239 303.786 100.993 302.933C102.353 302.271 103.75 301.677 105.075 300.957C105.936 300.49 106.7 300.478 107.6 300.827C113.187 303.001 118.75 305.223 124.189 307.73C127.565 309.286 130.992 310.738 134.395 312.239C134.8 312.417 135.217 312.576 135.593 312.799C136.48 313.328 136.517 314.342 135.65 314.893C135.016 315.296 134.343 315.647 133.663 315.976C127.882 318.778 122.096 321.574 116.309 324.364C112.053 326.417 107.796 328.467 103.531 330.5C102.11 331.177 100.663 331.808 99.219 332.439C98.7585 332.64 98.278 332.822 97.787 332.929C96.3446 333.246 95.2682 332.479 95.1405 331.068C95.1023 330.642 95.1052 330.213 95.1043 329.785C95.1014 326.059 95.1023 322.332 95.1023 318.606H95.0594L95.0614 318.607Z" fill="#1BA1EF"/>
<path d="M165.311 131.414C165.311 126.404 165.311 121.394 165.311 116.384C165.311 116.017 165.295 115.649 165.323 115.285C165.427 113.897 166.352 113.311 167.668 113.851C170.236 114.903 172.798 115.972 175.342 117.076C180.723 119.412 186.083 121.793 191.469 124.118C193.61 125.043 195.787 125.892 197.966 126.734C199.973 127.51 201.877 128.487 203.804 129.418C204.086 129.554 204.359 129.719 204.606 129.907C205.064 130.256 205.074 130.995 204.603 131.346C204.255 131.604 203.858 131.811 203.462 132.002C196.255 135.473 189.046 138.941 181.834 142.403C178.142 144.176 174.446 145.943 170.742 147.691C169.718 148.175 168.674 148.631 167.604 149.009C166.571 149.375 165.701 148.779 165.599 147.725C165.569 147.421 165.581 147.115 165.576 146.809C165.503 141.678 165.429 136.546 165.356 131.415H165.312L165.311 131.414Z" fill="#1AA1EF"/>
<path d="M56.1328 55.0519C56.1328 50.1025 56.1328 45.1522 56.1328 40.2027C56.1328 39.8973 56.1214 39.5908 56.1376 39.2863C56.1996 38.1367 57.2006 37.3955 58.3475 37.6771C58.7737 37.7817 59.1817 37.9689 59.5869 38.1432C66.5369 41.1449 73.4851 44.1494 80.4332 47.1549C84.0808 48.7328 87.7313 50.3043 91.3731 51.8951C92.4704 52.3749 93.562 52.8749 94.6193 53.43C95.484 53.8841 95.5327 54.9675 94.7414 55.5648C94.3962 55.8253 93.9844 56.0097 93.5868 56.1978C88.5778 58.5766 83.5622 60.9426 78.556 63.327C76.9067 64.1123 75.2726 64.9297 73.6395 65.7471C69.4142 67.8608 65.0764 69.747 60.7528 71.6616C60.0035 71.9937 59.2723 72.3635 58.521 72.6919C57.499 73.1387 56.4684 72.6295 56.2653 71.547C56.1757 71.0718 56.212 70.5727 56.211 70.0846C56.2081 65.0737 56.2091 60.0628 56.2091 55.0519C56.1834 55.0519 56.1586 55.0519 56.1328 55.0519Z" fill="#1AA1EF"/>
<path d="M180.451 217.753C180.451 212.803 180.45 207.853 180.453 202.903C180.453 202.353 180.435 201.798 180.507 201.255C180.644 200.223 181.541 199.668 182.565 199.968C183.048 200.109 183.514 200.313 183.978 200.508C188.047 202.225 192.117 203.939 196.181 205.666C198.735 206.751 201.278 207.863 203.832 208.948C206.793 210.207 209.764 211.445 212.725 212.703C214.119 213.294 215.519 213.876 216.881 214.529C217.85 214.994 218.834 215.412 219.852 215.756C220.327 215.916 220.559 216.226 220.572 216.715C220.585 217.229 220.52 217.702 220.01 217.987C219.682 218.17 219.335 218.326 218.995 218.489C211.037 222.294 203.082 226.106 195.12 229.902C191.537 231.61 187.94 233.289 184.347 234.977C183.947 235.164 183.546 235.352 183.128 235.496C181.599 236.019 180.614 235.416 180.504 233.884C180.465 233.336 180.475 232.785 180.475 232.234C180.473 227.407 180.474 222.578 180.474 217.751H180.45L180.451 217.753Z" fill="#1DA0ED"/>
<path d="M161.854 231.769C162.056 231.835 162.425 231.926 162.768 232.072C164.566 232.842 166.353 233.638 168.154 234.404C174.662 237.167 181.162 239.954 187.694 242.666C190.962 244.023 194.22 245.396 197.415 246.905C197.91 247.139 198.611 247.251 198.674 247.896C198.742 248.591 198.154 248.955 197.597 249.273C197.378 249.398 197.155 249.515 196.928 249.626C193.591 251.266 190.267 252.936 186.909 254.537C179.451 258.091 171.975 261.612 164.503 265.141C163.934 265.41 163.338 265.626 162.763 265.883C162.251 266.112 161.777 265.982 161.292 265.799C160.832 265.627 160.559 265.334 160.532 264.851C160.489 264.118 160.41 263.385 160.409 262.653C160.392 253.051 160.384 243.449 160.378 233.848C160.378 233.482 160.378 233.11 160.443 232.752C160.536 232.237 161.128 231.797 161.855 231.769H161.854Z" fill="#1BA1EF"/>
<path d="M230.036 180.845C229.896 181.021 229.811 181.208 229.663 181.301C228.987 181.723 228.871 182.344 228.881 183.055C228.91 185.438 228.911 187.822 228.925 190.205C228.926 190.388 228.911 190.576 228.944 190.755C229.114 191.677 228.689 192.187 227.832 192.599C221.702 195.552 215.652 198.66 209.422 201.42C207.808 202.136 206.223 202.914 204.633 203.678C203.909 204.026 203.223 204.07 202.442 203.774C201.554 203.438 201.166 202.938 201.17 201.995C201.191 197.167 201.153 192.339 201.147 187.511C201.142 182.195 201.144 176.878 201.152 171.561C201.154 170.323 201.5 169.851 202.581 169.483C203.025 169.331 203.455 169.346 203.882 169.51C204.706 169.829 205.531 170.147 206.345 170.487C210.768 172.338 215.222 174.126 219.598 176.076C222.591 177.409 225.721 178.458 228.584 180.062C229.016 180.304 229.585 180.281 230.037 180.847L230.036 180.845Z" fill="#1BA2F0"/>
<path d="M117.144 145.447C117.144 141.106 117.143 136.765 117.146 132.423C117.146 131.996 117.131 131.563 117.187 131.141C117.333 130.047 118.136 129.538 119.206 129.886C119.926 130.119 120.638 130.397 121.316 130.727C125.966 132.993 130.781 134.913 135.496 137.041C139.925 139.039 144.38 140.982 148.814 142.97C149.617 143.33 150.435 143.687 151.113 144.257C151.653 144.711 151.66 145.238 151.117 145.646C150.819 145.87 150.492 146.066 150.157 146.237C147.518 147.58 144.875 148.914 142.232 150.249C140.376 151.185 138.525 152.133 136.659 153.05C133.434 154.632 130.177 156.154 126.975 157.779C124.84 158.863 122.716 159.961 120.478 160.841C120.067 161.003 119.657 161.172 119.236 161.307C118.489 161.546 118.045 161.385 117.613 160.775C117.276 160.299 117.181 159.765 117.173 159.206C117.153 157.983 117.121 156.761 117.118 155.538C117.111 152.174 117.115 148.811 117.115 145.448C117.125 145.448 117.135 145.448 117.145 145.448L117.144 145.447Z" fill="#1BA1EE"/>
<path d="M180.39 161.005C180.39 157.091 180.39 153.178 180.39 149.264C180.39 148.836 180.407 148.408 180.408 147.98C180.409 147.504 180.627 147.163 181.074 146.961C182.167 146.469 183.267 145.988 184.242 145.287C184.65 144.994 185.081 145.095 185.507 145.271C187.026 145.895 188.551 146.504 190.062 147.143C194.19 148.89 198.315 150.644 202.436 152.406C205.223 153.598 207.999 154.811 210.781 156.012C211.707 156.412 212.635 156.812 213.567 157.202C214.216 157.473 214.803 157.828 215.287 158.326C215.554 158.601 215.537 159.052 215.238 159.314C215.005 159.519 214.753 159.71 214.482 159.863C213.99 160.143 213.486 160.404 212.974 160.648C207.401 163.315 201.847 166.02 196.244 168.626C191.954 170.622 187.637 172.561 183.424 174.708C182.742 175.054 182.044 175.333 181.245 175.246C180.815 175.199 180.524 174.988 180.478 174.572C180.425 174.087 180.407 173.597 180.406 173.109C180.4 169.074 180.403 165.038 180.403 161.003C180.398 161.003 180.394 161.003 180.389 161.003L180.39 161.005Z" fill="#1BA1F0"/>
<path d="M72.2647 128.263C72.545 128.369 72.8444 128.466 73.1304 128.594C75.2583 129.542 77.3738 130.518 79.5113 131.445C83.6155 133.225 87.7322 134.98 91.845 136.741C95.9025 138.479 99.962 140.213 104.019 141.95C104.308 142.074 104.578 142.24 104.871 142.357C106.433 142.979 106.35 143.839 104.921 144.629C104.206 145.025 103.49 145.418 102.755 145.776C98.9619 147.622 95.1703 149.471 91.3626 151.29C87.1573 153.297 82.93 155.263 78.7247 157.271C78.0879 157.575 77.5321 157.554 76.9191 157.263C75.2125 156.453 73.5012 155.651 71.7776 154.875C71.1836 154.608 70.9443 154.223 70.9376 153.593C70.9128 151.395 70.8194 149.198 70.7946 147.001C70.7317 141.382 70.705 135.764 70.6268 130.146C70.6154 129.305 70.8671 128.724 71.6898 128.416C71.8633 128.351 72.0512 128.318 72.2647 128.262V128.263Z" fill="#1DA2F0"/>
<path d="M230.366 198.746C230.414 194.227 230.464 189.709 230.513 185.19C230.517 184.884 230.526 184.58 230.533 184.274C230.542 183.817 230.713 183.437 231.136 183.202C233.449 181.917 232.535 181.629 235.236 182.79C241.956 185.674 248.641 188.634 255.347 191.546C258.526 192.926 261.775 194.158 264.87 195.723C265.37 195.975 265.946 196.081 266.468 196.299C267.176 196.592 267.353 197.395 266.87 197.967C266.579 198.31 266.172 198.478 265.781 198.683C259.491 201.992 253.074 205.066 246.657 208.134C242.455 210.143 238.147 211.945 233.878 213.823C233.304 214.075 232.698 214.297 232.082 214.413C230.813 214.651 230.409 214.012 230.423 213.221C230.431 212.733 230.398 212.244 230.398 211.756C230.396 207.421 230.397 203.084 230.397 198.748C230.388 198.748 230.377 198.748 230.368 198.748L230.366 198.746Z" fill="#22A3EE"/>
<path d="M46.4085 252.256C46.9644 252.467 47.503 252.649 48.0226 252.872C52.5406 254.812 57.0491 256.773 61.5728 258.702C65.5159 260.383 69.4762 262.027 73.426 263.694C74.1811 264.012 74.9381 264.334 75.6645 264.707C76.4806 265.127 76.5035 265.709 75.7427 266.269C75.3919 266.526 75.0019 266.739 74.613 266.943C69.3752 269.69 64.0516 272.271 58.6689 274.743C55.9203 276.004 53.2041 277.331 50.4594 278.6C48.5155 279.498 46.543 280.34 44.5924 281.224C43.7591 281.602 43.0069 281.565 42.3005 280.968C41.9001 280.631 41.6341 280.244 41.6627 279.704C41.6789 279.4 41.657 279.094 41.657 278.789C41.6522 271.033 41.6608 263.277 41.6264 255.522C41.6226 254.729 41.8867 254.29 42.6284 253.977C43.6152 253.562 44.5561 253.047 45.5229 252.588C45.8022 252.455 46.1054 252.368 46.4095 252.256H46.4085Z" fill="#1FA3F0"/>
<path d="M211.494 88.9439C211.494 86.3192 211.518 83.6936 211.48 81.0689C211.467 80.1469 211.852 79.6322 212.71 79.2423C214.946 78.224 217.16 77.1598 219.346 76.0461C220.347 75.5369 221.241 75.5819 222.243 76.0094C228.562 78.7056 234.899 81.3624 241.22 84.056C242.9 84.7725 244.544 85.5706 246.203 86.3348C246.374 86.4137 246.541 86.5045 246.691 86.6137C247.262 87.0311 247.273 87.766 246.697 88.1687C246.391 88.3816 246.049 88.554 245.708 88.7127C238.628 92.0053 231.546 95.2933 224.463 98.5822C223.092 99.2189 221.712 99.8363 220.352 100.495C219.134 101.085 217.99 101.144 216.747 100.465C215.426 99.7437 214.017 99.1694 212.632 98.562C211.912 98.2465 211.612 97.7823 211.603 96.9988C211.574 94.3135 211.472 91.6292 211.398 88.9448H211.495L211.494 88.9439Z" fill="#1CA1EE"/>
<path d="M179.473 89.8949C179.997 89.8866 180.455 90.0692 180.919 90.2903C181.771 90.6967 182.647 91.0581 183.517 91.4279C187.521 93.1287 191.524 94.8324 195.533 96.5231C198.675 97.8479 201.83 99.1405 204.967 100.475C207.465 101.539 209.943 102.64 212.427 103.734C212.83 103.911 213.227 104.112 213.597 104.346C214.084 104.654 214.095 105.228 213.593 105.562C213.073 105.908 212.522 106.226 211.948 106.476C207.957 108.218 204.067 110.16 200.132 112.015C196.369 113.789 192.563 115.481 188.775 117.206C188.545 117.311 188.297 117.38 188.075 117.496C186.967 118.079 185.922 117.951 184.812 117.415C182.827 116.458 180.8 115.581 178.775 114.702C178.168 114.438 177.905 114.038 177.921 113.421C177.93 113.055 177.908 112.687 177.907 112.321C177.889 105.595 177.872 98.8699 177.857 92.1444C177.857 91.8389 177.842 91.5288 177.888 91.2288C178.001 90.4958 178.706 89.9169 179.472 89.8958L179.473 89.8949Z" fill="#1FA3EF"/>
<path d="M118.074 288.625C118.074 284.718 118.067 280.811 118.083 276.905C118.085 276.485 118.131 276.034 118.298 275.655C118.708 274.726 119.435 274.575 120.123 274.876C121.739 275.584 123.373 276.257 125.019 276.897C130.018 278.844 134.868 281.108 139.765 283.274C142.588 284.523 145.42 285.755 148.238 287.016C148.984 287.349 149.715 287.726 150.409 288.147C150.962 288.482 150.991 289.181 150.471 289.535C149.851 289.955 149.183 290.314 148.517 290.666C143.902 293.107 139.109 295.205 134.38 297.427C130.62 299.194 126.871 300.982 123.138 302.801C122.384 303.168 121.713 303.246 120.982 302.843C120.708 302.69 120.435 302.498 120.136 302.431C118.427 302.049 118.155 300.955 118.2 299.43C118.307 295.831 118.235 292.226 118.235 288.625C118.182 288.625 118.129 288.625 118.076 288.625H118.074Z" fill="#1DA1EE"/>
<path d="M117.771 227.714C117.995 227.781 118.37 227.859 118.714 228.003C119.412 228.296 120.095 228.624 120.782 228.941C125.649 231.194 130.587 233.292 135.554 235.33C137.19 236.002 138.81 236.708 140.444 237.385C142.599 238.278 144.761 239.153 146.915 240.045C147.439 240.261 147.967 240.48 148.455 240.758C148.947 241.037 148.964 241.662 148.527 241.99C148.327 242.139 148.111 242.272 147.886 242.382C146.19 243.218 144.49 244.045 142.792 244.876C139.395 246.539 136.01 248.224 132.599 249.859C130.268 250.977 127.825 251.898 125.574 253.144C123.758 254.149 122.197 254.15 120.43 253.141C119.406 252.555 118.215 252.227 117.078 251.843C116.316 251.585 115.958 251.159 115.948 250.365C115.921 248.164 115.816 245.964 115.794 243.763C115.762 240.583 115.761 237.403 115.78 234.222C115.791 232.572 115.861 230.922 115.926 229.272C115.965 228.274 116.582 227.725 117.768 227.713L117.771 227.714Z" fill="#1EA2EF"/>
<path d="M91.0119 231.647C90.9137 231.815 90.8584 232.009 90.7278 232.116C90.4894 232.312 90.2187 232.481 89.9384 232.616C86.7074 234.185 83.5069 235.812 80.2207 237.278C77.1118 238.665 74.0896 240.23 71.0026 241.663C69.0024 242.592 66.9546 243.427 64.9258 244.299C64.7542 244.373 64.5664 244.428 64.3805 244.455C64.0506 244.503 63.7389 244.434 63.5377 244.159C63.3222 243.866 63.4262 243.578 63.6473 243.331C63.9772 242.959 64.3252 242.602 64.6541 242.23C65.2156 241.594 65.4406 240.848 65.4158 240.021C65.3863 239.034 65.0154 238.257 64.0659 237.765C63.0601 237.244 62.0943 236.648 61.0856 236.133C60.3964 235.78 60.0617 235.309 60.0608 234.535C60.0551 230.745 60.0217 226.955 59.9759 223.164C59.9683 222.544 60.1647 222.159 60.7787 221.878C61.8665 221.381 62.9085 220.792 63.9686 220.238C64.4472 219.987 64.9229 219.957 65.4254 220.189C65.9402 220.428 66.4712 220.633 66.9927 220.858C72.732 223.325 78.4694 225.796 84.2115 228.257C86.0677 229.052 87.942 229.81 89.8001 230.599C90.1424 230.745 90.4713 230.938 90.7678 231.158C90.8965 231.253 90.9289 231.469 91.0119 231.645V231.647Z" fill="#1A9FED"/>
<path d="M53.3912 111.631C53.3912 109.19 53.4255 106.748 53.3731 104.307C53.354 103.412 53.6276 102.875 54.4742 102.418C55.3789 101.929 56.1483 101.715 57.136 102.18C58.5003 102.823 59.9255 103.346 61.3203 103.93C64.168 105.123 67.0186 106.311 69.8587 107.523C71.7702 108.339 73.6569 109.208 75.5684 110.022C78.3513 111.205 81.1494 112.356 83.9342 113.533C84.5024 113.773 85.2584 113.92 85.3728 114.597C85.5006 115.348 84.6912 115.542 84.1992 115.861C83.5719 116.269 82.8874 116.603 82.2048 116.924C78.2731 118.769 74.3347 120.602 70.3992 122.44C68.688 123.239 66.9709 124.028 65.2682 124.845C64.7124 125.111 64.2014 125.167 63.6561 124.839C61.0562 123.274 58.1084 122.446 55.3446 121.228C55.0567 121.102 54.7697 120.967 54.4723 120.865C53.7096 120.602 53.4388 120.104 53.4503 119.322C53.4894 116.759 53.4646 114.195 53.4646 111.632C53.4398 111.632 53.414 111.632 53.3893 111.632L53.3912 111.631Z" fill="#21A4EF"/>
<path d="M78.2105 187.424C78.2105 184.676 78.2105 181.929 78.2105 179.181C78.2105 178.815 78.1991 178.447 78.2248 178.082C78.3106 176.834 78.7616 176.521 79.9333 177.018C82.7772 178.223 85.602 179.47 88.4278 180.716C91.7093 182.164 94.9517 183.697 98.2694 185.063C100.66 186.047 103.059 187.008 105.379 188.141C105.888 188.389 106.412 188.617 106.894 188.907C107.759 189.43 107.739 190.38 106.793 190.753C104.966 191.473 103.272 192.436 101.505 193.262C96.6001 195.557 91.6921 197.847 86.8118 200.187C85.9853 200.583 85.2645 200.619 84.4646 200.259C82.6275 199.43 80.7865 198.608 78.9446 197.787C78.487 197.582 78.3049 197.237 78.303 196.764C78.2992 195.116 78.282 193.467 78.2773 191.818C78.2725 190.353 78.2763 188.888 78.2763 187.422C78.2544 187.422 78.2334 187.422 78.2115 187.422L78.2105 187.424Z" fill="#1EA0EC"/>
<path d="M143.953 44.6134C143.953 41.6804 143.979 38.7475 143.936 35.8145C143.924 34.931 144.169 34.3384 145.002 33.8668C147.435 32.4889 146.835 32.0256 149.991 33.409C154.786 35.5099 159.565 37.6429 164.36 39.741C165.142 40.0832 165.556 40.5483 165.528 41.418C165.478 43.0051 165.485 44.595 165.503 46.184C165.511 46.8913 165.18 47.2876 164.531 47.5904C161.56 48.9738 158.612 50.405 155.646 51.7967C153.25 52.9205 150.842 54.0223 148.429 55.1131C147.798 55.3975 147.144 55.6544 146.475 55.8315C145.265 56.1516 144.296 55.5205 144.183 54.3232C144.075 53.1682 144.027 52.0059 144.013 50.8462C143.987 48.7692 144.005 46.6913 144.005 44.6134H143.952H143.953Z" fill="#20A2EE"/>
<path d="M69.4887 77.8922C69.4887 76.1216 69.5078 74.351 69.4782 72.5804C69.4677 71.9373 69.7194 71.5456 70.3429 71.3373C71.8464 70.8364 73.2717 70.1621 74.6502 69.4099C75.3395 69.0337 75.9163 69.0484 76.6085 69.386C78.192 70.1576 79.7994 70.8869 81.4172 71.5924C86.5578 73.8336 91.7079 76.0538 96.8485 78.2941C97.1259 78.4152 97.3909 78.6133 97.5921 78.8344C97.8209 79.0858 97.818 79.4482 97.5663 79.6656C97.2412 79.9454 96.8532 80.1766 96.4576 80.3601C91.6574 82.5839 86.8543 84.8013 82.0436 87.004C80.8414 87.5544 79.6068 88.0388 78.3932 88.5654C77.5342 88.9379 76.6904 88.992 75.8343 88.5525C75.125 88.1883 74.2565 88.0507 73.9981 87.1168C73.879 86.6847 73.4261 86.4939 73.0286 86.2893C72.2458 85.8875 71.5041 85.3976 70.688 85.0765C69.7576 84.7104 69.5307 84.0793 69.5469 83.204C69.5793 81.4344 69.5564 79.6628 69.5564 77.8922H69.4878H69.4887Z" fill="#2CAAF2"/>
<path d="M236.239 226.598C236.239 223.22 236.277 220.837 236.221 218.454C236.198 217.467 236.527 216.876 237.491 216.462C238.996 215.817 240.465 215.079 241.902 214.3C242.88 213.771 243.731 213.76 244.763 214.227C247.866 215.628 251.018 216.927 254.15 218.268C256.353 219.212 258.558 220.154 260.753 221.115C261.212 221.316 261.672 221.548 262.063 221.848C262.623 222.278 262.562 223.212 261.979 223.596C261.668 223.803 261.321 223.963 260.978 224.123C255.385 226.744 249.794 229.369 244.192 231.974C242.593 232.718 240.96 233.398 239.34 234.101C238.993 234.252 238.64 234.396 238.278 234.505C237.239 234.817 236.512 234.367 236.463 233.299C236.348 230.735 236.289 228.17 236.239 226.599V226.598Z" fill="#1FA2EF"/>
<path d="M139.22 269.731C139.22 267.226 139.251 264.722 139.21 262.217C139.18 260.339 140.081 260.411 141.288 260.995C144.176 262.393 147.107 263.715 150.066 264.973C154.476 266.849 158.925 268.642 163.355 270.474C163.938 270.715 164.531 270.943 165.087 271.233C165.56 271.479 166.394 271.473 166.344 272.155C166.302 272.723 165.582 272.924 165.079 273.163C162.178 274.543 159.273 275.916 156.355 277.262C153.552 278.554 150.718 279.786 147.926 281.1C147.114 281.483 146.388 281.55 145.573 281.195C143.839 280.44 142.098 279.698 140.348 278.981C139.611 278.679 139.307 278.212 139.317 277.427C139.353 274.862 139.331 272.296 139.331 269.731C139.293 269.731 139.256 269.731 139.219 269.731H139.22Z" fill="#1FA1EE"/>
<path d="M139.317 127.244C139.317 125.169 139.315 123.095 139.319 121.02C139.319 120.654 139.308 120.283 139.363 119.924C139.48 119.17 140.262 118.655 141.047 118.836C141.473 118.934 141.882 119.122 142.284 119.298C145.226 120.589 148.162 121.889 151.101 123.182C153.868 124.4 156.636 125.612 159.403 126.828C159.922 127.057 160.438 127.29 160.95 127.531C161.254 127.674 161.44 127.921 161.48 128.242C161.598 129.211 161.738 130.178 161.642 131.159C161.603 131.559 161.403 131.84 161.035 132.021C160.64 132.215 160.247 132.413 159.854 132.611C156.203 134.45 152.445 136.078 148.717 137.765C147.454 138.336 146.343 138.343 145.109 137.749C143.637 137.041 142.115 136.423 140.593 135.815C139.727 135.469 139.334 134.955 139.358 134.013C139.414 131.757 139.376 129.499 139.376 127.242C139.356 127.242 139.336 127.242 139.316 127.242L139.317 127.244Z" fill="#1DA1EE"/>
<path d="M31.449 292.382C31.449 290.369 31.5043 288.353 31.4271 286.342C31.3851 285.239 31.6521 284.536 32.8142 284.089C34.0412 283.618 35.1824 282.928 36.3312 282.283C36.9499 281.936 37.4953 281.889 38.0921 282.289C39.8892 283.495 41.9446 284.085 44.0163 284.689C45.6466 285.164 47.2082 285.868 48.7841 286.507C50.7118 287.289 52.6252 288.103 54.5377 288.918C54.8799 289.064 55.2165 289.251 55.5034 289.48C55.8943 289.792 55.8686 290.482 55.4739 290.775C55.226 290.96 54.9448 291.11 54.6616 291.242C48.7898 293.987 42.9171 296.729 37.0424 299.468C36.1872 299.867 35.3235 300.251 34.4578 300.629C34.1127 300.779 33.7619 300.938 33.3958 301.019C32.43 301.23 31.5853 300.661 31.5348 299.702C31.4614 298.301 31.4709 296.896 31.4566 295.493C31.4461 294.456 31.4547 293.419 31.4547 292.382H31.4471L31.449 292.382Z" fill="#1EA0EC"/>
<path d="M199.827 47.6042C199.827 46.6262 199.836 45.6483 199.823 44.6703C199.815 44.1208 200.055 43.7428 200.562 43.4988C202.322 42.6529 204.079 41.8016 205.838 40.9539C206.34 40.7117 206.821 40.8355 207.303 41.0374C208.408 41.5025 209.547 41.9025 210.62 42.43C214.752 44.4611 219.072 46.0868 223.285 47.9427C224.035 48.273 224.812 48.5454 225.576 48.8445C225.811 48.9362 226.058 49.0078 226.278 49.1243C227.093 49.5546 227.179 50.3803 226.449 50.9004C226.146 51.116 225.8 51.2821 225.46 51.4426C221.529 53.2994 217.59 55.1407 213.669 57.0177C213.146 57.2672 212.732 57.237 212.237 57.015C208.437 55.3132 204.638 53.6123 200.821 51.949C200.131 51.6481 199.88 51.2243 199.9 50.5362C199.928 49.5592 199.907 48.5812 199.907 47.6033C199.88 47.6033 199.853 47.6033 199.827 47.6033V47.6042Z" fill="#20A2EF"/>
<path d="M221.518 159.696C221.701 159.743 222.078 159.804 222.426 159.937C223.308 160.276 224.194 160.614 225.047 161.014C227.325 162.084 229.735 162.849 232.033 163.882C234.899 165.171 237.882 166.218 240.812 167.378C241.749 167.749 242.676 168.146 243.606 168.532C243.781 168.604 243.959 168.671 244.123 168.76C244.707 169.08 244.737 169.693 244.161 170.089C243.803 170.336 243.411 170.544 243.013 170.728C239.245 172.474 235.46 174.185 231.71 175.967C230.703 176.445 229.821 176.433 228.819 176.003C225.868 174.737 222.89 173.527 219.924 172.293C219.692 172.197 219.467 172.084 219.238 171.981C218.284 171.548 217.891 170.941 217.956 169.819C218.088 167.511 217.997 165.188 217.942 162.872C217.925 162.136 218.053 161.586 218.781 161.195C219.27 160.933 219.652 160.492 220.111 160.172C220.467 159.924 220.851 159.693 221.517 159.696H221.518Z" fill="#20A2EE"/>
<path d="M158.043 286.658C158.043 284.947 158.061 283.237 158.035 281.527C158.023 280.769 158.288 280.226 159.04 279.937C159.158 279.893 159.27 279.832 159.377 279.767C160.543 279.056 161.634 279.055 162.941 279.65C167.87 281.897 172.866 284.008 177.826 286.192C180.034 287.165 179.782 287.02 179.709 289.021C179.628 291.277 180.056 290.96 177.585 292.128C174.567 293.554 171.556 294.996 168.542 296.43C168.257 296.565 167.971 296.695 167.684 296.826C167.006 297.137 166.321 297.147 165.68 296.769C163.669 295.587 161.494 294.725 159.359 293.794C158.404 293.378 158.066 292.765 158.097 291.787C158.154 290.079 158.113 288.368 158.113 286.658H158.043Z" fill="#1D9FEB"/>
<path d="M90.7365 40.8722C90.7365 39.2263 90.787 37.5777 90.7174 35.9347C90.6764 34.9558 91.0244 34.2888 91.9158 33.8558C92.0855 33.7742 92.2466 33.6751 92.403 33.5714C92.9731 33.1953 93.5337 33.1467 94.1848 33.4485C95.7836 34.187 97.412 34.8677 99.0241 35.5805C103.457 37.542 107.889 39.508 112.322 41.4703C112.954 41.7501 113.618 41.9703 114.154 42.4226C114.603 42.8024 114.605 43.3244 114.134 43.6638C113.881 43.8455 113.605 43.9996 113.328 44.1464C109.39 46.2454 105.311 48.0637 101.238 49.9041C99.5199 50.6802 98.1547 50.8793 96.5511 49.7261C95.612 49.0509 94.3755 48.7582 93.2734 48.2913C92.8101 48.0949 92.3496 47.8903 91.8863 47.6922C91.1207 47.3638 90.7317 46.8573 90.7327 45.9913C90.7356 44.2849 90.6355 42.5795 90.5773 40.8731L90.7365 40.8712V40.8722Z" fill="#1EA1EE"/>
<path d="M207.494 118.337C207.494 116.625 207.5 114.913 207.49 113.202C207.487 112.643 207.76 112.322 208.275 112.079C210.554 111.011 212.833 109.939 215.079 108.81C215.869 108.413 216.555 108.264 217.404 108.661C218.658 109.248 219.969 109.72 221.255 110.246C223.999 111.371 226.743 112.498 229.485 113.628C229.777 113.748 230.067 113.878 230.337 114.034C231.004 114.42 231.048 115.041 230.424 115.519C230.08 115.784 229.701 116.019 229.307 116.21C223.306 119.147 217.295 122.065 211.172 124.761C210.712 124.963 210.231 125.13 209.747 125.274C208.707 125.586 207.487 124.762 207.535 123.654C207.61 121.885 207.555 120.109 207.555 118.337C207.534 118.337 207.514 118.337 207.493 118.337H207.494Z" fill="#21A3EE"/>
<path d="M145.36 159.159C145.36 157.267 145.38 155.375 145.349 153.483C145.339 152.797 145.52 152.31 146.241 152.062C147.922 151.485 149.474 150.656 150.957 149.711C151.825 149.159 152.632 149.086 153.619 149.545C156.756 151.005 159.935 152.382 163.105 153.777C164.142 154.234 165.215 154.617 166.241 155.093C166.845 155.372 167.698 155.565 167.694 156.36C167.691 157.029 166.924 157.26 166.412 157.593C166.046 157.831 165.649 158.031 165.252 158.219C159.677 160.856 154.1 163.489 148.523 166.12C148.239 166.254 147.952 166.393 147.653 166.486C146.43 166.864 145.508 166.253 145.474 165.015C145.439 163.735 145.45 162.452 145.445 161.17C145.442 160.499 145.445 159.828 145.445 159.157H145.361L145.36 159.159Z" fill="#24A5F1"/>
<path d="M90.8433 125.351C90.8433 123.579 90.8195 121.807 90.8519 120.035C90.8748 118.791 91.5784 118.296 92.8521 118.568C93.0961 118.621 93.3335 118.719 93.5633 118.821C99.3864 121.396 105.207 123.979 111.034 126.548C111.84 126.904 112.684 127.18 113.5 127.515C114.08 127.753 114.173 128.311 113.699 128.667C113.451 128.853 113.184 129.032 112.896 129.148C109.198 130.63 105.716 132.531 102.14 134.251C99.2568 135.638 99.7201 135.597 96.8295 134.392C95.3156 133.761 93.8321 133.042 92.2743 132.532C91.1474 132.163 90.8443 131.535 90.8824 130.484C90.9444 128.775 90.8996 127.063 90.8996 125.353H90.8433V125.351Z" fill="#1FA0ED"/>
<path d="M74.0722 196.225C74.0722 197.63 74.1056 199.036 74.0608 200.44C74.0312 201.355 73.4115 201.761 72.503 201.444C71.3723 201.05 70.275 200.564 69.1681 200.108C68.2357 199.722 67.2871 199.365 66.3862 198.92C62.035 196.776 57.4169 195.199 53.0447 193.1C52.139 192.666 51.1799 192.333 50.2561 191.932C49.912 191.782 49.5754 191.6 49.2713 191.386C48.8032 191.056 48.8614 190.443 49.3905 190.192C50.0712 189.87 50.791 189.622 51.466 189.288C53.7216 188.172 55.9887 187.075 58.2015 185.885C59.3789 185.252 60.4505 185.24 61.6222 185.831C65.2793 187.674 69.1595 189.03 72.952 190.578C73.7519 190.904 74.1704 191.307 74.1275 192.195C74.0627 193.536 74.1103 194.882 74.1103 196.226C74.098 196.226 74.0856 196.226 74.0732 196.226L74.0722 196.225Z" fill="#7DCFFA"/>
<path d="M143.349 302.979C143.349 301.268 143.372 299.557 143.339 297.847C143.324 297.035 143.546 296.469 144.374 296.089C145.518 295.566 146.617 294.942 147.706 294.318C148.551 293.833 149.376 293.806 150.24 294.219C150.524 294.354 150.819 294.469 151.106 294.6C152.999 295.466 154.914 296.282 156.896 296.945C157.434 297.125 157.958 297.351 158.48 297.571C160.164 298.282 161.771 299.16 163.538 299.692C163.884 299.795 164.325 299.933 164.342 300.369C164.357 300.771 163.984 300.995 163.669 301.192C163.191 301.491 162.7 301.775 162.194 302.028C161.124 302.565 160.047 303.086 158.965 303.597C154.862 305.533 150.757 307.465 146.649 309.391C146.194 309.604 145.706 309.752 145.247 309.958C144.35 310.358 143.671 309.679 143.55 309.022C143.472 308.604 143.467 308.171 143.464 307.745C143.454 306.157 143.46 304.568 143.46 302.98H143.347L143.349 302.979Z" fill="#1FA3EF"/>
<path d="M114.149 282.15C114.149 284.405 114.147 286.661 114.15 288.918C114.15 289.532 114.14 290.138 113.76 290.676C113.445 291.124 113.004 291.336 112.468 291.208C112.041 291.106 111.617 290.969 111.215 290.794C108.442 289.596 105.681 288.374 102.907 287.182C101.868 286.735 100.777 286.393 99.7551 285.914C98.2774 285.221 96.8378 284.452 95.3878 283.704C95.2266 283.621 95.0922 283.474 94.975 283.334C94.7948 283.117 94.8129 282.865 94.994 282.671C95.1599 282.494 95.3687 282.34 95.5851 282.222C96.629 281.649 97.6654 281.06 98.736 280.534C101.723 279.066 104.73 277.636 107.72 276.172C108.734 275.674 109.714 275.111 110.721 274.6C111.392 274.26 112.069 273.919 112.772 273.649C113.486 273.375 114.022 273.722 114.109 274.469C114.158 274.891 114.144 275.321 114.145 275.748C114.148 277.882 114.146 280.017 114.146 282.15H114.149V282.15Z" fill="#6CC5F7"/>
<path d="M93.4891 154.948C93.9267 155.122 94.636 155.379 95.3253 155.68C97.7459 156.74 100.12 157.91 102.589 158.849C104.185 159.456 105.587 160.449 107.259 160.881C107.638 160.979 107.878 161.292 108.073 161.615C108.285 161.967 108.302 162.32 107.973 162.608C107.741 162.812 107.485 163.004 107.211 163.148C104.202 164.714 101.168 166.23 98.0214 167.531C96.1595 168.302 94.3414 169.173 92.5033 169.996C92.0428 170.203 91.5833 170.4 91.0589 170.418C90.2571 170.446 89.7662 169.953 89.7967 169.167C89.8138 168.718 90.0379 168.356 90.219 167.967C90.7329 166.861 90.7052 165.677 90.4392 164.556C90.1628 163.392 89.3781 162.487 88.2112 161.962C87.2359 161.522 86.2463 161.11 85.2815 160.653C84.7229 160.387 83.8677 160.189 83.8362 159.595C83.7962 158.835 84.7228 158.662 85.3321 158.421C86.8041 157.84 88.1979 157.13 89.5621 156.35C90.3239 155.914 91.1314 155.553 91.9141 155.149C92.3193 154.94 92.7454 154.862 93.491 154.95L93.4891 154.948Z" fill="#61C0F5"/>
<path d="M78.6316 214.852C78.6316 214.363 78.6678 213.871 78.6249 213.385C78.521 212.214 78.7002 211.214 79.951 210.624C80.5002 210.365 80.6823 209.819 80.6813 209.223C80.6794 207.906 80.586 206.636 79.2065 205.881C78.7679 205.641 78.6688 205.237 78.6831 204.782C78.7069 204.049 78.6955 203.315 78.7345 202.583C78.7689 201.943 79.1283 201.762 79.7775 202.04C80.1246 202.189 80.4792 202.342 80.7871 202.553C81.9598 203.355 83.407 203.448 84.6874 203.971C84.8962 204.056 85.2308 204.057 85.4196 203.951C86.2614 203.479 87.0279 203.796 87.7839 204.11C89.9995 205.029 92.2047 205.969 94.4117 206.906C95.1086 207.201 95.8027 207.504 96.492 207.816C96.9505 208.023 97.4244 208.215 97.8467 208.478C98.8411 209.098 98.8048 209.899 97.7457 210.417C94.0676 212.216 90.3809 213.998 86.6914 215.777C85.0458 216.571 83.3879 217.34 81.7329 218.115C81.1618 218.383 80.5812 218.642 79.9339 218.678C79.2093 218.718 78.7422 218.32 78.7193 217.601C78.6907 216.685 78.7126 215.768 78.7126 214.852C78.685 214.852 78.6573 214.852 78.6306 214.852H78.6316Z" fill="#28A1ED"/>
<path d="M40.9617 57.8179C40.9617 55.8638 40.9578 53.9106 40.9645 51.9565C40.9664 51.5309 40.9702 51.0988 41.0398 50.6804C41.1704 49.8933 41.4841 49.7181 42.3679 49.9217C42.8579 50.0346 43.3603 50.1428 43.8151 50.3419C46.1804 51.3777 48.5266 52.4538 50.8919 53.4877C51.5965 53.796 51.9959 54.1996 51.9873 55.0042C51.9607 57.4463 51.9797 59.8885 52.0093 62.3306C52.0179 63.0113 51.7995 63.4664 51.1312 63.7847C48.5161 65.0287 45.9211 66.3122 43.3174 67.58C43.204 67.6351 43.0896 67.6874 42.9723 67.7351C41.7663 68.2259 41.3964 67.9837 41.2315 66.7736C40.8253 63.7957 40.9931 60.805 40.9607 57.8197L40.9617 57.8179Z" fill="#82D1F8"/>
<path d="M141.188 249.577C141.689 249.551 142.115 249.656 142.525 249.832C143.277 250.155 144.051 250.433 144.782 250.795C146.869 251.826 148.996 252.765 151.193 253.559C151.785 253.772 152.356 254.042 152.922 254.315C153.356 254.523 153.365 254.863 152.961 255.161C152.71 255.345 152.456 255.534 152.176 255.673C150.263 256.624 148.342 257.559 146.426 258.504C145.573 258.924 144.827 258.924 143.936 258.41C142.974 257.855 141.839 257.579 140.779 257.182C140.152 256.946 139.544 257.038 138.926 257.248C137.901 257.594 136.969 258.1 136.095 258.716C135.688 259.004 135.276 259.292 134.832 259.517C134.404 259.735 133.86 259.634 133.669 259.219C133.099 257.984 131.94 257.497 130.809 256.945C130.244 256.67 129.69 256.372 129.15 256.055C128.769 255.833 128.766 255.418 129.154 255.165C129.623 254.859 130.116 254.578 130.62 254.326C133.26 253.003 135.903 251.689 138.55 250.379C139.395 249.961 140.235 249.515 141.188 249.577Z" fill="#51B8F2"/>
<path d="M94.3978 234.844C94.9813 234.855 95.5133 235.051 96.0395 235.267C99.4793 236.676 102.918 238.087 106.359 239.494C106.883 239.709 107.416 239.905 107.941 240.116C108.35 240.281 108.772 240.425 109.158 240.63C109.887 241.016 109.942 241.603 109.311 242.069C109.111 242.218 108.9 242.358 108.675 242.467C106.862 243.341 105.044 244.206 103.23 245.077C102.558 245.4 101.889 245.41 101.224 245.071C97.1845 243.019 92.9192 241.433 88.8244 239.495C87.7624 238.992 87.7557 238.445 88.7691 237.792C88.9789 237.658 89.201 237.532 89.4336 237.439C90.7312 236.922 91.92 236.234 93.024 235.4C93.4225 235.099 93.8496 234.824 94.3959 234.842L94.3978 234.844Z" fill="#26A7F1"/>
<path d="M181.107 60.6577C181.107 62.1237 181.095 63.5897 181.112 65.0548C181.121 65.7768 180.93 66.3805 180.255 66.7759C179.745 67.074 179.265 67.1951 178.649 66.9318C175.342 65.5255 172.014 64.1686 168.697 62.7833C168.294 62.6145 167.886 62.4237 167.542 62.1668C166.976 61.7439 166.973 61.0522 167.486 60.5733C167.621 60.4467 167.767 60.3192 167.931 60.2329C169.707 59.2889 171.371 58.155 173.247 57.3779C174.937 56.678 176.601 55.9211 178.281 55.1991C178.684 55.0257 179.096 54.8404 179.524 54.7542C180.398 54.5771 181.037 55.0321 181.093 55.8927C181.148 56.7449 181.118 57.6027 181.121 58.4577C181.124 59.1907 181.121 59.9247 181.121 60.6577C181.116 60.6577 181.111 60.6577 181.106 60.6577H181.107Z" fill="#24A3E9"/>
<path d="M69.5614 96.0175C69.405 95.0624 69.8731 94.5138 70.7502 94.1735C72.0277 93.6771 73.0059 92.8652 73.6294 91.6478C73.9097 91.1011 74.2967 90.969 74.8993 91.1763C76.1491 91.6066 77.4047 92.0414 78.6069 92.5799C80.5585 93.4542 82.5062 94.3294 84.5254 95.0542C84.8791 95.1808 85.2195 95.3505 85.5503 95.5285C85.8325 95.6798 85.8306 96.0872 85.5503 96.2963C85.3015 96.4807 85.044 96.6633 84.7657 96.8009C80.6528 98.8339 76.4695 100.725 72.2174 102.473C71.9286 102.593 71.6311 102.721 71.3251 102.768C70.6091 102.877 69.9494 102.36 69.9017 101.654C69.8645 101.107 69.8521 100.555 69.8817 100.008C69.956 98.6605 69.7015 97.3394 69.5633 96.0184L69.5614 96.0175Z" fill="#82D2FA"/>
<path d="M196.819 179.246C196.819 180.77 196.843 182.295 196.812 183.819C196.787 185.011 196.335 185.332 195.125 185.082C194.818 185.019 194.517 184.912 194.229 184.79C191.095 183.471 187.964 182.146 184.835 180.82C184.371 180.624 183.91 180.425 183.583 180.022C183.292 179.664 183.332 179.156 183.707 178.889C183.858 178.78 184.026 178.691 184.193 178.604C187.317 176.993 190.383 175.274 193.632 173.894C194.153 173.673 194.642 173.381 195.162 173.161C195.904 172.848 196.575 173.183 196.719 173.944C196.787 174.301 196.785 174.672 196.787 175.037C196.794 176.44 196.79 177.842 196.79 179.245H196.82L196.819 179.246Z" fill="#23A5ED"/>
<path d="M166.36 166.556C166.36 165.214 166.435 163.869 166.337 162.535C166.254 161.391 166.691 160.678 167.775 160.281C167.89 160.238 167.995 160.159 168.094 160.084C168.775 159.575 169.502 159.583 170.235 159.941C171.816 160.713 173.444 161.382 175.105 161.976C175.657 162.173 175.876 162.568 175.876 163.107C175.876 164.753 175.87 166.399 175.881 168.044C175.886 168.731 175.57 169.208 174.937 169.497C172.937 170.41 170.936 171.324 168.929 172.222C168.589 172.374 168.222 172.498 167.854 172.554C167.015 172.679 166.487 172.296 166.437 171.491C166.381 170.579 166.399 169.664 166.392 168.75C166.386 168.019 166.391 167.288 166.391 166.556H166.36Z" fill="#8ED7FC"/>
<path d="M226.224 204.657C226.224 206.306 226.226 207.955 226.222 209.604C226.222 209.97 226.244 210.343 226.179 210.699C226.036 211.483 225.214 211.967 224.472 211.648C222.272 210.703 220.096 209.71 217.911 208.734C217.339 208.479 217.056 208.077 217.063 207.439C217.081 205.912 217.077 204.385 217.034 202.859C217.013 202.127 217.364 201.72 218.034 201.492C219.896 200.859 221.614 199.935 223.357 199.061C223.974 198.752 224.554 198.374 225.175 198.076C225.612 197.867 226.094 198.14 226.159 198.616C226.216 199.037 226.22 199.467 226.221 199.893C226.228 201.481 226.224 203.068 226.224 204.656V204.657Z" fill="#84D2FD"/>
<path d="M32.4896 159.716C32.4896 158.007 32.4896 156.297 32.4896 154.588C32.4896 154.222 32.4695 153.853 32.5058 153.49C32.6183 152.359 33.584 151.762 34.669 152.137C34.7872 152.178 34.8987 152.24 35.0122 152.294C36.3154 152.924 37.612 153.565 38.9229 154.18C39.5006 154.452 39.7752 154.854 39.7714 155.476C39.7552 158.162 39.7428 160.849 39.7561 163.534C39.7599 164.236 39.4568 164.668 38.8085 164.963C37.5481 165.538 36.3078 166.152 35.0551 166.745C34.8291 166.852 34.5955 166.96 34.3524 167.018C33.2789 167.271 32.5925 166.815 32.5515 165.758C32.4962 164.355 32.5096 162.95 32.4962 161.546C32.4905 160.936 32.4962 160.325 32.4962 159.715H32.4886L32.4896 159.716Z" fill="#8CD5FA"/>
<path d="M116.825 29.6251C116.825 30.1131 116.819 30.3572 116.827 30.6003C116.842 31.0058 116.66 31.3003 116.295 31.4929C116.129 31.581 115.963 31.6737 115.789 31.7406C113.904 32.4672 112.12 33.3938 110.371 34.3718C109.51 34.8525 108.786 34.869 107.893 34.4277C106.093 33.5388 104.233 32.7626 102.4 31.9379C101.881 31.7049 101.377 31.4627 101.126 30.9085C100.924 30.4645 100.996 30.0306 101.421 29.7902C102.075 29.4196 102.752 29.0866 103.421 28.7425C105.653 27.5958 107.964 26.5903 110.102 25.2747C110.261 25.1766 110.434 25.0977 110.602 25.0124C111.101 24.7601 111.62 24.7362 111.986 25.172C112.937 26.3022 114.181 26.9508 115.558 27.4839C116.655 27.9077 116.82 28.3747 116.827 29.6251H116.825Z" fill="#22A7F0"/>
<path d="M203.029 237.368C203.029 238.954 203.05 240.54 203.02 242.126C203.004 242.98 202.655 243.202 201.804 242.901C200.496 242.437 199.193 241.953 197.913 241.423C196.108 240.675 194.318 239.896 192.54 239.093C191.912 238.811 191.324 238.439 190.746 238.069C190.399 237.846 190.408 237.395 190.745 237.127C191.035 236.897 191.347 236.681 191.68 236.512C193.81 235.431 195.946 234.363 198.084 233.295C199.152 232.761 200.226 232.238 201.297 231.711C201.522 231.6 201.744 231.477 201.977 231.385C202.48 231.189 202.9 231.39 202.964 231.883C203.027 232.365 203.054 232.854 203.058 233.341C203.071 234.683 203.062 236.026 203.062 237.368C203.051 237.368 203.04 237.368 203.029 237.368Z" fill="#2AA9F0"/>
<path d="M179.745 268.899C179.745 270.424 179.735 271.948 179.751 273.473C179.757 274.066 179.592 274.549 179.049 274.877C178.71 275.081 178.363 275.193 177.981 274.997C177.423 274.71 176.874 274.404 176.311 274.126C175.128 273.541 173.938 272.967 172.749 272.393C172.348 272.198 171.89 272.005 171.807 271.552C171.543 270.1 170.533 269.221 169.376 268.419C168.982 268.146 169.018 267.776 169.41 267.534C169.622 267.403 169.85 267.295 170.073 267.181C172.756 265.802 175.438 264.421 178.123 263.048C178.4 262.907 178.691 262.777 178.991 262.696C179.294 262.613 179.49 262.848 179.545 263.071C179.66 263.54 179.752 264.028 179.76 264.508C179.787 265.972 179.77 267.436 179.77 268.9H179.744L179.745 268.899Z" fill="#2FAAED"/>
<path d="M165.134 36.0818C164.658 36.2607 164.254 36.0662 163.853 35.8864C161.09 34.6488 158.327 33.4112 155.568 32.1626C155.109 31.9553 154.663 31.7159 154.235 31.4553C153.262 30.8608 153.266 30.504 154.307 29.9223C155.295 29.37 156.323 28.8847 157.332 28.3701C158.623 27.7114 159.948 27.1077 161.192 26.3747C162.122 25.8261 162.928 25.8949 163.87 26.3169C164.851 26.7554 165.3 27.3297 165.263 28.4205C165.199 30.3737 165.304 32.3324 165.311 34.2883C165.313 34.8892 165.432 35.5112 165.134 36.0827V36.0818Z" fill="#28A8ED"/>
<path d="M135.492 271.951C135.492 272.256 135.495 272.56 135.492 272.865C135.47 274.35 134.408 275.2 132.898 274.902C132.407 274.805 131.923 274.634 131.464 274.437C128.807 273.3 126.158 272.145 123.509 270.992C123.337 270.917 123.167 270.83 123.013 270.726C122.463 270.36 122.391 269.719 122.914 269.346C123.52 268.913 124.146 268.464 124.835 268.187C125.887 267.764 126.949 267.386 127.876 266.725C128.143 266.534 128.471 266.499 128.778 266.631C130.675 267.45 132.569 268.28 134.463 269.107C134.578 269.158 134.689 269.216 134.799 269.276C135.218 269.501 135.458 269.824 135.449 270.306C135.437 270.854 135.446 271.402 135.446 271.951H135.492H135.492Z" fill="#9EDDFD"/>
<path d="M87.0612 124.581C87.0612 125.799 87.0822 127.019 87.0536 128.236C87.0354 129.029 86.7142 129.224 85.962 128.907C83.7015 127.955 81.4516 126.98 79.1959 126.018C78.213 125.598 77.2148 125.21 76.2443 124.764C75.6589 124.496 75.677 123.992 76.2614 123.664C76.6428 123.449 77.0384 123.243 77.4522 123.098C79.7193 122.3 81.8434 121.219 83.9608 120.12C84.2945 119.946 84.6339 119.775 84.9867 119.643C86.104 119.224 87.0698 119.799 87.1003 120.925C87.1327 122.142 87.1079 123.362 87.1079 124.58H87.0621L87.0612 124.581Z" fill="#29AAEF"/>
<path d="M222.683 224.192C222.683 223.751 222.672 223.265 222.685 222.779C222.721 221.424 223.765 220.748 225.119 221.221C225.591 221.386 226.063 221.587 226.487 221.846C228.04 222.796 229.766 223.407 231.408 224.18C232.223 224.563 232.572 225.043 232.44 225.879C232.431 225.938 232.437 226 232.437 226.061C232.451 227.874 232.669 227.638 231.018 228.388C230.108 228.802 229.243 229.318 228.386 229.832C227.891 230.128 227.476 230.099 226.979 229.837C225.87 229.257 224.745 228.702 223.601 228.188C223.028 227.93 222.708 227.601 222.658 226.967C222.586 226.054 222.529 225.147 222.682 224.191L222.683 224.192Z" fill="#24A9EF"/>
<path d="M113.028 149.082C113.084 151.917 113.465 151.405 110.864 152.621C109.726 153.153 108.595 153.702 107.483 154.282C106.697 154.691 105.969 154.755 105.148 154.337C104.144 153.824 103.087 153.408 102.053 152.947C101.881 152.87 101.709 152.79 101.546 152.697C100.529 152.119 100.5 151.503 101.524 150.978C103.088 150.178 104.664 149.393 106.272 148.681C107.594 148.096 108.932 147.552 110.175 146.811C110.764 146.461 111.377 146.132 112.115 146.147C112.621 146.157 112.987 146.398 113.016 146.892C113.06 147.62 113.028 148.352 113.028 149.083V149.082Z" fill="#39B1EE"/>
<path d="M202.912 258.356C202.912 259.521 202.929 260.316 202.905 261.109C202.892 261.543 202.564 261.76 202.123 261.652C201.755 261.562 201.381 261.467 201.038 261.314C198.621 260.237 196.206 259.155 193.803 258.047C193.361 257.844 192.66 257.726 192.631 257.22C192.592 256.552 193.39 256.508 193.865 256.301C195.599 255.545 197.312 254.757 198.947 253.811C199.81 253.311 200.694 252.799 201.777 252.852C202.317 252.879 202.638 253.094 202.644 253.611C202.665 255.321 203.04 257.012 202.912 258.356Z" fill="#64C7FC"/>
<path d="M145.151 247.652C145.293 247.132 145.774 247.047 146.159 246.866C147.929 246.037 149.739 245.282 151.38 244.218C151.88 243.894 152.413 243.762 153.001 244.025C153.23 244.128 153.485 244.172 153.723 244.26C155.297 244.847 155.481 244.615 155.465 246.58C155.457 247.618 155.559 248.655 155.605 249.693C155.618 249.998 155.62 250.305 155.608 250.61C155.57 251.648 155.311 251.843 154.346 251.531C153.624 251.297 152.9 251.061 152.199 250.774C149.978 249.866 147.766 248.937 145.557 248.003C145.395 247.934 145.279 247.766 145.151 247.652Z" fill="#30ADF1"/>
<path d="M198.923 89.7812C198.923 89.1096 198.884 88.4353 198.937 87.7674C198.969 87.3519 199.083 86.9216 199.26 86.5409C199.506 86.0143 200.08 85.7693 200.685 85.8657C200.996 85.9152 201.308 85.9932 201.6 86.106C203.307 86.7647 205.013 87.428 206.709 88.1106C207.401 88.3894 207.811 89.6867 207.423 90.3206C207.331 90.4701 207.173 90.6068 207.013 90.6894C205.336 91.5545 203.654 92.4105 201.969 93.2609C201.746 93.3737 201.502 93.4618 201.258 93.5214C200.108 93.8049 199.122 93.1315 199.02 91.9765C198.955 91.2472 198.937 90.5142 198.898 89.7821C198.906 89.7821 198.915 89.7821 198.924 89.7812H198.923Z" fill="#18A1EC"/>
<path d="M64.3427 182.975C64.4666 182.569 64.8517 182.455 65.1854 182.296C67.0588 181.407 68.9789 180.605 70.7445 179.514C70.9562 179.384 71.1916 179.282 71.429 179.198C72.4911 178.823 73.3348 179.326 73.4025 180.451C73.4731 181.606 73.4473 182.767 73.4502 183.924C73.4521 184.716 73.4464 185.509 73.4092 186.299C73.3892 186.724 73.0545 186.958 72.6246 186.832C71.839 186.602 71.0391 186.382 70.2974 186.051C68.5165 185.256 66.7652 184.401 65.0033 183.569C64.7211 183.436 64.4408 183.298 64.3436 182.974L64.3427 182.975Z" fill="#36B0F0"/>
<path d="M56.0987 229.141C56.0987 230.113 56.1168 231.085 56.0902 232.057C56.0768 232.539 55.6783 232.818 55.1787 232.696C54.6315 232.562 54.0757 232.413 53.5685 232.181C51.9735 231.449 50.3976 230.678 48.8179 229.916C48.5938 229.808 48.3765 229.681 48.1743 229.538C47.7625 229.247 47.7749 228.801 48.1953 228.473C48.3421 228.359 48.4918 228.241 48.6567 228.156C50.6045 227.157 52.6123 226.269 54.5085 225.17C55.3084 224.706 56.0368 225.13 56.0863 226.043C56.1426 227.073 56.0997 228.108 56.0987 229.14V229.141Z" fill="#88D6FE"/>
<path d="M54.8972 141.883C56.9755 140.809 58.6439 139.956 60.2999 139.082C60.6898 138.877 61.0455 138.925 61.3744 139.128C62.7634 139.98 64.1429 140.848 65.5177 141.722C65.9086 141.971 66.125 142.336 66.1231 142.802C66.1231 142.986 66.1307 143.168 66.1279 143.352C66.0974 145.217 65.1974 145.779 63.4499 145.046C61.8234 144.365 60.1836 143.713 58.5581 143.03C57.5132 142.59 56.4378 142.244 54.8972 141.883Z" fill="#71CFFA"/>
<path d="M87.0418 41.0292C87.0418 42.065 87.0589 43.1017 87.0351 44.1374C87.0208 44.7292 86.7081 44.9457 86.1942 44.7227C84.1741 43.8475 82.1596 42.9586 80.1528 42.0558C79.698 41.8512 79.1565 41.6136 79.1355 41.065C79.1098 40.3834 79.7581 40.2201 80.2786 40.0201C81.7001 39.4733 82.9242 38.5834 84.2742 37.9146C84.8919 37.6091 85.5269 37.3303 86.1704 37.078C86.5813 36.9165 86.9493 37.1358 86.9855 37.5587C87.0437 38.2256 87.0628 38.8963 87.0818 39.566C87.0961 40.0531 87.0847 40.5412 87.0847 41.0283C87.0704 41.0283 87.0561 41.0283 87.0418 41.0283V41.0292Z" fill="#25ACEE"/>
<path d="M161.106 141.868C161.106 142.051 161.089 142.235 161.109 142.417C161.197 143.203 160.822 143.666 160.076 143.957C159.254 144.278 158.47 144.686 157.655 145.023C157.251 145.191 156.796 144.975 156.813 144.572C156.877 143.016 155.758 142.33 154.608 141.646C153.91 141.231 153.087 141.015 152.481 140.451C152.268 140.252 152.254 139.972 152.507 139.833C153.605 139.227 154.718 138.644 155.84 138.079C156.263 137.865 156.715 137.96 157.124 138.159C158.199 138.682 159.273 139.207 160.331 139.761C160.8 140.007 161.08 140.414 161.09 140.952C161.096 141.258 161.091 141.562 161.091 141.868H161.106H161.106Z" fill="#32B2F1"/>
<path d="M112.988 136.395C112.988 137.308 113.006 138.223 112.982 139.136C112.964 139.752 112.633 140.021 112.002 139.934C111.634 139.884 111.233 139.809 110.93 139.622C109.163 138.531 107.287 137.661 105.336 136.932C105.277 136.91 105.229 136.868 105.174 136.837C104.778 136.608 104.738 136.188 105.097 135.968C105.256 135.87 105.428 135.79 105.598 135.709C107.407 134.834 109.219 133.962 111.028 133.088C111.142 133.033 111.25 132.971 111.366 132.92C112.64 132.357 112.942 132.528 112.976 133.838C112.987 134.265 112.977 134.691 112.977 135.118C112.977 135.544 112.977 135.971 112.977 136.397H112.988V136.395Z" fill="#44BAF3"/>
<path d="M51.2558 44.9351C51.2558 45.848 51.2511 46.7608 51.2568 47.6727C51.2625 48.5497 50.5437 48.6149 49.9354 48.4176C49.8763 48.3984 49.8143 48.3745 49.7676 48.3369C48.3433 47.1727 46.5395 46.7287 44.9026 45.97C44.3811 45.7287 43.7481 45.5269 43.7061 44.9333C43.6546 44.2021 44.3611 44.0067 44.9455 43.7544C46.6701 43.0086 48.4282 42.3251 49.9278 41.1664C50.5303 40.7013 51.1729 41.0362 51.2072 41.8325C51.252 42.8646 51.2187 43.9003 51.2187 44.9351H51.2558Z" fill="#90DCFE"/>
<path d="M175.809 154.712C175.809 155.807 175.827 156.903 175.801 157.997C175.789 158.544 175.453 158.744 174.905 158.551C174.372 158.364 173.853 158.137 173.335 157.911C172.29 157.455 172.248 157.443 172.447 156.295C172.565 155.621 172.322 155.142 171.952 154.615C171.551 154.045 170.628 153.593 170.951 152.819C171.202 152.216 172.128 152.199 172.719 151.861C173.369 151.488 173.991 151.07 174.638 150.692C175.277 150.319 175.749 150.546 175.829 151.244C175.85 151.425 175.856 151.608 175.857 151.791C175.859 152.764 175.858 153.739 175.858 154.712C175.841 154.712 175.824 154.712 175.808 154.712H175.809Z" fill="#20B8FA"/>
<path d="M221.244 147.461C220.812 147.212 220.33 147.04 219.866 146.847C217.714 145.948 215.552 145.071 213.409 144.152C210.454 142.885 207.521 141.571 204.563 140.309C203.173 139.716 201.739 139.22 200.343 138.638C199.607 138.331 199.131 138.582 198.73 139.15C198.648 139.24 198.531 139.318 198.49 139.422C198.267 140.004 198.115 140.117 197.446 140.029C197.173 139.993 196.955 140.066 196.725 140.167C195.351 140.771 193.975 141.37 192.603 141.979C192.377 142.08 192.16 142.211 191.958 142.353C191.611 142.597 191.575 143.057 191.907 143.285C192.263 143.53 192.638 143.769 193.039 143.931C194.55 144.541 196.057 145.172 197.607 145.676C198.141 145.851 198.405 146.227 198.8 146.501C200.961 147.512 203.115 148.535 205.283 149.531C207.512 150.556 209.899 151.27 211.957 152.634C212.554 153.029 213.108 152.986 213.728 152.674C216.144 151.459 218.499 150.123 221.058 149.185C221.117 149.163 221.173 149.134 221.227 149.103C221.897 148.72 221.922 147.853 221.244 147.462V147.461Z" fill="#9BE0FC"/>
<path d="M77.0086 245.571C77.0047 244.903 76.9008 244.234 76.8112 243.569C76.7435 243.063 76.3612 242.857 75.8493 243.022C75.6109 243.099 75.3611 243.178 75.1552 243.311C74.3048 243.858 73.3505 244.192 72.4343 244.61C70.4294 245.523 68.4492 246.485 66.4586 247.426C66.1354 247.41 65.857 247.494 65.6587 247.757C65.5367 247.757 65.427 247.791 65.3269 247.858C65.1162 247.846 64.9628 247.931 64.8693 248.113C64.7606 248.112 64.6596 248.137 64.5671 248.191C63.7787 248.235 63.0703 248.006 62.402 247.622C61.9673 247.371 61.5182 247.143 61.0806 246.897C60.6106 246.633 60.093 246.559 59.6172 246.772C58.5866 247.233 57.5665 247.725 56.5826 248.271C56.2127 248.476 55.9344 248.849 55.6503 249.175C55.4129 249.446 55.4624 249.765 55.7256 249.99C55.9572 250.188 56.2366 250.348 56.5188 250.476C57.781 251.045 59.0271 251.664 60.3284 252.136C61.6288 252.609 62.7919 253.399 64.1838 253.646L64.1915 253.65C64.3545 253.94 64.6186 254.031 64.9427 254.004C68.2833 255.481 71.6125 256.98 74.9683 258.423C76.3393 259.013 77.0162 258.57 77.0238 257.107C77.0457 253.262 77.0324 249.416 77.0095 245.57L77.0086 245.571Z" fill="#6DC8FB"/>
<path d="M27.6033 131.306C27.6033 129.172 27.5986 127.038 27.6072 124.904C27.6091 124.48 27.6081 124.043 27.7063 123.634C27.8588 122.997 28.5453 122.66 29.185 122.869C29.4824 122.967 29.7665 123.108 30.0449 123.25C34.2416 125.392 38.4374 127.534 42.6284 129.685C43.0727 129.913 43.5255 130.151 43.9069 130.462C44.5075 130.952 44.4465 131.741 43.8154 132.174C43.5589 132.35 43.2729 132.488 42.9964 132.634C38.6719 134.931 34.2159 136.998 30.0287 139.533C29.9753 139.565 29.921 139.598 29.8647 139.627C28.468 140.35 27.6329 139.939 27.6072 138.44C27.5662 136.063 27.5967 133.684 27.5967 131.306H27.6033Z" fill="#FBFDFE"/>
<path d="M42.9321 22.8672C42.9321 20.7306 42.9283 18.593 42.9359 16.4563C42.9369 16.0921 42.9426 15.7206 43.0217 15.3683C43.0742 15.1325 43.2925 14.9252 43.5861 15.0096C44.1305 15.1655 44.6854 15.316 45.1954 15.5499C49.0899 17.3426 52.8338 19.4086 56.6148 21.4067C56.7817 21.4948 56.9428 21.5948 57.0963 21.7021C58.3662 22.5892 58.4663 23.4021 57.0095 24.1672C55.4517 24.9855 53.9225 25.8561 52.3619 26.6708C49.9642 27.9212 47.5493 29.1432 45.142 30.3762C45.0305 30.434 44.9161 30.4872 44.8007 30.5377C43.344 31.1716 42.9588 30.9688 42.9378 29.4625C42.9073 27.2643 42.9302 25.0662 42.9302 22.8681C42.9312 22.8681 42.9331 22.8681 42.934 22.8681L42.9321 22.8672Z" fill="#F8FBFD"/>
<path d="M25.9289 241.555C25.9289 239.659 25.9261 237.764 25.9318 235.868C25.9328 235.502 25.9442 235.134 25.9957 234.773C26.0472 234.416 26.3236 234.252 26.6745 234.297C26.9824 234.336 27.3037 234.407 27.5773 234.543C31.4156 236.449 35.2491 238.363 39.0749 240.292C39.5764 240.545 40.0588 240.856 40.4859 241.212C40.9836 241.627 40.8892 242.265 40.3048 242.582C39.7528 242.882 39.1607 243.112 38.5982 243.398C34.8896 245.277 31.1858 247.164 27.4782 249.042C27.257 249.154 27.0215 249.271 26.7803 249.308C26.4428 249.36 26.1196 249.233 26.0538 248.884C25.9747 248.466 25.9594 248.033 25.9575 247.607C25.949 245.589 25.9537 243.571 25.9537 241.554H25.9299L25.9289 241.555Z" fill="#F9FDFD"/>
<path d="M188.772 217.827C188.697 215.943 188.628 214.422 188.581 212.9C188.563 212.314 188.871 212.155 189.42 212.429C189.588 212.512 189.772 212.584 189.912 212.701C191.852 214.336 194.219 215.236 196.507 216.276C197.02 216.509 197.528 216.765 198.005 217.058C198.456 217.336 198.497 217.798 198.123 218.134C197.849 218.381 197.553 218.624 197.225 218.796C194.668 220.135 192.02 221.312 189.553 222.811C189.447 222.875 189.322 222.91 189.204 222.953C188.87 223.075 188.515 222.893 188.523 222.573C188.542 221.72 188.584 220.869 188.631 220.018C188.677 219.166 188.74 218.317 188.773 217.827H188.772Z" fill="#F4F9FA"/>
<path d="M237.643 198.367C237.643 196.596 237.631 194.823 237.651 193.052C237.657 192.508 238.009 192.289 238.535 192.463C238.893 192.581 239.245 192.729 239.583 192.895C242.241 194.198 244.901 195.499 247.549 196.824C248.164 197.131 248.816 197.408 249.296 197.915C249.482 198.111 249.519 198.385 249.315 198.573C249.044 198.822 248.737 199.048 248.412 199.227C245.323 200.918 242.226 202.599 239.132 204.282C239.021 204.341 238.91 204.403 238.794 204.451C238.218 204.684 237.762 204.446 237.713 203.865C237.678 203.44 237.68 203.011 237.679 202.584C237.675 201.178 237.677 199.773 237.677 198.367C237.665 198.367 237.655 198.367 237.643 198.367Z" fill="#EEFAFD"/>
<path d="M186.309 104.666C186.309 103.569 186.272 102.472 186.32 101.379C186.367 100.279 186.849 100.012 187.951 100.391C188.07 100.433 188.185 100.483 188.299 100.538C190.332 101.524 192.388 102.468 194.39 103.511C195.798 104.244 195.789 104.79 194.432 105.511C192.384 106.6 190.313 107.651 188.245 108.704C187.914 108.873 187.549 108.998 187.185 109.086C186.836 109.17 186.551 109.006 186.467 108.666C186.381 108.315 186.332 107.949 186.324 107.588C186.305 106.614 186.318 105.64 186.318 104.666H186.309Z" fill="#F5F9FA"/>
<path d="M61.5293 113.839C61.5293 112.99 61.5121 112.139 61.535 111.291C61.555 110.555 61.8715 110.358 62.6352 110.568C62.8773 110.635 63.1099 110.73 63.3454 110.817C65.3542 111.565 67.2218 112.576 69.0551 113.651C69.2668 113.776 69.4803 113.92 69.4927 114.195C69.507 114.515 69.2325 114.588 69.0027 114.651C66.9215 115.22 65.0338 116.197 63.1567 117.197C62.9374 117.313 62.7086 117.419 62.4731 117.501C61.9926 117.67 61.5722 117.439 61.5302 116.931C61.4721 116.207 61.4787 115.478 61.4625 114.75C61.4559 114.447 61.4616 114.144 61.4616 113.84C61.4845 113.84 61.5064 113.84 61.5293 113.84V113.839Z" fill="#EDEFEF"/>
</svg>
